%TF.GenerationSoftware,KiCad,Pcbnew,(6.0.2)*%
%TF.CreationDate,2022-06-12T16:08:13+02:00*%
%TF.ProjectId,robo-rocket,726f626f-2d72-46f6-936b-65742e6b6963,rev?*%
%TF.SameCoordinates,Original*%
%TF.FileFunction,Legend,Bot*%
%TF.FilePolarity,Positive*%
%FSLAX46Y46*%
G04 Gerber Fmt 4.6, Leading zero omitted, Abs format (unit mm)*
G04 Created by KiCad (PCBNEW (6.0.2)) date 2022-06-12 16:08:13*
%MOMM*%
%LPD*%
G01*
G04 APERTURE LIST*
G04 Aperture macros list*
%AMRoundRect*
0 Rectangle with rounded corners*
0 $1 Rounding radius*
0 $2 $3 $4 $5 $6 $7 $8 $9 X,Y pos of 4 corners*
0 Add a 4 corners polygon primitive as box body*
4,1,4,$2,$3,$4,$5,$6,$7,$8,$9,$2,$3,0*
0 Add four circle primitives for the rounded corners*
1,1,$1+$1,$2,$3*
1,1,$1+$1,$4,$5*
1,1,$1+$1,$6,$7*
1,1,$1+$1,$8,$9*
0 Add four rect primitives between the rounded corners*
20,1,$1+$1,$2,$3,$4,$5,0*
20,1,$1+$1,$4,$5,$6,$7,0*
20,1,$1+$1,$6,$7,$8,$9,0*
20,1,$1+$1,$8,$9,$2,$3,0*%
G04 Aperture macros list end*
%ADD10C,0.150000*%
%ADD11C,0.120000*%
%ADD12C,0.126504*%
%ADD13RoundRect,0.750000X0.750000X-1.750000X0.750000X1.750000X-0.750000X1.750000X-0.750000X-1.750000X0*%
%ADD14RoundRect,0.750000X1.177378X-1.496256X0.271511X1.884484X-1.177378X1.496256X-0.271511X-1.884484X0*%
%ADD15RoundRect,0.750000X0.271511X-1.884484X1.177378X1.496256X-0.271511X1.884484X-1.177378X-1.496256X0*%
G04 APERTURE END LIST*
D10*
X79951904Y-42532380D02*
X79332857Y-42532380D01*
X79666190Y-42913333D01*
X79523333Y-42913333D01*
X79428095Y-42960952D01*
X79380476Y-43008571D01*
X79332857Y-43103809D01*
X79332857Y-43341904D01*
X79380476Y-43437142D01*
X79428095Y-43484761D01*
X79523333Y-43532380D01*
X79809047Y-43532380D01*
X79904285Y-43484761D01*
X79951904Y-43437142D01*
X79047142Y-42532380D02*
X78713809Y-43532380D01*
X78380476Y-42532380D01*
X84551904Y-43813333D02*
X84599523Y-43765714D01*
X84694761Y-43622857D01*
X84742380Y-43527619D01*
X84790000Y-43384761D01*
X84837619Y-43146666D01*
X84837619Y-42956190D01*
X84790000Y-42718095D01*
X84742380Y-42575238D01*
X84694761Y-42480000D01*
X84599523Y-42337142D01*
X84551904Y-42289523D01*
X84170952Y-43051428D02*
X83409047Y-43051428D01*
X83028095Y-43813333D02*
X82980476Y-43765714D01*
X82885238Y-43622857D01*
X82837619Y-43527619D01*
X82790000Y-43384761D01*
X82742380Y-43146666D01*
X82742380Y-42956190D01*
X82790000Y-42718095D01*
X82837619Y-42575238D01*
X82885238Y-42480000D01*
X82980476Y-42337142D01*
X83028095Y-42289523D01*
X74551904Y-43713333D02*
X74599523Y-43665714D01*
X74694761Y-43522857D01*
X74742380Y-43427619D01*
X74790000Y-43284761D01*
X74837619Y-43046666D01*
X74837619Y-42856190D01*
X74790000Y-42618095D01*
X74742380Y-42475238D01*
X74694761Y-42380000D01*
X74599523Y-42237142D01*
X74551904Y-42189523D01*
X74170952Y-42951428D02*
X73409047Y-42951428D01*
X73790000Y-43332380D02*
X73790000Y-42570476D01*
X73028095Y-43713333D02*
X72980476Y-43665714D01*
X72885238Y-43522857D01*
X72837619Y-43427619D01*
X72790000Y-43284761D01*
X72742380Y-43046666D01*
X72742380Y-42856190D01*
X72790000Y-42618095D01*
X72837619Y-42475238D01*
X72885238Y-42380000D01*
X72980476Y-42237142D01*
X73028095Y-42189523D01*
%TO.C,R101*%
X87542380Y-86960952D02*
X87066190Y-86627619D01*
X87542380Y-86389523D02*
X86542380Y-86389523D01*
X86542380Y-86770476D01*
X86590000Y-86865714D01*
X86637619Y-86913333D01*
X86732857Y-86960952D01*
X86875714Y-86960952D01*
X86970952Y-86913333D01*
X87018571Y-86865714D01*
X87066190Y-86770476D01*
X87066190Y-86389523D01*
X87542380Y-87913333D02*
X87542380Y-87341904D01*
X87542380Y-87627619D02*
X86542380Y-87627619D01*
X86685238Y-87532380D01*
X86780476Y-87437142D01*
X86828095Y-87341904D01*
X86542380Y-88532380D02*
X86542380Y-88627619D01*
X86590000Y-88722857D01*
X86637619Y-88770476D01*
X86732857Y-88818095D01*
X86923333Y-88865714D01*
X87161428Y-88865714D01*
X87351904Y-88818095D01*
X87447142Y-88770476D01*
X87494761Y-88722857D01*
X87542380Y-88627619D01*
X87542380Y-88532380D01*
X87494761Y-88437142D01*
X87447142Y-88389523D01*
X87351904Y-88341904D01*
X87161428Y-88294285D01*
X86923333Y-88294285D01*
X86732857Y-88341904D01*
X86637619Y-88389523D01*
X86590000Y-88437142D01*
X86542380Y-88532380D01*
X87542380Y-89818095D02*
X87542380Y-89246666D01*
X87542380Y-89532380D02*
X86542380Y-89532380D01*
X86685238Y-89437142D01*
X86780476Y-89341904D01*
X86828095Y-89246666D01*
%TO.C,D101*%
X89441985Y-68386438D02*
X88476059Y-68645257D01*
X88537682Y-68875239D01*
X88620653Y-69000904D01*
X88737295Y-69068248D01*
X88841613Y-69089595D01*
X89037923Y-69086292D01*
X89175913Y-69049318D01*
X89347574Y-68954023D01*
X89427242Y-68883377D01*
X89494586Y-68766735D01*
X89503608Y-68616420D01*
X89441985Y-68386438D01*
X89836375Y-69858325D02*
X89688479Y-69306367D01*
X89762427Y-69582346D02*
X88796501Y-69841165D01*
X88909841Y-69712198D01*
X88977185Y-69595556D01*
X88998532Y-69491238D01*
X89030671Y-70715098D02*
X89055320Y-70807091D01*
X89125966Y-70886759D01*
X89184287Y-70920431D01*
X89288605Y-70941778D01*
X89484916Y-70938476D01*
X89714898Y-70876852D01*
X89886559Y-70781557D01*
X89966227Y-70710911D01*
X89999899Y-70652590D01*
X90021246Y-70548272D01*
X89996597Y-70456279D01*
X89925951Y-70376611D01*
X89867630Y-70342939D01*
X89763312Y-70321592D01*
X89567001Y-70324895D01*
X89337019Y-70386518D01*
X89165358Y-70481813D01*
X89085690Y-70552459D01*
X89052018Y-70610781D01*
X89030671Y-70715098D01*
X90329364Y-71698184D02*
X90181467Y-71146226D01*
X90255416Y-71422205D02*
X89289490Y-71681024D01*
X89402830Y-71552057D01*
X89470173Y-71435415D01*
X89491520Y-71331097D01*
X93881374Y-73266264D02*
X93915045Y-73207943D01*
X93970064Y-73045304D01*
X93991411Y-72940987D01*
X94000433Y-72790672D01*
X93984806Y-72548365D01*
X93935507Y-72364380D01*
X93827887Y-72146722D01*
X93744917Y-72021057D01*
X93674271Y-71941389D01*
X93545304Y-71828049D01*
X93486983Y-71794377D01*
X93316206Y-72628918D02*
X92580263Y-72826114D01*
X92409487Y-73660655D02*
X92351165Y-73626983D01*
X92222198Y-73513643D01*
X92151552Y-73433975D01*
X92068582Y-73308311D01*
X91960962Y-73090653D01*
X91911663Y-72906667D01*
X91896036Y-72664360D01*
X91905058Y-72514046D01*
X91926405Y-72409728D01*
X91981424Y-72247089D01*
X92015096Y-72188768D01*
X88568782Y-74689769D02*
X88602453Y-74631448D01*
X88657472Y-74468809D01*
X88678819Y-74364492D01*
X88687841Y-74214177D01*
X88672214Y-73971870D01*
X88622915Y-73787885D01*
X88515295Y-73570227D01*
X88432325Y-73444562D01*
X88361679Y-73364894D01*
X88232712Y-73251554D01*
X88174391Y-73217882D01*
X88003614Y-74052423D02*
X87267671Y-74249619D01*
X87734240Y-74518993D02*
X87537045Y-73783049D01*
X87096895Y-75084160D02*
X87038573Y-75050488D01*
X86909606Y-74937148D01*
X86838960Y-74857480D01*
X86755990Y-74731816D01*
X86648370Y-74514158D01*
X86599071Y-74330172D01*
X86583444Y-74087865D01*
X86592466Y-73937551D01*
X86613813Y-73833233D01*
X86668832Y-73670594D01*
X86702504Y-73612273D01*
%TO.C,D102*%
X70034817Y-68691720D02*
X69068892Y-68432901D01*
X69007268Y-68662883D01*
X69016290Y-68813197D01*
X69083634Y-68929839D01*
X69163302Y-69000485D01*
X69334963Y-69095781D01*
X69472953Y-69132755D01*
X69669263Y-69136057D01*
X69773581Y-69114710D01*
X69890223Y-69047367D01*
X69973194Y-68921702D01*
X70034817Y-68691720D01*
X69640426Y-70163607D02*
X69788323Y-69611649D01*
X69714375Y-69887628D02*
X68748449Y-69628809D01*
X68911088Y-69573790D01*
X69027730Y-69506447D01*
X69098376Y-69426778D01*
X68514279Y-70502742D02*
X68489630Y-70594735D01*
X68510977Y-70699052D01*
X68544649Y-70757373D01*
X68624317Y-70828019D01*
X68795978Y-70923315D01*
X69025960Y-70984938D01*
X69222271Y-70988241D01*
X69326589Y-70966894D01*
X69384910Y-70933222D01*
X69455556Y-70853554D01*
X69480205Y-70761561D01*
X69458858Y-70657243D01*
X69425186Y-70598922D01*
X69345518Y-70528276D01*
X69173857Y-70432981D01*
X68943875Y-70371357D01*
X68747564Y-70368055D01*
X68643246Y-70389402D01*
X68584925Y-70423073D01*
X68514279Y-70502742D01*
X68421402Y-71217338D02*
X68363080Y-71251010D01*
X68292434Y-71330678D01*
X68230811Y-71560660D01*
X68252158Y-71664978D01*
X68285830Y-71723299D01*
X68365498Y-71793945D01*
X68457491Y-71818595D01*
X68607805Y-71809572D01*
X69307659Y-71405511D01*
X69147438Y-72003465D01*
X66073919Y-73634773D02*
X66132241Y-73601101D01*
X66261208Y-73487761D01*
X66331854Y-73408093D01*
X66414824Y-73282429D01*
X66522444Y-73064771D01*
X66571743Y-72880785D01*
X66587370Y-72638478D01*
X66578348Y-72488164D01*
X66557001Y-72383846D01*
X66501982Y-72221207D01*
X66468310Y-72162886D01*
X65903143Y-72800232D02*
X65167200Y-72603036D01*
X65436574Y-73069606D02*
X65633769Y-72333662D01*
X64602032Y-73240382D02*
X64568361Y-73182061D01*
X64513342Y-73019422D01*
X64491995Y-72915105D01*
X64482973Y-72764790D01*
X64498600Y-72522483D01*
X64547899Y-72338498D01*
X64655519Y-72120840D01*
X64738489Y-71995175D01*
X64809135Y-71915507D01*
X64938102Y-71802167D01*
X64996423Y-71768495D01*
X71386511Y-75058278D02*
X71444833Y-75024606D01*
X71573800Y-74911266D01*
X71644446Y-74831598D01*
X71727416Y-74705934D01*
X71835036Y-74488276D01*
X71884335Y-74304290D01*
X71899962Y-74061983D01*
X71890940Y-73911669D01*
X71869593Y-73807351D01*
X71814574Y-73644712D01*
X71780902Y-73586391D01*
X71215735Y-74223737D02*
X70479792Y-74026541D01*
X69914624Y-74663887D02*
X69880953Y-74605566D01*
X69825934Y-74442927D01*
X69804587Y-74338610D01*
X69795565Y-74188295D01*
X69811192Y-73945988D01*
X69860491Y-73762003D01*
X69968111Y-73544345D01*
X70051081Y-73418680D01*
X70121727Y-73339012D01*
X70250694Y-73225672D01*
X70309015Y-73192000D01*
%TO.C,R102*%
X72442380Y-86960952D02*
X71966190Y-86627619D01*
X72442380Y-86389523D02*
X71442380Y-86389523D01*
X71442380Y-86770476D01*
X71490000Y-86865714D01*
X71537619Y-86913333D01*
X71632857Y-86960952D01*
X71775714Y-86960952D01*
X71870952Y-86913333D01*
X71918571Y-86865714D01*
X71966190Y-86770476D01*
X71966190Y-86389523D01*
X72442380Y-87913333D02*
X72442380Y-87341904D01*
X72442380Y-87627619D02*
X71442380Y-87627619D01*
X71585238Y-87532380D01*
X71680476Y-87437142D01*
X71728095Y-87341904D01*
X71442380Y-88532380D02*
X71442380Y-88627619D01*
X71490000Y-88722857D01*
X71537619Y-88770476D01*
X71632857Y-88818095D01*
X71823333Y-88865714D01*
X72061428Y-88865714D01*
X72251904Y-88818095D01*
X72347142Y-88770476D01*
X72394761Y-88722857D01*
X72442380Y-88627619D01*
X72442380Y-88532380D01*
X72394761Y-88437142D01*
X72347142Y-88389523D01*
X72251904Y-88341904D01*
X72061428Y-88294285D01*
X71823333Y-88294285D01*
X71632857Y-88341904D01*
X71537619Y-88389523D01*
X71490000Y-88437142D01*
X71442380Y-88532380D01*
X71537619Y-89246666D02*
X71490000Y-89294285D01*
X71442380Y-89389523D01*
X71442380Y-89627619D01*
X71490000Y-89722857D01*
X71537619Y-89770476D01*
X71632857Y-89818095D01*
X71728095Y-89818095D01*
X71870952Y-89770476D01*
X72442380Y-89199047D01*
X72442380Y-89818095D01*
D11*
%TO.C,R101*%
X88060000Y-90120000D02*
X88060000Y-86120000D01*
X87060000Y-86120000D02*
X86060000Y-86120000D01*
X88060000Y-86120000D02*
X87060000Y-86120000D01*
X87060000Y-83320000D02*
X87060000Y-86120000D01*
X86060000Y-86120000D02*
X86060000Y-90120000D01*
X86060000Y-90120000D02*
X88060000Y-90120000D01*
X87060000Y-90120000D02*
X87060000Y-92820000D01*
%TO.C,R102*%
X72980000Y-90120000D02*
X72980000Y-86120000D01*
X71980000Y-86120000D02*
X70980000Y-86120000D01*
X71980000Y-90120000D02*
X71980000Y-92820000D01*
X70980000Y-90120000D02*
X72980000Y-90120000D01*
X72980000Y-86120000D02*
X71980000Y-86120000D01*
X71980000Y-83320000D02*
X71980000Y-86120000D01*
X70980000Y-86120000D02*
X70980000Y-90120000D01*
%TD*%
%LPC*%
D12*
X82193090Y-67771007D02*
X82418293Y-67699841D01*
X82418293Y-67699841D02*
X82660976Y-67612455D01*
X82660976Y-67612455D02*
X82918249Y-67510416D01*
X82918249Y-67510416D02*
X83187218Y-67395287D01*
X83187218Y-67395287D02*
X83464993Y-67268635D01*
X83464993Y-67268635D02*
X83748680Y-67132023D01*
X83748680Y-67132023D02*
X84322226Y-66835180D01*
X84322226Y-66835180D02*
X84884719Y-66517281D01*
X84884719Y-66517281D02*
X85154591Y-66354347D01*
X85154591Y-66354347D02*
X85413024Y-66190843D01*
X85413024Y-66190843D02*
X85657127Y-66028335D01*
X85657127Y-66028335D02*
X85884006Y-65868388D01*
X85884006Y-65868388D02*
X86090770Y-65712566D01*
X86090770Y-65712566D02*
X86274527Y-65562434D01*
X86274527Y-65562434D02*
X86451502Y-65405074D01*
X86451502Y-65405074D02*
X86641443Y-65225945D01*
X86641443Y-65225945D02*
X86838417Y-65031280D01*
X86838417Y-65031280D02*
X87036489Y-64827309D01*
X87036489Y-64827309D02*
X87229727Y-64620264D01*
X87229727Y-64620264D02*
X87412195Y-64416377D01*
X87412195Y-64416377D02*
X87577961Y-64221879D01*
X87577961Y-64221879D02*
X87721090Y-64043002D01*
X87721090Y-64043002D02*
X88112745Y-63502360D01*
X88112745Y-63502360D02*
X88467272Y-62949484D01*
X88467272Y-62949484D02*
X88785015Y-62385737D01*
X88785015Y-62385737D02*
X89066318Y-61812484D01*
X89066318Y-61812484D02*
X89311524Y-61231087D01*
X89311524Y-61231087D02*
X89520976Y-60642912D01*
X89520976Y-60642912D02*
X89695016Y-60049321D01*
X89695016Y-60049321D02*
X89833990Y-59451678D01*
X89833990Y-59451678D02*
X89938239Y-58851347D01*
X89938239Y-58851347D02*
X90008107Y-58249692D01*
X90008107Y-58249692D02*
X90043937Y-57648076D01*
X90043937Y-57648076D02*
X90046073Y-57047862D01*
X90046073Y-57047862D02*
X90014858Y-56450416D01*
X90014858Y-56450416D02*
X89950635Y-55857100D01*
X89950635Y-55857100D02*
X89853746Y-55269277D01*
X89853746Y-55269277D02*
X89724537Y-54688313D01*
X89724537Y-54688313D02*
X89563349Y-54115570D01*
X89563349Y-54115570D02*
X89370526Y-53552412D01*
X89370526Y-53552412D02*
X89146412Y-53000203D01*
X89146412Y-53000203D02*
X88891349Y-52460307D01*
X88891349Y-52460307D02*
X88605680Y-51934087D01*
X88605680Y-51934087D02*
X88289750Y-51422907D01*
X88289750Y-51422907D02*
X87943901Y-50928130D01*
X87943901Y-50928130D02*
X87568477Y-50451121D01*
X87568477Y-50451121D02*
X87163820Y-49993243D01*
X87163820Y-49993243D02*
X86730275Y-49555859D01*
X86730275Y-49555859D02*
X86268183Y-49140334D01*
X86268183Y-49140334D02*
X85777890Y-48748032D01*
X85777890Y-48748032D02*
X85259737Y-48380315D01*
X85259737Y-48380315D02*
X84714068Y-48038547D01*
X84714068Y-48038547D02*
X84141226Y-47724093D01*
X84141226Y-47724093D02*
X83541555Y-47438315D01*
X83541555Y-47438315D02*
X83247751Y-47311686D01*
X83247751Y-47311686D02*
X82964036Y-47196344D01*
X82964036Y-47196344D02*
X82688519Y-47091925D01*
X82688519Y-47091925D02*
X82419307Y-46998064D01*
X82419307Y-46998064D02*
X82154510Y-46914400D01*
X82154510Y-46914400D02*
X81892234Y-46840565D01*
X81892234Y-46840565D02*
X81630588Y-46776198D01*
X81630588Y-46776198D02*
X81367680Y-46720934D01*
X81367680Y-46720934D02*
X81101617Y-46674408D01*
X81101617Y-46674408D02*
X80830507Y-46636257D01*
X80830507Y-46636257D02*
X80552459Y-46606117D01*
X80552459Y-46606117D02*
X80265580Y-46583623D01*
X80265580Y-46583623D02*
X79967979Y-46568412D01*
X79967979Y-46568412D02*
X79657763Y-46560119D01*
X79657763Y-46560119D02*
X79333040Y-46558380D01*
X79333040Y-46558380D02*
X78991919Y-46562831D01*
X78991919Y-46562831D02*
X78445137Y-46585154D01*
X78445137Y-46585154D02*
X77913306Y-46628787D01*
X77913306Y-46628787D02*
X77395776Y-46694001D01*
X77395776Y-46694001D02*
X76891902Y-46781068D01*
X76891902Y-46781068D02*
X76401035Y-46890258D01*
X76401035Y-46890258D02*
X75922527Y-47021844D01*
X75922527Y-47021844D02*
X75455732Y-47176095D01*
X75455732Y-47176095D02*
X75000002Y-47353283D01*
X75000002Y-47353283D02*
X74554689Y-47553680D01*
X74554689Y-47553680D02*
X74119146Y-47777557D01*
X74119146Y-47777557D02*
X73692725Y-48025184D01*
X73692725Y-48025184D02*
X73274779Y-48296834D01*
X73274779Y-48296834D02*
X72864661Y-48592776D01*
X72864661Y-48592776D02*
X72461722Y-48913282D01*
X72461722Y-48913282D02*
X72065316Y-49258625D01*
X72065316Y-49258625D02*
X71674795Y-49629073D01*
X71674795Y-49629073D02*
X71360123Y-49952431D01*
X71360123Y-49952431D02*
X71061001Y-50285171D01*
X71061001Y-50285171D02*
X70777502Y-50626842D01*
X70777502Y-50626842D02*
X70509695Y-50976996D01*
X70509695Y-50976996D02*
X70257651Y-51335181D01*
X70257651Y-51335181D02*
X70021441Y-51700947D01*
X70021441Y-51700947D02*
X69801136Y-52073845D01*
X69801136Y-52073845D02*
X69596806Y-52453423D01*
X69596806Y-52453423D02*
X69408522Y-52839232D01*
X69408522Y-52839232D02*
X69236355Y-53230822D01*
X69236355Y-53230822D02*
X68940654Y-54029543D01*
X68940654Y-54029543D02*
X68710269Y-54845984D01*
X68710269Y-54845984D02*
X68545765Y-55676544D01*
X68545765Y-55676544D02*
X68447708Y-56517622D01*
X68447708Y-56517622D02*
X68416664Y-57365615D01*
X68416664Y-57365615D02*
X68453199Y-58216923D01*
X68453199Y-58216923D02*
X68496985Y-58642694D01*
X68496985Y-58642694D02*
X68557877Y-59067944D01*
X68557877Y-59067944D02*
X68635947Y-59492221D01*
X68635947Y-59492221D02*
X68731266Y-59915076D01*
X68731266Y-59915076D02*
X68843903Y-60336059D01*
X68843903Y-60336059D02*
X68973930Y-60754719D01*
X68973930Y-60754719D02*
X69121417Y-61170606D01*
X69121417Y-61170606D02*
X69286435Y-61583270D01*
X69286435Y-61583270D02*
X69469055Y-61992261D01*
X69469055Y-61992261D02*
X69669348Y-62397128D01*
X69669348Y-62397128D02*
X69956376Y-62910980D01*
X69956376Y-62910980D02*
X70274341Y-63408150D01*
X70274341Y-63408150D02*
X70621686Y-63887471D01*
X70621686Y-63887471D02*
X70996855Y-64347778D01*
X70996855Y-64347778D02*
X71398291Y-64787905D01*
X71398291Y-64787905D02*
X71824439Y-65206687D01*
X71824439Y-65206687D02*
X72273742Y-65602958D01*
X72273742Y-65602958D02*
X72744644Y-65975552D01*
X72744644Y-65975552D02*
X73235590Y-66323303D01*
X73235590Y-66323303D02*
X73745022Y-66645046D01*
X73745022Y-66645046D02*
X74271385Y-66939615D01*
X74271385Y-66939615D02*
X74813123Y-67205845D01*
X74813123Y-67205845D02*
X75368679Y-67442569D01*
X75368679Y-67442569D02*
X75936498Y-67648623D01*
X75936498Y-67648623D02*
X76515023Y-67822839D01*
X76515023Y-67822839D02*
X77102697Y-67964053D01*
X77102697Y-67964053D02*
X77323131Y-68001919D01*
X77323131Y-68001919D02*
X77583067Y-68032123D01*
X77583067Y-68032123D02*
X77876831Y-68054880D01*
X77876831Y-68054880D02*
X78198751Y-68070407D01*
X78198751Y-68070407D02*
X78904368Y-68080626D01*
X78904368Y-68080626D02*
X79654535Y-68064502D01*
X79654535Y-68064502D02*
X80403872Y-68023756D01*
X80403872Y-68023756D02*
X81106995Y-67960109D01*
X81106995Y-67960109D02*
X81427045Y-67920236D01*
X81427045Y-67920236D02*
X81718524Y-67875283D01*
X81718524Y-67875283D02*
X81975758Y-67825466D01*
X81975758Y-67825466D02*
X82193075Y-67770999D01*
X82193075Y-67770999D02*
X82193090Y-67771007D01*
X82193090Y-67771007D02*
X82193090Y-67771007D01*
G36*
X79657763Y-46560119D02*
G01*
X79967979Y-46568412D01*
X80265580Y-46583623D01*
X80552459Y-46606117D01*
X80830507Y-46636257D01*
X81101617Y-46674408D01*
X81367680Y-46720934D01*
X81630588Y-46776198D01*
X81892234Y-46840565D01*
X82154510Y-46914400D01*
X82419307Y-46998064D01*
X82688519Y-47091925D01*
X82964036Y-47196344D01*
X83247751Y-47311686D01*
X83541555Y-47438315D01*
X84141226Y-47724093D01*
X84714068Y-48038547D01*
X85259737Y-48380315D01*
X85777890Y-48748032D01*
X86268183Y-49140334D01*
X86730275Y-49555859D01*
X87163820Y-49993243D01*
X87568477Y-50451121D01*
X87943901Y-50928130D01*
X88289750Y-51422907D01*
X88605680Y-51934087D01*
X88891349Y-52460307D01*
X89146412Y-53000203D01*
X89370526Y-53552412D01*
X89563349Y-54115570D01*
X89724537Y-54688313D01*
X89853746Y-55269277D01*
X89950635Y-55857100D01*
X90014858Y-56450416D01*
X90046073Y-57047862D01*
X90043937Y-57648076D01*
X90008107Y-58249692D01*
X89938239Y-58851347D01*
X89833990Y-59451678D01*
X89695016Y-60049321D01*
X89520976Y-60642912D01*
X89311524Y-61231087D01*
X89066318Y-61812484D01*
X88785015Y-62385737D01*
X88467272Y-62949484D01*
X88112745Y-63502360D01*
X87721090Y-64043002D01*
X87577961Y-64221879D01*
X87412195Y-64416377D01*
X87229727Y-64620264D01*
X87036489Y-64827309D01*
X86838417Y-65031280D01*
X86641443Y-65225945D01*
X86451502Y-65405074D01*
X86274527Y-65562434D01*
X86090770Y-65712566D01*
X85884006Y-65868388D01*
X85657127Y-66028335D01*
X85413024Y-66190843D01*
X85154591Y-66354347D01*
X84884719Y-66517281D01*
X84322226Y-66835180D01*
X83748680Y-67132023D01*
X83464993Y-67268635D01*
X83187218Y-67395287D01*
X82918249Y-67510416D01*
X82660976Y-67612455D01*
X82418293Y-67699841D01*
X82193090Y-67771007D01*
X82193075Y-67770999D01*
X81975758Y-67825466D01*
X81718524Y-67875283D01*
X81427045Y-67920236D01*
X81106995Y-67960109D01*
X80403872Y-68023756D01*
X79654535Y-68064502D01*
X78904368Y-68080626D01*
X78198751Y-68070407D01*
X77876831Y-68054880D01*
X77583067Y-68032123D01*
X77323131Y-68001919D01*
X77102697Y-67964053D01*
X76515023Y-67822839D01*
X75936498Y-67648623D01*
X75368679Y-67442569D01*
X74813123Y-67205845D01*
X74271385Y-66939615D01*
X73745022Y-66645046D01*
X73235590Y-66323303D01*
X72744644Y-65975552D01*
X72273742Y-65602958D01*
X71824439Y-65206687D01*
X71398291Y-64787905D01*
X70996855Y-64347778D01*
X70621686Y-63887471D01*
X70274341Y-63408150D01*
X69956376Y-62910980D01*
X69669348Y-62397128D01*
X69469055Y-61992261D01*
X69286435Y-61583270D01*
X69121417Y-61170606D01*
X68973930Y-60754719D01*
X68843903Y-60336059D01*
X68731266Y-59915076D01*
X68635947Y-59492221D01*
X68557877Y-59067944D01*
X68496985Y-58642694D01*
X68453199Y-58216923D01*
X68416664Y-57365615D01*
X68447708Y-56517622D01*
X68545765Y-55676544D01*
X68710269Y-54845984D01*
X68940654Y-54029543D01*
X69236355Y-53230822D01*
X69408522Y-52839232D01*
X69596806Y-52453423D01*
X69801136Y-52073845D01*
X70021441Y-51700947D01*
X70257651Y-51335181D01*
X70509695Y-50976996D01*
X70777502Y-50626842D01*
X71061001Y-50285171D01*
X71360123Y-49952431D01*
X71674795Y-49629073D01*
X72065316Y-49258625D01*
X72461722Y-48913282D01*
X72864661Y-48592776D01*
X73274779Y-48296834D01*
X73692725Y-48025184D01*
X74119146Y-47777557D01*
X74554689Y-47553680D01*
X75000002Y-47353283D01*
X75455732Y-47176095D01*
X75922527Y-47021844D01*
X76401035Y-46890258D01*
X76891902Y-46781068D01*
X77395776Y-46694001D01*
X77913306Y-46628787D01*
X78445137Y-46585154D01*
X78991919Y-46562831D01*
X79333040Y-46558380D01*
X79657763Y-46560119D01*
G37*
X79657763Y-46560119D02*
X79967979Y-46568412D01*
X80265580Y-46583623D01*
X80552459Y-46606117D01*
X80830507Y-46636257D01*
X81101617Y-46674408D01*
X81367680Y-46720934D01*
X81630588Y-46776198D01*
X81892234Y-46840565D01*
X82154510Y-46914400D01*
X82419307Y-46998064D01*
X82688519Y-47091925D01*
X82964036Y-47196344D01*
X83247751Y-47311686D01*
X83541555Y-47438315D01*
X84141226Y-47724093D01*
X84714068Y-48038547D01*
X85259737Y-48380315D01*
X85777890Y-48748032D01*
X86268183Y-49140334D01*
X86730275Y-49555859D01*
X87163820Y-49993243D01*
X87568477Y-50451121D01*
X87943901Y-50928130D01*
X88289750Y-51422907D01*
X88605680Y-51934087D01*
X88891349Y-52460307D01*
X89146412Y-53000203D01*
X89370526Y-53552412D01*
X89563349Y-54115570D01*
X89724537Y-54688313D01*
X89853746Y-55269277D01*
X89950635Y-55857100D01*
X90014858Y-56450416D01*
X90046073Y-57047862D01*
X90043937Y-57648076D01*
X90008107Y-58249692D01*
X89938239Y-58851347D01*
X89833990Y-59451678D01*
X89695016Y-60049321D01*
X89520976Y-60642912D01*
X89311524Y-61231087D01*
X89066318Y-61812484D01*
X88785015Y-62385737D01*
X88467272Y-62949484D01*
X88112745Y-63502360D01*
X87721090Y-64043002D01*
X87577961Y-64221879D01*
X87412195Y-64416377D01*
X87229727Y-64620264D01*
X87036489Y-64827309D01*
X86838417Y-65031280D01*
X86641443Y-65225945D01*
X86451502Y-65405074D01*
X86274527Y-65562434D01*
X86090770Y-65712566D01*
X85884006Y-65868388D01*
X85657127Y-66028335D01*
X85413024Y-66190843D01*
X85154591Y-66354347D01*
X84884719Y-66517281D01*
X84322226Y-66835180D01*
X83748680Y-67132023D01*
X83464993Y-67268635D01*
X83187218Y-67395287D01*
X82918249Y-67510416D01*
X82660976Y-67612455D01*
X82418293Y-67699841D01*
X82193090Y-67771007D01*
X82193075Y-67770999D01*
X81975758Y-67825466D01*
X81718524Y-67875283D01*
X81427045Y-67920236D01*
X81106995Y-67960109D01*
X80403872Y-68023756D01*
X79654535Y-68064502D01*
X78904368Y-68080626D01*
X78198751Y-68070407D01*
X77876831Y-68054880D01*
X77583067Y-68032123D01*
X77323131Y-68001919D01*
X77102697Y-67964053D01*
X76515023Y-67822839D01*
X75936498Y-67648623D01*
X75368679Y-67442569D01*
X74813123Y-67205845D01*
X74271385Y-66939615D01*
X73745022Y-66645046D01*
X73235590Y-66323303D01*
X72744644Y-65975552D01*
X72273742Y-65602958D01*
X71824439Y-65206687D01*
X71398291Y-64787905D01*
X70996855Y-64347778D01*
X70621686Y-63887471D01*
X70274341Y-63408150D01*
X69956376Y-62910980D01*
X69669348Y-62397128D01*
X69469055Y-61992261D01*
X69286435Y-61583270D01*
X69121417Y-61170606D01*
X68973930Y-60754719D01*
X68843903Y-60336059D01*
X68731266Y-59915076D01*
X68635947Y-59492221D01*
X68557877Y-59067944D01*
X68496985Y-58642694D01*
X68453199Y-58216923D01*
X68416664Y-57365615D01*
X68447708Y-56517622D01*
X68545765Y-55676544D01*
X68710269Y-54845984D01*
X68940654Y-54029543D01*
X69236355Y-53230822D01*
X69408522Y-52839232D01*
X69596806Y-52453423D01*
X69801136Y-52073845D01*
X70021441Y-51700947D01*
X70257651Y-51335181D01*
X70509695Y-50976996D01*
X70777502Y-50626842D01*
X71061001Y-50285171D01*
X71360123Y-49952431D01*
X71674795Y-49629073D01*
X72065316Y-49258625D01*
X72461722Y-48913282D01*
X72864661Y-48592776D01*
X73274779Y-48296834D01*
X73692725Y-48025184D01*
X74119146Y-47777557D01*
X74554689Y-47553680D01*
X75000002Y-47353283D01*
X75455732Y-47176095D01*
X75922527Y-47021844D01*
X76401035Y-46890258D01*
X76891902Y-46781068D01*
X77395776Y-46694001D01*
X77913306Y-46628787D01*
X78445137Y-46585154D01*
X78991919Y-46562831D01*
X79333040Y-46558380D01*
X79657763Y-46560119D01*
D13*
%TO.C,R101*%
X87060000Y-80620000D03*
X87060000Y-95620000D03*
%TD*%
D14*
%TO.C,D101*%
X91998000Y-69181189D03*
X86782000Y-70578812D03*
%TD*%
D13*
%TO.C,J101*%
X70540000Y-42960000D03*
%TD*%
D15*
%TO.C,D102*%
X71798000Y-70578812D03*
X66582000Y-69181189D03*
%TD*%
D13*
%TO.C,J102*%
X87130000Y-43180000D03*
%TD*%
%TO.C,R102*%
X71980000Y-80620000D03*
X71980000Y-95620000D03*
%TD*%
M02*
