%TF.GenerationSoftware,KiCad,Pcbnew,(6.0.2)*%
%TF.CreationDate,2022-06-12T16:08:13+02:00*%
%TF.ProjectId,robo-rocket,726f626f-2d72-46f6-936b-65742e6b6963,rev?*%
%TF.SameCoordinates,Original*%
%TF.FileFunction,Copper,L1,Top*%
%TF.FilePolarity,Positive*%
%FSLAX46Y46*%
G04 Gerber Fmt 4.6, Leading zero omitted, Abs format (unit mm)*
G04 Created by KiCad (PCBNEW (6.0.2)) date 2022-06-12 16:08:13*
%MOMM*%
%LPD*%
G01*
G04 APERTURE LIST*
%TA.AperFunction,NonConductor*%
%ADD10C,0.010000*%
%TD*%
G04 APERTURE END LIST*
D10*
X81540878Y-50670375D02*
X81607422Y-50737564D01*
X81607422Y-50737564D02*
X81678074Y-50807797D01*
X81678074Y-50807797D02*
X81751514Y-50879332D01*
X81751514Y-50879332D02*
X81835785Y-50960371D01*
X81835785Y-50960371D02*
X81918095Y-51037813D01*
X81918095Y-51037813D02*
X82065400Y-51173019D01*
X82065400Y-51173019D02*
X82210690Y-51302511D01*
X82210690Y-51302511D02*
X82190902Y-51319981D01*
X82190902Y-51319981D02*
X82168049Y-51339848D01*
X82168049Y-51339848D02*
X82138228Y-51365386D01*
X82138228Y-51365386D02*
X82102694Y-51395279D01*
X82102694Y-51395279D02*
X82062700Y-51428215D01*
X82062700Y-51428215D02*
X82019501Y-51462879D01*
X82019501Y-51462879D02*
X81997092Y-51480449D01*
X81997092Y-51480449D02*
X81974352Y-51497959D01*
X81974352Y-51497959D02*
X81799055Y-51614954D01*
X81799055Y-51614954D02*
X81781439Y-51625557D01*
X81781439Y-51625557D02*
X81765428Y-51634888D01*
X81765428Y-51634888D02*
X81751252Y-51642903D01*
X81751252Y-51642903D02*
X81739139Y-51649558D01*
X81739139Y-51649558D02*
X81722020Y-51658616D01*
X81722020Y-51658616D02*
X81715906Y-51661713D01*
X81715906Y-51661713D02*
X81695037Y-51612200D01*
X81695037Y-51612200D02*
X81638896Y-51482332D01*
X81638896Y-51482332D02*
X81600631Y-51396017D01*
X81600631Y-51396017D02*
X81557187Y-51300117D01*
X81557187Y-51300117D02*
X81509776Y-51198131D01*
X81509776Y-51198131D02*
X81459612Y-51093562D01*
X81459612Y-51093562D02*
X81415165Y-51002784D01*
X81415165Y-51002784D02*
X81370937Y-50914793D01*
X81370937Y-50914793D02*
X81328103Y-50831424D01*
X81328103Y-50831424D02*
X81287837Y-50754512D01*
X81287837Y-50754512D02*
X81313264Y-50737992D01*
X81313264Y-50737992D02*
X81338212Y-50720885D01*
X81338212Y-50720885D02*
X81362716Y-50703228D01*
X81362716Y-50703228D02*
X81386808Y-50685058D01*
X81386808Y-50685058D02*
X81410525Y-50666411D01*
X81410525Y-50666411D02*
X81433901Y-50647323D01*
X81433901Y-50647323D02*
X81456969Y-50627832D01*
X81456969Y-50627832D02*
X81479764Y-50607974D01*
X81479764Y-50607974D02*
X81540878Y-50670375D01*
G36*
X81540878Y-50670375D02*
G01*
X81607422Y-50737564D01*
X81678074Y-50807797D01*
X81751514Y-50879332D01*
X81835785Y-50960371D01*
X81918095Y-51037813D01*
X82065400Y-51173019D01*
X82210690Y-51302511D01*
X82190902Y-51319981D01*
X82168049Y-51339848D01*
X82138228Y-51365386D01*
X82102694Y-51395279D01*
X82062700Y-51428215D01*
X82019501Y-51462879D01*
X81997092Y-51480449D01*
X81974352Y-51497959D01*
X81799055Y-51614954D01*
X81781439Y-51625557D01*
X81765428Y-51634888D01*
X81751252Y-51642903D01*
X81739139Y-51649558D01*
X81722020Y-51658616D01*
X81715906Y-51661713D01*
X81695037Y-51612200D01*
X81638896Y-51482332D01*
X81600631Y-51396017D01*
X81557187Y-51300117D01*
X81509776Y-51198131D01*
X81459612Y-51093562D01*
X81415165Y-51002784D01*
X81370937Y-50914793D01*
X81328103Y-50831424D01*
X81287837Y-50754512D01*
X81313264Y-50737992D01*
X81338212Y-50720885D01*
X81362716Y-50703228D01*
X81386808Y-50685058D01*
X81410525Y-50666411D01*
X81433901Y-50647323D01*
X81456969Y-50627832D01*
X81479764Y-50607974D01*
X81540878Y-50670375D01*
G37*
X81540878Y-50670375D02*
X81607422Y-50737564D01*
X81678074Y-50807797D01*
X81751514Y-50879332D01*
X81835785Y-50960371D01*
X81918095Y-51037813D01*
X82065400Y-51173019D01*
X82210690Y-51302511D01*
X82190902Y-51319981D01*
X82168049Y-51339848D01*
X82138228Y-51365386D01*
X82102694Y-51395279D01*
X82062700Y-51428215D01*
X82019501Y-51462879D01*
X81997092Y-51480449D01*
X81974352Y-51497959D01*
X81799055Y-51614954D01*
X81781439Y-51625557D01*
X81765428Y-51634888D01*
X81751252Y-51642903D01*
X81739139Y-51649558D01*
X81722020Y-51658616D01*
X81715906Y-51661713D01*
X81695037Y-51612200D01*
X81638896Y-51482332D01*
X81600631Y-51396017D01*
X81557187Y-51300117D01*
X81509776Y-51198131D01*
X81459612Y-51093562D01*
X81415165Y-51002784D01*
X81370937Y-50914793D01*
X81328103Y-50831424D01*
X81287837Y-50754512D01*
X81313264Y-50737992D01*
X81338212Y-50720885D01*
X81362716Y-50703228D01*
X81386808Y-50685058D01*
X81410525Y-50666411D01*
X81433901Y-50647323D01*
X81456969Y-50627832D01*
X81479764Y-50607974D01*
X81540878Y-50670375D01*
X77665924Y-66921811D02*
X79674993Y-67016894D01*
X79674993Y-67016894D02*
X79697113Y-67018445D01*
X79697113Y-67018445D02*
X79718885Y-67020951D01*
X79718885Y-67020951D02*
X79740285Y-67024389D01*
X79740285Y-67024389D02*
X79761287Y-67028732D01*
X79761287Y-67028732D02*
X79781866Y-67033956D01*
X79781866Y-67033956D02*
X79801997Y-67040035D01*
X79801997Y-67040035D02*
X79821655Y-67046945D01*
X79821655Y-67046945D02*
X79840814Y-67054660D01*
X79840814Y-67054660D02*
X79859448Y-67063155D01*
X79859448Y-67063155D02*
X79877534Y-67072406D01*
X79877534Y-67072406D02*
X79895046Y-67082385D01*
X79895046Y-67082385D02*
X79911958Y-67093070D01*
X79911958Y-67093070D02*
X79928245Y-67104434D01*
X79928245Y-67104434D02*
X79943882Y-67116452D01*
X79943882Y-67116452D02*
X79958844Y-67129100D01*
X79958844Y-67129100D02*
X79973106Y-67142352D01*
X79973106Y-67142352D02*
X79986642Y-67156182D01*
X79986642Y-67156182D02*
X79999427Y-67170567D01*
X79999427Y-67170567D02*
X80011436Y-67185479D01*
X80011436Y-67185479D02*
X80022643Y-67200896D01*
X80022643Y-67200896D02*
X80033025Y-67216791D01*
X80033025Y-67216791D02*
X80042554Y-67233138D01*
X80042554Y-67233138D02*
X80051206Y-67249914D01*
X80051206Y-67249914D02*
X80058957Y-67267093D01*
X80058957Y-67267093D02*
X80065780Y-67284650D01*
X80065780Y-67284650D02*
X80071650Y-67302559D01*
X80071650Y-67302559D02*
X80076542Y-67320795D01*
X80076542Y-67320795D02*
X80080432Y-67339334D01*
X80080432Y-67339334D02*
X80083293Y-67358150D01*
X80083293Y-67358150D02*
X80085100Y-67377218D01*
X80085100Y-67377218D02*
X80085829Y-67396512D01*
X80085829Y-67396512D02*
X80085454Y-67416009D01*
X80085454Y-67416009D02*
X80083971Y-67435632D01*
X80083971Y-67435632D02*
X80081409Y-67454943D01*
X80081409Y-67454943D02*
X80077798Y-67473919D01*
X80077798Y-67473919D02*
X80073163Y-67492537D01*
X80073163Y-67492537D02*
X80067532Y-67510774D01*
X80067532Y-67510774D02*
X80060933Y-67528609D01*
X80060933Y-67528609D02*
X80053392Y-67546018D01*
X80053392Y-67546018D02*
X80044937Y-67562980D01*
X80044937Y-67562980D02*
X80035596Y-67579471D01*
X80035596Y-67579471D02*
X80025395Y-67595468D01*
X80025395Y-67595468D02*
X80014362Y-67610950D01*
X80014362Y-67610950D02*
X80002525Y-67625894D01*
X80002525Y-67625894D02*
X79989909Y-67640277D01*
X79989909Y-67640277D02*
X79976544Y-67654076D01*
X79976544Y-67654076D02*
X79962456Y-67667270D01*
X79962456Y-67667270D02*
X79947672Y-67679834D01*
X79947672Y-67679834D02*
X79932219Y-67691748D01*
X79932219Y-67691748D02*
X79916126Y-67702988D01*
X79916126Y-67702988D02*
X79899419Y-67713532D01*
X79899419Y-67713532D02*
X79882126Y-67723357D01*
X79882126Y-67723357D02*
X79864273Y-67732441D01*
X79864273Y-67732441D02*
X79845889Y-67740760D01*
X79845889Y-67740760D02*
X79827000Y-67748293D01*
X79827000Y-67748293D02*
X79807633Y-67755017D01*
X79807633Y-67755017D02*
X79787817Y-67760909D01*
X79787817Y-67760909D02*
X79767578Y-67765947D01*
X79767578Y-67765947D02*
X79746944Y-67770109D01*
X79746944Y-67770109D02*
X79725942Y-67773371D01*
X79725942Y-67773371D02*
X79704599Y-67775710D01*
X79704599Y-67775710D02*
X79682943Y-67777106D01*
X79682943Y-67777106D02*
X79661000Y-67777534D01*
X79661000Y-67777534D02*
X79638799Y-67776973D01*
X79638799Y-67776973D02*
X77629730Y-67681889D01*
X77629730Y-67681889D02*
X77607692Y-67680337D01*
X77607692Y-67680337D02*
X77585982Y-67677823D01*
X77585982Y-67677823D02*
X77564625Y-67674374D01*
X77564625Y-67674374D02*
X77543650Y-67670015D01*
X77543650Y-67670015D02*
X77523081Y-67664770D01*
X77523081Y-67664770D02*
X77502946Y-67658666D01*
X77502946Y-67658666D02*
X77483270Y-67651726D01*
X77483270Y-67651726D02*
X77464081Y-67643977D01*
X77464081Y-67643977D02*
X77445404Y-67635443D01*
X77445404Y-67635443D02*
X77427265Y-67626149D01*
X77427265Y-67626149D02*
X77409692Y-67616121D01*
X77409692Y-67616121D02*
X77392711Y-67605384D01*
X77392711Y-67605384D02*
X77376347Y-67593962D01*
X77376347Y-67593962D02*
X77360627Y-67581882D01*
X77360627Y-67581882D02*
X77345578Y-67569168D01*
X77345578Y-67569168D02*
X77331226Y-67555845D01*
X77331226Y-67555845D02*
X77317598Y-67541939D01*
X77317598Y-67541939D02*
X77304719Y-67527475D01*
X77304719Y-67527475D02*
X77292616Y-67512477D01*
X77292616Y-67512477D02*
X77281316Y-67496971D01*
X77281316Y-67496971D02*
X77270844Y-67480983D01*
X77270844Y-67480983D02*
X77261228Y-67464536D01*
X77261228Y-67464536D02*
X77252493Y-67447657D01*
X77252493Y-67447657D02*
X77244666Y-67430371D01*
X77244666Y-67430371D02*
X77237774Y-67412702D01*
X77237774Y-67412702D02*
X77231842Y-67394676D01*
X77231842Y-67394676D02*
X77226897Y-67376318D01*
X77226897Y-67376318D02*
X77222965Y-67357653D01*
X77222965Y-67357653D02*
X77220073Y-67338707D01*
X77220073Y-67338707D02*
X77218247Y-67319504D01*
X77218247Y-67319504D02*
X77217514Y-67300069D01*
X77217514Y-67300069D02*
X77217900Y-67280429D01*
X77217900Y-67280429D02*
X77219391Y-67260984D01*
X77219391Y-67260984D02*
X77221975Y-67241843D01*
X77221975Y-67241843D02*
X77225622Y-67223028D01*
X77225622Y-67223028D02*
X77230306Y-67204563D01*
X77230306Y-67204563D02*
X77235996Y-67186469D01*
X77235996Y-67186469D02*
X77242665Y-67168770D01*
X77242665Y-67168770D02*
X77250283Y-67151489D01*
X77250283Y-67151489D02*
X77258823Y-67134649D01*
X77258823Y-67134649D02*
X77268255Y-67118271D01*
X77268255Y-67118271D02*
X77278552Y-67102379D01*
X77278552Y-67102379D02*
X77289684Y-67086996D01*
X77289684Y-67086996D02*
X77301623Y-67072145D01*
X77301623Y-67072145D02*
X77314341Y-67057847D01*
X77314341Y-67057847D02*
X77327809Y-67044127D01*
X77327809Y-67044127D02*
X77341998Y-67031007D01*
X77341998Y-67031007D02*
X77356880Y-67018509D01*
X77356880Y-67018509D02*
X77372426Y-67006657D01*
X77372426Y-67006657D02*
X77388609Y-66995473D01*
X77388609Y-66995473D02*
X77405398Y-66984979D01*
X77405398Y-66984979D02*
X77422766Y-66975200D01*
X77422766Y-66975200D02*
X77440684Y-66966157D01*
X77440684Y-66966157D02*
X77459124Y-66957873D01*
X77459124Y-66957873D02*
X77478056Y-66950372D01*
X77478056Y-66950372D02*
X77497453Y-66943675D01*
X77497453Y-66943675D02*
X77517286Y-66937806D01*
X77517286Y-66937806D02*
X77537527Y-66932788D01*
X77537527Y-66932788D02*
X77558146Y-66928642D01*
X77558146Y-66928642D02*
X77579115Y-66925393D01*
X77579115Y-66925393D02*
X77600406Y-66923062D01*
X77600406Y-66923062D02*
X77621991Y-66921673D01*
X77621991Y-66921673D02*
X77643840Y-66921248D01*
X77643840Y-66921248D02*
X77665924Y-66921811D01*
G36*
X77665924Y-66921811D02*
G01*
X79674993Y-67016894D01*
X79697113Y-67018445D01*
X79718885Y-67020951D01*
X79740285Y-67024389D01*
X79761287Y-67028732D01*
X79781866Y-67033956D01*
X79801997Y-67040035D01*
X79821655Y-67046945D01*
X79840814Y-67054660D01*
X79859448Y-67063155D01*
X79877534Y-67072406D01*
X79895046Y-67082385D01*
X79911958Y-67093070D01*
X79928245Y-67104434D01*
X79943882Y-67116452D01*
X79958844Y-67129100D01*
X79973106Y-67142352D01*
X79986642Y-67156182D01*
X79999427Y-67170567D01*
X80011436Y-67185479D01*
X80022643Y-67200896D01*
X80033025Y-67216791D01*
X80042554Y-67233138D01*
X80051206Y-67249914D01*
X80058957Y-67267093D01*
X80065780Y-67284650D01*
X80071650Y-67302559D01*
X80076542Y-67320795D01*
X80080432Y-67339334D01*
X80083293Y-67358150D01*
X80085100Y-67377218D01*
X80085829Y-67396512D01*
X80085454Y-67416009D01*
X80083971Y-67435632D01*
X80081409Y-67454943D01*
X80077798Y-67473919D01*
X80073163Y-67492537D01*
X80067532Y-67510774D01*
X80060933Y-67528609D01*
X80053392Y-67546018D01*
X80044937Y-67562980D01*
X80035596Y-67579471D01*
X80025395Y-67595468D01*
X80014362Y-67610950D01*
X80002525Y-67625894D01*
X79989909Y-67640277D01*
X79976544Y-67654076D01*
X79962456Y-67667270D01*
X79947672Y-67679834D01*
X79932219Y-67691748D01*
X79916126Y-67702988D01*
X79899419Y-67713532D01*
X79882126Y-67723357D01*
X79864273Y-67732441D01*
X79845889Y-67740760D01*
X79827000Y-67748293D01*
X79807633Y-67755017D01*
X79787817Y-67760909D01*
X79767578Y-67765947D01*
X79746944Y-67770109D01*
X79725942Y-67773371D01*
X79704599Y-67775710D01*
X79682943Y-67777106D01*
X79661000Y-67777534D01*
X79638799Y-67776973D01*
X77629730Y-67681889D01*
X77607692Y-67680337D01*
X77585982Y-67677823D01*
X77564625Y-67674374D01*
X77543650Y-67670015D01*
X77523081Y-67664770D01*
X77502946Y-67658666D01*
X77483270Y-67651726D01*
X77464081Y-67643977D01*
X77445404Y-67635443D01*
X77427265Y-67626149D01*
X77409692Y-67616121D01*
X77392711Y-67605384D01*
X77376347Y-67593962D01*
X77360627Y-67581882D01*
X77345578Y-67569168D01*
X77331226Y-67555845D01*
X77317598Y-67541939D01*
X77304719Y-67527475D01*
X77292616Y-67512477D01*
X77281316Y-67496971D01*
X77270844Y-67480983D01*
X77261228Y-67464536D01*
X77252493Y-67447657D01*
X77244666Y-67430371D01*
X77237774Y-67412702D01*
X77231842Y-67394676D01*
X77226897Y-67376318D01*
X77222965Y-67357653D01*
X77220073Y-67338707D01*
X77218247Y-67319504D01*
X77217514Y-67300069D01*
X77217900Y-67280429D01*
X77219391Y-67260984D01*
X77221975Y-67241843D01*
X77225622Y-67223028D01*
X77230306Y-67204563D01*
X77235996Y-67186469D01*
X77242665Y-67168770D01*
X77250283Y-67151489D01*
X77258823Y-67134649D01*
X77268255Y-67118271D01*
X77278552Y-67102379D01*
X77289684Y-67086996D01*
X77301623Y-67072145D01*
X77314341Y-67057847D01*
X77327809Y-67044127D01*
X77341998Y-67031007D01*
X77356880Y-67018509D01*
X77372426Y-67006657D01*
X77388609Y-66995473D01*
X77405398Y-66984979D01*
X77422766Y-66975200D01*
X77440684Y-66966157D01*
X77459124Y-66957873D01*
X77478056Y-66950372D01*
X77497453Y-66943675D01*
X77517286Y-66937806D01*
X77537527Y-66932788D01*
X77558146Y-66928642D01*
X77579115Y-66925393D01*
X77600406Y-66923062D01*
X77621991Y-66921673D01*
X77643840Y-66921248D01*
X77665924Y-66921811D01*
G37*
X77665924Y-66921811D02*
X79674993Y-67016894D01*
X79697113Y-67018445D01*
X79718885Y-67020951D01*
X79740285Y-67024389D01*
X79761287Y-67028732D01*
X79781866Y-67033956D01*
X79801997Y-67040035D01*
X79821655Y-67046945D01*
X79840814Y-67054660D01*
X79859448Y-67063155D01*
X79877534Y-67072406D01*
X79895046Y-67082385D01*
X79911958Y-67093070D01*
X79928245Y-67104434D01*
X79943882Y-67116452D01*
X79958844Y-67129100D01*
X79973106Y-67142352D01*
X79986642Y-67156182D01*
X79999427Y-67170567D01*
X80011436Y-67185479D01*
X80022643Y-67200896D01*
X80033025Y-67216791D01*
X80042554Y-67233138D01*
X80051206Y-67249914D01*
X80058957Y-67267093D01*
X80065780Y-67284650D01*
X80071650Y-67302559D01*
X80076542Y-67320795D01*
X80080432Y-67339334D01*
X80083293Y-67358150D01*
X80085100Y-67377218D01*
X80085829Y-67396512D01*
X80085454Y-67416009D01*
X80083971Y-67435632D01*
X80081409Y-67454943D01*
X80077798Y-67473919D01*
X80073163Y-67492537D01*
X80067532Y-67510774D01*
X80060933Y-67528609D01*
X80053392Y-67546018D01*
X80044937Y-67562980D01*
X80035596Y-67579471D01*
X80025395Y-67595468D01*
X80014362Y-67610950D01*
X80002525Y-67625894D01*
X79989909Y-67640277D01*
X79976544Y-67654076D01*
X79962456Y-67667270D01*
X79947672Y-67679834D01*
X79932219Y-67691748D01*
X79916126Y-67702988D01*
X79899419Y-67713532D01*
X79882126Y-67723357D01*
X79864273Y-67732441D01*
X79845889Y-67740760D01*
X79827000Y-67748293D01*
X79807633Y-67755017D01*
X79787817Y-67760909D01*
X79767578Y-67765947D01*
X79746944Y-67770109D01*
X79725942Y-67773371D01*
X79704599Y-67775710D01*
X79682943Y-67777106D01*
X79661000Y-67777534D01*
X79638799Y-67776973D01*
X77629730Y-67681889D01*
X77607692Y-67680337D01*
X77585982Y-67677823D01*
X77564625Y-67674374D01*
X77543650Y-67670015D01*
X77523081Y-67664770D01*
X77502946Y-67658666D01*
X77483270Y-67651726D01*
X77464081Y-67643977D01*
X77445404Y-67635443D01*
X77427265Y-67626149D01*
X77409692Y-67616121D01*
X77392711Y-67605384D01*
X77376347Y-67593962D01*
X77360627Y-67581882D01*
X77345578Y-67569168D01*
X77331226Y-67555845D01*
X77317598Y-67541939D01*
X77304719Y-67527475D01*
X77292616Y-67512477D01*
X77281316Y-67496971D01*
X77270844Y-67480983D01*
X77261228Y-67464536D01*
X77252493Y-67447657D01*
X77244666Y-67430371D01*
X77237774Y-67412702D01*
X77231842Y-67394676D01*
X77226897Y-67376318D01*
X77222965Y-67357653D01*
X77220073Y-67338707D01*
X77218247Y-67319504D01*
X77217514Y-67300069D01*
X77217900Y-67280429D01*
X77219391Y-67260984D01*
X77221975Y-67241843D01*
X77225622Y-67223028D01*
X77230306Y-67204563D01*
X77235996Y-67186469D01*
X77242665Y-67168770D01*
X77250283Y-67151489D01*
X77258823Y-67134649D01*
X77268255Y-67118271D01*
X77278552Y-67102379D01*
X77289684Y-67086996D01*
X77301623Y-67072145D01*
X77314341Y-67057847D01*
X77327809Y-67044127D01*
X77341998Y-67031007D01*
X77356880Y-67018509D01*
X77372426Y-67006657D01*
X77388609Y-66995473D01*
X77405398Y-66984979D01*
X77422766Y-66975200D01*
X77440684Y-66966157D01*
X77459124Y-66957873D01*
X77478056Y-66950372D01*
X77497453Y-66943675D01*
X77517286Y-66937806D01*
X77537527Y-66932788D01*
X77558146Y-66928642D01*
X77579115Y-66925393D01*
X77600406Y-66923062D01*
X77621991Y-66921673D01*
X77643840Y-66921248D01*
X77665924Y-66921811D01*
X79526101Y-50637248D02*
X79549270Y-50656567D01*
X79549270Y-50656567D02*
X79572764Y-50675469D01*
X79572764Y-50675469D02*
X79596618Y-50693920D01*
X79596618Y-50693920D02*
X79620867Y-50711884D01*
X79620867Y-50711884D02*
X79645545Y-50729329D01*
X79645545Y-50729329D02*
X79670685Y-50746218D01*
X79670685Y-50746218D02*
X79696324Y-50762518D01*
X79696324Y-50762518D02*
X79656174Y-50839445D01*
X79656174Y-50839445D02*
X79613419Y-50922628D01*
X79613419Y-50922628D02*
X79569271Y-51010322D01*
X79569271Y-51010322D02*
X79524940Y-51100786D01*
X79524940Y-51100786D02*
X79474473Y-51205344D01*
X79474473Y-51205344D02*
X79426629Y-51307178D01*
X79426629Y-51307178D02*
X79343871Y-51488846D01*
X79343871Y-51488846D02*
X79265516Y-51667371D01*
X79265516Y-51667371D02*
X79181584Y-51621199D01*
X79181584Y-51621199D02*
X79006287Y-51504596D01*
X79006287Y-51504596D02*
X78960952Y-51469847D01*
X78960952Y-51469847D02*
X78917630Y-51435448D01*
X78917630Y-51435448D02*
X78877563Y-51402717D01*
X78877563Y-51402717D02*
X78841995Y-51372976D01*
X78841995Y-51372976D02*
X78789324Y-51327746D01*
X78789324Y-51327746D02*
X78769558Y-51310321D01*
X78769558Y-51310321D02*
X78810004Y-51275292D01*
X78810004Y-51275292D02*
X78915875Y-51181807D01*
X78915875Y-51181807D02*
X78986094Y-51118584D01*
X78986094Y-51118584D02*
X79063969Y-51047274D01*
X79063969Y-51047274D02*
X79146598Y-50970054D01*
X79146598Y-50970054D02*
X79231083Y-50889099D01*
X79231083Y-50889099D02*
X79304831Y-50817671D01*
X79304831Y-50817671D02*
X79375590Y-50747453D01*
X79375590Y-50747453D02*
X79442130Y-50680170D01*
X79442130Y-50680170D02*
X79503223Y-50617545D01*
X79503223Y-50617545D02*
X79526101Y-50637248D01*
G36*
X79526101Y-50637248D02*
G01*
X79549270Y-50656567D01*
X79572764Y-50675469D01*
X79596618Y-50693920D01*
X79620867Y-50711884D01*
X79645545Y-50729329D01*
X79670685Y-50746218D01*
X79696324Y-50762518D01*
X79656174Y-50839445D01*
X79613419Y-50922628D01*
X79569271Y-51010322D01*
X79524940Y-51100786D01*
X79474473Y-51205344D01*
X79426629Y-51307178D01*
X79343871Y-51488846D01*
X79265516Y-51667371D01*
X79181584Y-51621199D01*
X79006287Y-51504596D01*
X78960952Y-51469847D01*
X78917630Y-51435448D01*
X78877563Y-51402717D01*
X78841995Y-51372976D01*
X78789324Y-51327746D01*
X78769558Y-51310321D01*
X78810004Y-51275292D01*
X78915875Y-51181807D01*
X78986094Y-51118584D01*
X79063969Y-51047274D01*
X79146598Y-50970054D01*
X79231083Y-50889099D01*
X79304831Y-50817671D01*
X79375590Y-50747453D01*
X79442130Y-50680170D01*
X79503223Y-50617545D01*
X79526101Y-50637248D01*
G37*
X79526101Y-50637248D02*
X79549270Y-50656567D01*
X79572764Y-50675469D01*
X79596618Y-50693920D01*
X79620867Y-50711884D01*
X79645545Y-50729329D01*
X79670685Y-50746218D01*
X79696324Y-50762518D01*
X79656174Y-50839445D01*
X79613419Y-50922628D01*
X79569271Y-51010322D01*
X79524940Y-51100786D01*
X79474473Y-51205344D01*
X79426629Y-51307178D01*
X79343871Y-51488846D01*
X79265516Y-51667371D01*
X79181584Y-51621199D01*
X79006287Y-51504596D01*
X78960952Y-51469847D01*
X78917630Y-51435448D01*
X78877563Y-51402717D01*
X78841995Y-51372976D01*
X78789324Y-51327746D01*
X78769558Y-51310321D01*
X78810004Y-51275292D01*
X78915875Y-51181807D01*
X78986094Y-51118584D01*
X79063969Y-51047274D01*
X79146598Y-50970054D01*
X79231083Y-50889099D01*
X79304831Y-50817671D01*
X79375590Y-50747453D01*
X79442130Y-50680170D01*
X79503223Y-50617545D01*
X79526101Y-50637248D01*
X78240000Y-48425887D02*
X78362418Y-48498006D01*
X78362418Y-48498006D02*
X78444576Y-48545387D01*
X78444576Y-48545387D02*
X78536633Y-48597491D01*
X78536633Y-48597491D02*
X78635542Y-48652199D01*
X78635542Y-48652199D02*
X78738251Y-48707394D01*
X78738251Y-48707394D02*
X78835348Y-48758851D01*
X78835348Y-48758851D02*
X78930006Y-48807539D01*
X78930006Y-48807539D02*
X79019565Y-48852522D01*
X79019565Y-48852522D02*
X79101366Y-48892864D01*
X79101366Y-48892864D02*
X79090403Y-48919773D01*
X79090403Y-48919773D02*
X79080203Y-48947055D01*
X79080203Y-48947055D02*
X79070686Y-48974662D01*
X79070686Y-48974662D02*
X79061772Y-49002547D01*
X79061772Y-49002547D02*
X79053381Y-49030661D01*
X79053381Y-49030661D02*
X79045433Y-49058957D01*
X79045433Y-49058957D02*
X79037847Y-49087385D01*
X79037847Y-49087385D02*
X79030542Y-49115898D01*
X79030542Y-49115898D02*
X78841599Y-49084375D01*
X78841599Y-49084375D02*
X78736434Y-49067944D01*
X78736434Y-49067944D02*
X78627711Y-49052119D01*
X78627711Y-49052119D02*
X78512537Y-49036128D01*
X78512537Y-49036128D02*
X78400728Y-49021846D01*
X78400728Y-49021846D02*
X78201990Y-48998928D01*
X78201990Y-48998928D02*
X78007520Y-48979339D01*
X78007520Y-48979339D02*
X78012368Y-48953419D01*
X78012368Y-48953419D02*
X78018394Y-48923802D01*
X78018394Y-48923802D02*
X78026791Y-48885552D01*
X78026791Y-48885552D02*
X78037535Y-48840525D01*
X78037535Y-48840525D02*
X78043781Y-48816050D01*
X78043781Y-48816050D02*
X78050604Y-48790576D01*
X78050604Y-48790576D02*
X78058004Y-48764335D01*
X78058004Y-48764335D02*
X78065976Y-48737559D01*
X78065976Y-48737559D02*
X78074517Y-48710480D01*
X78074517Y-48710480D02*
X78083625Y-48683330D01*
X78083625Y-48683330D02*
X78100828Y-48628888D01*
X78100828Y-48628888D02*
X78119159Y-48576774D01*
X78119159Y-48576774D02*
X78137564Y-48528507D01*
X78137564Y-48528507D02*
X78154987Y-48485607D01*
X78154987Y-48485607D02*
X78182670Y-48421989D01*
X78182670Y-48421989D02*
X78193773Y-48398081D01*
X78193773Y-48398081D02*
X78240000Y-48425887D01*
G36*
X78240000Y-48425887D02*
G01*
X78362418Y-48498006D01*
X78444576Y-48545387D01*
X78536633Y-48597491D01*
X78635542Y-48652199D01*
X78738251Y-48707394D01*
X78835348Y-48758851D01*
X78930006Y-48807539D01*
X79019565Y-48852522D01*
X79101366Y-48892864D01*
X79090403Y-48919773D01*
X79080203Y-48947055D01*
X79070686Y-48974662D01*
X79061772Y-49002547D01*
X79053381Y-49030661D01*
X79045433Y-49058957D01*
X79037847Y-49087385D01*
X79030542Y-49115898D01*
X78841599Y-49084375D01*
X78736434Y-49067944D01*
X78627711Y-49052119D01*
X78512537Y-49036128D01*
X78400728Y-49021846D01*
X78201990Y-48998928D01*
X78007520Y-48979339D01*
X78012368Y-48953419D01*
X78018394Y-48923802D01*
X78026791Y-48885552D01*
X78037535Y-48840525D01*
X78043781Y-48816050D01*
X78050604Y-48790576D01*
X78058004Y-48764335D01*
X78065976Y-48737559D01*
X78074517Y-48710480D01*
X78083625Y-48683330D01*
X78100828Y-48628888D01*
X78119159Y-48576774D01*
X78137564Y-48528507D01*
X78154987Y-48485607D01*
X78182670Y-48421989D01*
X78193773Y-48398081D01*
X78240000Y-48425887D01*
G37*
X78240000Y-48425887D02*
X78362418Y-48498006D01*
X78444576Y-48545387D01*
X78536633Y-48597491D01*
X78635542Y-48652199D01*
X78738251Y-48707394D01*
X78835348Y-48758851D01*
X78930006Y-48807539D01*
X79019565Y-48852522D01*
X79101366Y-48892864D01*
X79090403Y-48919773D01*
X79080203Y-48947055D01*
X79070686Y-48974662D01*
X79061772Y-49002547D01*
X79053381Y-49030661D01*
X79045433Y-49058957D01*
X79037847Y-49087385D01*
X79030542Y-49115898D01*
X78841599Y-49084375D01*
X78736434Y-49067944D01*
X78627711Y-49052119D01*
X78512537Y-49036128D01*
X78400728Y-49021846D01*
X78201990Y-48998928D01*
X78007520Y-48979339D01*
X78012368Y-48953419D01*
X78018394Y-48923802D01*
X78026791Y-48885552D01*
X78037535Y-48840525D01*
X78043781Y-48816050D01*
X78050604Y-48790576D01*
X78058004Y-48764335D01*
X78065976Y-48737559D01*
X78074517Y-48710480D01*
X78083625Y-48683330D01*
X78100828Y-48628888D01*
X78119159Y-48576774D01*
X78137564Y-48528507D01*
X78154987Y-48485607D01*
X78182670Y-48421989D01*
X78193773Y-48398081D01*
X78240000Y-48425887D01*
X82043973Y-49817347D02*
X82139230Y-49832855D01*
X82139230Y-49832855D02*
X82240026Y-49848473D01*
X82240026Y-49848473D02*
X82343996Y-49863596D01*
X82343996Y-49863596D02*
X82570979Y-49893899D01*
X82570979Y-49893899D02*
X82769717Y-49916885D01*
X82769717Y-49916885D02*
X82964187Y-49936571D01*
X82964187Y-49936571D02*
X82959339Y-49962463D01*
X82959339Y-49962463D02*
X82953313Y-49992057D01*
X82953313Y-49992057D02*
X82944916Y-50030285D01*
X82944916Y-50030285D02*
X82934172Y-50075299D01*
X82934172Y-50075299D02*
X82927927Y-50099773D01*
X82927927Y-50099773D02*
X82921103Y-50125251D01*
X82921103Y-50125251D02*
X82913704Y-50151502D01*
X82913704Y-50151502D02*
X82905732Y-50178295D01*
X82905732Y-50178295D02*
X82897190Y-50205398D01*
X82897190Y-50205398D02*
X82888082Y-50232580D01*
X82888082Y-50232580D02*
X82870823Y-50286957D01*
X82870823Y-50286957D02*
X82852465Y-50339023D01*
X82852465Y-50339023D02*
X82834058Y-50387255D01*
X82834058Y-50387255D02*
X82816647Y-50430132D01*
X82816647Y-50430132D02*
X82789010Y-50493728D01*
X82789010Y-50493728D02*
X82777935Y-50517634D01*
X82777935Y-50517634D02*
X82731708Y-50489825D01*
X82731708Y-50489825D02*
X82609289Y-50417684D01*
X82609289Y-50417684D02*
X82527131Y-50370280D01*
X82527131Y-50370280D02*
X82435074Y-50318141D01*
X82435074Y-50318141D02*
X82336166Y-50263384D01*
X82336166Y-50263384D02*
X82233456Y-50208125D01*
X82233456Y-50208125D02*
X82141461Y-50159553D01*
X82141461Y-50159553D02*
X82051557Y-50113311D01*
X82051557Y-50113311D02*
X81965981Y-50070260D01*
X81965981Y-50070260D02*
X81886971Y-50031263D01*
X81886971Y-50031263D02*
X81897587Y-50003429D01*
X81897587Y-50003429D02*
X81907703Y-49975388D01*
X81907703Y-49975388D02*
X81917297Y-49947137D01*
X81917297Y-49947137D02*
X81926345Y-49918670D01*
X81926345Y-49918670D02*
X81934824Y-49889983D01*
X81934824Y-49889983D02*
X81942711Y-49861071D01*
X81942711Y-49861071D02*
X81949985Y-49831930D01*
X81949985Y-49831930D02*
X81956620Y-49802555D01*
X81956620Y-49802555D02*
X82043973Y-49817347D01*
G36*
X82043973Y-49817347D02*
G01*
X82139230Y-49832855D01*
X82240026Y-49848473D01*
X82343996Y-49863596D01*
X82570979Y-49893899D01*
X82769717Y-49916885D01*
X82964187Y-49936571D01*
X82959339Y-49962463D01*
X82953313Y-49992057D01*
X82944916Y-50030285D01*
X82934172Y-50075299D01*
X82927927Y-50099773D01*
X82921103Y-50125251D01*
X82913704Y-50151502D01*
X82905732Y-50178295D01*
X82897190Y-50205398D01*
X82888082Y-50232580D01*
X82870823Y-50286957D01*
X82852465Y-50339023D01*
X82834058Y-50387255D01*
X82816647Y-50430132D01*
X82789010Y-50493728D01*
X82777935Y-50517634D01*
X82731708Y-50489825D01*
X82609289Y-50417684D01*
X82527131Y-50370280D01*
X82435074Y-50318141D01*
X82336166Y-50263384D01*
X82233456Y-50208125D01*
X82141461Y-50159553D01*
X82051557Y-50113311D01*
X81965981Y-50070260D01*
X81886971Y-50031263D01*
X81897587Y-50003429D01*
X81907703Y-49975388D01*
X81917297Y-49947137D01*
X81926345Y-49918670D01*
X81934824Y-49889983D01*
X81942711Y-49861071D01*
X81949985Y-49831930D01*
X81956620Y-49802555D01*
X82043973Y-49817347D01*
G37*
X82043973Y-49817347D02*
X82139230Y-49832855D01*
X82240026Y-49848473D01*
X82343996Y-49863596D01*
X82570979Y-49893899D01*
X82769717Y-49916885D01*
X82964187Y-49936571D01*
X82959339Y-49962463D01*
X82953313Y-49992057D01*
X82944916Y-50030285D01*
X82934172Y-50075299D01*
X82927927Y-50099773D01*
X82921103Y-50125251D01*
X82913704Y-50151502D01*
X82905732Y-50178295D01*
X82897190Y-50205398D01*
X82888082Y-50232580D01*
X82870823Y-50286957D01*
X82852465Y-50339023D01*
X82834058Y-50387255D01*
X82816647Y-50430132D01*
X82789010Y-50493728D01*
X82777935Y-50517634D01*
X82731708Y-50489825D01*
X82609289Y-50417684D01*
X82527131Y-50370280D01*
X82435074Y-50318141D01*
X82336166Y-50263384D01*
X82233456Y-50208125D01*
X82141461Y-50159553D01*
X82051557Y-50113311D01*
X81965981Y-50070260D01*
X81886971Y-50031263D01*
X81897587Y-50003429D01*
X81907703Y-49975388D01*
X81917297Y-49947137D01*
X81926345Y-49918670D01*
X81934824Y-49889983D01*
X81942711Y-49861071D01*
X81949985Y-49831930D01*
X81956620Y-49802555D01*
X82043973Y-49817347D01*
X77128292Y-65947614D02*
X80303399Y-66098065D01*
X80303399Y-66098065D02*
X80325507Y-66099596D01*
X80325507Y-66099596D02*
X80347283Y-66102081D01*
X80347283Y-66102081D02*
X80368699Y-66105495D01*
X80368699Y-66105495D02*
X80389730Y-66109815D01*
X80389730Y-66109815D02*
X80410349Y-66115014D01*
X80410349Y-66115014D02*
X80430530Y-66121069D01*
X80430530Y-66121069D02*
X80450248Y-66127955D01*
X80450248Y-66127955D02*
X80469476Y-66135646D01*
X80469476Y-66135646D02*
X80488188Y-66144119D01*
X80488188Y-66144119D02*
X80506358Y-66153349D01*
X80506358Y-66153349D02*
X80523960Y-66163310D01*
X80523960Y-66163310D02*
X80540968Y-66173978D01*
X80540968Y-66173978D02*
X80557356Y-66185329D01*
X80557356Y-66185329D02*
X80573098Y-66197337D01*
X80573098Y-66197337D02*
X80588167Y-66209978D01*
X80588167Y-66209978D02*
X80602538Y-66223227D01*
X80602538Y-66223227D02*
X80616185Y-66237060D01*
X80616185Y-66237060D02*
X80629080Y-66251452D01*
X80629080Y-66251452D02*
X80641200Y-66266378D01*
X80641200Y-66266378D02*
X80652516Y-66281813D01*
X80652516Y-66281813D02*
X80663004Y-66297732D01*
X80663004Y-66297732D02*
X80672636Y-66314112D01*
X80672636Y-66314112D02*
X80681388Y-66330926D01*
X80681388Y-66330926D02*
X80689233Y-66348152D01*
X80689233Y-66348152D02*
X80696145Y-66365763D01*
X80696145Y-66365763D02*
X80702097Y-66383735D01*
X80702097Y-66383735D02*
X80707064Y-66402043D01*
X80707064Y-66402043D02*
X80711020Y-66420663D01*
X80711020Y-66420663D02*
X80713938Y-66439569D01*
X80713938Y-66439569D02*
X80715793Y-66458738D01*
X80715793Y-66458738D02*
X80716558Y-66478144D01*
X80716558Y-66478144D02*
X80716208Y-66497763D01*
X80716208Y-66497763D02*
X80714717Y-66517173D01*
X80714717Y-66517173D02*
X80712134Y-66536280D01*
X80712134Y-66536280D02*
X80708489Y-66555064D01*
X80708489Y-66555064D02*
X80703808Y-66573500D01*
X80703808Y-66573500D02*
X80698121Y-66591566D01*
X80698121Y-66591566D02*
X80691455Y-66609240D01*
X80691455Y-66609240D02*
X80683840Y-66626498D01*
X80683840Y-66626498D02*
X80675302Y-66643317D01*
X80675302Y-66643317D02*
X80665872Y-66659675D01*
X80665872Y-66659675D02*
X80655576Y-66675548D01*
X80655576Y-66675548D02*
X80644444Y-66690915D01*
X80644444Y-66690915D02*
X80632504Y-66705751D01*
X80632504Y-66705751D02*
X80619784Y-66720035D01*
X80619784Y-66720035D02*
X80606312Y-66733743D01*
X80606312Y-66733743D02*
X80592117Y-66746853D01*
X80592117Y-66746853D02*
X80577227Y-66759341D01*
X80577227Y-66759341D02*
X80561670Y-66771184D01*
X80561670Y-66771184D02*
X80545475Y-66782361D01*
X80545475Y-66782361D02*
X80528670Y-66792848D01*
X80528670Y-66792848D02*
X80511283Y-66802622D01*
X80511283Y-66802622D02*
X80493344Y-66811660D01*
X80493344Y-66811660D02*
X80474879Y-66819939D01*
X80474879Y-66819939D02*
X80455918Y-66827438D01*
X80455918Y-66827438D02*
X80436488Y-66834132D01*
X80436488Y-66834132D02*
X80416619Y-66839999D01*
X80416619Y-66839999D02*
X80396338Y-66845016D01*
X80396338Y-66845016D02*
X80375673Y-66849160D01*
X80375673Y-66849160D02*
X80354654Y-66852408D01*
X80354654Y-66852408D02*
X80333309Y-66854738D01*
X80333309Y-66854738D02*
X80311665Y-66856127D01*
X80311665Y-66856127D02*
X80289751Y-66856551D01*
X80289751Y-66856551D02*
X80267595Y-66855988D01*
X80267595Y-66855988D02*
X77092098Y-66705540D01*
X77092098Y-66705540D02*
X77069919Y-66703989D01*
X77069919Y-66703989D02*
X77048080Y-66701479D01*
X77048080Y-66701479D02*
X77026607Y-66698037D01*
X77026607Y-66698037D02*
X77005526Y-66693687D01*
X77005526Y-66693687D02*
X76984862Y-66688455D01*
X76984862Y-66688455D02*
X76964642Y-66682366D01*
X76964642Y-66682366D02*
X76944891Y-66675445D01*
X76944891Y-66675445D02*
X76925635Y-66667719D01*
X76925635Y-66667719D02*
X76906900Y-66659212D01*
X76906900Y-66659212D02*
X76888712Y-66649950D01*
X76888712Y-66649950D02*
X76871097Y-66639958D01*
X76871097Y-66639958D02*
X76854081Y-66629261D01*
X76854081Y-66629261D02*
X76837688Y-66617885D01*
X76837688Y-66617885D02*
X76821947Y-66605855D01*
X76821947Y-66605855D02*
X76806881Y-66593197D01*
X76806881Y-66593197D02*
X76792518Y-66579936D01*
X76792518Y-66579936D02*
X76778882Y-66566096D01*
X76778882Y-66566096D02*
X76766000Y-66551705D01*
X76766000Y-66551705D02*
X76753898Y-66536786D01*
X76753898Y-66536786D02*
X76742602Y-66521366D01*
X76742602Y-66521366D02*
X76732137Y-66505470D01*
X76732137Y-66505470D02*
X76722529Y-66489122D01*
X76722529Y-66489122D02*
X76713804Y-66472349D01*
X76713804Y-66472349D02*
X76705988Y-66455176D01*
X76705988Y-66455176D02*
X76699107Y-66437628D01*
X76699107Y-66437628D02*
X76693187Y-66419730D01*
X76693187Y-66419730D02*
X76688253Y-66401508D01*
X76688253Y-66401508D02*
X76684332Y-66382988D01*
X76684332Y-66382988D02*
X76681449Y-66364194D01*
X76681449Y-66364194D02*
X76679630Y-66345152D01*
X76679630Y-66345152D02*
X76678902Y-66325888D01*
X76678902Y-66325888D02*
X76679289Y-66306426D01*
X76679289Y-66306426D02*
X76680760Y-66286860D01*
X76680760Y-66286860D02*
X76683321Y-66267612D01*
X76683321Y-66267612D02*
X76686944Y-66248704D01*
X76686944Y-66248704D02*
X76691601Y-66230158D01*
X76691601Y-66230158D02*
X76697263Y-66211996D01*
X76697263Y-66211996D02*
X76703904Y-66194241D01*
X76703904Y-66194241D02*
X76711494Y-66176914D01*
X76711494Y-66176914D02*
X76720007Y-66160037D01*
X76720007Y-66160037D02*
X76729414Y-66143633D01*
X76729414Y-66143633D02*
X76739687Y-66127724D01*
X76739687Y-66127724D02*
X76750798Y-66112332D01*
X76750798Y-66112332D02*
X76762720Y-66097478D01*
X76762720Y-66097478D02*
X76775424Y-66083185D01*
X76775424Y-66083185D02*
X76788883Y-66069476D01*
X76788883Y-66069476D02*
X76803068Y-66056372D01*
X76803068Y-66056372D02*
X76817951Y-66043895D01*
X76817951Y-66043895D02*
X76833506Y-66032067D01*
X76833506Y-66032067D02*
X76849702Y-66020911D01*
X76849702Y-66020911D02*
X76866514Y-66010449D01*
X76866514Y-66010449D02*
X76883912Y-66000702D01*
X76883912Y-66000702D02*
X76901870Y-65991693D01*
X76901870Y-65991693D02*
X76920358Y-65983445D01*
X76920358Y-65983445D02*
X76939349Y-65975978D01*
X76939349Y-65975978D02*
X76958815Y-65969315D01*
X76958815Y-65969315D02*
X76978728Y-65963478D01*
X76978728Y-65963478D02*
X76999061Y-65958490D01*
X76999061Y-65958490D02*
X77019784Y-65954372D01*
X77019784Y-65954372D02*
X77040871Y-65951147D01*
X77040871Y-65951147D02*
X77062293Y-65948836D01*
X77062293Y-65948836D02*
X77084022Y-65947463D01*
X77084022Y-65947463D02*
X77106031Y-65947048D01*
X77106031Y-65947048D02*
X77128292Y-65947614D01*
G36*
X77128292Y-65947614D02*
G01*
X80303399Y-66098065D01*
X80325507Y-66099596D01*
X80347283Y-66102081D01*
X80368699Y-66105495D01*
X80389730Y-66109815D01*
X80410349Y-66115014D01*
X80430530Y-66121069D01*
X80450248Y-66127955D01*
X80469476Y-66135646D01*
X80488188Y-66144119D01*
X80506358Y-66153349D01*
X80523960Y-66163310D01*
X80540968Y-66173978D01*
X80557356Y-66185329D01*
X80573098Y-66197337D01*
X80588167Y-66209978D01*
X80602538Y-66223227D01*
X80616185Y-66237060D01*
X80629080Y-66251452D01*
X80641200Y-66266378D01*
X80652516Y-66281813D01*
X80663004Y-66297732D01*
X80672636Y-66314112D01*
X80681388Y-66330926D01*
X80689233Y-66348152D01*
X80696145Y-66365763D01*
X80702097Y-66383735D01*
X80707064Y-66402043D01*
X80711020Y-66420663D01*
X80713938Y-66439569D01*
X80715793Y-66458738D01*
X80716558Y-66478144D01*
X80716208Y-66497763D01*
X80714717Y-66517173D01*
X80712134Y-66536280D01*
X80708489Y-66555064D01*
X80703808Y-66573500D01*
X80698121Y-66591566D01*
X80691455Y-66609240D01*
X80683840Y-66626498D01*
X80675302Y-66643317D01*
X80665872Y-66659675D01*
X80655576Y-66675548D01*
X80644444Y-66690915D01*
X80632504Y-66705751D01*
X80619784Y-66720035D01*
X80606312Y-66733743D01*
X80592117Y-66746853D01*
X80577227Y-66759341D01*
X80561670Y-66771184D01*
X80545475Y-66782361D01*
X80528670Y-66792848D01*
X80511283Y-66802622D01*
X80493344Y-66811660D01*
X80474879Y-66819939D01*
X80455918Y-66827438D01*
X80436488Y-66834132D01*
X80416619Y-66839999D01*
X80396338Y-66845016D01*
X80375673Y-66849160D01*
X80354654Y-66852408D01*
X80333309Y-66854738D01*
X80311665Y-66856127D01*
X80289751Y-66856551D01*
X80267595Y-66855988D01*
X77092098Y-66705540D01*
X77069919Y-66703989D01*
X77048080Y-66701479D01*
X77026607Y-66698037D01*
X77005526Y-66693687D01*
X76984862Y-66688455D01*
X76964642Y-66682366D01*
X76944891Y-66675445D01*
X76925635Y-66667719D01*
X76906900Y-66659212D01*
X76888712Y-66649950D01*
X76871097Y-66639958D01*
X76854081Y-66629261D01*
X76837688Y-66617885D01*
X76821947Y-66605855D01*
X76806881Y-66593197D01*
X76792518Y-66579936D01*
X76778882Y-66566096D01*
X76766000Y-66551705D01*
X76753898Y-66536786D01*
X76742602Y-66521366D01*
X76732137Y-66505470D01*
X76722529Y-66489122D01*
X76713804Y-66472349D01*
X76705988Y-66455176D01*
X76699107Y-66437628D01*
X76693187Y-66419730D01*
X76688253Y-66401508D01*
X76684332Y-66382988D01*
X76681449Y-66364194D01*
X76679630Y-66345152D01*
X76678902Y-66325888D01*
X76679289Y-66306426D01*
X76680760Y-66286860D01*
X76683321Y-66267612D01*
X76686944Y-66248704D01*
X76691601Y-66230158D01*
X76697263Y-66211996D01*
X76703904Y-66194241D01*
X76711494Y-66176914D01*
X76720007Y-66160037D01*
X76729414Y-66143633D01*
X76739687Y-66127724D01*
X76750798Y-66112332D01*
X76762720Y-66097478D01*
X76775424Y-66083185D01*
X76788883Y-66069476D01*
X76803068Y-66056372D01*
X76817951Y-66043895D01*
X76833506Y-66032067D01*
X76849702Y-66020911D01*
X76866514Y-66010449D01*
X76883912Y-66000702D01*
X76901870Y-65991693D01*
X76920358Y-65983445D01*
X76939349Y-65975978D01*
X76958815Y-65969315D01*
X76978728Y-65963478D01*
X76999061Y-65958490D01*
X77019784Y-65954372D01*
X77040871Y-65951147D01*
X77062293Y-65948836D01*
X77084022Y-65947463D01*
X77106031Y-65947048D01*
X77128292Y-65947614D01*
G37*
X77128292Y-65947614D02*
X80303399Y-66098065D01*
X80325507Y-66099596D01*
X80347283Y-66102081D01*
X80368699Y-66105495D01*
X80389730Y-66109815D01*
X80410349Y-66115014D01*
X80430530Y-66121069D01*
X80450248Y-66127955D01*
X80469476Y-66135646D01*
X80488188Y-66144119D01*
X80506358Y-66153349D01*
X80523960Y-66163310D01*
X80540968Y-66173978D01*
X80557356Y-66185329D01*
X80573098Y-66197337D01*
X80588167Y-66209978D01*
X80602538Y-66223227D01*
X80616185Y-66237060D01*
X80629080Y-66251452D01*
X80641200Y-66266378D01*
X80652516Y-66281813D01*
X80663004Y-66297732D01*
X80672636Y-66314112D01*
X80681388Y-66330926D01*
X80689233Y-66348152D01*
X80696145Y-66365763D01*
X80702097Y-66383735D01*
X80707064Y-66402043D01*
X80711020Y-66420663D01*
X80713938Y-66439569D01*
X80715793Y-66458738D01*
X80716558Y-66478144D01*
X80716208Y-66497763D01*
X80714717Y-66517173D01*
X80712134Y-66536280D01*
X80708489Y-66555064D01*
X80703808Y-66573500D01*
X80698121Y-66591566D01*
X80691455Y-66609240D01*
X80683840Y-66626498D01*
X80675302Y-66643317D01*
X80665872Y-66659675D01*
X80655576Y-66675548D01*
X80644444Y-66690915D01*
X80632504Y-66705751D01*
X80619784Y-66720035D01*
X80606312Y-66733743D01*
X80592117Y-66746853D01*
X80577227Y-66759341D01*
X80561670Y-66771184D01*
X80545475Y-66782361D01*
X80528670Y-66792848D01*
X80511283Y-66802622D01*
X80493344Y-66811660D01*
X80474879Y-66819939D01*
X80455918Y-66827438D01*
X80436488Y-66834132D01*
X80416619Y-66839999D01*
X80396338Y-66845016D01*
X80375673Y-66849160D01*
X80354654Y-66852408D01*
X80333309Y-66854738D01*
X80311665Y-66856127D01*
X80289751Y-66856551D01*
X80267595Y-66855988D01*
X77092098Y-66705540D01*
X77069919Y-66703989D01*
X77048080Y-66701479D01*
X77026607Y-66698037D01*
X77005526Y-66693687D01*
X76984862Y-66688455D01*
X76964642Y-66682366D01*
X76944891Y-66675445D01*
X76925635Y-66667719D01*
X76906900Y-66659212D01*
X76888712Y-66649950D01*
X76871097Y-66639958D01*
X76854081Y-66629261D01*
X76837688Y-66617885D01*
X76821947Y-66605855D01*
X76806881Y-66593197D01*
X76792518Y-66579936D01*
X76778882Y-66566096D01*
X76766000Y-66551705D01*
X76753898Y-66536786D01*
X76742602Y-66521366D01*
X76732137Y-66505470D01*
X76722529Y-66489122D01*
X76713804Y-66472349D01*
X76705988Y-66455176D01*
X76699107Y-66437628D01*
X76693187Y-66419730D01*
X76688253Y-66401508D01*
X76684332Y-66382988D01*
X76681449Y-66364194D01*
X76679630Y-66345152D01*
X76678902Y-66325888D01*
X76679289Y-66306426D01*
X76680760Y-66286860D01*
X76683321Y-66267612D01*
X76686944Y-66248704D01*
X76691601Y-66230158D01*
X76697263Y-66211996D01*
X76703904Y-66194241D01*
X76711494Y-66176914D01*
X76720007Y-66160037D01*
X76729414Y-66143633D01*
X76739687Y-66127724D01*
X76750798Y-66112332D01*
X76762720Y-66097478D01*
X76775424Y-66083185D01*
X76788883Y-66069476D01*
X76803068Y-66056372D01*
X76817951Y-66043895D01*
X76833506Y-66032067D01*
X76849702Y-66020911D01*
X76866514Y-66010449D01*
X76883912Y-66000702D01*
X76901870Y-65991693D01*
X76920358Y-65983445D01*
X76939349Y-65975978D01*
X76958815Y-65969315D01*
X76978728Y-65963478D01*
X76999061Y-65958490D01*
X77019784Y-65954372D01*
X77040871Y-65951147D01*
X77062293Y-65948836D01*
X77084022Y-65947463D01*
X77106031Y-65947048D01*
X77128292Y-65947614D01*
X80586442Y-48284686D02*
X80643978Y-48288341D01*
X80643978Y-48288341D02*
X80701030Y-48294784D01*
X80701030Y-48294784D02*
X80757504Y-48303968D01*
X80757504Y-48303968D02*
X80813308Y-48315844D01*
X80813308Y-48315844D02*
X80868347Y-48330365D01*
X80868347Y-48330365D02*
X80922528Y-48347483D01*
X80922528Y-48347483D02*
X80975758Y-48367151D01*
X80975758Y-48367151D02*
X81027943Y-48389320D01*
X81027943Y-48389320D02*
X81078990Y-48413943D01*
X81078990Y-48413943D02*
X81128805Y-48440972D01*
X81128805Y-48440972D02*
X81177295Y-48470359D01*
X81177295Y-48470359D02*
X81224366Y-48502057D01*
X81224366Y-48502057D02*
X81269925Y-48536018D01*
X81269925Y-48536018D02*
X81313879Y-48572193D01*
X81313879Y-48572193D02*
X81356134Y-48610536D01*
X81356134Y-48610536D02*
X81396596Y-48650998D01*
X81396596Y-48650998D02*
X81435172Y-48693532D01*
X81435172Y-48693532D02*
X81471769Y-48738090D01*
X81471769Y-48738090D02*
X81506293Y-48784624D01*
X81506293Y-48784624D02*
X81538651Y-48833087D01*
X81538651Y-48833087D02*
X81568750Y-48883430D01*
X81568750Y-48883430D02*
X81596495Y-48935605D01*
X81596495Y-48935605D02*
X81621793Y-48989566D01*
X81621793Y-48989566D02*
X81644552Y-49045265D01*
X81644552Y-49045265D02*
X81664677Y-49102652D01*
X81664677Y-49102652D02*
X81681900Y-49161007D01*
X81681900Y-49161007D02*
X81695998Y-49219526D01*
X81695998Y-49219526D02*
X81707018Y-49278116D01*
X81707018Y-49278116D02*
X81715008Y-49336684D01*
X81715008Y-49336684D02*
X81720017Y-49395137D01*
X81720017Y-49395137D02*
X81722092Y-49453382D01*
X81722092Y-49453382D02*
X81721280Y-49511325D01*
X81721280Y-49511325D02*
X81717631Y-49568874D01*
X81717631Y-49568874D02*
X81711192Y-49625935D01*
X81711192Y-49625935D02*
X81702010Y-49682416D01*
X81702010Y-49682416D02*
X81690134Y-49738222D01*
X81690134Y-49738222D02*
X81675611Y-49793262D01*
X81675611Y-49793262D02*
X81658491Y-49847442D01*
X81658491Y-49847442D02*
X81638819Y-49900669D01*
X81638819Y-49900669D02*
X81616645Y-49952849D01*
X81616645Y-49952849D02*
X81592016Y-50003890D01*
X81592016Y-50003890D02*
X81564980Y-50053699D01*
X81564980Y-50053699D02*
X81535586Y-50102182D01*
X81535586Y-50102182D02*
X81503880Y-50149246D01*
X81503880Y-50149246D02*
X81469911Y-50194799D01*
X81469911Y-50194799D02*
X81433727Y-50238746D01*
X81433727Y-50238746D02*
X81395376Y-50280996D01*
X81395376Y-50280996D02*
X81354906Y-50321454D01*
X81354906Y-50321454D02*
X81312364Y-50360028D01*
X81312364Y-50360028D02*
X81267798Y-50396625D01*
X81267798Y-50396625D02*
X81221257Y-50431151D01*
X81221257Y-50431151D02*
X81172789Y-50463514D01*
X81172789Y-50463514D02*
X81122440Y-50493620D01*
X81122440Y-50493620D02*
X81070260Y-50521376D01*
X81070260Y-50521376D02*
X81016295Y-50546689D01*
X81016295Y-50546689D02*
X80960595Y-50569466D01*
X80960595Y-50569466D02*
X80903206Y-50589613D01*
X80903206Y-50589613D02*
X80875297Y-50598231D01*
X80875297Y-50598231D02*
X80847336Y-50606128D01*
X80847336Y-50606128D02*
X80819334Y-50613309D01*
X80819334Y-50613309D02*
X80791301Y-50619780D01*
X80791301Y-50619780D02*
X80763248Y-50625545D01*
X80763248Y-50625545D02*
X80735185Y-50630611D01*
X80735185Y-50630611D02*
X80707123Y-50634980D01*
X80707123Y-50634980D02*
X80679072Y-50638660D01*
X80679072Y-50638660D02*
X80651043Y-50641655D01*
X80651043Y-50641655D02*
X80623046Y-50643969D01*
X80623046Y-50643969D02*
X80595092Y-50645608D01*
X80595092Y-50645608D02*
X80567191Y-50646577D01*
X80567191Y-50646577D02*
X80539354Y-50646881D01*
X80539354Y-50646881D02*
X80511590Y-50646525D01*
X80511590Y-50646525D02*
X80483911Y-50645514D01*
X80483911Y-50645514D02*
X80456327Y-50643853D01*
X80456327Y-50643853D02*
X80225609Y-52433759D01*
X80225609Y-52433759D02*
X80423155Y-52476246D01*
X80423155Y-52476246D02*
X80617219Y-52526111D01*
X80617219Y-52526111D02*
X80807790Y-52583350D01*
X80807790Y-52583350D02*
X80994852Y-52647956D01*
X80994852Y-52647956D02*
X81178392Y-52719922D01*
X81178392Y-52719922D02*
X81358396Y-52799243D01*
X81358396Y-52799243D02*
X81534849Y-52885913D01*
X81534849Y-52885913D02*
X81707739Y-52979924D01*
X81707739Y-52979924D02*
X81877050Y-53081272D01*
X81877050Y-53081272D02*
X82042769Y-53189950D01*
X82042769Y-53189950D02*
X82204883Y-53305951D01*
X82204883Y-53305951D02*
X82363376Y-53429269D01*
X82363376Y-53429269D02*
X82518236Y-53559899D01*
X82518236Y-53559899D02*
X82669447Y-53697834D01*
X82669447Y-53697834D02*
X82816997Y-53843068D01*
X82816997Y-53843068D02*
X82960871Y-53995595D01*
X82960871Y-53995595D02*
X83131485Y-54193314D01*
X83131485Y-54193314D02*
X83290393Y-54395257D01*
X83290393Y-54395257D02*
X83437581Y-54601432D01*
X83437581Y-54601432D02*
X83573034Y-54811846D01*
X83573034Y-54811846D02*
X83696736Y-55026506D01*
X83696736Y-55026506D02*
X83808670Y-55245420D01*
X83808670Y-55245420D02*
X83908823Y-55468594D01*
X83908823Y-55468594D02*
X83997178Y-55696037D01*
X83997178Y-55696037D02*
X84073719Y-55927756D01*
X84073719Y-55927756D02*
X84138432Y-56163758D01*
X84138432Y-56163758D02*
X84191301Y-56404051D01*
X84191301Y-56404051D02*
X84232310Y-56648641D01*
X84232310Y-56648641D02*
X84261443Y-56897537D01*
X84261443Y-56897537D02*
X84278686Y-57150745D01*
X84278686Y-57150745D02*
X84284022Y-57408272D01*
X84284022Y-57408272D02*
X84277437Y-57670128D01*
X84277437Y-57670128D02*
X84268816Y-57813305D01*
X84268816Y-57813305D02*
X84256689Y-57955277D01*
X84256689Y-57955277D02*
X84241119Y-58096003D01*
X84241119Y-58096003D02*
X84222173Y-58235442D01*
X84222173Y-58235442D02*
X84199916Y-58373554D01*
X84199916Y-58373554D02*
X84174412Y-58510298D01*
X84174412Y-58510298D02*
X84145727Y-58645635D01*
X84145727Y-58645635D02*
X84113926Y-58779524D01*
X84113926Y-58779524D02*
X84050876Y-58995805D01*
X84050876Y-58995805D02*
X83981398Y-59206136D01*
X83981398Y-59206136D02*
X83905515Y-59410569D01*
X83905515Y-59410569D02*
X83823248Y-59609158D01*
X83823248Y-59609158D02*
X83734618Y-59801955D01*
X83734618Y-59801955D02*
X83639647Y-59989013D01*
X83639647Y-59989013D02*
X83538358Y-60170385D01*
X83538358Y-60170385D02*
X83430771Y-60346124D01*
X83430771Y-60346124D02*
X83371983Y-60434855D01*
X83371983Y-60434855D02*
X83305663Y-60527622D01*
X83305663Y-60527622D02*
X83231823Y-60624436D01*
X83231823Y-60624436D02*
X83150478Y-60725308D01*
X83150478Y-60725308D02*
X83061643Y-60830250D01*
X83061643Y-60830250D02*
X82965330Y-60939273D01*
X82965330Y-60939273D02*
X82861554Y-61052387D01*
X82861554Y-61052387D02*
X82750329Y-61169605D01*
X82750329Y-61169605D02*
X82631669Y-61290937D01*
X82631669Y-61290937D02*
X82505588Y-61416395D01*
X82505588Y-61416395D02*
X82231217Y-61679734D01*
X82231217Y-61679734D02*
X81927328Y-61959710D01*
X81927328Y-61959710D02*
X81594033Y-62256415D01*
X81594033Y-62256415D02*
X81437957Y-62399371D01*
X81437957Y-62399371D02*
X81293072Y-62546745D01*
X81293072Y-62546745D02*
X81159363Y-62698522D01*
X81159363Y-62698522D02*
X81036817Y-62854686D01*
X81036817Y-62854686D02*
X80925420Y-63015222D01*
X80925420Y-63015222D02*
X80825156Y-63180115D01*
X80825156Y-63180115D02*
X80736011Y-63349348D01*
X80736011Y-63349348D02*
X80657971Y-63522907D01*
X80657971Y-63522907D02*
X80591023Y-63700776D01*
X80591023Y-63700776D02*
X80535151Y-63882939D01*
X80535151Y-63882939D02*
X80490340Y-64069381D01*
X80490340Y-64069381D02*
X80456578Y-64260086D01*
X80456578Y-64260086D02*
X80433849Y-64455039D01*
X80433849Y-64455039D02*
X80422139Y-64654224D01*
X80422139Y-64654224D02*
X80421434Y-64857627D01*
X80421434Y-64857627D02*
X80431719Y-65065230D01*
X80431719Y-65065230D02*
X77099292Y-64907275D01*
X77099292Y-64907275D02*
X77129093Y-64701616D01*
X77129093Y-64701616D02*
X77147543Y-64499085D01*
X77147543Y-64499085D02*
X77154628Y-64299699D01*
X77154628Y-64299699D02*
X77150332Y-64103474D01*
X77150332Y-64103474D02*
X77134643Y-63910426D01*
X77134643Y-63910426D02*
X77107543Y-63720570D01*
X77107543Y-63720570D02*
X77069020Y-63533922D01*
X77069020Y-63533922D02*
X77019058Y-63350498D01*
X77019058Y-63350498D02*
X76957642Y-63170315D01*
X76957642Y-63170315D02*
X76884758Y-62993388D01*
X76884758Y-62993388D02*
X76800391Y-62819732D01*
X76800391Y-62819732D02*
X76704526Y-62649364D01*
X76704526Y-62649364D02*
X76597148Y-62482300D01*
X76597148Y-62482300D02*
X76478244Y-62318556D01*
X76478244Y-62318556D02*
X76347798Y-62158147D01*
X76347798Y-62158147D02*
X76205795Y-62001089D01*
X76205795Y-62001089D02*
X75903150Y-61672782D01*
X75903150Y-61672782D02*
X75629408Y-61361786D01*
X75629408Y-61361786D02*
X75384254Y-61068742D01*
X75384254Y-61068742D02*
X75167372Y-60794292D01*
X75167372Y-60794292D02*
X74978444Y-60539078D01*
X74978444Y-60539078D02*
X74817154Y-60303742D01*
X74817154Y-60303742D02*
X74683187Y-60088926D01*
X74683187Y-60088926D02*
X74626350Y-59989413D01*
X74626350Y-59989413D02*
X74576226Y-59895271D01*
X74576226Y-59895271D02*
X74485229Y-59711287D01*
X74485229Y-59711287D02*
X74399662Y-59524532D01*
X74399662Y-59524532D02*
X74319967Y-59334217D01*
X74319967Y-59334217D02*
X74246588Y-59139556D01*
X74246588Y-59139556D02*
X74212406Y-59040348D01*
X74212406Y-59040348D02*
X74179968Y-58939759D01*
X74179968Y-58939759D02*
X74149332Y-58837690D01*
X74149332Y-58837690D02*
X74120551Y-58734041D01*
X74120551Y-58734041D02*
X74093682Y-58628715D01*
X74093682Y-58628715D02*
X74068780Y-58521613D01*
X74068780Y-58521613D02*
X74045901Y-58412636D01*
X74045901Y-58412636D02*
X74025099Y-58301687D01*
X74025099Y-58301687D02*
X74006595Y-58165444D01*
X74006595Y-58165444D02*
X73991220Y-58028017D01*
X73991220Y-58028017D02*
X73979051Y-57889461D01*
X73979051Y-57889461D02*
X73970165Y-57749832D01*
X73970165Y-57749832D02*
X73964640Y-57609187D01*
X73964640Y-57609187D02*
X73962554Y-57467580D01*
X73962554Y-57467580D02*
X73963803Y-57343086D01*
X73963803Y-57343086D02*
X75936082Y-57343086D01*
X75936082Y-57343086D02*
X75936633Y-57362178D01*
X75936633Y-57362178D02*
X75938132Y-57381038D01*
X75938132Y-57381038D02*
X75940557Y-57399640D01*
X75940557Y-57399640D02*
X75943887Y-57417960D01*
X75943887Y-57417960D02*
X75948097Y-57435973D01*
X75948097Y-57435973D02*
X75953167Y-57453656D01*
X75953167Y-57453656D02*
X75959072Y-57470983D01*
X75959072Y-57470983D02*
X75965792Y-57487930D01*
X75965792Y-57487930D02*
X75973304Y-57504472D01*
X75973304Y-57504472D02*
X75981585Y-57520585D01*
X75981585Y-57520585D02*
X75990612Y-57536244D01*
X75990612Y-57536244D02*
X76000364Y-57551424D01*
X76000364Y-57551424D02*
X76010818Y-57566101D01*
X76010818Y-57566101D02*
X76021951Y-57580251D01*
X76021951Y-57580251D02*
X76033741Y-57593848D01*
X76033741Y-57593848D02*
X76046166Y-57606868D01*
X76046166Y-57606868D02*
X76059204Y-57619287D01*
X76059204Y-57619287D02*
X76072831Y-57631080D01*
X76072831Y-57631080D02*
X76087025Y-57642221D01*
X76087025Y-57642221D02*
X76101764Y-57652688D01*
X76101764Y-57652688D02*
X76117026Y-57662455D01*
X76117026Y-57662455D02*
X76132788Y-57671498D01*
X76132788Y-57671498D02*
X76149028Y-57679791D01*
X76149028Y-57679791D02*
X76165723Y-57687311D01*
X76165723Y-57687311D02*
X76182851Y-57694032D01*
X76182851Y-57694032D02*
X76200389Y-57699931D01*
X76200389Y-57699931D02*
X76218315Y-57704983D01*
X76218315Y-57704983D02*
X76236607Y-57709162D01*
X76236607Y-57709162D02*
X76255242Y-57712445D01*
X76255242Y-57712445D02*
X76274198Y-57714807D01*
X76274198Y-57714807D02*
X76293452Y-57716223D01*
X76293452Y-57716223D02*
X76312772Y-57716643D01*
X76312772Y-57716643D02*
X76331881Y-57716092D01*
X76331881Y-57716092D02*
X76350756Y-57714593D01*
X76350756Y-57714593D02*
X76369370Y-57712167D01*
X76369370Y-57712167D02*
X76387701Y-57708838D01*
X76387701Y-57708838D02*
X76405723Y-57704627D01*
X76405723Y-57704627D02*
X76423411Y-57699558D01*
X76423411Y-57699558D02*
X76440742Y-57693652D01*
X76440742Y-57693652D02*
X76457691Y-57686932D01*
X76457691Y-57686932D02*
X76474233Y-57679421D01*
X76474233Y-57679421D02*
X76490343Y-57671140D01*
X76490343Y-57671140D02*
X76505998Y-57662113D01*
X76505998Y-57662113D02*
X76521173Y-57652361D01*
X76521173Y-57652361D02*
X76535843Y-57641907D01*
X76535843Y-57641907D02*
X76549983Y-57630774D01*
X76549983Y-57630774D02*
X76563570Y-57618984D01*
X76563570Y-57618984D02*
X76576579Y-57606559D01*
X76576579Y-57606559D02*
X76582820Y-57600000D01*
X76582820Y-57600000D02*
X81359940Y-57600000D01*
X81359940Y-57600000D02*
X81360471Y-57619095D01*
X81360471Y-57619095D02*
X81361952Y-57637956D01*
X81361952Y-57637956D02*
X81364361Y-57656558D01*
X81364361Y-57656558D02*
X81367675Y-57674878D01*
X81367675Y-57674878D02*
X81371872Y-57692891D01*
X81371872Y-57692891D02*
X81376929Y-57710572D01*
X81376929Y-57710572D02*
X81382823Y-57727897D01*
X81382823Y-57727897D02*
X81389533Y-57744841D01*
X81389533Y-57744841D02*
X81397036Y-57761380D01*
X81397036Y-57761380D02*
X81405309Y-57777490D01*
X81405309Y-57777490D02*
X81414330Y-57793146D01*
X81414330Y-57793146D02*
X81424076Y-57808323D01*
X81424076Y-57808323D02*
X81434525Y-57822997D01*
X81434525Y-57822997D02*
X81445655Y-57837144D01*
X81445655Y-57837144D02*
X81457443Y-57850738D01*
X81457443Y-57850738D02*
X81469866Y-57863757D01*
X81469866Y-57863757D02*
X81482902Y-57876174D01*
X81482902Y-57876174D02*
X81496528Y-57887967D01*
X81496528Y-57887967D02*
X81510723Y-57899109D01*
X81510723Y-57899109D02*
X81525464Y-57909578D01*
X81525464Y-57909578D02*
X81540727Y-57919347D01*
X81540727Y-57919347D02*
X81556491Y-57928394D01*
X81556491Y-57928394D02*
X81572734Y-57936693D01*
X81572734Y-57936693D02*
X81589432Y-57944219D01*
X81589432Y-57944219D02*
X81606563Y-57950950D01*
X81606563Y-57950950D02*
X81624105Y-57956859D01*
X81624105Y-57956859D02*
X81642036Y-57961922D01*
X81642036Y-57961922D02*
X81660332Y-57966116D01*
X81660332Y-57966116D02*
X81678971Y-57969415D01*
X81678971Y-57969415D02*
X81697932Y-57971795D01*
X81697932Y-57971795D02*
X81717191Y-57973232D01*
X81717191Y-57973232D02*
X81736496Y-57973653D01*
X81736496Y-57973653D02*
X81755595Y-57973102D01*
X81755595Y-57973102D02*
X81774462Y-57971602D01*
X81774462Y-57971602D02*
X81793072Y-57969176D01*
X81793072Y-57969176D02*
X81811401Y-57965845D01*
X81811401Y-57965845D02*
X81829425Y-57961633D01*
X81829425Y-57961633D02*
X81847117Y-57956561D01*
X81847117Y-57956561D02*
X81864454Y-57950653D01*
X81864454Y-57950653D02*
X81881411Y-57943930D01*
X81881411Y-57943930D02*
X81897962Y-57936414D01*
X81897962Y-57936414D02*
X81914084Y-57928129D01*
X81914084Y-57928129D02*
X81929751Y-57919096D01*
X81929751Y-57919096D02*
X81944939Y-57909339D01*
X81944939Y-57909339D02*
X81959623Y-57898879D01*
X81959623Y-57898879D02*
X81973778Y-57887738D01*
X81973778Y-57887738D02*
X81987379Y-57875939D01*
X81987379Y-57875939D02*
X82000402Y-57863505D01*
X82000402Y-57863505D02*
X82012822Y-57850458D01*
X82012822Y-57850458D02*
X82024614Y-57836821D01*
X82024614Y-57836821D02*
X82035753Y-57822614D01*
X82035753Y-57822614D02*
X82046214Y-57807862D01*
X82046214Y-57807862D02*
X82055974Y-57792587D01*
X82055974Y-57792587D02*
X82065006Y-57776810D01*
X82065006Y-57776810D02*
X82073287Y-57760554D01*
X82073287Y-57760554D02*
X82080791Y-57743842D01*
X82080791Y-57743842D02*
X82087494Y-57726696D01*
X82087494Y-57726696D02*
X82093370Y-57709138D01*
X82093370Y-57709138D02*
X82098396Y-57691191D01*
X82098396Y-57691191D02*
X82102547Y-57672878D01*
X82102547Y-57672878D02*
X82105797Y-57654219D01*
X82105797Y-57654219D02*
X82108122Y-57635239D01*
X82108122Y-57635239D02*
X82109497Y-57615959D01*
X82109497Y-57615959D02*
X82109938Y-57596675D01*
X82109938Y-57596675D02*
X82109407Y-57577598D01*
X82109407Y-57577598D02*
X82107926Y-57558753D01*
X82107926Y-57558753D02*
X82105517Y-57540164D01*
X82105517Y-57540164D02*
X82102203Y-57521855D01*
X82102203Y-57521855D02*
X82098006Y-57503851D01*
X82098006Y-57503851D02*
X82092949Y-57486178D01*
X82092949Y-57486178D02*
X82087054Y-57468859D01*
X82087054Y-57468859D02*
X82080345Y-57451920D01*
X82080345Y-57451920D02*
X82072842Y-57435384D01*
X82072842Y-57435384D02*
X82064569Y-57419277D01*
X82064569Y-57419277D02*
X82055548Y-57403623D01*
X82055548Y-57403623D02*
X82045801Y-57388447D01*
X82045801Y-57388447D02*
X82035352Y-57373773D01*
X82035352Y-57373773D02*
X82024223Y-57359627D01*
X82024223Y-57359627D02*
X82012435Y-57346032D01*
X82012435Y-57346032D02*
X82000012Y-57333013D01*
X82000012Y-57333013D02*
X81986976Y-57320596D01*
X81986976Y-57320596D02*
X81973349Y-57308804D01*
X81973349Y-57308804D02*
X81959154Y-57297663D01*
X81959154Y-57297663D02*
X81944414Y-57287196D01*
X81944414Y-57287196D02*
X81929150Y-57277429D01*
X81929150Y-57277429D02*
X81913386Y-57268386D01*
X81913386Y-57268386D02*
X81897144Y-57260092D01*
X81897144Y-57260092D02*
X81880446Y-57252571D01*
X81880446Y-57252571D02*
X81863314Y-57245849D01*
X81863314Y-57245849D02*
X81845772Y-57239949D01*
X81845772Y-57239949D02*
X81827842Y-57234897D01*
X81827842Y-57234897D02*
X81809545Y-57230716D01*
X81809545Y-57230716D02*
X81790906Y-57227432D01*
X81790906Y-57227432D02*
X81771945Y-57225070D01*
X81771945Y-57225070D02*
X81752686Y-57223654D01*
X81752686Y-57223654D02*
X81733381Y-57223233D01*
X81733381Y-57223233D02*
X81714285Y-57223784D01*
X81714285Y-57223784D02*
X81695421Y-57225284D01*
X81695421Y-57225284D02*
X81676815Y-57227710D01*
X81676815Y-57227710D02*
X81658490Y-57231040D01*
X81658490Y-57231040D02*
X81640473Y-57235252D01*
X81640473Y-57235252D02*
X81622786Y-57240322D01*
X81622786Y-57240322D02*
X81605456Y-57246230D01*
X81605456Y-57246230D02*
X81588506Y-57252951D01*
X81588506Y-57252951D02*
X81571962Y-57260465D01*
X81571962Y-57260465D02*
X81555847Y-57268748D01*
X81555847Y-57268748D02*
X81540187Y-57277778D01*
X81540187Y-57277778D02*
X81525007Y-57287532D01*
X81525007Y-57287532D02*
X81510329Y-57297989D01*
X81510329Y-57297989D02*
X81496181Y-57309125D01*
X81496181Y-57309125D02*
X81482585Y-57320918D01*
X81482585Y-57320918D02*
X81469568Y-57333346D01*
X81469568Y-57333346D02*
X81457152Y-57346387D01*
X81457152Y-57346387D02*
X81445364Y-57360018D01*
X81445364Y-57360018D02*
X81434227Y-57374216D01*
X81434227Y-57374216D02*
X81423766Y-57388959D01*
X81423766Y-57388959D02*
X81414007Y-57404225D01*
X81414007Y-57404225D02*
X81404973Y-57419991D01*
X81404973Y-57419991D02*
X81396689Y-57436235D01*
X81396689Y-57436235D02*
X81389180Y-57452934D01*
X81389180Y-57452934D02*
X81382470Y-57470066D01*
X81382470Y-57470066D02*
X81376585Y-57487609D01*
X81376585Y-57487609D02*
X81371548Y-57505540D01*
X81371548Y-57505540D02*
X81367385Y-57523837D01*
X81367385Y-57523837D02*
X81364119Y-57542476D01*
X81364119Y-57542476D02*
X81361777Y-57561437D01*
X81361777Y-57561437D02*
X81360381Y-57580696D01*
X81360381Y-57580696D02*
X81359940Y-57600000D01*
X81359940Y-57600000D02*
X76582820Y-57600000D01*
X76582820Y-57600000D02*
X76588985Y-57593521D01*
X76588985Y-57593521D02*
X76600764Y-57579894D01*
X76600764Y-57579894D02*
X76611891Y-57565700D01*
X76611891Y-57565700D02*
X76622341Y-57550961D01*
X76622341Y-57550961D02*
X76632091Y-57535699D01*
X76632091Y-57535699D02*
X76641116Y-57519937D01*
X76641116Y-57519937D02*
X76649391Y-57503697D01*
X76649391Y-57503697D02*
X76656891Y-57487002D01*
X76656891Y-57487002D02*
X76663593Y-57469874D01*
X76663593Y-57469874D02*
X76669471Y-57452336D01*
X76669471Y-57452336D02*
X76674502Y-57434410D01*
X76674502Y-57434410D02*
X76678660Y-57416118D01*
X76678660Y-57416118D02*
X76681921Y-57397483D01*
X76681921Y-57397483D02*
X76684262Y-57378527D01*
X76684262Y-57378527D02*
X76685656Y-57359273D01*
X76685656Y-57359273D02*
X76686077Y-57339974D01*
X76686077Y-57339974D02*
X76685528Y-57320884D01*
X76685528Y-57320884D02*
X76684032Y-57302028D01*
X76684032Y-57302028D02*
X76681611Y-57283430D01*
X76681611Y-57283430D02*
X76678287Y-57265114D01*
X76678287Y-57265114D02*
X76674082Y-57247106D01*
X76674082Y-57247106D02*
X76669020Y-57229430D01*
X76669020Y-57229430D02*
X76663122Y-57212109D01*
X76663122Y-57212109D02*
X76656410Y-57195169D01*
X76656410Y-57195169D02*
X76648908Y-57178634D01*
X76648908Y-57178634D02*
X76640637Y-57162529D01*
X76640637Y-57162529D02*
X76631619Y-57146877D01*
X76631619Y-57146877D02*
X76621878Y-57131704D01*
X76621878Y-57131704D02*
X76611435Y-57117033D01*
X76611435Y-57117033D02*
X76600312Y-57102890D01*
X76600312Y-57102890D02*
X76588533Y-57089299D01*
X76588533Y-57089299D02*
X76576118Y-57076284D01*
X76576118Y-57076284D02*
X76563092Y-57063869D01*
X76563092Y-57063869D02*
X76549475Y-57052080D01*
X76549475Y-57052080D02*
X76535291Y-57040940D01*
X76535291Y-57040940D02*
X76520562Y-57030475D01*
X76520562Y-57030475D02*
X76505310Y-57020708D01*
X76505310Y-57020708D02*
X76489557Y-57011663D01*
X76489557Y-57011663D02*
X76473325Y-57003367D01*
X76473325Y-57003367D02*
X76456638Y-56995842D01*
X76456638Y-56995842D02*
X76439518Y-56989114D01*
X76439518Y-56989114D02*
X76421985Y-56983206D01*
X76421985Y-56983206D02*
X76404065Y-56978144D01*
X76404065Y-56978144D02*
X76385777Y-56973951D01*
X76385777Y-56973951D02*
X76367145Y-56970653D01*
X76367145Y-56970653D02*
X76348191Y-56968273D01*
X76348191Y-56968273D02*
X76328938Y-56966837D01*
X76328938Y-56966837D02*
X76309658Y-56966417D01*
X76309658Y-56966417D02*
X76290582Y-56966967D01*
X76290582Y-56966967D02*
X76271735Y-56968467D01*
X76271735Y-56968467D02*
X76253143Y-56970892D01*
X76253143Y-56970892D02*
X76234828Y-56974221D01*
X76234828Y-56974221D02*
X76216818Y-56978432D01*
X76216818Y-56978432D02*
X76199136Y-56983501D01*
X76199136Y-56983501D02*
X76181807Y-56989407D01*
X76181807Y-56989407D02*
X76164857Y-56996127D01*
X76164857Y-56996127D02*
X76148309Y-57003639D01*
X76148309Y-57003639D02*
X76132189Y-57011919D01*
X76132189Y-57011919D02*
X76116522Y-57020947D01*
X76116522Y-57020947D02*
X76101333Y-57030699D01*
X76101333Y-57030699D02*
X76086645Y-57041153D01*
X76086645Y-57041153D02*
X76072485Y-57052286D01*
X76072485Y-57052286D02*
X76058877Y-57064076D01*
X76058877Y-57064076D02*
X76045846Y-57076501D01*
X76045846Y-57076501D02*
X76033417Y-57089538D01*
X76033417Y-57089538D02*
X76021614Y-57103165D01*
X76021614Y-57103165D02*
X76010463Y-57117360D01*
X76010463Y-57117360D02*
X75999988Y-57132099D01*
X75999988Y-57132099D02*
X75990214Y-57147361D01*
X75990214Y-57147361D02*
X75981166Y-57163123D01*
X75981166Y-57163123D02*
X75972869Y-57179363D01*
X75972869Y-57179363D02*
X75965347Y-57196058D01*
X75965347Y-57196058D02*
X75958626Y-57213186D01*
X75958626Y-57213186D02*
X75952731Y-57230724D01*
X75952731Y-57230724D02*
X75947685Y-57248650D01*
X75947685Y-57248650D02*
X75943515Y-57266942D01*
X75943515Y-57266942D02*
X75940244Y-57285577D01*
X75940244Y-57285577D02*
X75937898Y-57304533D01*
X75937898Y-57304533D02*
X75936502Y-57323787D01*
X75936502Y-57323787D02*
X75936082Y-57343086D01*
X75936082Y-57343086D02*
X73963803Y-57343086D01*
X73963803Y-57343086D02*
X73963984Y-57325068D01*
X73963984Y-57325068D02*
X73969008Y-57181705D01*
X73969008Y-57181705D02*
X73987202Y-56920452D01*
X73987202Y-56920452D02*
X74016869Y-56664627D01*
X74016869Y-56664627D02*
X74057992Y-56414224D01*
X74057992Y-56414224D02*
X74110551Y-56169232D01*
X74110551Y-56169232D02*
X74174531Y-55929643D01*
X74174531Y-55929643D02*
X74249911Y-55695447D01*
X74249911Y-55695447D02*
X74336676Y-55466637D01*
X74336676Y-55466637D02*
X74434807Y-55243203D01*
X74434807Y-55243203D02*
X74544285Y-55025136D01*
X74544285Y-55025136D02*
X74665094Y-54812427D01*
X74665094Y-54812427D02*
X74797216Y-54605067D01*
X74797216Y-54605067D02*
X74940632Y-54403048D01*
X74940632Y-54403048D02*
X75095325Y-54206360D01*
X75095325Y-54206360D02*
X75261277Y-54014994D01*
X75261277Y-54014994D02*
X75438470Y-53828943D01*
X75438470Y-53828943D02*
X75626887Y-53648196D01*
X75626887Y-53648196D02*
X75823379Y-53477513D01*
X75823379Y-53477513D02*
X76024401Y-53318589D01*
X76024401Y-53318589D02*
X76229928Y-53171433D01*
X76229928Y-53171433D02*
X76439939Y-53036053D01*
X76439939Y-53036053D02*
X76654409Y-52912456D01*
X76654409Y-52912456D02*
X76873317Y-52800651D01*
X76873317Y-52800651D02*
X77096640Y-52700646D01*
X77096640Y-52700646D02*
X77324354Y-52612450D01*
X77324354Y-52612450D02*
X77556437Y-52536070D01*
X77556437Y-52536070D02*
X77792865Y-52471514D01*
X77792865Y-52471514D02*
X78033617Y-52418791D01*
X78033617Y-52418791D02*
X78278668Y-52377909D01*
X78278668Y-52377909D02*
X78527997Y-52348875D01*
X78527997Y-52348875D02*
X78781581Y-52331699D01*
X78781581Y-52331699D02*
X79039395Y-52326388D01*
X79039395Y-52326388D02*
X79301419Y-52332950D01*
X79301419Y-52332950D02*
X79425509Y-52338772D01*
X79425509Y-52338772D02*
X79541889Y-52345465D01*
X79541889Y-52345465D02*
X79657251Y-52354417D01*
X79657251Y-52354417D02*
X79771571Y-52365600D01*
X79771571Y-52365600D02*
X79884825Y-52378990D01*
X79884825Y-52378990D02*
X80118189Y-50568446D01*
X80118189Y-50568446D02*
X80058454Y-50543703D01*
X80058454Y-50543703D02*
X80000191Y-50515757D01*
X80000191Y-50515757D02*
X79943538Y-50484679D01*
X79943538Y-50484679D02*
X79888634Y-50450541D01*
X79888634Y-50450541D02*
X79835616Y-50413414D01*
X79835616Y-50413414D02*
X79784623Y-50373369D01*
X79784623Y-50373369D02*
X79735794Y-50330478D01*
X79735794Y-50330478D02*
X79689266Y-50284812D01*
X79689266Y-50284812D02*
X79645179Y-50236442D01*
X79645179Y-50236442D02*
X79603670Y-50185440D01*
X79603670Y-50185440D02*
X79564878Y-50131877D01*
X79564878Y-50131877D02*
X79528941Y-50075824D01*
X79528941Y-50075824D02*
X79495998Y-50017352D01*
X79495998Y-50017352D02*
X79466187Y-49956534D01*
X79466187Y-49956534D02*
X79439646Y-49893440D01*
X79439646Y-49893440D02*
X79416514Y-49828141D01*
X79416514Y-49828141D02*
X79399291Y-49769787D01*
X79399291Y-49769787D02*
X79385193Y-49711268D01*
X79385193Y-49711268D02*
X79374173Y-49652678D01*
X79374173Y-49652678D02*
X79366182Y-49594110D01*
X79366182Y-49594110D02*
X79361174Y-49535658D01*
X79361174Y-49535658D02*
X79359099Y-49477413D01*
X79359099Y-49477413D02*
X79359910Y-49419470D01*
X79359910Y-49419470D02*
X79363560Y-49361921D01*
X79363560Y-49361921D02*
X79369999Y-49304860D01*
X79369999Y-49304860D02*
X79379181Y-49248380D01*
X79379181Y-49248380D02*
X79391057Y-49192573D01*
X79391057Y-49192573D02*
X79405579Y-49137533D01*
X79405579Y-49137533D02*
X79422700Y-49083353D01*
X79422700Y-49083353D02*
X79442372Y-49030127D01*
X79442372Y-49030127D02*
X79464546Y-48977946D01*
X79464546Y-48977946D02*
X79489175Y-48926905D01*
X79489175Y-48926905D02*
X79516210Y-48877097D01*
X79516210Y-48877097D02*
X79545605Y-48828614D01*
X79545605Y-48828614D02*
X79577311Y-48781549D01*
X79577311Y-48781549D02*
X79611279Y-48735997D01*
X79611279Y-48735997D02*
X79647463Y-48692049D01*
X79647463Y-48692049D02*
X79685814Y-48649800D01*
X79685814Y-48649800D02*
X79726285Y-48609342D01*
X79726285Y-48609342D02*
X79768827Y-48570768D01*
X79768827Y-48570768D02*
X79813392Y-48534171D01*
X79813392Y-48534171D02*
X79859933Y-48499645D01*
X79859933Y-48499645D02*
X79908402Y-48467283D01*
X79908402Y-48467283D02*
X79958751Y-48437177D01*
X79958751Y-48437177D02*
X80010931Y-48409421D01*
X80010931Y-48409421D02*
X80064895Y-48384108D01*
X80064895Y-48384108D02*
X80120596Y-48361332D01*
X80120596Y-48361332D02*
X80177984Y-48341184D01*
X80177984Y-48341184D02*
X80236292Y-48323984D01*
X80236292Y-48323984D02*
X80294770Y-48309907D01*
X80294770Y-48309907D02*
X80353325Y-48298904D01*
X80353325Y-48298904D02*
X80411863Y-48290928D01*
X80411863Y-48290928D02*
X80470291Y-48285932D01*
X80470291Y-48285932D02*
X80528515Y-48283867D01*
X80528515Y-48283867D02*
X80586442Y-48284686D01*
G36*
X73969008Y-57181705D02*
G01*
X73987202Y-56920452D01*
X74016869Y-56664627D01*
X74057992Y-56414224D01*
X74110551Y-56169232D01*
X74174531Y-55929643D01*
X74249911Y-55695447D01*
X74336676Y-55466637D01*
X74434807Y-55243203D01*
X74544285Y-55025136D01*
X74665094Y-54812427D01*
X74797216Y-54605067D01*
X74940632Y-54403048D01*
X75095325Y-54206360D01*
X75261277Y-54014994D01*
X75438470Y-53828943D01*
X75626887Y-53648196D01*
X75823379Y-53477513D01*
X76024401Y-53318589D01*
X76229928Y-53171433D01*
X76439939Y-53036053D01*
X76654409Y-52912456D01*
X76873317Y-52800651D01*
X77096640Y-52700646D01*
X77324354Y-52612450D01*
X77556437Y-52536070D01*
X77792865Y-52471514D01*
X78033617Y-52418791D01*
X78278668Y-52377909D01*
X78527997Y-52348875D01*
X78781581Y-52331699D01*
X79039395Y-52326388D01*
X79301419Y-52332950D01*
X79425509Y-52338772D01*
X79541889Y-52345465D01*
X79657251Y-52354417D01*
X79771571Y-52365600D01*
X79884825Y-52378990D01*
X80118189Y-50568446D01*
X80058454Y-50543703D01*
X80000191Y-50515757D01*
X79943538Y-50484679D01*
X79888634Y-50450541D01*
X79835616Y-50413414D01*
X79784623Y-50373369D01*
X79735794Y-50330478D01*
X79689266Y-50284812D01*
X79645179Y-50236442D01*
X79603670Y-50185440D01*
X79564878Y-50131877D01*
X79528941Y-50075824D01*
X79495998Y-50017352D01*
X79466187Y-49956534D01*
X79439646Y-49893440D01*
X79416514Y-49828141D01*
X79399291Y-49769787D01*
X79385193Y-49711268D01*
X79374173Y-49652678D01*
X79366182Y-49594110D01*
X79361174Y-49535658D01*
X79359099Y-49477413D01*
X79359910Y-49419470D01*
X79363560Y-49361921D01*
X79369999Y-49304860D01*
X79379181Y-49248380D01*
X79391057Y-49192573D01*
X79405579Y-49137533D01*
X79422700Y-49083353D01*
X79442372Y-49030127D01*
X79464546Y-48977946D01*
X79489175Y-48926905D01*
X79516210Y-48877097D01*
X79545605Y-48828614D01*
X79577311Y-48781549D01*
X79611279Y-48735997D01*
X79647463Y-48692049D01*
X79685814Y-48649800D01*
X79726285Y-48609342D01*
X79768827Y-48570768D01*
X79813392Y-48534171D01*
X79859933Y-48499645D01*
X79908402Y-48467283D01*
X79958751Y-48437177D01*
X80010931Y-48409421D01*
X80064895Y-48384108D01*
X80120596Y-48361332D01*
X80177984Y-48341184D01*
X80236292Y-48323984D01*
X80294770Y-48309907D01*
X80353325Y-48298904D01*
X80411863Y-48290928D01*
X80470291Y-48285932D01*
X80528515Y-48283867D01*
X80586442Y-48284686D01*
X80643978Y-48288341D01*
X80701030Y-48294784D01*
X80757504Y-48303968D01*
X80813308Y-48315844D01*
X80868347Y-48330365D01*
X80922528Y-48347483D01*
X80975758Y-48367151D01*
X81027943Y-48389320D01*
X81078990Y-48413943D01*
X81128805Y-48440972D01*
X81177295Y-48470359D01*
X81224366Y-48502057D01*
X81269925Y-48536018D01*
X81313879Y-48572193D01*
X81356134Y-48610536D01*
X81396596Y-48650998D01*
X81435172Y-48693532D01*
X81471769Y-48738090D01*
X81506293Y-48784624D01*
X81538651Y-48833087D01*
X81568750Y-48883430D01*
X81596495Y-48935605D01*
X81621793Y-48989566D01*
X81644552Y-49045265D01*
X81664677Y-49102652D01*
X81681900Y-49161007D01*
X81695998Y-49219526D01*
X81707018Y-49278116D01*
X81715008Y-49336684D01*
X81720017Y-49395137D01*
X81722092Y-49453382D01*
X81721280Y-49511325D01*
X81717631Y-49568874D01*
X81711192Y-49625935D01*
X81702010Y-49682416D01*
X81690134Y-49738222D01*
X81675611Y-49793262D01*
X81658491Y-49847442D01*
X81638819Y-49900669D01*
X81616645Y-49952849D01*
X81592016Y-50003890D01*
X81564980Y-50053699D01*
X81535586Y-50102182D01*
X81503880Y-50149246D01*
X81469911Y-50194799D01*
X81433727Y-50238746D01*
X81395376Y-50280996D01*
X81354906Y-50321454D01*
X81312364Y-50360028D01*
X81267798Y-50396625D01*
X81221257Y-50431151D01*
X81172789Y-50463514D01*
X81122440Y-50493620D01*
X81070260Y-50521376D01*
X81016295Y-50546689D01*
X80960595Y-50569466D01*
X80903206Y-50589613D01*
X80875297Y-50598231D01*
X80847336Y-50606128D01*
X80819334Y-50613309D01*
X80791301Y-50619780D01*
X80763248Y-50625545D01*
X80735185Y-50630611D01*
X80707123Y-50634980D01*
X80679072Y-50638660D01*
X80651043Y-50641655D01*
X80623046Y-50643969D01*
X80595092Y-50645608D01*
X80567191Y-50646577D01*
X80539354Y-50646881D01*
X80511590Y-50646525D01*
X80483911Y-50645514D01*
X80456327Y-50643853D01*
X80225609Y-52433759D01*
X80423155Y-52476246D01*
X80617219Y-52526111D01*
X80807790Y-52583350D01*
X80994852Y-52647956D01*
X81178392Y-52719922D01*
X81358396Y-52799243D01*
X81534849Y-52885913D01*
X81707739Y-52979924D01*
X81877050Y-53081272D01*
X82042769Y-53189950D01*
X82204883Y-53305951D01*
X82363376Y-53429269D01*
X82518236Y-53559899D01*
X82669447Y-53697834D01*
X82816997Y-53843068D01*
X82960871Y-53995595D01*
X83131485Y-54193314D01*
X83290393Y-54395257D01*
X83437581Y-54601432D01*
X83573034Y-54811846D01*
X83696736Y-55026506D01*
X83808670Y-55245420D01*
X83908823Y-55468594D01*
X83997178Y-55696037D01*
X84073719Y-55927756D01*
X84138432Y-56163758D01*
X84191301Y-56404051D01*
X84232310Y-56648641D01*
X84261443Y-56897537D01*
X84278686Y-57150745D01*
X84284022Y-57408272D01*
X84277437Y-57670128D01*
X84268816Y-57813305D01*
X84256689Y-57955277D01*
X84241119Y-58096003D01*
X84222173Y-58235442D01*
X84199916Y-58373554D01*
X84174412Y-58510298D01*
X84145727Y-58645635D01*
X84113926Y-58779524D01*
X84050876Y-58995805D01*
X83981398Y-59206136D01*
X83905515Y-59410569D01*
X83823248Y-59609158D01*
X83734618Y-59801955D01*
X83639647Y-59989013D01*
X83538358Y-60170385D01*
X83430771Y-60346124D01*
X83371983Y-60434855D01*
X83305663Y-60527622D01*
X83231823Y-60624436D01*
X83150478Y-60725308D01*
X83061643Y-60830250D01*
X82965330Y-60939273D01*
X82861554Y-61052387D01*
X82750329Y-61169605D01*
X82631669Y-61290937D01*
X82505588Y-61416395D01*
X82231217Y-61679734D01*
X81927328Y-61959710D01*
X81594033Y-62256415D01*
X81437957Y-62399371D01*
X81293072Y-62546745D01*
X81159363Y-62698522D01*
X81036817Y-62854686D01*
X80925420Y-63015222D01*
X80825156Y-63180115D01*
X80736011Y-63349348D01*
X80657971Y-63522907D01*
X80591023Y-63700776D01*
X80535151Y-63882939D01*
X80490340Y-64069381D01*
X80456578Y-64260086D01*
X80433849Y-64455039D01*
X80422139Y-64654224D01*
X80421434Y-64857627D01*
X80431719Y-65065230D01*
X77099292Y-64907275D01*
X77129093Y-64701616D01*
X77147543Y-64499085D01*
X77154628Y-64299699D01*
X77150332Y-64103474D01*
X77134643Y-63910426D01*
X77107543Y-63720570D01*
X77069020Y-63533922D01*
X77019058Y-63350498D01*
X76957642Y-63170315D01*
X76884758Y-62993388D01*
X76800391Y-62819732D01*
X76704526Y-62649364D01*
X76597148Y-62482300D01*
X76478244Y-62318556D01*
X76347798Y-62158147D01*
X76205795Y-62001089D01*
X75903150Y-61672782D01*
X75629408Y-61361786D01*
X75384254Y-61068742D01*
X75167372Y-60794292D01*
X74978444Y-60539078D01*
X74817154Y-60303742D01*
X74683187Y-60088926D01*
X74626350Y-59989413D01*
X74576226Y-59895271D01*
X74485229Y-59711287D01*
X74399662Y-59524532D01*
X74319967Y-59334217D01*
X74246588Y-59139556D01*
X74212406Y-59040348D01*
X74179968Y-58939759D01*
X74149332Y-58837690D01*
X74120551Y-58734041D01*
X74093682Y-58628715D01*
X74068780Y-58521613D01*
X74045901Y-58412636D01*
X74025099Y-58301687D01*
X74006595Y-58165444D01*
X73991220Y-58028017D01*
X73979051Y-57889461D01*
X73970165Y-57749832D01*
X73964640Y-57609187D01*
X73962554Y-57467580D01*
X73963803Y-57343086D01*
X75936082Y-57343086D01*
X75936633Y-57362178D01*
X75938132Y-57381038D01*
X75940557Y-57399640D01*
X75943887Y-57417960D01*
X75948097Y-57435973D01*
X75953167Y-57453656D01*
X75959072Y-57470983D01*
X75965792Y-57487930D01*
X75973304Y-57504472D01*
X75981585Y-57520585D01*
X75990612Y-57536244D01*
X76000364Y-57551424D01*
X76010818Y-57566101D01*
X76021951Y-57580251D01*
X76033741Y-57593848D01*
X76046166Y-57606868D01*
X76059204Y-57619287D01*
X76072831Y-57631080D01*
X76087025Y-57642221D01*
X76101764Y-57652688D01*
X76117026Y-57662455D01*
X76132788Y-57671498D01*
X76149028Y-57679791D01*
X76165723Y-57687311D01*
X76182851Y-57694032D01*
X76200389Y-57699931D01*
X76218315Y-57704983D01*
X76236607Y-57709162D01*
X76255242Y-57712445D01*
X76274198Y-57714807D01*
X76293452Y-57716223D01*
X76312772Y-57716643D01*
X76331881Y-57716092D01*
X76350756Y-57714593D01*
X76369370Y-57712167D01*
X76387701Y-57708838D01*
X76405723Y-57704627D01*
X76423411Y-57699558D01*
X76440742Y-57693652D01*
X76457691Y-57686932D01*
X76474233Y-57679421D01*
X76490343Y-57671140D01*
X76505998Y-57662113D01*
X76521173Y-57652361D01*
X76535843Y-57641907D01*
X76549983Y-57630774D01*
X76563570Y-57618984D01*
X76576579Y-57606559D01*
X76582820Y-57600000D01*
X81359940Y-57600000D01*
X81360471Y-57619095D01*
X81361952Y-57637956D01*
X81364361Y-57656558D01*
X81367675Y-57674878D01*
X81371872Y-57692891D01*
X81376929Y-57710572D01*
X81382823Y-57727897D01*
X81389533Y-57744841D01*
X81397036Y-57761380D01*
X81405309Y-57777490D01*
X81414330Y-57793146D01*
X81424076Y-57808323D01*
X81434525Y-57822997D01*
X81445655Y-57837144D01*
X81457443Y-57850738D01*
X81469866Y-57863757D01*
X81482902Y-57876174D01*
X81496528Y-57887967D01*
X81510723Y-57899109D01*
X81525464Y-57909578D01*
X81540727Y-57919347D01*
X81556491Y-57928394D01*
X81572734Y-57936693D01*
X81589432Y-57944219D01*
X81606563Y-57950950D01*
X81624105Y-57956859D01*
X81642036Y-57961922D01*
X81660332Y-57966116D01*
X81678971Y-57969415D01*
X81697932Y-57971795D01*
X81717191Y-57973232D01*
X81736496Y-57973653D01*
X81755595Y-57973102D01*
X81774462Y-57971602D01*
X81793072Y-57969176D01*
X81811401Y-57965845D01*
X81829425Y-57961633D01*
X81847117Y-57956561D01*
X81864454Y-57950653D01*
X81881411Y-57943930D01*
X81897962Y-57936414D01*
X81914084Y-57928129D01*
X81929751Y-57919096D01*
X81944939Y-57909339D01*
X81959623Y-57898879D01*
X81973778Y-57887738D01*
X81987379Y-57875939D01*
X82000402Y-57863505D01*
X82012822Y-57850458D01*
X82024614Y-57836821D01*
X82035753Y-57822614D01*
X82046214Y-57807862D01*
X82055974Y-57792587D01*
X82065006Y-57776810D01*
X82073287Y-57760554D01*
X82080791Y-57743842D01*
X82087494Y-57726696D01*
X82093370Y-57709138D01*
X82098396Y-57691191D01*
X82102547Y-57672878D01*
X82105797Y-57654219D01*
X82108122Y-57635239D01*
X82109497Y-57615959D01*
X82109938Y-57596675D01*
X82109407Y-57577598D01*
X82107926Y-57558753D01*
X82105517Y-57540164D01*
X82102203Y-57521855D01*
X82098006Y-57503851D01*
X82092949Y-57486178D01*
X82087054Y-57468859D01*
X82080345Y-57451920D01*
X82072842Y-57435384D01*
X82064569Y-57419277D01*
X82055548Y-57403623D01*
X82045801Y-57388447D01*
X82035352Y-57373773D01*
X82024223Y-57359627D01*
X82012435Y-57346032D01*
X82000012Y-57333013D01*
X81986976Y-57320596D01*
X81973349Y-57308804D01*
X81959154Y-57297663D01*
X81944414Y-57287196D01*
X81929150Y-57277429D01*
X81913386Y-57268386D01*
X81897144Y-57260092D01*
X81880446Y-57252571D01*
X81863314Y-57245849D01*
X81845772Y-57239949D01*
X81827842Y-57234897D01*
X81809545Y-57230716D01*
X81790906Y-57227432D01*
X81771945Y-57225070D01*
X81752686Y-57223654D01*
X81733381Y-57223233D01*
X81714285Y-57223784D01*
X81695421Y-57225284D01*
X81676815Y-57227710D01*
X81658490Y-57231040D01*
X81640473Y-57235252D01*
X81622786Y-57240322D01*
X81605456Y-57246230D01*
X81588506Y-57252951D01*
X81571962Y-57260465D01*
X81555847Y-57268748D01*
X81540187Y-57277778D01*
X81525007Y-57287532D01*
X81510329Y-57297989D01*
X81496181Y-57309125D01*
X81482585Y-57320918D01*
X81469568Y-57333346D01*
X81457152Y-57346387D01*
X81445364Y-57360018D01*
X81434227Y-57374216D01*
X81423766Y-57388959D01*
X81414007Y-57404225D01*
X81404973Y-57419991D01*
X81396689Y-57436235D01*
X81389180Y-57452934D01*
X81382470Y-57470066D01*
X81376585Y-57487609D01*
X81371548Y-57505540D01*
X81367385Y-57523837D01*
X81364119Y-57542476D01*
X81361777Y-57561437D01*
X81360381Y-57580696D01*
X81359940Y-57600000D01*
X76582820Y-57600000D01*
X76588985Y-57593521D01*
X76600764Y-57579894D01*
X76611891Y-57565700D01*
X76622341Y-57550961D01*
X76632091Y-57535699D01*
X76641116Y-57519937D01*
X76649391Y-57503697D01*
X76656891Y-57487002D01*
X76663593Y-57469874D01*
X76669471Y-57452336D01*
X76674502Y-57434410D01*
X76678660Y-57416118D01*
X76681921Y-57397483D01*
X76684262Y-57378527D01*
X76685656Y-57359273D01*
X76686077Y-57339974D01*
X76685528Y-57320884D01*
X76684032Y-57302028D01*
X76681611Y-57283430D01*
X76678287Y-57265114D01*
X76674082Y-57247106D01*
X76669020Y-57229430D01*
X76663122Y-57212109D01*
X76656410Y-57195169D01*
X76648908Y-57178634D01*
X76640637Y-57162529D01*
X76631619Y-57146877D01*
X76621878Y-57131704D01*
X76611435Y-57117033D01*
X76600312Y-57102890D01*
X76588533Y-57089299D01*
X76576118Y-57076284D01*
X76563092Y-57063869D01*
X76549475Y-57052080D01*
X76535291Y-57040940D01*
X76520562Y-57030475D01*
X76505310Y-57020708D01*
X76489557Y-57011663D01*
X76473325Y-57003367D01*
X76456638Y-56995842D01*
X76439518Y-56989114D01*
X76421985Y-56983206D01*
X76404065Y-56978144D01*
X76385777Y-56973951D01*
X76367145Y-56970653D01*
X76348191Y-56968273D01*
X76328938Y-56966837D01*
X76309658Y-56966417D01*
X76290582Y-56966967D01*
X76271735Y-56968467D01*
X76253143Y-56970892D01*
X76234828Y-56974221D01*
X76216818Y-56978432D01*
X76199136Y-56983501D01*
X76181807Y-56989407D01*
X76164857Y-56996127D01*
X76148309Y-57003639D01*
X76132189Y-57011919D01*
X76116522Y-57020947D01*
X76101333Y-57030699D01*
X76086645Y-57041153D01*
X76072485Y-57052286D01*
X76058877Y-57064076D01*
X76045846Y-57076501D01*
X76033417Y-57089538D01*
X76021614Y-57103165D01*
X76010463Y-57117360D01*
X75999988Y-57132099D01*
X75990214Y-57147361D01*
X75981166Y-57163123D01*
X75972869Y-57179363D01*
X75965347Y-57196058D01*
X75958626Y-57213186D01*
X75952731Y-57230724D01*
X75947685Y-57248650D01*
X75943515Y-57266942D01*
X75940244Y-57285577D01*
X75937898Y-57304533D01*
X75936502Y-57323787D01*
X75936082Y-57343086D01*
X73963803Y-57343086D01*
X73963984Y-57325068D01*
X73969008Y-57181705D01*
G37*
X73969008Y-57181705D02*
X73987202Y-56920452D01*
X74016869Y-56664627D01*
X74057992Y-56414224D01*
X74110551Y-56169232D01*
X74174531Y-55929643D01*
X74249911Y-55695447D01*
X74336676Y-55466637D01*
X74434807Y-55243203D01*
X74544285Y-55025136D01*
X74665094Y-54812427D01*
X74797216Y-54605067D01*
X74940632Y-54403048D01*
X75095325Y-54206360D01*
X75261277Y-54014994D01*
X75438470Y-53828943D01*
X75626887Y-53648196D01*
X75823379Y-53477513D01*
X76024401Y-53318589D01*
X76229928Y-53171433D01*
X76439939Y-53036053D01*
X76654409Y-52912456D01*
X76873317Y-52800651D01*
X77096640Y-52700646D01*
X77324354Y-52612450D01*
X77556437Y-52536070D01*
X77792865Y-52471514D01*
X78033617Y-52418791D01*
X78278668Y-52377909D01*
X78527997Y-52348875D01*
X78781581Y-52331699D01*
X79039395Y-52326388D01*
X79301419Y-52332950D01*
X79425509Y-52338772D01*
X79541889Y-52345465D01*
X79657251Y-52354417D01*
X79771571Y-52365600D01*
X79884825Y-52378990D01*
X80118189Y-50568446D01*
X80058454Y-50543703D01*
X80000191Y-50515757D01*
X79943538Y-50484679D01*
X79888634Y-50450541D01*
X79835616Y-50413414D01*
X79784623Y-50373369D01*
X79735794Y-50330478D01*
X79689266Y-50284812D01*
X79645179Y-50236442D01*
X79603670Y-50185440D01*
X79564878Y-50131877D01*
X79528941Y-50075824D01*
X79495998Y-50017352D01*
X79466187Y-49956534D01*
X79439646Y-49893440D01*
X79416514Y-49828141D01*
X79399291Y-49769787D01*
X79385193Y-49711268D01*
X79374173Y-49652678D01*
X79366182Y-49594110D01*
X79361174Y-49535658D01*
X79359099Y-49477413D01*
X79359910Y-49419470D01*
X79363560Y-49361921D01*
X79369999Y-49304860D01*
X79379181Y-49248380D01*
X79391057Y-49192573D01*
X79405579Y-49137533D01*
X79422700Y-49083353D01*
X79442372Y-49030127D01*
X79464546Y-48977946D01*
X79489175Y-48926905D01*
X79516210Y-48877097D01*
X79545605Y-48828614D01*
X79577311Y-48781549D01*
X79611279Y-48735997D01*
X79647463Y-48692049D01*
X79685814Y-48649800D01*
X79726285Y-48609342D01*
X79768827Y-48570768D01*
X79813392Y-48534171D01*
X79859933Y-48499645D01*
X79908402Y-48467283D01*
X79958751Y-48437177D01*
X80010931Y-48409421D01*
X80064895Y-48384108D01*
X80120596Y-48361332D01*
X80177984Y-48341184D01*
X80236292Y-48323984D01*
X80294770Y-48309907D01*
X80353325Y-48298904D01*
X80411863Y-48290928D01*
X80470291Y-48285932D01*
X80528515Y-48283867D01*
X80586442Y-48284686D01*
X80643978Y-48288341D01*
X80701030Y-48294784D01*
X80757504Y-48303968D01*
X80813308Y-48315844D01*
X80868347Y-48330365D01*
X80922528Y-48347483D01*
X80975758Y-48367151D01*
X81027943Y-48389320D01*
X81078990Y-48413943D01*
X81128805Y-48440972D01*
X81177295Y-48470359D01*
X81224366Y-48502057D01*
X81269925Y-48536018D01*
X81313879Y-48572193D01*
X81356134Y-48610536D01*
X81396596Y-48650998D01*
X81435172Y-48693532D01*
X81471769Y-48738090D01*
X81506293Y-48784624D01*
X81538651Y-48833087D01*
X81568750Y-48883430D01*
X81596495Y-48935605D01*
X81621793Y-48989566D01*
X81644552Y-49045265D01*
X81664677Y-49102652D01*
X81681900Y-49161007D01*
X81695998Y-49219526D01*
X81707018Y-49278116D01*
X81715008Y-49336684D01*
X81720017Y-49395137D01*
X81722092Y-49453382D01*
X81721280Y-49511325D01*
X81717631Y-49568874D01*
X81711192Y-49625935D01*
X81702010Y-49682416D01*
X81690134Y-49738222D01*
X81675611Y-49793262D01*
X81658491Y-49847442D01*
X81638819Y-49900669D01*
X81616645Y-49952849D01*
X81592016Y-50003890D01*
X81564980Y-50053699D01*
X81535586Y-50102182D01*
X81503880Y-50149246D01*
X81469911Y-50194799D01*
X81433727Y-50238746D01*
X81395376Y-50280996D01*
X81354906Y-50321454D01*
X81312364Y-50360028D01*
X81267798Y-50396625D01*
X81221257Y-50431151D01*
X81172789Y-50463514D01*
X81122440Y-50493620D01*
X81070260Y-50521376D01*
X81016295Y-50546689D01*
X80960595Y-50569466D01*
X80903206Y-50589613D01*
X80875297Y-50598231D01*
X80847336Y-50606128D01*
X80819334Y-50613309D01*
X80791301Y-50619780D01*
X80763248Y-50625545D01*
X80735185Y-50630611D01*
X80707123Y-50634980D01*
X80679072Y-50638660D01*
X80651043Y-50641655D01*
X80623046Y-50643969D01*
X80595092Y-50645608D01*
X80567191Y-50646577D01*
X80539354Y-50646881D01*
X80511590Y-50646525D01*
X80483911Y-50645514D01*
X80456327Y-50643853D01*
X80225609Y-52433759D01*
X80423155Y-52476246D01*
X80617219Y-52526111D01*
X80807790Y-52583350D01*
X80994852Y-52647956D01*
X81178392Y-52719922D01*
X81358396Y-52799243D01*
X81534849Y-52885913D01*
X81707739Y-52979924D01*
X81877050Y-53081272D01*
X82042769Y-53189950D01*
X82204883Y-53305951D01*
X82363376Y-53429269D01*
X82518236Y-53559899D01*
X82669447Y-53697834D01*
X82816997Y-53843068D01*
X82960871Y-53995595D01*
X83131485Y-54193314D01*
X83290393Y-54395257D01*
X83437581Y-54601432D01*
X83573034Y-54811846D01*
X83696736Y-55026506D01*
X83808670Y-55245420D01*
X83908823Y-55468594D01*
X83997178Y-55696037D01*
X84073719Y-55927756D01*
X84138432Y-56163758D01*
X84191301Y-56404051D01*
X84232310Y-56648641D01*
X84261443Y-56897537D01*
X84278686Y-57150745D01*
X84284022Y-57408272D01*
X84277437Y-57670128D01*
X84268816Y-57813305D01*
X84256689Y-57955277D01*
X84241119Y-58096003D01*
X84222173Y-58235442D01*
X84199916Y-58373554D01*
X84174412Y-58510298D01*
X84145727Y-58645635D01*
X84113926Y-58779524D01*
X84050876Y-58995805D01*
X83981398Y-59206136D01*
X83905515Y-59410569D01*
X83823248Y-59609158D01*
X83734618Y-59801955D01*
X83639647Y-59989013D01*
X83538358Y-60170385D01*
X83430771Y-60346124D01*
X83371983Y-60434855D01*
X83305663Y-60527622D01*
X83231823Y-60624436D01*
X83150478Y-60725308D01*
X83061643Y-60830250D01*
X82965330Y-60939273D01*
X82861554Y-61052387D01*
X82750329Y-61169605D01*
X82631669Y-61290937D01*
X82505588Y-61416395D01*
X82231217Y-61679734D01*
X81927328Y-61959710D01*
X81594033Y-62256415D01*
X81437957Y-62399371D01*
X81293072Y-62546745D01*
X81159363Y-62698522D01*
X81036817Y-62854686D01*
X80925420Y-63015222D01*
X80825156Y-63180115D01*
X80736011Y-63349348D01*
X80657971Y-63522907D01*
X80591023Y-63700776D01*
X80535151Y-63882939D01*
X80490340Y-64069381D01*
X80456578Y-64260086D01*
X80433849Y-64455039D01*
X80422139Y-64654224D01*
X80421434Y-64857627D01*
X80431719Y-65065230D01*
X77099292Y-64907275D01*
X77129093Y-64701616D01*
X77147543Y-64499085D01*
X77154628Y-64299699D01*
X77150332Y-64103474D01*
X77134643Y-63910426D01*
X77107543Y-63720570D01*
X77069020Y-63533922D01*
X77019058Y-63350498D01*
X76957642Y-63170315D01*
X76884758Y-62993388D01*
X76800391Y-62819732D01*
X76704526Y-62649364D01*
X76597148Y-62482300D01*
X76478244Y-62318556D01*
X76347798Y-62158147D01*
X76205795Y-62001089D01*
X75903150Y-61672782D01*
X75629408Y-61361786D01*
X75384254Y-61068742D01*
X75167372Y-60794292D01*
X74978444Y-60539078D01*
X74817154Y-60303742D01*
X74683187Y-60088926D01*
X74626350Y-59989413D01*
X74576226Y-59895271D01*
X74485229Y-59711287D01*
X74399662Y-59524532D01*
X74319967Y-59334217D01*
X74246588Y-59139556D01*
X74212406Y-59040348D01*
X74179968Y-58939759D01*
X74149332Y-58837690D01*
X74120551Y-58734041D01*
X74093682Y-58628715D01*
X74068780Y-58521613D01*
X74045901Y-58412636D01*
X74025099Y-58301687D01*
X74006595Y-58165444D01*
X73991220Y-58028017D01*
X73979051Y-57889461D01*
X73970165Y-57749832D01*
X73964640Y-57609187D01*
X73962554Y-57467580D01*
X73963803Y-57343086D01*
X75936082Y-57343086D01*
X75936633Y-57362178D01*
X75938132Y-57381038D01*
X75940557Y-57399640D01*
X75943887Y-57417960D01*
X75948097Y-57435973D01*
X75953167Y-57453656D01*
X75959072Y-57470983D01*
X75965792Y-57487930D01*
X75973304Y-57504472D01*
X75981585Y-57520585D01*
X75990612Y-57536244D01*
X76000364Y-57551424D01*
X76010818Y-57566101D01*
X76021951Y-57580251D01*
X76033741Y-57593848D01*
X76046166Y-57606868D01*
X76059204Y-57619287D01*
X76072831Y-57631080D01*
X76087025Y-57642221D01*
X76101764Y-57652688D01*
X76117026Y-57662455D01*
X76132788Y-57671498D01*
X76149028Y-57679791D01*
X76165723Y-57687311D01*
X76182851Y-57694032D01*
X76200389Y-57699931D01*
X76218315Y-57704983D01*
X76236607Y-57709162D01*
X76255242Y-57712445D01*
X76274198Y-57714807D01*
X76293452Y-57716223D01*
X76312772Y-57716643D01*
X76331881Y-57716092D01*
X76350756Y-57714593D01*
X76369370Y-57712167D01*
X76387701Y-57708838D01*
X76405723Y-57704627D01*
X76423411Y-57699558D01*
X76440742Y-57693652D01*
X76457691Y-57686932D01*
X76474233Y-57679421D01*
X76490343Y-57671140D01*
X76505998Y-57662113D01*
X76521173Y-57652361D01*
X76535843Y-57641907D01*
X76549983Y-57630774D01*
X76563570Y-57618984D01*
X76576579Y-57606559D01*
X76582820Y-57600000D01*
X81359940Y-57600000D01*
X81360471Y-57619095D01*
X81361952Y-57637956D01*
X81364361Y-57656558D01*
X81367675Y-57674878D01*
X81371872Y-57692891D01*
X81376929Y-57710572D01*
X81382823Y-57727897D01*
X81389533Y-57744841D01*
X81397036Y-57761380D01*
X81405309Y-57777490D01*
X81414330Y-57793146D01*
X81424076Y-57808323D01*
X81434525Y-57822997D01*
X81445655Y-57837144D01*
X81457443Y-57850738D01*
X81469866Y-57863757D01*
X81482902Y-57876174D01*
X81496528Y-57887967D01*
X81510723Y-57899109D01*
X81525464Y-57909578D01*
X81540727Y-57919347D01*
X81556491Y-57928394D01*
X81572734Y-57936693D01*
X81589432Y-57944219D01*
X81606563Y-57950950D01*
X81624105Y-57956859D01*
X81642036Y-57961922D01*
X81660332Y-57966116D01*
X81678971Y-57969415D01*
X81697932Y-57971795D01*
X81717191Y-57973232D01*
X81736496Y-57973653D01*
X81755595Y-57973102D01*
X81774462Y-57971602D01*
X81793072Y-57969176D01*
X81811401Y-57965845D01*
X81829425Y-57961633D01*
X81847117Y-57956561D01*
X81864454Y-57950653D01*
X81881411Y-57943930D01*
X81897962Y-57936414D01*
X81914084Y-57928129D01*
X81929751Y-57919096D01*
X81944939Y-57909339D01*
X81959623Y-57898879D01*
X81973778Y-57887738D01*
X81987379Y-57875939D01*
X82000402Y-57863505D01*
X82012822Y-57850458D01*
X82024614Y-57836821D01*
X82035753Y-57822614D01*
X82046214Y-57807862D01*
X82055974Y-57792587D01*
X82065006Y-57776810D01*
X82073287Y-57760554D01*
X82080791Y-57743842D01*
X82087494Y-57726696D01*
X82093370Y-57709138D01*
X82098396Y-57691191D01*
X82102547Y-57672878D01*
X82105797Y-57654219D01*
X82108122Y-57635239D01*
X82109497Y-57615959D01*
X82109938Y-57596675D01*
X82109407Y-57577598D01*
X82107926Y-57558753D01*
X82105517Y-57540164D01*
X82102203Y-57521855D01*
X82098006Y-57503851D01*
X82092949Y-57486178D01*
X82087054Y-57468859D01*
X82080345Y-57451920D01*
X82072842Y-57435384D01*
X82064569Y-57419277D01*
X82055548Y-57403623D01*
X82045801Y-57388447D01*
X82035352Y-57373773D01*
X82024223Y-57359627D01*
X82012435Y-57346032D01*
X82000012Y-57333013D01*
X81986976Y-57320596D01*
X81973349Y-57308804D01*
X81959154Y-57297663D01*
X81944414Y-57287196D01*
X81929150Y-57277429D01*
X81913386Y-57268386D01*
X81897144Y-57260092D01*
X81880446Y-57252571D01*
X81863314Y-57245849D01*
X81845772Y-57239949D01*
X81827842Y-57234897D01*
X81809545Y-57230716D01*
X81790906Y-57227432D01*
X81771945Y-57225070D01*
X81752686Y-57223654D01*
X81733381Y-57223233D01*
X81714285Y-57223784D01*
X81695421Y-57225284D01*
X81676815Y-57227710D01*
X81658490Y-57231040D01*
X81640473Y-57235252D01*
X81622786Y-57240322D01*
X81605456Y-57246230D01*
X81588506Y-57252951D01*
X81571962Y-57260465D01*
X81555847Y-57268748D01*
X81540187Y-57277778D01*
X81525007Y-57287532D01*
X81510329Y-57297989D01*
X81496181Y-57309125D01*
X81482585Y-57320918D01*
X81469568Y-57333346D01*
X81457152Y-57346387D01*
X81445364Y-57360018D01*
X81434227Y-57374216D01*
X81423766Y-57388959D01*
X81414007Y-57404225D01*
X81404973Y-57419991D01*
X81396689Y-57436235D01*
X81389180Y-57452934D01*
X81382470Y-57470066D01*
X81376585Y-57487609D01*
X81371548Y-57505540D01*
X81367385Y-57523837D01*
X81364119Y-57542476D01*
X81361777Y-57561437D01*
X81360381Y-57580696D01*
X81359940Y-57600000D01*
X76582820Y-57600000D01*
X76588985Y-57593521D01*
X76600764Y-57579894D01*
X76611891Y-57565700D01*
X76622341Y-57550961D01*
X76632091Y-57535699D01*
X76641116Y-57519937D01*
X76649391Y-57503697D01*
X76656891Y-57487002D01*
X76663593Y-57469874D01*
X76669471Y-57452336D01*
X76674502Y-57434410D01*
X76678660Y-57416118D01*
X76681921Y-57397483D01*
X76684262Y-57378527D01*
X76685656Y-57359273D01*
X76686077Y-57339974D01*
X76685528Y-57320884D01*
X76684032Y-57302028D01*
X76681611Y-57283430D01*
X76678287Y-57265114D01*
X76674082Y-57247106D01*
X76669020Y-57229430D01*
X76663122Y-57212109D01*
X76656410Y-57195169D01*
X76648908Y-57178634D01*
X76640637Y-57162529D01*
X76631619Y-57146877D01*
X76621878Y-57131704D01*
X76611435Y-57117033D01*
X76600312Y-57102890D01*
X76588533Y-57089299D01*
X76576118Y-57076284D01*
X76563092Y-57063869D01*
X76549475Y-57052080D01*
X76535291Y-57040940D01*
X76520562Y-57030475D01*
X76505310Y-57020708D01*
X76489557Y-57011663D01*
X76473325Y-57003367D01*
X76456638Y-56995842D01*
X76439518Y-56989114D01*
X76421985Y-56983206D01*
X76404065Y-56978144D01*
X76385777Y-56973951D01*
X76367145Y-56970653D01*
X76348191Y-56968273D01*
X76328938Y-56966837D01*
X76309658Y-56966417D01*
X76290582Y-56966967D01*
X76271735Y-56968467D01*
X76253143Y-56970892D01*
X76234828Y-56974221D01*
X76216818Y-56978432D01*
X76199136Y-56983501D01*
X76181807Y-56989407D01*
X76164857Y-56996127D01*
X76148309Y-57003639D01*
X76132189Y-57011919D01*
X76116522Y-57020947D01*
X76101333Y-57030699D01*
X76086645Y-57041153D01*
X76072485Y-57052286D01*
X76058877Y-57064076D01*
X76045846Y-57076501D01*
X76033417Y-57089538D01*
X76021614Y-57103165D01*
X76010463Y-57117360D01*
X75999988Y-57132099D01*
X75990214Y-57147361D01*
X75981166Y-57163123D01*
X75972869Y-57179363D01*
X75965347Y-57196058D01*
X75958626Y-57213186D01*
X75952731Y-57230724D01*
X75947685Y-57248650D01*
X75943515Y-57266942D01*
X75940244Y-57285577D01*
X75937898Y-57304533D01*
X75936502Y-57323787D01*
X75936082Y-57343086D01*
X73963803Y-57343086D01*
X73963984Y-57325068D01*
X73969008Y-57181705D01*
X77171656Y-65030833D02*
X80346762Y-65181285D01*
X80346762Y-65181285D02*
X80368871Y-65182799D01*
X80368871Y-65182799D02*
X80390647Y-65185273D01*
X80390647Y-65185273D02*
X80412063Y-65188679D01*
X80412063Y-65188679D02*
X80433093Y-65192994D01*
X80433093Y-65192994D02*
X80453712Y-65198192D01*
X80453712Y-65198192D02*
X80473894Y-65204248D01*
X80473894Y-65204248D02*
X80493612Y-65211136D01*
X80493612Y-65211136D02*
X80512840Y-65218833D01*
X80512840Y-65218833D02*
X80531552Y-65227312D01*
X80531552Y-65227312D02*
X80549722Y-65236549D01*
X80549722Y-65236549D02*
X80567324Y-65246518D01*
X80567324Y-65246518D02*
X80584332Y-65257195D01*
X80584332Y-65257195D02*
X80600720Y-65268553D01*
X80600720Y-65268553D02*
X80616462Y-65280569D01*
X80616462Y-65280569D02*
X80631531Y-65293217D01*
X80631531Y-65293217D02*
X80645902Y-65306472D01*
X80645902Y-65306472D02*
X80659548Y-65320308D01*
X80659548Y-65320308D02*
X80672444Y-65334702D01*
X80672444Y-65334702D02*
X80684563Y-65349626D01*
X80684563Y-65349626D02*
X80695880Y-65365058D01*
X80695880Y-65365058D02*
X80706368Y-65380970D01*
X80706368Y-65380970D02*
X80716000Y-65397339D01*
X80716000Y-65397339D02*
X80724752Y-65414139D01*
X80724752Y-65414139D02*
X80732597Y-65431345D01*
X80732597Y-65431345D02*
X80739508Y-65448931D01*
X80739508Y-65448931D02*
X80745461Y-65466874D01*
X80745461Y-65466874D02*
X80750428Y-65485147D01*
X80750428Y-65485147D02*
X80754384Y-65503726D01*
X80754384Y-65503726D02*
X80757302Y-65522585D01*
X80757302Y-65522585D02*
X80759157Y-65541699D01*
X80759157Y-65541699D02*
X80759922Y-65561044D01*
X80759922Y-65561044D02*
X80759571Y-65580594D01*
X80759571Y-65580594D02*
X80758063Y-65600108D01*
X80758063Y-65600108D02*
X80755464Y-65619313D01*
X80755464Y-65619313D02*
X80751803Y-65638185D01*
X80751803Y-65638185D02*
X80747108Y-65656701D01*
X80747108Y-65656701D02*
X80741407Y-65674840D01*
X80741407Y-65674840D02*
X80734729Y-65692579D01*
X80734729Y-65692579D02*
X80727103Y-65709896D01*
X80727103Y-65709896D02*
X80718556Y-65726767D01*
X80718556Y-65726767D02*
X80709117Y-65743171D01*
X80709117Y-65743171D02*
X80698814Y-65759086D01*
X80698814Y-65759086D02*
X80687676Y-65774488D01*
X80687676Y-65774488D02*
X80675730Y-65789355D01*
X80675730Y-65789355D02*
X80663006Y-65803664D01*
X80663006Y-65803664D02*
X80649531Y-65817394D01*
X80649531Y-65817394D02*
X80635334Y-65830522D01*
X80635334Y-65830522D02*
X80620444Y-65843026D01*
X80620444Y-65843026D02*
X80604888Y-65854882D01*
X80604888Y-65854882D02*
X80588694Y-65866068D01*
X80588694Y-65866068D02*
X80571892Y-65876563D01*
X80571892Y-65876563D02*
X80554510Y-65886343D01*
X80554510Y-65886343D02*
X80536575Y-65895386D01*
X80536575Y-65895386D02*
X80518117Y-65903669D01*
X80518117Y-65903669D02*
X80499163Y-65911171D01*
X80499163Y-65911171D02*
X80479742Y-65917868D01*
X80479742Y-65917868D02*
X80459882Y-65923739D01*
X80459882Y-65923739D02*
X80439612Y-65928760D01*
X80439612Y-65928760D02*
X80418960Y-65932910D01*
X80418960Y-65932910D02*
X80397954Y-65936165D01*
X80397954Y-65936165D02*
X80376623Y-65938504D01*
X80376623Y-65938504D02*
X80354994Y-65939903D01*
X80354994Y-65939903D02*
X80333097Y-65940341D01*
X80333097Y-65940341D02*
X80310959Y-65939795D01*
X80310959Y-65939795D02*
X77135657Y-65789346D01*
X77135657Y-65789346D02*
X77113461Y-65787795D01*
X77113461Y-65787795D02*
X77091605Y-65785289D01*
X77091605Y-65785289D02*
X77070116Y-65781851D01*
X77070116Y-65781851D02*
X77049020Y-65777506D01*
X77049020Y-65777506D02*
X77028343Y-65772280D01*
X77028343Y-65772280D02*
X77008109Y-65766197D01*
X77008109Y-65766197D02*
X76988346Y-65759283D01*
X76988346Y-65759283D02*
X76969078Y-65751562D01*
X76969078Y-65751562D02*
X76950332Y-65743059D01*
X76950332Y-65743059D02*
X76932134Y-65733799D01*
X76932134Y-65733799D02*
X76914508Y-65723807D01*
X76914508Y-65723807D02*
X76897482Y-65713109D01*
X76897482Y-65713109D02*
X76881080Y-65701728D01*
X76881080Y-65701728D02*
X76865329Y-65689690D01*
X76865329Y-65689690D02*
X76850254Y-65677020D01*
X76850254Y-65677020D02*
X76835882Y-65663742D01*
X76835882Y-65663742D02*
X76822237Y-65649882D01*
X76822237Y-65649882D02*
X76809346Y-65635465D01*
X76809346Y-65635465D02*
X76797234Y-65620515D01*
X76797234Y-65620515D02*
X76785928Y-65605058D01*
X76785928Y-65605058D02*
X76775453Y-65589118D01*
X76775453Y-65589118D02*
X76765835Y-65572721D01*
X76765835Y-65572721D02*
X76757099Y-65555890D01*
X76757099Y-65555890D02*
X76749272Y-65538652D01*
X76749272Y-65538652D02*
X76742380Y-65521031D01*
X76742380Y-65521031D02*
X76736447Y-65503052D01*
X76736447Y-65503052D02*
X76731500Y-65484740D01*
X76731500Y-65484740D02*
X76727565Y-65466120D01*
X76727565Y-65466120D02*
X76724667Y-65447217D01*
X76724667Y-65447217D02*
X76722833Y-65428056D01*
X76722833Y-65428056D02*
X76722087Y-65408661D01*
X76722087Y-65408661D02*
X76722457Y-65389058D01*
X76722457Y-65389058D02*
X76723963Y-65369580D01*
X76723963Y-65369580D02*
X76726556Y-65350412D01*
X76726556Y-65350412D02*
X76730207Y-65331577D01*
X76730207Y-65331577D02*
X76734889Y-65313097D01*
X76734889Y-65313097D02*
X76740575Y-65294994D01*
X76740575Y-65294994D02*
X76747235Y-65277291D01*
X76747235Y-65277291D02*
X76754843Y-65260011D01*
X76754843Y-65260011D02*
X76763371Y-65243175D01*
X76763371Y-65243175D02*
X76772790Y-65226806D01*
X76772790Y-65226806D02*
X76783074Y-65210927D01*
X76783074Y-65210927D02*
X76794194Y-65195560D01*
X76794194Y-65195560D02*
X76806122Y-65180727D01*
X76806122Y-65180727D02*
X76818831Y-65166451D01*
X76818831Y-65166451D02*
X76832293Y-65152755D01*
X76832293Y-65152755D02*
X76846480Y-65139660D01*
X76846480Y-65139660D02*
X76861364Y-65127189D01*
X76861364Y-65127189D02*
X76876918Y-65115365D01*
X76876918Y-65115365D02*
X76893113Y-65104209D01*
X76893113Y-65104209D02*
X76909922Y-65093745D01*
X76909922Y-65093745D02*
X76927317Y-65083995D01*
X76927317Y-65083995D02*
X76945271Y-65074981D01*
X76945271Y-65074981D02*
X76963755Y-65066726D01*
X76963755Y-65066726D02*
X76982742Y-65059252D01*
X76982742Y-65059252D02*
X77002203Y-65052581D01*
X77002203Y-65052581D02*
X77022112Y-65046737D01*
X77022112Y-65046737D02*
X77042440Y-65041740D01*
X77042440Y-65041740D02*
X77063159Y-65037615D01*
X77063159Y-65037615D02*
X77084242Y-65034382D01*
X77084242Y-65034382D02*
X77105661Y-65032065D01*
X77105661Y-65032065D02*
X77127388Y-65030687D01*
X77127388Y-65030687D02*
X77149396Y-65030268D01*
X77149396Y-65030268D02*
X77171656Y-65030833D01*
G36*
X77171656Y-65030833D02*
G01*
X80346762Y-65181285D01*
X80368871Y-65182799D01*
X80390647Y-65185273D01*
X80412063Y-65188679D01*
X80433093Y-65192994D01*
X80453712Y-65198192D01*
X80473894Y-65204248D01*
X80493612Y-65211136D01*
X80512840Y-65218833D01*
X80531552Y-65227312D01*
X80549722Y-65236549D01*
X80567324Y-65246518D01*
X80584332Y-65257195D01*
X80600720Y-65268553D01*
X80616462Y-65280569D01*
X80631531Y-65293217D01*
X80645902Y-65306472D01*
X80659548Y-65320308D01*
X80672444Y-65334702D01*
X80684563Y-65349626D01*
X80695880Y-65365058D01*
X80706368Y-65380970D01*
X80716000Y-65397339D01*
X80724752Y-65414139D01*
X80732597Y-65431345D01*
X80739508Y-65448931D01*
X80745461Y-65466874D01*
X80750428Y-65485147D01*
X80754384Y-65503726D01*
X80757302Y-65522585D01*
X80759157Y-65541699D01*
X80759922Y-65561044D01*
X80759571Y-65580594D01*
X80758063Y-65600108D01*
X80755464Y-65619313D01*
X80751803Y-65638185D01*
X80747108Y-65656701D01*
X80741407Y-65674840D01*
X80734729Y-65692579D01*
X80727103Y-65709896D01*
X80718556Y-65726767D01*
X80709117Y-65743171D01*
X80698814Y-65759086D01*
X80687676Y-65774488D01*
X80675730Y-65789355D01*
X80663006Y-65803664D01*
X80649531Y-65817394D01*
X80635334Y-65830522D01*
X80620444Y-65843026D01*
X80604888Y-65854882D01*
X80588694Y-65866068D01*
X80571892Y-65876563D01*
X80554510Y-65886343D01*
X80536575Y-65895386D01*
X80518117Y-65903669D01*
X80499163Y-65911171D01*
X80479742Y-65917868D01*
X80459882Y-65923739D01*
X80439612Y-65928760D01*
X80418960Y-65932910D01*
X80397954Y-65936165D01*
X80376623Y-65938504D01*
X80354994Y-65939903D01*
X80333097Y-65940341D01*
X80310959Y-65939795D01*
X77135657Y-65789346D01*
X77113461Y-65787795D01*
X77091605Y-65785289D01*
X77070116Y-65781851D01*
X77049020Y-65777506D01*
X77028343Y-65772280D01*
X77008109Y-65766197D01*
X76988346Y-65759283D01*
X76969078Y-65751562D01*
X76950332Y-65743059D01*
X76932134Y-65733799D01*
X76914508Y-65723807D01*
X76897482Y-65713109D01*
X76881080Y-65701728D01*
X76865329Y-65689690D01*
X76850254Y-65677020D01*
X76835882Y-65663742D01*
X76822237Y-65649882D01*
X76809346Y-65635465D01*
X76797234Y-65620515D01*
X76785928Y-65605058D01*
X76775453Y-65589118D01*
X76765835Y-65572721D01*
X76757099Y-65555890D01*
X76749272Y-65538652D01*
X76742380Y-65521031D01*
X76736447Y-65503052D01*
X76731500Y-65484740D01*
X76727565Y-65466120D01*
X76724667Y-65447217D01*
X76722833Y-65428056D01*
X76722087Y-65408661D01*
X76722457Y-65389058D01*
X76723963Y-65369580D01*
X76726556Y-65350412D01*
X76730207Y-65331577D01*
X76734889Y-65313097D01*
X76740575Y-65294994D01*
X76747235Y-65277291D01*
X76754843Y-65260011D01*
X76763371Y-65243175D01*
X76772790Y-65226806D01*
X76783074Y-65210927D01*
X76794194Y-65195560D01*
X76806122Y-65180727D01*
X76818831Y-65166451D01*
X76832293Y-65152755D01*
X76846480Y-65139660D01*
X76861364Y-65127189D01*
X76876918Y-65115365D01*
X76893113Y-65104209D01*
X76909922Y-65093745D01*
X76927317Y-65083995D01*
X76945271Y-65074981D01*
X76963755Y-65066726D01*
X76982742Y-65059252D01*
X77002203Y-65052581D01*
X77022112Y-65046737D01*
X77042440Y-65041740D01*
X77063159Y-65037615D01*
X77084242Y-65034382D01*
X77105661Y-65032065D01*
X77127388Y-65030687D01*
X77149396Y-65030268D01*
X77171656Y-65030833D01*
G37*
X77171656Y-65030833D02*
X80346762Y-65181285D01*
X80368871Y-65182799D01*
X80390647Y-65185273D01*
X80412063Y-65188679D01*
X80433093Y-65192994D01*
X80453712Y-65198192D01*
X80473894Y-65204248D01*
X80493612Y-65211136D01*
X80512840Y-65218833D01*
X80531552Y-65227312D01*
X80549722Y-65236549D01*
X80567324Y-65246518D01*
X80584332Y-65257195D01*
X80600720Y-65268553D01*
X80616462Y-65280569D01*
X80631531Y-65293217D01*
X80645902Y-65306472D01*
X80659548Y-65320308D01*
X80672444Y-65334702D01*
X80684563Y-65349626D01*
X80695880Y-65365058D01*
X80706368Y-65380970D01*
X80716000Y-65397339D01*
X80724752Y-65414139D01*
X80732597Y-65431345D01*
X80739508Y-65448931D01*
X80745461Y-65466874D01*
X80750428Y-65485147D01*
X80754384Y-65503726D01*
X80757302Y-65522585D01*
X80759157Y-65541699D01*
X80759922Y-65561044D01*
X80759571Y-65580594D01*
X80758063Y-65600108D01*
X80755464Y-65619313D01*
X80751803Y-65638185D01*
X80747108Y-65656701D01*
X80741407Y-65674840D01*
X80734729Y-65692579D01*
X80727103Y-65709896D01*
X80718556Y-65726767D01*
X80709117Y-65743171D01*
X80698814Y-65759086D01*
X80687676Y-65774488D01*
X80675730Y-65789355D01*
X80663006Y-65803664D01*
X80649531Y-65817394D01*
X80635334Y-65830522D01*
X80620444Y-65843026D01*
X80604888Y-65854882D01*
X80588694Y-65866068D01*
X80571892Y-65876563D01*
X80554510Y-65886343D01*
X80536575Y-65895386D01*
X80518117Y-65903669D01*
X80499163Y-65911171D01*
X80479742Y-65917868D01*
X80459882Y-65923739D01*
X80439612Y-65928760D01*
X80418960Y-65932910D01*
X80397954Y-65936165D01*
X80376623Y-65938504D01*
X80354994Y-65939903D01*
X80333097Y-65940341D01*
X80310959Y-65939795D01*
X77135657Y-65789346D01*
X77113461Y-65787795D01*
X77091605Y-65785289D01*
X77070116Y-65781851D01*
X77049020Y-65777506D01*
X77028343Y-65772280D01*
X77008109Y-65766197D01*
X76988346Y-65759283D01*
X76969078Y-65751562D01*
X76950332Y-65743059D01*
X76932134Y-65733799D01*
X76914508Y-65723807D01*
X76897482Y-65713109D01*
X76881080Y-65701728D01*
X76865329Y-65689690D01*
X76850254Y-65677020D01*
X76835882Y-65663742D01*
X76822237Y-65649882D01*
X76809346Y-65635465D01*
X76797234Y-65620515D01*
X76785928Y-65605058D01*
X76775453Y-65589118D01*
X76765835Y-65572721D01*
X76757099Y-65555890D01*
X76749272Y-65538652D01*
X76742380Y-65521031D01*
X76736447Y-65503052D01*
X76731500Y-65484740D01*
X76727565Y-65466120D01*
X76724667Y-65447217D01*
X76722833Y-65428056D01*
X76722087Y-65408661D01*
X76722457Y-65389058D01*
X76723963Y-65369580D01*
X76726556Y-65350412D01*
X76730207Y-65331577D01*
X76734889Y-65313097D01*
X76740575Y-65294994D01*
X76747235Y-65277291D01*
X76754843Y-65260011D01*
X76763371Y-65243175D01*
X76772790Y-65226806D01*
X76783074Y-65210927D01*
X76794194Y-65195560D01*
X76806122Y-65180727D01*
X76818831Y-65166451D01*
X76832293Y-65152755D01*
X76846480Y-65139660D01*
X76861364Y-65127189D01*
X76876918Y-65115365D01*
X76893113Y-65104209D01*
X76909922Y-65093745D01*
X76927317Y-65083995D01*
X76945271Y-65074981D01*
X76963755Y-65066726D01*
X76982742Y-65059252D01*
X77002203Y-65052581D01*
X77022112Y-65046737D01*
X77042440Y-65041740D01*
X77063159Y-65037615D01*
X77084242Y-65034382D01*
X77105661Y-65032065D01*
X77127388Y-65030687D01*
X77149396Y-65030268D01*
X77171656Y-65030833D01*
X80480638Y-46933464D02*
X80537855Y-46933226D01*
X80537855Y-46933226D02*
X80593149Y-46934791D01*
X80593149Y-46934791D02*
X80644760Y-46937611D01*
X80644760Y-46937611D02*
X80690931Y-46941143D01*
X80690931Y-46941143D02*
X80759917Y-46948155D01*
X80759917Y-46948155D02*
X80786038Y-46951463D01*
X80786038Y-46951463D02*
X80773823Y-47003945D01*
X80773823Y-47003945D02*
X80742899Y-47142412D01*
X80742899Y-47142412D02*
X80723104Y-47234994D01*
X80723104Y-47234994D02*
X80701850Y-47338398D01*
X80701850Y-47338398D02*
X80680212Y-47449065D01*
X80680212Y-47449065D02*
X80659261Y-47563438D01*
X80659261Y-47563438D02*
X80639223Y-47678751D01*
X80639223Y-47678751D02*
X80621184Y-47790433D01*
X80621184Y-47790433D02*
X80605309Y-47894852D01*
X80605309Y-47894852D02*
X80591764Y-47988376D01*
X80591764Y-47988376D02*
X80577514Y-47987055D01*
X80577514Y-47987055D02*
X80563352Y-47985399D01*
X80563352Y-47985399D02*
X80535125Y-47981724D01*
X80535125Y-47981724D02*
X80520976Y-47980027D01*
X80520976Y-47980027D02*
X80506750Y-47978637D01*
X80506750Y-47978637D02*
X80492405Y-47977715D01*
X80492405Y-47977715D02*
X80485174Y-47977479D01*
X80485174Y-47977479D02*
X80477899Y-47977420D01*
X80477899Y-47977420D02*
X80470628Y-47977552D01*
X80470628Y-47977552D02*
X80463410Y-47977861D01*
X80463410Y-47977861D02*
X80449112Y-47978930D01*
X80449112Y-47978930D02*
X80434955Y-47980467D01*
X80434955Y-47980467D02*
X80420893Y-47982311D01*
X80420893Y-47982311D02*
X80392858Y-47986279D01*
X80392858Y-47986279D02*
X80378789Y-47988082D01*
X80378789Y-47988082D02*
X80364621Y-47989550D01*
X80364621Y-47989550D02*
X80351192Y-47895947D01*
X80351192Y-47895947D02*
X80335397Y-47791558D01*
X80335397Y-47791558D02*
X80317437Y-47679980D01*
X80317437Y-47679980D02*
X80297516Y-47564807D01*
X80297516Y-47564807D02*
X80277061Y-47450216D01*
X80277061Y-47450216D02*
X80256002Y-47339336D01*
X80256002Y-47339336D02*
X80216176Y-47142974D01*
X80216176Y-47142974D02*
X80174455Y-46951659D01*
X80174455Y-46951659D02*
X80200726Y-46948321D01*
X80200726Y-46948321D02*
X80230890Y-46944973D01*
X80230890Y-46944973D02*
X80270027Y-46941241D01*
X80270027Y-46941241D02*
X80316354Y-46937673D01*
X80316354Y-46937673D02*
X80341657Y-46936123D01*
X80341657Y-46936123D02*
X80368088Y-46934821D01*
X80368088Y-46934821D02*
X80395424Y-46933835D01*
X80395424Y-46933835D02*
X80423443Y-46933235D01*
X80423443Y-46933235D02*
X80451922Y-46933088D01*
X80451922Y-46933088D02*
X80480638Y-46933464D01*
G36*
X80480638Y-46933464D02*
G01*
X80537855Y-46933226D01*
X80593149Y-46934791D01*
X80644760Y-46937611D01*
X80690931Y-46941143D01*
X80759917Y-46948155D01*
X80786038Y-46951463D01*
X80773823Y-47003945D01*
X80742899Y-47142412D01*
X80723104Y-47234994D01*
X80701850Y-47338398D01*
X80680212Y-47449065D01*
X80659261Y-47563438D01*
X80639223Y-47678751D01*
X80621184Y-47790433D01*
X80605309Y-47894852D01*
X80591764Y-47988376D01*
X80577514Y-47987055D01*
X80563352Y-47985399D01*
X80535125Y-47981724D01*
X80520976Y-47980027D01*
X80506750Y-47978637D01*
X80492405Y-47977715D01*
X80485174Y-47977479D01*
X80477899Y-47977420D01*
X80470628Y-47977552D01*
X80463410Y-47977861D01*
X80449112Y-47978930D01*
X80434955Y-47980467D01*
X80420893Y-47982311D01*
X80392858Y-47986279D01*
X80378789Y-47988082D01*
X80364621Y-47989550D01*
X80351192Y-47895947D01*
X80335397Y-47791558D01*
X80317437Y-47679980D01*
X80297516Y-47564807D01*
X80277061Y-47450216D01*
X80256002Y-47339336D01*
X80216176Y-47142974D01*
X80174455Y-46951659D01*
X80200726Y-46948321D01*
X80230890Y-46944973D01*
X80270027Y-46941241D01*
X80316354Y-46937673D01*
X80341657Y-46936123D01*
X80368088Y-46934821D01*
X80395424Y-46933835D01*
X80423443Y-46933235D01*
X80451922Y-46933088D01*
X80480638Y-46933464D01*
G37*
X80480638Y-46933464D02*
X80537855Y-46933226D01*
X80593149Y-46934791D01*
X80644760Y-46937611D01*
X80690931Y-46941143D01*
X80759917Y-46948155D01*
X80786038Y-46951463D01*
X80773823Y-47003945D01*
X80742899Y-47142412D01*
X80723104Y-47234994D01*
X80701850Y-47338398D01*
X80680212Y-47449065D01*
X80659261Y-47563438D01*
X80639223Y-47678751D01*
X80621184Y-47790433D01*
X80605309Y-47894852D01*
X80591764Y-47988376D01*
X80577514Y-47987055D01*
X80563352Y-47985399D01*
X80535125Y-47981724D01*
X80520976Y-47980027D01*
X80506750Y-47978637D01*
X80492405Y-47977715D01*
X80485174Y-47977479D01*
X80477899Y-47977420D01*
X80470628Y-47977552D01*
X80463410Y-47977861D01*
X80449112Y-47978930D01*
X80434955Y-47980467D01*
X80420893Y-47982311D01*
X80392858Y-47986279D01*
X80378789Y-47988082D01*
X80364621Y-47989550D01*
X80351192Y-47895947D01*
X80335397Y-47791558D01*
X80317437Y-47679980D01*
X80297516Y-47564807D01*
X80277061Y-47450216D01*
X80256002Y-47339336D01*
X80216176Y-47142974D01*
X80174455Y-46951659D01*
X80200726Y-46948321D01*
X80230890Y-46944973D01*
X80270027Y-46941241D01*
X80316354Y-46937673D01*
X80341657Y-46936123D01*
X80368088Y-46934821D01*
X80395424Y-46933835D01*
X80423443Y-46933235D01*
X80451922Y-46933088D01*
X80480638Y-46933464D01*
X82784259Y-48411163D02*
X82796134Y-48438884D01*
X82796134Y-48438884D02*
X82811178Y-48474971D01*
X82811178Y-48474971D02*
X82828478Y-48517853D01*
X82828478Y-48517853D02*
X82847122Y-48565960D01*
X82847122Y-48565960D02*
X82866197Y-48617722D01*
X82866197Y-48617722D02*
X82875611Y-48644483D01*
X82875611Y-48644483D02*
X82884790Y-48671568D01*
X82884790Y-48671568D02*
X82943678Y-48873864D01*
X82943678Y-48873864D02*
X82962069Y-48967969D01*
X82962069Y-48967969D02*
X82908499Y-48972600D01*
X82908499Y-48972600D02*
X82767550Y-48986091D01*
X82767550Y-48986091D02*
X82673570Y-48995969D01*
X82673570Y-48995969D02*
X82568861Y-49007835D01*
X82568861Y-49007835D02*
X82457126Y-49021613D01*
X82457126Y-49021613D02*
X82342072Y-49037227D01*
X82342072Y-49037227D02*
X82233273Y-49052787D01*
X82233273Y-49052787D02*
X82127720Y-49069264D01*
X82127720Y-49069264D02*
X82028293Y-49085814D01*
X82028293Y-49085814D02*
X81937872Y-49101594D01*
X81937872Y-49101594D02*
X81922428Y-49044603D01*
X81922428Y-49044603D02*
X81914225Y-49016343D01*
X81914225Y-49016343D02*
X81905591Y-48988292D01*
X81905591Y-48988292D02*
X81896443Y-48960488D01*
X81896443Y-48960488D02*
X81886699Y-48932970D01*
X81886699Y-48932970D02*
X81876276Y-48905778D01*
X81876276Y-48905778D02*
X81865092Y-48878951D01*
X81865092Y-48878951D02*
X81946749Y-48838477D01*
X81946749Y-48838477D02*
X82036183Y-48793455D01*
X82036183Y-48793455D02*
X82130752Y-48744910D01*
X82130752Y-48744910D02*
X82227816Y-48693872D01*
X82227816Y-48693872D02*
X82330641Y-48638843D01*
X82330641Y-48638843D02*
X82429730Y-48584449D01*
X82429730Y-48584449D02*
X82604407Y-48485829D01*
X82604407Y-48485829D02*
X82773663Y-48387102D01*
X82773663Y-48387102D02*
X82784259Y-48411163D01*
G36*
X82784259Y-48411163D02*
G01*
X82796134Y-48438884D01*
X82811178Y-48474971D01*
X82828478Y-48517853D01*
X82847122Y-48565960D01*
X82866197Y-48617722D01*
X82875611Y-48644483D01*
X82884790Y-48671568D01*
X82943678Y-48873864D01*
X82962069Y-48967969D01*
X82908499Y-48972600D01*
X82767550Y-48986091D01*
X82673570Y-48995969D01*
X82568861Y-49007835D01*
X82457126Y-49021613D01*
X82342072Y-49037227D01*
X82233273Y-49052787D01*
X82127720Y-49069264D01*
X82028293Y-49085814D01*
X81937872Y-49101594D01*
X81922428Y-49044603D01*
X81914225Y-49016343D01*
X81905591Y-48988292D01*
X81896443Y-48960488D01*
X81886699Y-48932970D01*
X81876276Y-48905778D01*
X81865092Y-48878951D01*
X81946749Y-48838477D01*
X82036183Y-48793455D01*
X82130752Y-48744910D01*
X82227816Y-48693872D01*
X82330641Y-48638843D01*
X82429730Y-48584449D01*
X82604407Y-48485829D01*
X82773663Y-48387102D01*
X82784259Y-48411163D01*
G37*
X82784259Y-48411163D02*
X82796134Y-48438884D01*
X82811178Y-48474971D01*
X82828478Y-48517853D01*
X82847122Y-48565960D01*
X82866197Y-48617722D01*
X82875611Y-48644483D01*
X82884790Y-48671568D01*
X82943678Y-48873864D01*
X82962069Y-48967969D01*
X82908499Y-48972600D01*
X82767550Y-48986091D01*
X82673570Y-48995969D01*
X82568861Y-49007835D01*
X82457126Y-49021613D01*
X82342072Y-49037227D01*
X82233273Y-49052787D01*
X82127720Y-49069264D01*
X82028293Y-49085814D01*
X81937872Y-49101594D01*
X81922428Y-49044603D01*
X81914225Y-49016343D01*
X81905591Y-48988292D01*
X81896443Y-48960488D01*
X81886699Y-48932970D01*
X81876276Y-48905778D01*
X81865092Y-48878951D01*
X81946749Y-48838477D01*
X82036183Y-48793455D01*
X82130752Y-48744910D01*
X82227816Y-48693872D01*
X82330641Y-48638843D01*
X82429730Y-48584449D01*
X82604407Y-48485829D01*
X82773663Y-48387102D01*
X82784259Y-48411163D01*
X81789928Y-47294515D02*
X81965225Y-47411119D01*
X81965225Y-47411119D02*
X82010568Y-47445867D01*
X82010568Y-47445867D02*
X82053913Y-47480267D01*
X82053913Y-47480267D02*
X82094010Y-47512998D01*
X82094010Y-47512998D02*
X82129615Y-47542739D01*
X82129615Y-47542739D02*
X82182353Y-47587969D01*
X82182353Y-47587969D02*
X82202150Y-47605394D01*
X82202150Y-47605394D02*
X82161700Y-47640423D01*
X82161700Y-47640423D02*
X82055808Y-47733907D01*
X82055808Y-47733907D02*
X81985566Y-47797130D01*
X81985566Y-47797130D02*
X81907656Y-47868440D01*
X81907656Y-47868440D02*
X81824978Y-47945660D01*
X81824978Y-47945660D02*
X81740430Y-48026615D01*
X81740430Y-48026615D02*
X81657852Y-48106805D01*
X81657852Y-48106805D02*
X81578852Y-48185380D01*
X81578852Y-48185380D02*
X81505611Y-48259700D01*
X81505611Y-48259700D02*
X81440312Y-48327124D01*
X81440312Y-48327124D02*
X81418057Y-48309034D01*
X81418057Y-48309034D02*
X81395579Y-48291312D01*
X81395579Y-48291312D02*
X81372841Y-48273981D01*
X81372841Y-48273981D02*
X81349802Y-48257059D01*
X81349802Y-48257059D02*
X81326424Y-48240569D01*
X81326424Y-48240569D02*
X81302667Y-48224530D01*
X81302667Y-48224530D02*
X81278493Y-48208964D01*
X81278493Y-48208964D02*
X81253863Y-48193891D01*
X81253863Y-48193891D02*
X81297678Y-48110687D01*
X81297678Y-48110687D02*
X81345693Y-48017762D01*
X81345693Y-48017762D02*
X81396020Y-47918161D01*
X81396020Y-47918161D02*
X81446768Y-47814928D01*
X81446768Y-47814928D02*
X81497235Y-47710370D01*
X81497235Y-47710370D02*
X81545079Y-47608536D01*
X81545079Y-47608536D02*
X81627836Y-47426868D01*
X81627836Y-47426868D02*
X81706192Y-47248343D01*
X81706192Y-47248343D02*
X81789928Y-47294515D01*
G36*
X81789928Y-47294515D02*
G01*
X81965225Y-47411119D01*
X82010568Y-47445867D01*
X82053913Y-47480267D01*
X82094010Y-47512998D01*
X82129615Y-47542739D01*
X82182353Y-47587969D01*
X82202150Y-47605394D01*
X82161700Y-47640423D01*
X82055808Y-47733907D01*
X81985566Y-47797130D01*
X81907656Y-47868440D01*
X81824978Y-47945660D01*
X81740430Y-48026615D01*
X81657852Y-48106805D01*
X81578852Y-48185380D01*
X81505611Y-48259700D01*
X81440312Y-48327124D01*
X81418057Y-48309034D01*
X81395579Y-48291312D01*
X81372841Y-48273981D01*
X81349802Y-48257059D01*
X81326424Y-48240569D01*
X81302667Y-48224530D01*
X81278493Y-48208964D01*
X81253863Y-48193891D01*
X81297678Y-48110687D01*
X81345693Y-48017762D01*
X81396020Y-47918161D01*
X81446768Y-47814928D01*
X81497235Y-47710370D01*
X81545079Y-47608536D01*
X81627836Y-47426868D01*
X81706192Y-47248343D01*
X81789928Y-47294515D01*
G37*
X81789928Y-47294515D02*
X81965225Y-47411119D01*
X82010568Y-47445867D01*
X82053913Y-47480267D01*
X82094010Y-47512998D01*
X82129615Y-47542739D01*
X82182353Y-47587969D01*
X82202150Y-47605394D01*
X82161700Y-47640423D01*
X82055808Y-47733907D01*
X81985566Y-47797130D01*
X81907656Y-47868440D01*
X81824978Y-47945660D01*
X81740430Y-48026615D01*
X81657852Y-48106805D01*
X81578852Y-48185380D01*
X81505611Y-48259700D01*
X81440312Y-48327124D01*
X81418057Y-48309034D01*
X81395579Y-48291312D01*
X81372841Y-48273981D01*
X81349802Y-48257059D01*
X81326424Y-48240569D01*
X81302667Y-48224530D01*
X81278493Y-48208964D01*
X81253863Y-48193891D01*
X81297678Y-48110687D01*
X81345693Y-48017762D01*
X81396020Y-47918161D01*
X81446768Y-47814928D01*
X81497235Y-47710370D01*
X81545079Y-47608536D01*
X81627836Y-47426868D01*
X81706192Y-47248343D01*
X81789928Y-47294515D01*
X79025166Y-49846150D02*
X79032798Y-49875258D01*
X79032798Y-49875258D02*
X79041030Y-49904109D01*
X79041030Y-49904109D02*
X79049834Y-49932704D01*
X79049834Y-49932704D02*
X79059179Y-49961042D01*
X79059179Y-49961042D02*
X79069034Y-49989123D01*
X79069034Y-49989123D02*
X79079372Y-50016947D01*
X79079372Y-50016947D02*
X79090161Y-50044514D01*
X79090161Y-50044514D02*
X79011206Y-50083851D01*
X79011206Y-50083851D02*
X78925722Y-50127076D01*
X78925722Y-50127076D02*
X78835836Y-50173383D01*
X78835836Y-50173383D02*
X78743676Y-50221963D01*
X78743676Y-50221963D02*
X78640908Y-50276992D01*
X78640908Y-50276992D02*
X78541845Y-50331386D01*
X78541845Y-50331386D02*
X78367159Y-50430006D01*
X78367159Y-50430006D02*
X78197829Y-50528733D01*
X78197829Y-50528733D02*
X78187261Y-50504641D01*
X78187261Y-50504641D02*
X78175410Y-50476889D01*
X78175410Y-50476889D02*
X78160387Y-50440767D01*
X78160387Y-50440767D02*
X78143100Y-50397848D01*
X78143100Y-50397848D02*
X78124453Y-50349710D01*
X78124453Y-50349710D02*
X78105352Y-50297926D01*
X78105352Y-50297926D02*
X78095914Y-50271159D01*
X78095914Y-50271159D02*
X78086703Y-50244071D01*
X78086703Y-50244071D02*
X78028010Y-50041971D01*
X78028010Y-50041971D02*
X78009619Y-49947671D01*
X78009619Y-49947671D02*
X78063189Y-49943067D01*
X78063189Y-49943067D02*
X78204138Y-49929622D01*
X78204138Y-49929622D02*
X78298118Y-49919757D01*
X78298118Y-49919757D02*
X78402827Y-49907888D01*
X78402827Y-49907888D02*
X78514561Y-49894083D01*
X78514561Y-49894083D02*
X78629615Y-49878413D01*
X78629615Y-49878413D02*
X78733603Y-49863446D01*
X78733603Y-49863446D02*
X78834674Y-49847745D01*
X78834674Y-49847745D02*
X78930354Y-49831972D01*
X78930354Y-49831972D02*
X79018164Y-49816785D01*
X79018164Y-49816785D02*
X79025166Y-49846150D01*
G36*
X79025166Y-49846150D02*
G01*
X79032798Y-49875258D01*
X79041030Y-49904109D01*
X79049834Y-49932704D01*
X79059179Y-49961042D01*
X79069034Y-49989123D01*
X79079372Y-50016947D01*
X79090161Y-50044514D01*
X79011206Y-50083851D01*
X78925722Y-50127076D01*
X78835836Y-50173383D01*
X78743676Y-50221963D01*
X78640908Y-50276992D01*
X78541845Y-50331386D01*
X78367159Y-50430006D01*
X78197829Y-50528733D01*
X78187261Y-50504641D01*
X78175410Y-50476889D01*
X78160387Y-50440767D01*
X78143100Y-50397848D01*
X78124453Y-50349710D01*
X78105352Y-50297926D01*
X78095914Y-50271159D01*
X78086703Y-50244071D01*
X78028010Y-50041971D01*
X78009619Y-49947671D01*
X78063189Y-49943067D01*
X78204138Y-49929622D01*
X78298118Y-49919757D01*
X78402827Y-49907888D01*
X78514561Y-49894083D01*
X78629615Y-49878413D01*
X78733603Y-49863446D01*
X78834674Y-49847745D01*
X78930354Y-49831972D01*
X79018164Y-49816785D01*
X79025166Y-49846150D01*
G37*
X79025166Y-49846150D02*
X79032798Y-49875258D01*
X79041030Y-49904109D01*
X79049834Y-49932704D01*
X79059179Y-49961042D01*
X79069034Y-49989123D01*
X79079372Y-50016947D01*
X79090161Y-50044514D01*
X79011206Y-50083851D01*
X78925722Y-50127076D01*
X78835836Y-50173383D01*
X78743676Y-50221963D01*
X78640908Y-50276992D01*
X78541845Y-50331386D01*
X78367159Y-50430006D01*
X78197829Y-50528733D01*
X78187261Y-50504641D01*
X78175410Y-50476889D01*
X78160387Y-50440767D01*
X78143100Y-50397848D01*
X78124453Y-50349710D01*
X78105352Y-50297926D01*
X78095914Y-50271159D01*
X78086703Y-50244071D01*
X78028010Y-50041971D01*
X78009619Y-49947671D01*
X78063189Y-49943067D01*
X78204138Y-49929622D01*
X78298118Y-49919757D01*
X78402827Y-49907888D01*
X78514561Y-49894083D01*
X78629615Y-49878413D01*
X78733603Y-49863446D01*
X78834674Y-49847745D01*
X78930354Y-49831972D01*
X79018164Y-49816785D01*
X79025166Y-49846150D01*
X79276501Y-47303249D02*
X79332687Y-47433096D01*
X79332687Y-47433096D02*
X79370965Y-47519387D01*
X79370965Y-47519387D02*
X79414405Y-47615253D01*
X79414405Y-47615253D02*
X79461789Y-47717189D01*
X79461789Y-47717189D02*
X79511897Y-47821694D01*
X79511897Y-47821694D02*
X79562679Y-47925492D01*
X79562679Y-47925492D02*
X79613094Y-48025384D01*
X79613094Y-48025384D02*
X79661235Y-48118415D01*
X79661235Y-48118415D02*
X79705194Y-48201634D01*
X79705194Y-48201634D02*
X79680767Y-48216928D01*
X79680767Y-48216928D02*
X79656769Y-48232714D01*
X79656769Y-48232714D02*
X79633169Y-48248973D01*
X79633169Y-48248973D02*
X79609939Y-48265683D01*
X79609939Y-48265683D02*
X79587049Y-48282825D01*
X79587049Y-48282825D02*
X79564467Y-48300377D01*
X79564467Y-48300377D02*
X79542166Y-48318318D01*
X79542166Y-48318318D02*
X79520114Y-48336629D01*
X79520114Y-48336629D02*
X79454681Y-48269453D01*
X79454681Y-48269453D02*
X79381378Y-48195251D01*
X79381378Y-48195251D02*
X79302463Y-48116612D01*
X79302463Y-48116612D02*
X79220192Y-48036120D01*
X79220192Y-48036120D02*
X79135921Y-47955137D01*
X79135921Y-47955137D02*
X79053610Y-47877721D01*
X79053610Y-47877721D02*
X78906306Y-47742507D01*
X78906306Y-47742507D02*
X78761016Y-47612942D01*
X78761016Y-47612942D02*
X78780803Y-47595471D01*
X78780803Y-47595471D02*
X78803656Y-47575604D01*
X78803656Y-47575604D02*
X78833477Y-47550066D01*
X78833477Y-47550066D02*
X78869012Y-47520173D01*
X78869012Y-47520173D02*
X78909005Y-47487237D01*
X78909005Y-47487237D02*
X78952204Y-47452573D01*
X78952204Y-47452573D02*
X78974613Y-47435003D01*
X78974613Y-47435003D02*
X78997354Y-47417493D01*
X78997354Y-47417493D02*
X79172455Y-47300498D01*
X79172455Y-47300498D02*
X79190127Y-47289895D01*
X79190127Y-47289895D02*
X79206164Y-47280564D01*
X79206164Y-47280564D02*
X79220344Y-47272549D01*
X79220344Y-47272549D02*
X79232444Y-47265893D01*
X79232444Y-47265893D02*
X79249517Y-47256836D01*
X79249517Y-47256836D02*
X79255603Y-47253739D01*
X79255603Y-47253739D02*
X79276501Y-47303249D01*
G36*
X79276501Y-47303249D02*
G01*
X79332687Y-47433096D01*
X79370965Y-47519387D01*
X79414405Y-47615253D01*
X79461789Y-47717189D01*
X79511897Y-47821694D01*
X79562679Y-47925492D01*
X79613094Y-48025384D01*
X79661235Y-48118415D01*
X79705194Y-48201634D01*
X79680767Y-48216928D01*
X79656769Y-48232714D01*
X79633169Y-48248973D01*
X79609939Y-48265683D01*
X79587049Y-48282825D01*
X79564467Y-48300377D01*
X79542166Y-48318318D01*
X79520114Y-48336629D01*
X79454681Y-48269453D01*
X79381378Y-48195251D01*
X79302463Y-48116612D01*
X79220192Y-48036120D01*
X79135921Y-47955137D01*
X79053610Y-47877721D01*
X78906306Y-47742507D01*
X78761016Y-47612942D01*
X78780803Y-47595471D01*
X78803656Y-47575604D01*
X78833477Y-47550066D01*
X78869012Y-47520173D01*
X78909005Y-47487237D01*
X78952204Y-47452573D01*
X78974613Y-47435003D01*
X78997354Y-47417493D01*
X79172455Y-47300498D01*
X79190127Y-47289895D01*
X79206164Y-47280564D01*
X79220344Y-47272549D01*
X79232444Y-47265893D01*
X79249517Y-47256836D01*
X79255603Y-47253739D01*
X79276501Y-47303249D01*
G37*
X79276501Y-47303249D02*
X79332687Y-47433096D01*
X79370965Y-47519387D01*
X79414405Y-47615253D01*
X79461789Y-47717189D01*
X79511897Y-47821694D01*
X79562679Y-47925492D01*
X79613094Y-48025384D01*
X79661235Y-48118415D01*
X79705194Y-48201634D01*
X79680767Y-48216928D01*
X79656769Y-48232714D01*
X79633169Y-48248973D01*
X79609939Y-48265683D01*
X79587049Y-48282825D01*
X79564467Y-48300377D01*
X79542166Y-48318318D01*
X79520114Y-48336629D01*
X79454681Y-48269453D01*
X79381378Y-48195251D01*
X79302463Y-48116612D01*
X79220192Y-48036120D01*
X79135921Y-47955137D01*
X79053610Y-47877721D01*
X78906306Y-47742507D01*
X78761016Y-47612942D01*
X78780803Y-47595471D01*
X78803656Y-47575604D01*
X78833477Y-47550066D01*
X78869012Y-47520173D01*
X78909005Y-47487237D01*
X78952204Y-47452573D01*
X78974613Y-47435003D01*
X78997354Y-47417493D01*
X79172455Y-47300498D01*
X79190127Y-47289895D01*
X79206164Y-47280564D01*
X79220344Y-47272549D01*
X79232444Y-47265893D01*
X79249517Y-47256836D01*
X79255603Y-47253739D01*
X79276501Y-47303249D01*
M02*
