<?xml version="1.0" encoding="UTF-8" standalone="no"?>
<!DOCTYPE svg PUBLIC "-//W3C//DTD SVG 1.1//EN" "http://www.w3.org/Graphics/SVG/1.1/DTD/svg11.dtd">
<svg width="100%" height="100%" viewBox="0 0 85 85" version="1.1" xmlns="http://www.w3.org/2000/svg" xmlns:xlink="http://www.w3.org/1999/xlink" xml:space="preserve" xmlns:serif="http://www.serif.com/" style="fill-rule:evenodd;clip-rule:evenodd;stroke-linejoin:round;stroke-miterlimit:2;">
    <g transform="matrix(1,0,0,1,-30.6874,-134.7)">
        <g id="g72" transform="matrix(0.739442,-1.78731e-32,-1.78731e-32,-0.739442,65.6225,205.989)">
            <path id="path74" d="M0,0L16.229,-0.769C17.443,-0.825 18.389,-1.739 18.339,-2.81C18.287,-3.882 17.259,-4.703 16.046,-4.646L-0.184,-3.877C-1.403,-3.819 -2.347,-2.905 -2.296,-1.831C-2.244,-0.761 -1.22,0.058 0,0" style="fill:none;fill-rule:nonzero;stroke:black;stroke-width:0.48px;"/>
        </g>
        <g id="g76" transform="matrix(0.739442,-1.78731e-32,-1.78731e-32,-0.739442,65.4586,209.454)">
            <path id="path78" d="M0,0L16.229,-0.769C17.443,-0.826 18.389,-1.737 18.339,-2.812C18.288,-3.878 17.26,-4.701 16.046,-4.643L-0.185,-3.874C-1.403,-3.816 -2.347,-2.9 -2.295,-1.834C-2.245,-0.759 -1.22,0.058 0,0" style="fill:none;fill-rule:nonzero;stroke:black;stroke-width:0.48px;"/>
        </g>
        <g id="g80" transform="matrix(0.739442,-1.78731e-32,-1.78731e-32,-0.739442,67.4906,213.136)">
            <path id="path82" d="M0,0L10.269,-0.486C11.484,-0.544 12.418,-1.458 12.367,-2.526C12.316,-3.604 11.301,-4.429 10.084,-4.371L-0.185,-3.885C-1.395,-3.827 -2.342,-2.909 -2.29,-1.833C-2.239,-0.765 -1.21,0.058 0,0" style="fill:none;fill-rule:nonzero;stroke:black;stroke-width:0.48px;"/>
        </g>
        <path id="path58" d="M76.759,151.328C75.541,150.862 74.538,149.868 74.107,148.53C73.349,146.182 74.638,143.668 76.985,142.91C79.331,142.153 81.847,143.441 82.604,145.788C83.362,148.136 82.073,150.65 79.726,151.408C79.164,151.589 78.592,151.653 78.037,151.613L77.165,158.378C81.182,159.16 84.64,161.133 87.503,164.281C91.06,168.224 92.732,172.847 92.479,178.169C92.41,179.618 92.197,181.02 91.861,182.362C91.258,184.572 90.395,186.54 89.279,188.283C88.17,190.031 85.844,192.428 82.337,195.503C79.078,198.34 77.626,201.892 77.944,206.119L65.349,205.522C66.064,201.345 64.951,197.67 61.972,194.538C58.775,191.144 56.756,188.422 55.813,186.579C54.87,184.736 54.128,182.813 53.73,180.556C53.528,179.189 53.449,177.772 53.518,176.323C53.769,171.002 55.873,166.558 59.784,162.968C63.699,159.409 68.348,157.745 73.672,157.997L74.141,158.019C74.73,158.047 75.309,158.098 75.877,158.171L76.759,151.328Z" style="fill:none;fill-rule:nonzero;stroke:black;stroke-width:0.36px;"/>
        <g transform="matrix(1.31074,0,0,1.21319,6.18914,-36.7485)">
            <ellipse cx="50.971" cy="176.196" rx="31.899" ry="34.464" style="fill:none;stroke:black;stroke-width:0.79px;stroke-linecap:round;stroke-miterlimit:1.5;"/>
        </g>
        <g id="g64" transform="matrix(0.739442,-1.78731e-32,-1.78731e-32,-0.739442,74.9825,146.578)">
            <path id="path66" d="M0,0C-0.185,-1.442 0.214,-2.681 0.89,-2.768C1.566,-2.854 2.263,-1.755 2.448,-0.313C2.632,1.129 2.233,2.367 1.558,2.454C0.882,2.54 0.186,1.441 0,0" style="fill-rule:nonzero;"/>
        </g>
        <g id="g68" transform="matrix(0.739442,-1.78731e-32,-1.78731e-32,-0.739442,79.947,148.97)">
            <path id="path70" d="M0,0C-0.654,-0.848 -0.862,-1.784 -0.466,-2.09C-0.068,-2.396 0.784,-1.958 1.438,-1.11C2.092,-0.264 2.3,0.673 1.902,0.979C1.506,1.286 0.654,0.847 0,0" style="fill-rule:nonzero;"/>
        </g>
        <g id="path90" transform="matrix(0.739442,-1.78731e-32,-1.78731e-32,-0.739442,57.6193,176.702)">
            <path d="M0,0C-0.168,-3.548 2.572,-6.562 6.12,-6.729C9.67,-6.897 12.682,-4.157 12.851,-0.609C13.019,2.94 10.277,5.952 6.729,6.12C3.182,6.289 0.168,3.548 0,0" style="fill-rule:nonzero;"/>
        </g>
        <g id="path102" transform="matrix(0.739442,-1.78731e-32,-1.78731e-32,-0.739442,78.1187,177.673)">
            <path d="M0,0C-0.168,-3.548 2.573,-6.562 6.121,-6.729C9.67,-6.897 12.683,-4.156 12.851,-0.608C13.019,2.94 10.278,5.953 6.729,6.121C3.181,6.289 0.168,3.549 0,0" style="fill-rule:nonzero;"/>
        </g>
        <g id="g112" transform="matrix(0.739442,-1.78731e-32,-1.78731e-32,-0.739442,57.4208,171.52)">
            <path id="path114" d="M0,0C0.419,-0.021 0.837,0.186 1.067,0.571C1.899,1.958 2.84,3.267 3.859,4.454C4.282,4.948 4.226,5.692 3.732,6.116C3.237,6.542 2.493,6.484 2.069,5.989C0.964,4.7 -0.054,3.285 -0.954,1.783C-1.288,1.225 -1.107,0.501 -0.55,0.167C-0.377,0.062 -0.187,0.009 0,0" style="fill-rule:nonzero;"/>
        </g>
        <g id="g116" transform="matrix(0.739442,-1.78731e-32,-1.78731e-32,-0.739442,61.8755,166.239)">
            <path id="path118" d="M0,0C0.289,-0.014 0.58,0.076 0.817,0.277C6.829,5.364 13.086,5.976 13.147,5.981C13.796,6.04 14.273,6.612 14.216,7.26C14.157,7.908 13.588,8.386 12.938,8.33C12.652,8.305 5.868,7.641 -0.705,2.076C-1.203,1.656 -1.265,0.913 -0.844,0.415C-0.624,0.154 -0.315,0.016 0,0" style="fill-rule:nonzero;"/>
        </g>
        <g id="path94" transform="matrix(0.739442,-1.78731e-32,-1.78731e-32,-0.739442,59.5199,176.792)">
            <path d="M0,0C-0.102,-2.129 1.542,-3.938 3.672,-4.037C5.801,-4.139 7.608,-2.493 7.71,-0.364C7.811,1.764 6.166,3.571 4.037,3.673C1.908,3.773 0.101,2.129 0,0" style="fill:rgb(0,128,0);fill-rule:nonzero;"/>
        </g>
        <g id="path106" transform="matrix(0.739442,-1.78731e-32,-1.78731e-32,-0.739442,80.0192,177.763)">
            <path d="M0,0C-0.102,-2.129 1.544,-3.938 3.672,-4.038C5.801,-4.139 7.608,-2.494 7.71,-0.365C7.812,1.764 6.166,3.571 4.037,3.672C1.908,3.772 0.102,2.129 0,0" style="fill:rgb(0,128,0);fill-rule:nonzero;"/>
        </g>
        <g transform="matrix(1.31074,0,0,1.21319,6.18914,-36.7485)">
            <ellipse cx="50.971" cy="176.196" rx="31.899" ry="34.464" style="fill:none;stroke:black;stroke-width:0.79px;stroke-linecap:round;stroke-miterlimit:1.5;"/>
        </g>
    </g>
</svg>
