<?xml version="1.0" encoding="UTF-8" standalone="no"?>
<!DOCTYPE svg PUBLIC "-//W3C//DTD SVG 1.1//EN" "http://www.w3.org/Graphics/SVG/1.1/DTD/svg11.dtd">
<svg width="100%" height="100%" viewBox="0 0 40 79" version="1.1" xmlns="http://www.w3.org/2000/svg" xmlns:xlink="http://www.w3.org/1999/xlink" xml:space="preserve" xmlns:serif="http://www.serif.com/" style="fill-rule:evenodd;clip-rule:evenodd;stroke-linejoin:round;stroke-miterlimit:2;">
    <g transform="matrix(1,0,0,1,-53.4935,-137.588)">
        <g id="g20" transform="matrix(0.739442,-1.78731e-32,-1.78731e-32,-0.739442,74.5168,153.34)">
            <path id="path22" d="M0,0C-0.7,-1.428 -1.326,-2.896 -1.326,-2.896C-1.326,-2.896 -1.497,-2.802 -1.755,-2.66C-1.998,-2.498 -2.325,-2.281 -2.651,-2.064C-3.277,-1.594 -3.861,-1.071 -3.861,-1.071C-3.861,-1.071 -2.653,-0.037 -1.502,1.082C-0.992,1.569 -0.506,2.063 -0.111,2.47C0.199,2.199 0.523,1.947 0.876,1.729C0.614,1.23 0.3,0.622 0,0" style="fill:rgb(255,255,0);fill-rule:nonzero;"/>
        </g>
        <g id="g24" transform="matrix(0.739442,-1.78731e-32,-1.78731e-32,-0.739442,82.9322,152.503)">
            <path id="path26" d="M0,0C1.149,-1.119 2.347,-2.163 2.347,-2.163C2.347,-2.163 1.762,-2.687 1.139,-3.162C0.814,-3.38 0.487,-3.597 0.243,-3.76C-0.007,-3.913 -0.182,-3.999 -0.182,-3.999C-0.182,-3.999 -0.795,-2.522 -1.492,-1.095C-1.793,-0.471 -2.107,0.14 -2.37,0.638C-2.02,0.859 -1.698,1.114 -1.389,1.387C-0.994,0.982 -0.507,0.488 0,0" style="fill:rgb(255,255,0);fill-rule:nonzero;"/>
        </g>
        <g id="g28" transform="matrix(0.739442,-1.78731e-32,-1.78731e-32,-0.739442,85.1715,148.664)">
            <path id="path30" d="M0,0C1.576,-0.229 3.17,-0.373 3.17,-0.373C3.17,-0.373 3.037,-1.146 2.781,-1.886C2.558,-2.636 2.218,-3.343 2.218,-3.343C2.218,-3.343 0.847,-2.508 -0.565,-1.761C-1.194,-1.424 -1.825,-1.107 -2.336,-0.857C-2.188,-0.479 -2.066,-0.09 -1.98,0.312C-1.417,0.215 -0.714,0.1 0,0" style="fill:rgb(255,255,0);fill-rule:nonzero;"/>
        </g>
        <g id="g32" transform="matrix(0.739442,-1.78731e-32,-1.78731e-32,-0.739442,84.7324,144.243)">
            <path id="path34" d="M0,0C1.413,0.745 2.79,1.568 2.79,1.568C2.79,1.568 3.112,0.855 3.358,0.114C3.468,-0.261 3.578,-0.638 3.659,-0.92C3.716,-1.209 3.753,-1.401 3.753,-1.401C3.753,-1.401 2.158,-1.53 0.584,-1.755C-0.162,-1.856 -0.903,-1.981 -1.482,-2.084C-1.584,-1.694 -1.696,-1.309 -1.854,-0.946C-1.33,-0.688 -0.664,-0.354 0,0" style="fill:rgb(255,255,0);fill-rule:nonzero;"/>
        </g>
        <g id="g36" transform="matrix(0.739442,-1.78731e-32,-1.78731e-32,-0.739442,81.7804,140.921)">
            <path id="path38" d="M0,0C0.7,1.428 1.326,2.896 1.326,2.896C1.326,2.896 1.497,2.802 1.754,2.66C1.998,2.498 2.324,2.281 2.65,2.064C3.276,1.594 3.861,1.071 3.861,1.071C3.861,1.071 2.653,0.037 1.501,-1.082C0.931,-1.628 0.38,-2.188 -0.033,-2.618C-0.335,-2.369 -0.647,-2.139 -0.986,-1.937C-0.706,-1.41 -0.343,-0.709 0,0" style="fill:rgb(255,255,0);fill-rule:nonzero;"/>
        </g>
        <g id="g40" transform="matrix(0.739442,-1.78731e-32,-1.78731e-32,-0.739442,77.6904,141.581)">
            <path id="path42" d="M0,0C-0.083,0.593 -0.201,1.382 -0.343,2.171C-0.613,3.742 -0.972,5.305 -0.972,5.305C-0.972,5.305 -0.191,5.416 0.593,5.398C1.378,5.416 2.154,5.306 2.154,5.306C2.154,5.306 1.782,3.746 1.506,2.178C1.363,1.388 1.245,0.598 1.161,0.006C0.966,0.021 0.778,0.063 0.579,0.062C0.38,0.061 0.194,0.017 0,0" style="fill:rgb(255,255,0);fill-rule:nonzero;"/>
        </g>
        <g id="g44" transform="matrix(0.739442,-1.78731e-32,-1.78731e-32,-0.739442,73.365,141.757)">
            <path id="path46" d="M0,0C-1.149,1.118 -2.347,2.163 -2.347,2.163C-2.347,2.163 -1.762,2.687 -1.139,3.162C-0.814,3.379 -0.488,3.597 -0.244,3.76C0.007,3.913 0.181,3.999 0.181,3.999C0.181,3.999 0.795,2.522 1.491,1.096C1.834,0.382 2.198,-0.319 2.479,-0.846C2.143,-1.051 1.832,-1.284 1.533,-1.536C1.119,-1.108 0.567,-0.549 0,0" style="fill:rgb(255,255,0);fill-rule:nonzero;"/>
        </g>
        <g id="g48" transform="matrix(0.739442,-1.78731e-32,-1.78731e-32,-0.739442,71.1257,145.597)">
            <path id="path50" d="M0,0C-1.576,0.229 -3.17,0.372 -3.17,0.372C-3.17,0.372 -3.037,1.146 -2.781,1.885C-2.559,2.636 -2.218,3.343 -2.218,3.343C-2.218,3.343 -0.847,2.508 0.565,1.762C1.229,1.404 1.896,1.071 2.421,0.814C2.266,0.45 2.157,0.063 2.059,-0.326C1.482,-0.227 0.747,-0.104 0,0" style="fill:rgb(255,255,0);fill-rule:nonzero;"/>
        </g>
        <g id="g52" transform="matrix(0.739442,-1.78731e-32,-1.78731e-32,-0.739442,71.1329,148.72)">
            <path id="path54" d="M0,0C0.713,0.098 1.42,0.215 1.986,0.315C2.077,-0.087 2.204,-0.475 2.354,-0.849C1.843,-1.102 1.214,-1.419 0.583,-1.756C-0.829,-2.501 -2.207,-3.324 -2.207,-3.324C-2.207,-3.324 -2.528,-2.61 -2.775,-1.869C-2.885,-1.493 -2.994,-1.117 -3.075,-0.836C-3.132,-0.547 -3.169,-0.354 -3.169,-0.354C-3.169,-0.354 -1.574,-0.226 0,0" style="fill:rgb(255,255,0);fill-rule:nonzero;"/>
        </g>
        <g id="g72" transform="matrix(0.739442,-1.78731e-32,-1.78731e-32,-0.739442,65.6225,205.989)">
            <path id="path74" d="M0,0L16.229,-0.769C17.443,-0.825 18.389,-1.739 18.339,-2.81C18.287,-3.882 17.259,-4.703 16.046,-4.646L-0.184,-3.877C-1.403,-3.819 -2.347,-2.905 -2.296,-1.831C-2.244,-0.761 -1.22,0.058 0,0" style="fill:rgb(0,128,0);fill-rule:nonzero;"/>
        </g>
        <g id="g76" transform="matrix(0.739442,-1.78731e-32,-1.78731e-32,-0.739442,65.4586,209.454)">
            <path id="path78" d="M0,0L16.229,-0.769C17.443,-0.826 18.389,-1.737 18.339,-2.812C18.288,-3.878 17.26,-4.701 16.046,-4.643L-0.185,-3.874C-1.403,-3.816 -2.347,-2.9 -2.295,-1.834C-2.245,-0.759 -1.22,0.058 0,0" style="fill:rgb(0,128,0);fill-rule:nonzero;"/>
        </g>
        <g id="g80" transform="matrix(0.739442,-1.78731e-32,-1.78731e-32,-0.739442,67.4906,213.136)">
            <path id="path82" d="M0,0L10.269,-0.486C11.484,-0.544 12.418,-1.458 12.367,-2.526C12.316,-3.604 11.301,-4.429 10.084,-4.371L-0.185,-3.885C-1.395,-3.827 -2.342,-2.909 -2.29,-1.833C-2.239,-0.765 -1.21,0.058 0,0" style="fill:rgb(0,128,0);fill-rule:nonzero;"/>
        </g>
        <path id="path58" d="M76.759,151.328C75.541,150.862 74.538,149.868 74.107,148.53C73.349,146.182 74.638,143.668 76.985,142.91C79.331,142.153 81.847,143.441 82.604,145.788C83.362,148.136 82.073,150.65 79.726,151.408C79.164,151.589 78.592,151.653 78.037,151.613L77.165,158.378C81.182,159.16 84.64,161.133 87.503,164.281C91.06,168.224 92.732,172.847 92.479,178.169C92.41,179.618 92.197,181.02 91.861,182.362C91.258,184.572 90.395,186.54 89.279,188.283C88.17,190.031 85.844,192.428 82.337,195.503C79.078,198.34 77.626,201.892 77.944,206.119L65.349,205.522C66.064,201.345 64.951,197.67 61.972,194.538C58.775,191.144 56.756,188.422 55.813,186.579C54.87,184.736 54.128,182.813 53.73,180.556C53.528,179.189 53.449,177.772 53.518,176.323C53.769,171.002 55.873,166.558 59.784,162.968C63.699,159.409 68.348,157.745 73.672,157.997L74.141,158.019C74.73,158.047 75.309,158.098 75.877,158.171L76.759,151.328Z" style="fill:rgb(0,128,0);fill-rule:nonzero;"/>
        <g id="g96" transform="matrix(0.876609,-2.11886e-32,-2.11886e-32,-0.876609,60.9542,176.86)">
            <path id="path98" d="M0,0C-0.042,-0.892 0.647,-1.649 1.539,-1.692C2.432,-1.734 3.188,-1.045 3.23,-0.153C3.272,0.739 2.584,1.495 1.692,1.539C0.801,1.581 0.042,0.892 0,0" style="fill:rgb(39,16,46);fill-rule:nonzero;"/>
        </g>
        <g id="g108" transform="matrix(0.876835,-2.1194e-32,-2.1194e-32,-0.876835,81.4539,177.831)">
            <path id="path110" d="M0,0C-0.043,-0.892 0.646,-1.648 1.538,-1.692C2.43,-1.734 3.188,-1.045 3.229,-0.152C3.272,0.739 2.583,1.496 1.691,1.539C0.799,1.581 0.042,0.892 0,0" style="fill:rgb(39,16,46);fill-rule:nonzero;"/>
        </g>
    </g>
</svg>
