<?xml version="1.0" encoding="UTF-8" standalone="no"?>
<!DOCTYPE svg PUBLIC "-//W3C//DTD SVG 1.1//EN" "http://www.w3.org/Graphics/SVG/1.1/DTD/svg11.dtd">
<svg width="100%" height="100%" viewBox="0 0 84 84" version="1.1" xmlns="http://www.w3.org/2000/svg" xmlns:xlink="http://www.w3.org/1999/xlink" xml:space="preserve" xmlns:serif="http://www.serif.com/" style="fill-rule:evenodd;clip-rule:evenodd;stroke-linecap:round;stroke-miterlimit:10;">
    <g transform="matrix(1,0,0,1,-31.1874,-135.2)">
        <g transform="matrix(1,0,0,1,24.1194,58.4327)">
            <g id="g140" transform="matrix(0.739442,-1.78731e-32,-1.78731e-32,-0.739442,41.8367,133.344)">
                <path id="path142" d="M0,0C0.015,-0.094 0.064,-0.263 0.226,-0.329C0.354,-0.385 0.588,-0.368 0.852,-0.26C0.919,-0.172 0.986,-0.082 1.054,0.006C1.056,0.01 1.057,0.016 1.06,0.02C0.814,0.228 0.661,0.476 0.603,0.726C0.437,0.632 0.261,0.571 0.083,0.544C0.005,0.349 -0.026,0.161 0,0M1.836,-1.16C2.035,-1.226 2.311,-1.164 2.574,-1.014C2.597,-0.976 2.622,-0.937 2.646,-0.899C2.657,-0.854 2.665,-0.81 2.68,-0.763C2.469,-0.614 2.305,-0.434 2.21,-0.232C2.192,-0.196 2.187,-0.161 2.174,-0.127C2.02,-0.231 1.854,-0.306 1.683,-0.352C1.627,-0.396 1.569,-0.44 1.511,-0.479C1.472,-0.809 1.589,-1.084 1.836,-1.16M3.585,-1.882C3.805,-1.928 4.106,-1.831 4.379,-1.628C4.413,-1.562 4.446,-1.495 4.48,-1.429C4.185,-1.272 3.975,-1.057 3.861,-0.822C3.685,-0.967 3.486,-1.079 3.276,-1.137C3.246,-1.163 3.217,-1.19 3.186,-1.214C3.174,-1.555 3.321,-1.828 3.585,-1.882M5.6,-2.38C5.793,-2.4 6.022,-2.317 6.232,-2.172C6.262,-2.102 6.29,-2.03 6.318,-1.959C6.319,-1.934 6.317,-1.908 6.319,-1.882C6.016,-1.755 5.788,-1.567 5.654,-1.352C5.491,-1.509 5.305,-1.635 5.104,-1.714C5.104,-2.069 5.295,-2.346 5.6,-2.38M7.495,-2.688C7.737,-2.693 8.029,-2.537 8.257,-2.295C8.27,-2.253 8.282,-2.21 8.295,-2.167C7.959,-2.074 7.699,-1.906 7.538,-1.697C7.397,-1.858 7.232,-1.99 7.052,-2.088C7.056,-2.089 7.06,-2.091 7.064,-2.092C7.029,-2.138 6.991,-2.179 6.954,-2.221C7.026,-2.496 7.228,-2.687 7.495,-2.688M9.645,-2.755C9.833,-2.736 10.039,-2.622 10.218,-2.454C10.204,-2.39 10.19,-2.322 10.186,-2.253C10.22,-2.246 10.253,-2.24 10.286,-2.234C9.947,-2.173 9.676,-2.035 9.495,-1.851C9.365,-2.027 9.207,-2.18 9.028,-2.294C9.121,-2.593 9.354,-2.782 9.645,-2.755M11.551,-2.807C11.849,-2.748 12.179,-2.463 12.365,-2.095C12.066,-2.077 11.802,-2.002 11.601,-1.871C11.566,-1.85 11.542,-1.821 11.513,-1.797C11.383,-2.008 11.218,-2.196 11.021,-2.338C11.007,-2.347 10.993,-2.354 10.979,-2.362C10.956,-2.396 10.931,-2.427 10.905,-2.458C11.031,-2.714 11.274,-2.859 11.551,-2.807M13.849,-2.526C14.077,-2.458 14.312,-2.254 14.479,-1.989C14.48,-1.95 14.482,-1.912 14.484,-1.874C14.467,-1.83 14.446,-1.788 14.435,-1.739C14.446,-1.734 14.459,-1.73 14.471,-1.726C14.104,-1.741 13.794,-1.665 13.572,-1.521C13.458,-1.748 13.306,-1.955 13.116,-2.117C13.109,-2.124 13.101,-2.127 13.093,-2.135C13.229,-2.454 13.527,-2.625 13.849,-2.526M15.946,-1.977C16.213,-1.866 16.468,-1.563 16.612,-1.208C16.611,-1.18 16.609,-1.152 16.607,-1.126C16.564,-1.132 16.523,-1.139 16.48,-1.145C16.482,-1.141 16.483,-1.135 16.484,-1.13C16.214,-1.162 15.963,-1.144 15.756,-1.068C15.717,-1.054 15.688,-1.033 15.651,-1.016C15.556,-1.252 15.421,-1.474 15.245,-1.655C15.232,-1.692 15.217,-1.728 15.201,-1.763C15.377,-2.001 15.663,-2.094 15.946,-1.977M16.36,1.23C16.271,1.195 16.186,1.123 16.106,1.018C15.893,0.732 15.775,0.285 15.805,-0.136C15.814,-0.34 15.938,-0.499 16.164,-0.574C16.404,-0.654 16.727,-0.631 17.066,-0.501C17.067,-0.505 17.067,-0.507 17.067,-0.511C17.193,-0.236 17.247,0.092 17.205,0.394C17.113,1.04 16.672,1.356 16.36,1.23M14.441,0.612C14.354,0.588 14.266,0.527 14.179,0.432C13.948,0.176 13.799,-0.252 13.791,-0.669C13.771,-1.102 14.296,-1.354 14.986,-1.173C14.985,-1.176 14.986,-1.18 14.985,-1.184C15.131,-0.928 15.21,-0.61 15.194,-0.308C15.157,0.339 14.754,0.7 14.441,0.612M12.534,0.221C12.447,0.206 12.356,0.155 12.266,0.071C12.021,-0.156 11.841,-0.563 11.799,-0.976C11.773,-1.177 11.863,-1.357 12.062,-1.479C12.271,-1.608 12.575,-1.657 12.913,-1.604C12.913,-1.608 12.912,-1.611 12.911,-1.614C13.074,-1.378 13.177,-1.073 13.187,-0.771C13.203,-0.13 12.843,0.272 12.534,0.221M10.656,0.041C10.571,0.036 10.48,-0.004 10.385,-0.078C10.129,-0.277 9.92,-0.662 9.844,-1.067C9.752,-1.483 10.197,-1.838 10.867,-1.809C10.867,-1.812 10.866,-1.814 10.866,-1.817C11.043,-1.6 11.169,-1.31 11.204,-1.013C11.275,-0.379 10.96,0.059 10.656,0.041M8.828,0.062C8.744,0.067 8.653,0.036 8.554,-0.027C8.291,-0.198 8.054,-0.559 7.944,-0.953C7.817,-1.358 8.217,-1.756 8.869,-1.796C8.869,-1.799 8.868,-1.802 8.867,-1.805C9.058,-1.607 9.205,-1.331 9.265,-1.04C9.39,-0.419 9.122,0.049 8.828,0.062M7.064,0.272C6.984,0.285 6.894,0.263 6.791,0.21C6.521,0.066 6.261,-0.269 6.118,-0.65C5.958,-1.04 6.307,-1.476 6.936,-1.58C6.934,-1.583 6.934,-1.586 6.932,-1.59C7.135,-1.412 7.303,-1.152 7.387,-0.869C7.563,-0.264 7.348,0.228 7.064,0.272M5.381,0.656C5.304,0.676 5.215,0.664 5.112,0.62C4.837,0.504 4.553,0.196 4.378,-0.171C4.187,-0.544 4.483,-1.01 5.083,-1.174C5.081,-1.178 5.08,-1.181 5.078,-1.184C5.291,-1.025 5.479,-0.785 5.586,-0.512C5.814,0.074 5.649,0.584 5.381,0.656M3.79,1.201C3.719,1.229 3.63,1.225 3.526,1.192C3.251,1.103 2.945,0.822 2.739,0.476C2.636,0.307 2.628,0.106 2.729,-0.093C2.832,-0.303 3.046,-0.483 3.324,-0.593C3.323,-0.595 3.321,-0.599 3.319,-0.601C3.542,-0.464 3.746,-0.242 3.877,0.02C4.153,0.58 4.043,1.104 3.79,1.201M2.306,1.895C2.238,1.929 2.152,1.934 2.05,1.91C1.772,1.847 1.448,1.598 1.213,1.271C0.96,0.939 1.146,0.428 1.676,0.153C1.673,0.151 1.671,0.148 1.669,0.146C1.898,0.26 2.119,0.463 2.272,0.712C2.595,1.242 2.54,1.775 2.306,1.895M0.937,2.722C0.876,2.762 0.793,2.774 0.689,2.761C0.414,2.723 0.072,2.504 -0.191,2.201C-0.322,2.056 -0.368,1.861 -0.315,1.648C-0.262,1.432 -0.104,1.222 0.123,1.065C0.126,1.065 0.128,1.066 0.131,1.065C0.132,1.063 0.132,1.062 0.132,1.06C0.137,1.056 0.141,1.053 0.145,1.05C0.143,1.048 0.141,1.045 0.139,1.042C0.374,1.135 0.609,1.315 0.782,1.548C1.151,2.047 1.152,2.581 0.937,2.722M-2.229,0.646C-2.247,0.802 -2.264,0.957 -2.278,1.111C-1.687,1.056 -1.104,1.033 -0.532,1.042C-0.68,1.217 -0.785,1.409 -0.832,1.607C-0.909,1.948 -0.817,2.259 -0.602,2.492C-0.602,2.493 -0.603,2.493 -0.603,2.494C-0.602,2.497 -0.598,2.499 -0.594,2.502C-0.592,2.505 -0.59,2.508 -0.587,2.511L-0.586,2.51C-0.229,2.895 0.209,3.149 0.604,3.202C0.829,3.231 1.032,3.191 1.197,3.085C1.464,2.912 1.584,2.587 1.562,2.206C1.68,2.266 1.797,2.315 1.915,2.342C2.143,2.392 2.353,2.372 2.533,2.28C2.825,2.133 2.981,1.822 2.998,1.44C3.112,1.512 3.227,1.572 3.345,1.609C3.572,1.681 3.789,1.682 3.984,1.607C4.298,1.489 4.49,1.194 4.545,0.816C4.654,0.898 4.768,0.97 4.883,1.019C5.109,1.111 5.333,1.133 5.54,1.079C5.872,0.993 6.099,0.719 6.192,0.349C6.297,0.439 6.405,0.522 6.52,0.582C6.742,0.698 6.969,0.742 7.187,0.71C7.536,0.657 7.796,0.407 7.926,0.048C8.024,0.15 8.128,0.243 8.239,0.315C8.457,0.454 8.687,0.521 8.913,0.511C9.278,0.496 9.565,0.274 9.732,-0.07C9.824,0.042 9.922,0.146 10.03,0.229C10.241,0.391 10.472,0.483 10.703,0.498C11.079,0.521 11.395,0.333 11.597,0.007C11.681,0.13 11.771,0.245 11.875,0.339C12.076,0.524 12.305,0.641 12.542,0.684C12.925,0.749 13.265,0.596 13.5,0.292C13.575,0.424 13.658,0.549 13.756,0.656C13.947,0.864 14.17,1.009 14.41,1.077C14.796,1.188 15.158,1.074 15.424,0.796C15.49,0.938 15.563,1.073 15.656,1.193C15.833,1.426 16.051,1.597 16.289,1.695C16.963,1.973 17.656,1.563 17.811,0.668C17.869,0.311 17.814,-0.069 17.674,-0.419C18.127,-0.318 18.582,-0.2 19.039,-0.066C19.008,-0.249 18.972,-0.433 18.935,-0.615C18.397,-0.767 17.864,-0.893 17.335,-0.997C17.31,-1.027 17.281,-1.052 17.255,-1.08C17.066,-1.637 16.652,-2.123 16.152,-2.371C16.113,-2.391 16.073,-2.409 16.032,-2.427C15.572,-2.616 15.138,-2.57 14.836,-2.351C14.609,-2.613 14.325,-2.823 14.017,-2.94C13.977,-2.956 13.936,-2.969 13.895,-2.981C13.356,-3.143 12.883,-2.992 12.62,-2.646C12.359,-2.933 12.024,-3.143 11.675,-3.235C11.635,-3.245 11.593,-3.254 11.553,-3.263C11.076,-3.351 10.669,-3.201 10.429,-2.905C10.213,-3.05 9.976,-3.151 9.731,-3.193C9.692,-3.199 9.652,-3.205 9.612,-3.209C9.133,-3.253 8.745,-3.057 8.54,-2.727C8.245,-2.964 7.889,-3.111 7.538,-3.133C7.498,-3.136 7.459,-3.138 7.419,-3.137C6.979,-3.13 6.636,-2.923 6.456,-2.608C6.187,-2.756 5.888,-2.834 5.601,-2.825C5.562,-2.823 5.523,-2.822 5.485,-2.817C5.016,-2.766 4.685,-2.482 4.562,-2.104C4.229,-2.289 3.861,-2.369 3.527,-2.323C3.498,-2.319 3.469,-2.314 3.439,-2.309C2.991,-2.215 2.701,-1.918 2.619,-1.529C2.321,-1.635 2.013,-1.661 1.736,-1.595C1.708,-1.588 1.68,-1.579 1.652,-1.572C1.235,-1.44 0.986,-1.13 0.935,-0.747C0.635,-0.833 0.333,-0.835 0.076,-0.747C0.056,-0.739 0.035,-0.731 0.016,-0.723C-0.314,-0.588 -0.522,-0.321 -0.566,0.013C-0.591,0.194 -0.562,0.389 -0.496,0.586C-1.063,0.576 -1.641,0.596 -2.229,0.646" style="fill:rgb(247,209,49);fill-rule:nonzero;"/>
            </g>
        </g>
        <g transform="matrix(1,0,0,1,24.1194,58.4327)">
            <g id="path128" transform="matrix(0.739442,-1.78731e-32,-1.78731e-32,-0.739442,49.7908,147.996)">
                <path d="M0,0L1.168,9.397L8.154,19.573" style="fill:none;fill-rule:nonzero;stroke:rgb(235,255,18);stroke-width:0.56px;"/>
            </g>
        </g>
        <g transform="matrix(1,0,0,1,24.1194,58.4327)">
            <g id="path132" transform="matrix(0.739442,-1.78731e-32,-1.78731e-32,-0.739442,44.2298,147.761)">
                <path d="M0,0L-0.403,9.547L-5.362,20.389" style="fill:none;fill-rule:nonzero;stroke:rgb(235,255,18);stroke-width:0.56px;"/>
            </g>
        </g>
        <g transform="matrix(1,0,0,1,24.1194,58.4327)">
            <g id="g96" transform="matrix(0.739442,-1.78731e-32,-1.78731e-32,-0.739442,37.0563,118.438)">
                <path id="path98" d="M0,0C-0.042,-0.892 0.647,-1.649 1.539,-1.692C2.432,-1.734 3.188,-1.045 3.23,-0.153C3.272,0.739 2.584,1.495 1.692,1.539C0.801,1.581 0.042,0.892 0,0" style="fill:rgb(39,16,46);fill-rule:nonzero;"/>
            </g>
        </g>
        <g transform="matrix(1,0,0,1,24.1194,58.4327)">
            <g id="g108" transform="matrix(0.739442,-1.78731e-32,-1.78731e-32,-0.739442,57.5563,119.409)">
                <path id="path110" d="M0,0C-0.043,-0.892 0.646,-1.648 1.538,-1.692C2.43,-1.734 3.188,-1.045 3.229,-0.152C3.272,0.739 2.583,1.496 1.691,1.539C0.799,1.581 0.042,0.892 0,0" style="fill:rgb(39,16,46);fill-rule:nonzero;"/>
            </g>
        </g>
        <g transform="matrix(1,0,0,1,24.1194,58.4327)">
            <g transform="matrix(1,0,0,1,-24.1194,-58.4327)">
                <path d="M72.998,135.2C96.075,135.2 114.809,153.921 114.809,176.979C114.809,200.038 96.075,218.759 72.998,218.759C49.922,218.759 31.187,200.038 31.187,176.979C31.187,153.921 49.922,135.2 72.998,135.2ZM67.491,213.136L75.084,213.496C75.982,213.539 76.673,214.214 76.635,215.004C76.598,215.801 75.847,216.411 74.947,216.368L67.354,216.009C66.459,215.966 65.759,215.287 65.797,214.492C65.835,213.702 66.596,213.093 67.491,213.136ZM65.459,209.454L77.459,210.022C78.357,210.064 79.056,210.738 79.019,211.533C78.982,212.321 78.221,212.93 77.324,212.887L65.322,212.318C64.421,212.275 63.723,211.598 63.762,210.81C63.799,210.015 64.556,209.411 65.459,209.454ZM65.623,205.989L77.623,206.557C78.521,206.599 79.22,207.275 79.183,208.067C79.145,208.859 78.385,209.466 77.488,209.424L65.486,208.856C64.585,208.813 63.887,208.137 63.925,207.343C63.963,206.552 64.72,205.946 65.623,205.989ZM76.759,151.328C75.541,150.862 74.538,149.868 74.107,148.53C73.349,146.182 74.638,143.668 76.985,142.91C79.331,142.153 81.847,143.441 82.604,145.788C83.362,148.136 82.073,150.65 79.726,151.408C79.164,151.589 78.592,151.653 78.037,151.613L77.165,158.378C81.182,159.16 84.64,161.133 87.503,164.281C91.06,168.224 92.732,172.847 92.479,178.169C92.41,179.618 92.197,181.02 91.861,182.362C91.258,184.572 90.395,186.54 89.279,188.283C88.17,190.031 85.844,192.428 82.337,195.503C79.078,198.34 77.626,201.892 77.944,206.119L65.349,205.522C66.064,201.345 64.951,197.67 61.972,194.538C58.775,191.144 56.756,188.422 55.813,186.579C54.87,184.736 54.128,182.813 53.73,180.556C53.528,179.189 53.449,177.772 53.518,176.323C53.769,171.002 55.873,166.558 59.784,162.968C63.699,159.409 68.348,157.745 73.672,157.997L74.141,158.019C74.73,158.047 75.309,158.098 75.877,158.171L76.759,151.328Z" style="fill:rgb(0,110,128);"/>
            </g>
        </g>
    </g>
</svg>
