<?xml version="1.0" encoding="UTF-8" standalone="no"?>
<!DOCTYPE svg PUBLIC "-//W3C//DTD SVG 1.1//EN" "http://www.w3.org/Graphics/SVG/1.1/DTD/svg11.dtd">
<svg width="100%" height="100%" viewBox="0 0 3508 2481" version="1.1" xmlns="http://www.w3.org/2000/svg" xmlns:xlink="http://www.w3.org/1999/xlink" xml:space="preserve" xmlns:serif="http://www.serif.com/" style="fill-rule:evenodd;clip-rule:evenodd;stroke-linejoin:round;stroke-miterlimit:2;">
    <g transform="matrix(44.6911,0,0,44.6911,1687.76,1294.22)">
        <path d="M0.255,-0.738L0.162,-0.738L0.162,0.078L0.255,0.078L0.255,0.152L0.071,0.152L0.071,-0.813L0.255,-0.813L0.255,-0.738Z" style="fill-rule:nonzero;"/>
    </g>
    <g transform="matrix(44.6911,0,0,44.6911,1699.61,1294.22)">
        <path d="M0.135,-0C0.081,-0 0.054,-0.017 0.054,-0.051C0.054,-0.073 0.067,-0.097 0.092,-0.123L0.563,-0.595L0.036,-0.594L0.036,-0.719L0.697,-0.719C0.722,-0.719 0.743,-0.713 0.757,-0.702C0.773,-0.691 0.78,-0.676 0.78,-0.659C0.78,-0.638 0.769,-0.617 0.748,-0.596L0.279,-0.125L0.807,-0.125L0.807,-0L0.135,-0Z" style="fill-rule:nonzero;"/>
    </g>
    <g transform="matrix(44.6911,0,0,44.6911,1737.37,1294.22)">
        <path d="M0.433,-0.594L0.433,-0L0.308,-0L0.308,-0.594L0.024,-0.594L0.024,-0.719L0.716,-0.719L0.716,-0.594L0.433,-0.594Z" style="fill-rule:nonzero;"/>
    </g>
    <g transform="matrix(44.6911,0,0,44.6911,1800.61,1294.22)">
        <path d="M0.004,-0.813L0.189,-0.813L0.189,0.152L0.004,0.152L0.004,0.078L0.099,0.078L0.099,-0.738L0.004,-0.738L0.004,-0.813Z" style="fill-rule:nonzero;"/>
    </g>
    <g transform="matrix(7.05564,0,0,7.05564,1773.98,1292.82)">
        <path d="M0.062,-0.069C0.062,-0.092 0.069,-0.11 0.084,-0.124C0.099,-0.138 0.118,-0.145 0.141,-0.145C0.164,-0.145 0.183,-0.138 0.198,-0.124C0.214,-0.11 0.221,-0.092 0.221,-0.069C0.221,-0.047 0.214,-0.029 0.199,-0.015C0.184,-0.002 0.165,0.005 0.141,0.005C0.118,0.005 0.099,-0.002 0.084,-0.015C0.069,-0.029 0.062,-0.047 0.062,-0.069Z" style="fill:rgb(0,255,30);fill-rule:nonzero;"/>
    </g>
    <path d="M1781.8,1294.22L1771.74,1294.22L1771.74,1262.08L1777.33,1262.08L1777.33,1288.63L1799.45,1288.63L1799.45,1294.22L1782.8,1294.22L1782.8,1292.5C1783.03,1292.76 1783.33,1292.89 1783.71,1292.89C1784.15,1292.89 1784.5,1292.71 1784.76,1292.37C1785.03,1292.02 1785.15,1291.56 1785.15,1290.99L1785.15,1290.94C1785.15,1290.34 1785.03,1289.87 1784.77,1289.53C1784.52,1289.19 1784.16,1289.02 1783.7,1289.02C1783.31,1289.02 1783,1289.17 1782.76,1289.46L1782.72,1289.09L1781.8,1289.09L1781.8,1294.22ZM1779.31,1291.79C1779.31,1291.67 1779.25,1291.57 1779.13,1291.5C1779.01,1291.43 1778.81,1291.37 1778.55,1291.31C1777.66,1291.13 1777.22,1290.75 1777.22,1290.18C1777.22,1289.85 1777.36,1289.58 1777.63,1289.35C1777.9,1289.13 1778.26,1289.02 1778.71,1289.02C1779.18,1289.02 1779.56,1289.13 1779.84,1289.36C1780.12,1289.58 1780.27,1289.87 1780.27,1290.22L1779.27,1290.22C1779.27,1290.08 1779.23,1289.96 1779.13,1289.87C1779.04,1289.78 1778.9,1289.73 1778.7,1289.73C1778.54,1289.73 1778.4,1289.77 1778.31,1289.85C1778.22,1289.92 1778.17,1290.02 1778.17,1290.13C1778.17,1290.25 1778.23,1290.33 1778.33,1290.4C1778.44,1290.47 1778.61,1290.53 1778.86,1290.58C1779.11,1290.63 1779.32,1290.68 1779.49,1290.74C1780.01,1290.94 1780.28,1291.27 1780.28,1291.75C1780.28,1292.09 1780.13,1292.36 1779.84,1292.57C1779.55,1292.78 1779.17,1292.89 1778.71,1292.89C1778.4,1292.89 1778.12,1292.83 1777.88,1292.72C1777.63,1292.61 1777.44,1292.46 1777.31,1292.26C1777.17,1292.07 1777.1,1291.86 1777.1,1291.63L1778.05,1291.63C1778.05,1291.81 1778.12,1291.95 1778.24,1292.04C1778.36,1292.13 1778.53,1292.18 1778.73,1292.18C1778.92,1292.18 1779.07,1292.14 1779.16,1292.07C1779.26,1292 1779.31,1291.9 1779.31,1291.79ZM1788.81,1292.82C1788.77,1292.73 1788.74,1292.62 1788.71,1292.48C1788.47,1292.75 1788.16,1292.89 1787.77,1292.89C1787.41,1292.89 1787.11,1292.78 1786.87,1292.57C1786.63,1292.36 1786.51,1292.09 1786.51,1291.77C1786.51,1291.38 1786.65,1291.07 1786.94,1290.86C1787.24,1290.65 1787.66,1290.54 1788.22,1290.54L1788.67,1290.54L1788.67,1290.33C1788.67,1290.15 1788.63,1290.02 1788.54,1289.91C1788.45,1289.81 1788.31,1289.76 1788.12,1289.76C1787.95,1289.76 1787.82,1289.8 1787.73,1289.88C1787.63,1289.96 1787.58,1290.07 1787.58,1290.21L1786.59,1290.21C1786.59,1290 1786.65,1289.8 1786.79,1289.61C1786.92,1289.43 1787.11,1289.28 1787.35,1289.18C1787.6,1289.07 1787.87,1289.02 1788.17,1289.02C1788.63,1289.02 1789,1289.14 1789.27,1289.37C1789.54,1289.6 1789.67,1289.92 1789.67,1290.34L1789.67,1291.96C1789.67,1292.31 1789.72,1292.58 1789.82,1292.76L1789.82,1292.82L1788.81,1292.82ZM1792.87,1292.09C1793.05,1292.09 1793.2,1292.03 1793.32,1291.93C1793.43,1291.83 1793.49,1291.7 1793.5,1291.53L1794.43,1291.53C1794.43,1291.78 1794.36,1292.01 1794.22,1292.22C1794.09,1292.43 1793.9,1292.6 1793.67,1292.71C1793.43,1292.83 1793.17,1292.89 1792.89,1292.89C1792.35,1292.89 1791.93,1292.72 1791.62,1292.38C1791.32,1292.04 1791.16,1291.57 1791.16,1290.98L1791.16,1290.91C1791.16,1290.34 1791.32,1289.88 1791.62,1289.54C1791.93,1289.19 1792.35,1289.02 1792.88,1289.02C1793.35,1289.02 1793.72,1289.15 1794,1289.42C1794.28,1289.68 1794.42,1290.04 1794.43,1290.48L1793.5,1290.48C1793.49,1290.29 1793.43,1290.13 1793.32,1290.01C1793.2,1289.88 1793.05,1289.83 1792.86,1289.83C1792.63,1289.83 1792.45,1289.91 1792.34,1290.08C1792.22,1290.25 1792.16,1290.52 1792.16,1290.9L1792.16,1291.01C1792.16,1291.39 1792.22,1291.66 1792.34,1291.83C1792.45,1292 1792.63,1292.09 1792.87,1292.09ZM1797.6,1292.89C1797.05,1292.89 1796.6,1292.72 1796.26,1292.38C1795.92,1292.05 1795.75,1291.6 1795.75,1291.04L1795.75,1290.95C1795.75,1290.57 1795.82,1290.24 1795.96,1289.94C1796.11,1289.65 1796.31,1289.42 1796.58,1289.26C1796.84,1289.1 1797.15,1289.02 1797.49,1289.02C1798,1289.02 1798.4,1289.18 1798.69,1289.5C1798.98,1289.83 1799.13,1290.28 1799.13,1290.87L1799.13,1291.28L1796.76,1291.28C1796.79,1291.52 1796.88,1291.72 1797.05,1291.86C1797.21,1292.01 1797.41,1292.09 1797.66,1292.09C1798.05,1292.09 1798.34,1291.95 1798.56,1291.67L1799.05,1292.21C1798.9,1292.43 1798.7,1292.59 1798.44,1292.71C1798.19,1292.83 1797.91,1292.89 1797.6,1292.89ZM1787.99,1292.13C1788.14,1292.13 1788.27,1292.09 1788.4,1292.03C1788.52,1291.96 1788.61,1291.87 1788.67,1291.76L1788.67,1291.12L1788.3,1291.12C1787.8,1291.12 1787.54,1291.3 1787.51,1291.64L1787.5,1291.7C1787.5,1291.82 1787.55,1291.92 1787.63,1292.01C1787.72,1292.09 1787.84,1292.13 1787.99,1292.13ZM1784.16,1290.92C1784.16,1290.57 1784.1,1290.3 1783.98,1290.11C1783.85,1289.93 1783.67,1289.83 1783.44,1289.83C1783.13,1289.83 1782.91,1289.95 1782.8,1290.19L1782.8,1291.72C1782.92,1291.96 1783.13,1292.09 1783.45,1292.09C1783.92,1292.09 1784.16,1291.69 1784.16,1290.92ZM1797.48,1289.83C1797.28,1289.83 1797.12,1289.89 1797,1290.03C1796.88,1290.16 1796.8,1290.35 1796.77,1290.6L1798.15,1290.6L1798.15,1290.52C1798.15,1290.3 1798.09,1290.13 1797.97,1290.01C1797.86,1289.88 1797.69,1289.83 1797.48,1289.83Z" style="fill:rgb(255,0,0);fill-rule:nonzero;"/>
</svg>
