<?xml version="1.0" encoding="UTF-8" standalone="no"?>
<!-- Created with Inkscape (http://www.inkscape.org/) -->

<svg
   xmlns:dc="http://purl.org/dc/elements/1.1/"
   xmlns:cc="http://creativecommons.org/ns#"
   xmlns:rdf="http://www.w3.org/1999/02/22-rdf-syntax-ns#"
   xmlns:svg="http://www.w3.org/2000/svg"
   xmlns="http://www.w3.org/2000/svg"
   xmlns:sodipodi="http://sodipodi.sourceforge.net/DTD/sodipodi-0.dtd"
   xmlns:inkscape="http://www.inkscape.org/namespaces/inkscape"
   width="210mm"
   height="297mm"
   viewBox="0 0 210 297"
   version="1.1"
   id="svg8"
   inkscape:version="0.92.3 (2405546, 2018-03-11)"
   sodipodi:docname="voll_verteilt.svg">
  <defs
     id="defs2" />
  <sodipodi:namedview
     id="base"
     pagecolor="#ffffff"
     bordercolor="#666666"
     borderopacity="1.0"
     inkscape:pageopacity="0.0"
     inkscape:pageshadow="2"
     inkscape:zoom="3.959798"
     inkscape:cx="-1510.0659"
     inkscape:cy="93.034201"
     inkscape:document-units="mm"
     inkscape:current-layer="layer1"
     showgrid="false"
     inkscape:window-width="1920"
     inkscape:window-height="1031"
     inkscape:window-x="0"
     inkscape:window-y="25"
     inkscape:window-maximized="1"
     inkscape:measure-start="-1548.21,107.321"
     inkscape:measure-end="-1541.61,107.232" />
  <metadata
     id="metadata5">
    <rdf:RDF>
      <cc:Work
         rdf:about="">
        <dc:format>image/svg+xml</dc:format>
        <dc:type
           rdf:resource="http://purl.org/dc/dcmitype/StillImage" />
        <dc:title></dc:title>
      </cc:Work>
    </rdf:RDF>
  </metadata>
  <g
     inkscape:label="Layer 1"
     inkscape:groupmode="layer"
     id="layer1">
    <path
       style="fill:#000000;stroke-width:0.08472"
       d="m -423.89212,284.84912 c 0.26868,-0.28522 0.31543,-0.76702 0.10373,-1.0692 -0.12228,-0.17456 -0.0448,-0.35307 1.44046,-3.32293 1.31578,-2.63079 1.5984,-3.13845 1.74727,-3.13845 0.35324,0 0.74208,-0.25825 0.84124,-0.55873 0.18664,-0.5655 -0.0868,-1.07094 -0.63893,-1.18086 -0.76767,-0.15284 -1.36145,0.83148 -0.84548,1.40161 0.12543,0.13863 0.0224,0.37473 -1.4374,3.29358 -1.49598,2.99119 -1.58386,3.14423 -1.80525,3.14423 -0.22146,0 -0.30934,-0.15323 -1.81124,-3.15829 l -1.57846,-3.15831 0.15994,-0.19753 c 0.29917,-0.36945 0.16511,-1.01601 -0.25581,-1.23368 -0.36927,-0.19095 -0.71941,-0.16305 -1.00873,0.0804 -0.61364,0.51633 -0.29958,1.45363 0.50517,1.50766 0.25606,0.0173 0.29554,0.0852 1.82745,3.14757 1.54718,3.09291 1.56413,3.13271 1.43016,3.3595 -0.20429,0.34583 -0.17236,0.78206 0.0791,1.08092 0.3493,0.41511 0.85711,0.41613 1.24673,0.004 z m 13.48876,0.22797 c 0.31403,-0.13121 0.55359,-0.50255 0.55359,-0.85813 0,-0.14392 -0.10726,-0.33173 -0.29882,-0.52329 -0.27313,-0.27314 -0.33129,-0.29517 -0.67685,-0.25622 -0.37359,0.042 -0.70924,0.30033 -0.7159,0.55079 -0.002,0.0818 -0.47989,0.1058 -2.09965,0.10531 l -2.09682,-4.6e-4 -0.14434,-0.25364 c -0.0794,-0.13952 -0.23943,-0.29698 -0.35563,-0.34994 -0.20886,-0.0951 -0.21135,-0.1086 -0.21435,-1.17307 -0.004,-1.07105 -0.002,-1.07732 0.2113,-1.17447 0.11785,-0.0537 0.27929,-0.2118 0.35868,-0.35131 l 0.14434,-0.25366 1.05087,-4.6e-4 1.05087,-4.5e-4 0.29006,0.33888 c 0.24508,0.28632 0.3406,0.33888 0.61586,0.33888 0.89874,0 1.24465,-1.14116 0.48914,-1.61369 -0.40259,-0.2518 -0.79793,-0.17266 -1.13726,0.22767 l -0.26677,0.31473 -1.02634,0.0208 -1.02637,0.0208 -0.11773,-0.22656 c -0.0648,-0.12461 -0.23267,-0.3112 -0.37324,-0.41465 l -0.25556,-0.1881 -0.007,-1.01658 -0.007,-1.01658 0.23675,-0.12244 c 0.13023,-0.0673 0.28953,-0.221 0.354,-0.34147 l 0.11724,-0.21911 h 2.08937 2.08937 l 0.12017,0.22492 c 0.14963,0.27993 0.60634,0.48048 0.93153,0.40906 0.51566,-0.11323 0.83852,-0.84094 0.58404,-1.31642 -0.10689,-0.19985 -0.51376,-0.41902 -0.77694,-0.41859 -0.26683,3.1e-4 -0.71831,0.28886 -0.786,0.50216 -0.0543,0.17103 -0.10665,0.17528 -2.16222,0.17528 -2.02289,0 -2.10869,-0.006 -2.15965,-0.16723 -0.13876,-0.43723 -0.74786,-0.63234 -1.21687,-0.38982 -0.59726,0.30887 -0.54589,1.33507 0.0766,1.53267 0.15879,0.0503 0.16842,0.12195 0.1551,1.15225 -0.0131,1.02435 -0.0263,1.10466 -0.19267,1.18963 -0.64474,0.32916 -0.62087,1.43099 0.0356,1.63931 0.15507,0.0492 0.16723,0.1323 0.16723,1.14303 0,1.01073 -0.0122,1.0938 -0.16723,1.14302 -0.28073,0.0891 -0.51054,0.45976 -0.51054,0.82347 0,0.468 0.36127,0.82926 0.82927,0.82926 0.36372,0 0.73438,-0.2298 0.82347,-0.51052 0.0509,-0.16048 0.1366,-0.16724 2.12084,-0.16724 h 2.06776 l 0.13473,0.26056 c 0.074,0.14331 0.25618,0.31338 0.4046,0.37791 0.34057,0.14815 0.34459,0.14815 0.69055,0.005 z m 9.81678,0.0408 c 0.35024,-0.13316 0.56432,-0.42895 0.56432,-0.77966 0,-0.45285 -0.14137,-0.70631 -0.45779,-0.82072 -0.35036,-0.12669 -0.55007,-0.1215 -0.80712,0.0208 -0.19552,0.10836 -0.31844,0.0391 -2.4357,-1.37219 -1.22638,-0.81743 -2.22978,-1.51821 -2.22978,-1.55729 0,-0.0391 0.95309,-0.0711 2.11799,-0.0711 1.76689,0 2.118,0.0198 2.118,0.11955 0,0.0658 0.11736,0.21825 0.26067,0.33888 0.57075,0.48026 1.37642,0.14686 1.42262,-0.58868 0.0232,-0.37022 -0.19742,-0.74887 -0.49065,-0.84195 -0.14314,-0.0454 -0.15967,-0.15608 -0.1709,-1.14378 -0.0122,-1.0606 -0.006,-1.09649 0.18186,-1.19307 0.65493,-0.33566 0.6603,-1.26183 0.01,-1.59479 -0.38818,-0.19852 -0.91433,-0.0283 -1.12424,0.3641 l -0.11724,0.21902 h -2.09451 -2.0945 l -0.0481,-0.19146 c -0.058,-0.23107 -0.4628,-0.4863 -0.77125,-0.4863 -0.53295,0 -0.93771,0.45275 -0.88302,0.98773 0.0268,0.26158 0.377,0.70667 0.55609,0.70667 0.0863,0 0.11055,0.25064 0.10799,1.12254 l -0.004,1.12254 -0.26679,0.16944 c -0.55598,0.35311 -0.55869,1.09104 -0.005,1.43874 l 0.27206,0.17095 0.004,1.07447 c 0.004,0.99685 -0.009,1.07829 -0.16397,1.12754 -0.28073,0.0891 -0.51051,0.45976 -0.51051,0.82349 0,0.72749 0.85345,1.0982 1.42367,0.61839 0.46103,-0.38793 0.40429,-1.08513 -0.11091,-1.36257 l -0.29618,-0.15951 v -1.0718 -1.07182 l 0.25671,-0.10629 c 0.25156,-0.10421 0.30063,-0.0771 2.45687,1.35827 l 2.20019,1.46458 v 0.31443 c 0,0.34396 0.24508,0.72765 0.54119,0.8473 0.23987,0.0969 0.34158,0.0975 0.58887,0.005 z m -5.42657,-5.15824 c -0.0759,-0.13207 -0.2457,-0.30206 -0.37754,-0.37774 l -0.23971,-0.13757 v -1.06077 -1.06076 l 0.25782,-0.13333 c 0.1418,-0.0733 0.30042,-0.2268 0.35248,-0.34106 l 0.0946,-0.20773 h 2.09007 2.09008 l 0.11725,0.21903 c 0.0645,0.12053 0.22339,0.27394 0.35319,0.34105 l 0.23596,0.12204 v 1.0785 1.07852 l -0.2351,0.10409 c -0.12931,0.0572 -0.30204,0.21739 -0.38386,0.3559 l -0.14876,0.25182 -2.03434,0.005 -2.03436,0.005 -0.13783,-0.24014 z m 27.0392,5.15305 c 0.0597,0 0.20909,-0.10057 0.33195,-0.22335 0.49302,-0.49305 0.13614,-1.47105 -0.53682,-1.47105 -0.35225,0 -0.70155,0.18949 -0.84565,0.45872 l -0.11724,0.21904 h -2.05655 -2.05652 l -0.14588,-0.24694 c -0.0801,-0.13581 -0.23487,-0.28749 -0.34366,-0.33707 -0.19233,-0.0877 -0.1978,-0.12029 -0.1978,-1.17897 0,-1.08193 0.002,-1.08962 0.21716,-1.20509 0.11943,-0.064 0.28015,-0.22286 0.35714,-0.35319 l 0.13999,-0.23699 h 1.06878 c 1.06274,0 1.06944,0.002 1.186,0.21903 0.13029,0.24348 0.48627,0.45873 0.75861,0.45873 0.24861,0 0.65594,-0.22452 0.75997,-0.4189 0.048,-0.0896 0.0863,-0.30846 0.0853,-0.48626 -0.005,-0.8128 -0.9505,-1.14975 -1.47561,-0.52569 -0.11931,0.14176 -0.21691,0.28865 -0.21691,0.32637 0,0.0376 -0.48927,0.0734 -1.08728,0.0793 -1.07543,0.011 -1.0883,0.009 -1.18159,-0.19633 -0.0517,-0.11384 -0.21071,-0.29307 -0.35298,-0.39823 l -0.25862,-0.19124 v -1.07182 c 0,-1.05489 0.002,-1.07331 0.20731,-1.16629 0.11407,-0.052 0.27091,-0.1915 0.34862,-0.31012 l 0.1413,-0.21567 h 2.09467 2.09466 l 0.0968,0.21247 c 0.14166,0.31089 0.6126,0.51285 0.9622,0.41258 0.38992,-0.11189 0.69118,-0.57272 0.63008,-0.96392 -0.0623,-0.39972 -0.46772,-0.76247 -0.85188,-0.76247 -0.31034,0 -0.80999,0.34434 -0.80999,0.5582 0,0.0997 -0.35142,0.11956 -2.12009,0.11956 h -2.1201 l -0.079,-0.20775 c -0.0962,-0.25302 -0.49129,-0.47003 -0.85571,-0.47003 -0.20052,0 -0.34439,0.0794 -0.56182,0.30989 -0.25477,0.27015 -0.28519,0.34753 -0.23718,0.60347 0.0699,0.37256 0.19603,0.57392 0.4419,0.70552 0.18807,0.10069 0.19463,0.14215 0.19463,1.23355 0,0.91582 -0.0226,1.12942 -0.11956,1.12942 -0.21977,0 -0.55821,0.49986 -0.55821,0.82445 0,0.24345 0.0667,0.36661 0.33888,0.62551 l 0.33888,0.32236 v 1.06422 c 0,1.03286 -0.006,1.06687 -0.19781,1.15433 -0.2329,0.10616 -0.47995,0.49194 -0.47995,0.74954 0,0.25202 0.22329,0.65919 0.4189,0.76386 0.20974,0.11226 0.73158,0.11226 0.94131,0 0.0896,-0.048 0.22155,-0.20047 0.29312,-0.33886 l 0.13013,-0.25165 2.05229,4.5e-4 2.05228,4.6e-4 0.14617,0.25682 c 0.15122,0.26574 0.61608,0.52797 0.81387,0.45914 0.0621,-0.0214 0.1617,-0.0392 0.22143,-0.0392 z m 14.02578,-0.16335 c 0.28196,-0.1989 0.4001,-0.67041 0.25544,-1.01966 -0.22174,-0.53534 -0.98752,-0.68689 -1.38331,-0.27379 -0.12522,0.1307 -0.22767,0.28319 -0.22767,0.33889 0,0.0759 -0.52746,0.1013 -2.09872,0.1013 h -2.09874 l -0.15605,-0.28978 c -0.0858,-0.15937 -0.24579,-0.31229 -0.35547,-0.33983 l -0.19943,-0.05 0.001,-3.04704 0.002,-3.04705 0.24269,-0.14335 c 0.39896,-0.23568 0.55867,-0.68168 0.38928,-1.0871 -0.16448,-0.39364 -0.46083,-0.56892 -0.90729,-0.53656 -0.30581,0.0222 -0.39524,0.0726 -0.5576,0.31427 -0.10641,0.15832 -0.1934,0.4105 -0.1934,0.56043 0,0.3025 0.25317,0.68038 0.51054,0.76207 0.16245,0.0515 0.16724,0.14105 0.16724,3.13394 0,2.99288 -0.005,3.08238 -0.16724,3.13394 -0.28072,0.0891 -0.51052,0.45975 -0.51052,0.82348 0,0.47953 0.36004,0.82926 0.85369,0.82926 0.30953,0 0.40109,-0.0463 0.67126,-0.33888 l 0.31286,-0.33888 h 1.99558 1.99555 l 0.17275,0.29279 c 0.27279,0.46236 0.81122,0.55526 1.28423,0.22161 z m -27.44278,-0.0844 c 0.20016,-0.20014 0.24765,-0.32057 0.24765,-0.62786 0,-0.32058 -0.0409,-0.41464 -0.26066,-0.59958 -0.14336,-0.12065 -0.29585,-0.2193 -0.33888,-0.2193 -0.0463,0 -0.0782,-1.25327 -0.0782,-3.07869 v -3.07869 l 0.2073,-0.0945 c 0.11408,-0.052 0.27092,-0.1915 0.34863,-0.31011 0.13906,-0.21224 0.15832,-0.21566 1.21175,-0.21565 h 1.07043 l 0.23084,0.28931 c 0.28107,0.35227 0.61981,0.44237 1.02555,0.27284 0.30289,-0.12656 0.5944,-0.53828 0.52921,-0.7474 -0.0191,-0.0611 -0.058,-0.2173 -0.0864,-0.34689 -0.0611,-0.27838 -0.48883,-0.56845 -0.83892,-0.56892 -0.28457,-3e-4 -0.70109,0.27339 -0.77627,0.51021 -0.0492,0.15511 -0.13226,0.16725 -1.14573,0.16725 -1.04727,0 -1.0968,-0.009 -1.19186,-0.19062 -0.1796,-0.34517 -0.39499,-0.48714 -0.739,-0.48714 -0.36067,0 -0.73177,0.23089 -0.82051,0.51053 -0.0494,0.15558 -0.13088,0.167 -1.1699,0.16395 l -1.11684,-0.004 -0.1708,-0.27208 c -0.23086,-0.36778 -0.68609,-0.48652 -1.10297,-0.28773 -0.69614,0.33198 -0.55186,1.45695 0.20828,1.62392 0.3252,0.0715 0.7819,-0.12915 0.93154,-0.40909 l 0.12017,-0.22489 h 1.11507 c 1.08112,0 1.11832,0.006 1.22077,0.19745 0.0582,0.1086 0.21835,0.26402 0.35609,0.34537 l 0.25041,0.14793 -0.027,2.99749 -0.027,2.99749 -0.32631,0.28208 c -0.28635,0.24753 -0.32631,0.3277 -0.32631,0.65452 0,0.31089 0.0442,0.41189 0.26703,0.61104 0.37646,0.33637 0.86108,0.33272 1.20282,-0.01 z m 17.70649,0 c 0.18995,-0.18995 0.24764,-0.32544 0.24764,-0.5816 0,-0.36372 -0.2298,-0.73439 -0.51052,-0.82349 -0.16246,-0.0518 -0.16725,-0.14106 -0.16725,-3.13394 0,-2.99288 0.005,-3.08238 0.16725,-3.13394 0.24959,-0.0793 0.51052,-0.45632 0.51052,-0.73782 0,-0.51301 -0.36938,-0.91 -0.84953,-0.91303 -0.90697,-0.006 -1.20393,1.17433 -0.41309,1.6415 l 0.24907,0.14712 -0.009,3.04422 c -0.006,2.3509 -0.032,3.04424 -0.11274,3.04424 -0.0575,0 -0.21204,0.11237 -0.3436,0.24965 -0.54029,0.56395 -0.15076,1.44474 0.63895,1.44474 0.26733,0 0.3993,-0.0553 0.59171,-0.24765 z m 13.74355,0.0296 c 0.4327,-0.43269 0.37418,-0.95336 -0.1523,-1.35491 l -0.30683,-0.23404 0.011,-1.91347 c 0.005,-1.05242 0.0315,-2.41326 0.0582,-3.02412 0.0481,-1.10662 0.0492,-1.11117 0.2865,-1.25138 0.131,-0.0773 0.26216,-0.21615 0.29143,-0.3084 0.0496,-0.15601 0.13153,-0.16768 1.17764,-0.16768 1.11806,0 1.12496,0.002 1.22121,0.21242 0.12389,0.27193 0.60471,0.50583 0.89172,0.43378 0.38017,-0.0955 0.65459,-0.403 0.7068,-0.79224 0.0437,-0.32557 0.0212,-0.38431 -0.25094,-0.65646 -0.37808,-0.37807 -0.76973,-0.405 -1.15652,-0.0795 -0.14336,0.12066 -0.26067,0.27313 -0.26067,0.33888 0,0.097 -0.21558,0.11955 -1.14371,0.11955 -0.92814,0 -1.14372,-0.0225 -1.14372,-0.11955 0,-0.19793 -0.49903,-0.55822 -0.77319,-0.55822 -0.34609,0 -0.69912,0.19831 -0.81818,0.45961 -0.0991,0.21754 -0.10239,0.21815 -1.16362,0.21815 h -1.06421 l -0.33326,-0.35033 c -0.30986,-0.32575 -0.35777,-0.34704 -0.68268,-0.30346 -0.64869,0.0871 -0.96612,0.61416 -0.72187,1.19875 0.0907,0.2171 0.22009,0.34647 0.43718,0.43717 0.41468,0.17328 0.75102,0.0856 1.03422,-0.26921 l 0.23084,-0.28929 h 1.07043 c 1.05343,0 1.07269,0.005 1.21175,0.21564 0.0777,0.11858 0.2346,0.25816 0.34862,0.31011 l 0.20734,0.0945 v 3.07869 c 0,2.50021 -0.0211,3.07867 -0.11238,3.07867 -0.18957,0 -0.48482,0.38318 -0.5354,0.69486 -0.0532,0.32739 0.12619,0.76466 0.37237,0.90803 0.0816,0.0475 0.30508,0.0875 0.49677,0.089 0.26356,0.001 0.40163,-0.0507 0.56648,-0.21538 z m -47.26506,-15.68248 c 0.33509,-0.24781 0.41082,-0.80288 0.1615,-1.18342 -0.14222,-0.21701 -0.13163,-0.24195 1.41905,-3.3431 1.56213,-3.12405 1.56236,-3.12444 1.83116,-3.1248 0.33657,-3.2e-4 0.75858,-0.34149 0.83111,-0.67163 0.0845,-0.38466 -0.14948,-0.83688 -0.51111,-0.98799 -0.79595,-0.33256 -1.47777,0.46398 -1.09237,1.27615 l 0.15041,0.31696 -1.53807,3.08299 c -1.51063,3.02796 -1.54262,3.083 -1.79242,3.083 -0.24981,0 -0.28227,-0.0559 -1.82687,-3.14425 -1.5328,-3.06484 -1.56865,-3.14851 -1.41981,-3.31297 0.0992,-0.10969 0.15269,-0.30148 0.15269,-0.54802 0,-0.32137 -0.0422,-0.41706 -0.27668,-0.62651 -0.37388,-0.33407 -0.76716,-0.33407 -1.14104,0 -0.23753,0.21224 -0.27667,0.3031 -0.27667,0.64235 0,0.33924 0.0392,0.43011 0.27667,0.64235 0.18533,0.16558 0.36752,0.24721 0.55181,0.24721 0.27168,0 0.28436,0.0185 1.0153,1.48322 0.4071,0.81577 0.74018,1.53696 0.74018,1.60263 0,0.0656 0.0337,0.13209 0.0749,0.14763 0.041,0.0156 0.40725,0.69323 0.81348,1.50597 0.73457,1.46966 0.73782,1.47903 0.59717,1.71714 -0.53284,0.90201 0.42592,1.81165 1.25964,1.19509 z m 9.92945,-0.15301 0.26314,-0.29747 h 1.06549 c 0.98205,0 1.0696,0.0129 1.11794,0.16524 0.0289,0.0908 0.18631,0.24796 0.34993,0.3491 0.78452,0.48485 1.67512,-0.32939 1.23639,-1.13037 l -0.17897,-0.32673 0.59412,-1.18775 c 0.44414,-0.8879 0.62609,-1.17548 0.7208,-1.13914 0.18315,0.0702 0.66518,-0.15328 0.82623,-0.38321 0.36671,-0.52353 -0.0381,-1.34563 -0.66259,-1.34563 h -0.29949 l -0.58792,-1.1736 c -0.53007,-1.05812 -0.57505,-1.18648 -0.4571,-1.30443 0.0719,-0.072 0.14972,-0.29852 0.17282,-0.5035 0.0779,-0.69085 -0.5482,-1.15292 -1.19561,-0.88243 -0.1678,0.0701 -0.34943,0.22477 -0.40361,0.34369 -0.0985,0.21606 -0.0992,0.21619 -1.22863,0.21619 -0.91641,0 -1.13012,-0.0226 -1.13012,-0.11955 0,-0.19794 -0.49903,-0.55822 -0.77318,-0.55822 -0.31367,0 -0.71866,0.20343 -0.83399,0.41891 -0.13029,0.24344 -0.10544,0.72177 0.0519,0.9957 0.13755,0.23966 0.13277,0.25452 -0.44477,1.38356 -0.34087,0.66637 -0.63669,1.14475 -0.7109,1.14958 -0.0699,0.005 -0.20765,0.0141 -0.30615,0.0212 -0.0985,0.007 -0.27958,0.11335 -0.40243,0.23626 -0.17764,0.17765 -0.22333,0.30443 -0.22333,0.61956 0,0.50503 0.31311,0.8515 0.76952,0.8515 0.29376,0 0.29538,0.002 0.87672,1.1744 0.56384,1.13695 0.57794,1.1808 0.44236,1.37436 -0.16658,0.23786 -0.17993,0.8228 -0.0235,1.02885 0.18497,0.24356 0.58367,0.41359 0.85767,0.36578 0.14597,-0.0254 0.36614,-0.17097 0.51729,-0.34184 z m 0.15862,-0.89635 c -0.0698,-0.21976 -0.52202,-0.50175 -0.80542,-0.50218 -0.19074,-2.4e-4 -0.27802,-0.12898 -0.79663,-1.17471 -0.56383,-1.13696 -0.57794,-1.18079 -0.44236,-1.37437 0.0771,-0.10994 0.14005,-0.3355 0.14005,-0.50115 0,-0.16564 -0.0631,-0.39114 -0.14005,-0.50113 -0.13558,-0.19358 -0.12151,-0.23742 0.44236,-1.37437 0.56715,-1.1436 0.58955,-1.17441 0.85367,-1.17441 0.2932,0 0.79258,-0.35171 0.79258,-0.55821 0,-0.097 0.21479,-0.11956 1.13801,-0.11956 1.0586,0 1.14172,0.0122 1.1911,0.16722 0.0811,0.25544 0.45873,0.51054 0.75583,0.51054 0.25782,0 0.28497,0.0376 0.8492,1.17532 l 0.58287,1.17531 -0.18937,0.26596 c -0.20447,0.28717 -0.18727,0.63219 0.0496,0.99358 0.10872,0.16594 0.0701,0.27958 -0.45128,1.32664 l -0.57018,1.14516 -0.3435,0.0453 c -0.25677,0.0338 -0.40995,0.12162 -0.60664,0.34781 l -0.26314,0.30254 h -1.0655 c -1.00292,0 -1.06875,-0.011 -1.12112,-0.17528 z m 9.40187,1.14573 c 0.15173,-0.072 0.32598,-0.2245 0.38718,-0.33888 l 0.11128,-0.20797 2.0825,4.6e-4 2.08251,4.5e-4 0.14477,0.25438 c 0.28464,0.50023 0.98475,0.53794 1.37509,0.074 0.31934,-0.3795 0.29458,-0.77707 -0.0711,-1.14279 -0.42475,-0.42476 -1.02079,-0.3634 -1.30395,0.13424 l -0.14476,0.25438 h -2.07565 -2.07564 l -0.14476,-0.25438 c -0.0796,-0.13992 -0.24246,-0.29154 -0.36186,-0.33694 l -0.21713,-0.0826 0.0231,-3.06549 c 0.0185,-2.44469 0.0457,-3.07301 0.13459,-3.10264 0.31846,-0.10605 0.54486,-0.41707 0.55387,-0.76098 0.0177,-0.67267 -0.60701,-1.12026 -1.21306,-0.86922 -0.63467,0.2629 -0.68372,1.27604 -0.0748,1.54557 l 0.24117,0.10677 v 3.06942 3.06943 l -0.25165,0.13013 c -0.31573,0.16328 -0.42611,0.36651 -0.42611,0.78472 0,0.24936 0.0561,0.38095 0.23299,0.54568 0.37585,0.3502 0.57641,0.38903 0.99157,0.19203 z m 10.0278,-0.0908 c 0.11286,-0.0739 0.22416,-0.20684 0.24728,-0.29529 0.0399,-0.15245 0.15076,-0.16079 2.13658,-0.16079 h 2.09452 l 0.0946,0.20771 c 0.13068,0.28683 0.56861,0.49955 0.89432,0.43441 0.14329,-0.0287 0.36676,-0.15387 0.49658,-0.27825 0.5218,-0.49991 0.11006,-1.46609 -0.62422,-1.46493 -0.26932,3.3e-4 -0.75752,0.30893 -0.8107,0.51226 -0.0414,0.15814 -0.13212,0.16516 -2.13014,0.16466 l -2.08694,-4.6e-4 -0.14897,-0.26174 c -0.0819,-0.14397 -0.22491,-0.2816 -0.3177,-0.30587 -0.16461,-0.043 -0.16872,-0.1198 -0.16872,-3.14882 v -3.10467 l 0.19062,-0.0836 c 0.24969,-0.10957 0.5194,-0.66365 0.4526,-0.92983 -0.0925,-0.3688 -0.40425,-0.64318 -0.78925,-0.69483 -0.32556,-0.0436 -0.38432,-0.0212 -0.65645,0.25093 -0.37807,0.37808 -0.40501,0.76973 -0.0795,1.15652 0.12065,0.14336 0.27313,0.26067 0.33887,0.26067 0.10069,0 0.11956,0.4869 0.11956,3.0941 v 3.09408 l -0.21815,0.0994 c -0.11992,0.0547 -0.27248,0.20445 -0.33887,0.33286 -0.45531,0.88045 0.46461,1.67162 1.30408,1.12156 z"
       id="path826"
       inkscape:connector-curvature="0"
       sodipodi:nodetypes="ccsscscssscccccscccccsscccccccccccccsccccccccccccccccccccsccccccscsscsccccccsccsssssccccccccccscscccccccsccccccscsccccscccsccccccccccccccccccsccccccscccscscccsccccscccccccssssccscccsssccscscccccccccccccsscccccccsccssscssccccccccscsscccsccsccccscsccccccccscsccccsccccscscsccccscscccccccccscccccsssscscccccccscccsscccccscscccccssscscsscssscccsccscccccccscsccccsssccscccsscsccccccccsccssscscccccccccscccccccccccccscccccccccccscccccsccccccccscsccccccssccccc" />
    <path
       style="fill:#000000;stroke-width:0.09099436"
       d="m -441.13261,216.74997 c 0.46387,-0.21101 0.59643,-0.37535 0.655,-0.81197 0.0559,-0.41734 -0.2413,-1.68072 -0.62128,-2.64031 -0.3097,-0.78211 -1.38317,-2.95254 -1.63569,-3.30716 -0.25898,-0.36372 -0.73446,-0.62353 -1.14109,-0.62353 -0.48136,0 -0.74715,0.20476 -0.81478,0.62767 l -0.0551,0.34477 -0.43506,-0.0418 c -0.53636,-0.0515 -0.76356,0.13475 -0.85397,0.70018 -0.0596,0.37261 -0.0701,0.38268 -0.33834,0.32377 -0.39428,-0.0866 -0.77221,0.10071 -0.94718,0.46943 -0.16135,0.34002 -0.12733,0.69091 0.11346,1.17027 0.38358,0.76363 2.08716,2.52983 3.07125,3.18417 1.06232,0.70632 2.25236,0.94589 3.00282,0.60452 z m 6.01633,0.0287 c 0.77267,-0.13474 1.04531,-0.24383 0.92075,-0.3684 -0.0316,-0.0316 -0.43828,0.0131 -0.90388,0.0993 -1.08415,0.20063 -3.11397,0.20383 -4.12231,0.007 -0.87656,-0.17154 -1.0733,-0.17758 -1.02458,-0.0314 0.125,0.37503 3.54235,0.57088 5.13002,0.294 z m 3.82005,-0.42038 c 0.89203,-0.3623 1.82967,-1.04303 2.92147,-2.12095 1.06991,-1.0563 1.30079,-1.4203 1.30079,-2.0507 0,-0.54656 -0.3245,-0.84643 -0.86911,-0.80311 l -0.40482,0.0322 v -0.32962 c 0,-0.19567 -0.0766,-0.42703 -0.18859,-0.56937 -0.15815,-0.20106 -0.26096,-0.23975 -0.63696,-0.23975 h -0.44837 v -0.31849 c 0,-0.61199 -0.55304,-0.89971 -1.2314,-0.64065 -0.50165,0.19157 -0.83867,0.57959 -1.55576,1.79112 -1.36544,2.30693 -2.00372,4.03345 -1.76195,4.76599 0.24931,0.75546 1.63226,0.98797 2.8747,0.48333 z m -3.94449,-0.70348 c 0.57969,-0.18731 0.61421,-0.21397 0.61421,-0.47449 0,-0.95168 1.86337,-4.73838 2.84711,-5.78588 l 0.27336,-0.29106 -0.0633,-0.91905 c -0.18522,-2.68925 -1.01491,-5.85746 -2.32081,-8.86204 -0.30211,-0.69509 -0.5709,-1.28541 -0.59732,-1.31184 -0.0592,-0.0592 0.029,-0.16617 -0.88594,1.07422 -1.24432,1.68691 -1.79429,2.07735 -2.56699,1.82233 -0.41732,-0.13772 -0.798,-0.59227 -1.41781,-1.69293 -0.27525,-0.4888 -0.57907,-0.98908 -0.67514,-1.11175 l -0.17467,-0.223 -0.21013,0.41345 c -1.25398,2.46743 -2.43907,6.86838 -2.63209,9.77454 l -0.0618,0.92962 0.41574,0.40407 c 0.7395,0.7187 2.61008,4.82814 2.61008,5.73402 0,0.18531 0.0725,0.26603 0.34123,0.38048 1.04709,0.44579 3.33653,0.5166 4.50421,0.13931 z m -9.90904,-7.03847 c 0.0623,-1.16183 0.20625,-2.19815 0.46949,-3.38139 0.13172,-0.59203 0.23185,-0.79629 0.6636,-1.35364 0.53411,-0.68945 1.22359,-1.51125 1.95017,-2.32436 0.23838,-0.26679 0.43343,-0.5227 0.43343,-0.56873 0,-0.38925 -0.8501,0.53106 -2.90553,3.14551 -0.62904,0.80013 -1.41127,1.73493 -1.73827,2.07731 -0.49431,0.51758 -0.64771,0.62517 -0.90994,0.6381 l -0.3154,0.0155 0.0136,-0.40947 c 0.0149,-0.45103 0.54176,-1.90431 1.10623,-3.05161 1.26003,-2.56099 3.20166,-5.15019 4.36958,-5.82694 0.28176,-0.16326 0.29914,-0.20056 0.25134,-0.53936 -0.0282,-0.2002 -0.0777,-1.2086 -0.10987,-2.2409 -0.0482,-1.5428 -0.031,-2.0411 0.0957,-2.79922 0.28089,-1.67991 0.76515,-2.79793 1.56983,-3.62431 0.87158,-0.89509 2.25173,-1.33268 3.58097,-1.13539 2.25742,0.33505 3.5212,2.1132 3.91827,5.51303 0.10658,0.91266 0.0683,4.1244 -0.0528,4.4343 -0.0418,0.10696 0.0502,0.21152 0.33429,0.38018 1.52808,0.90698 3.9681,4.63152 4.93752,7.53682 0.37191,1.11461 0.40048,1.40743 0.1452,1.48845 -0.43104,0.13681 -0.95223,-0.34959 -2.53349,-2.36441 -1.49558,-1.90565 -2.94721,-3.59419 -3.08995,-3.59424 -0.21717,-7e-5 -0.10986,0.17399 0.61226,0.99314 0.79821,0.90545 2.1329,2.55968 2.26617,2.80871 0.25369,0.47401 0.64954,3.05262 0.67941,4.4256 0.01,0.44935 0.0502,0.64159 0.14108,0.67184 0.18961,0.0631 0.0743,-2.40273 -0.16509,-3.52639 -0.10074,-0.4731 -0.17018,-0.87316 -0.15433,-0.889 0.0159,-0.0159 0.26852,0.25891 0.56147,0.6106 0.29295,0.35169 0.67992,0.74151 0.85994,0.86626 0.36623,0.25379 0.86723,0.29844 1.13684,0.10131 0.15937,-0.11654 0.16355,-0.16937 0.0584,-0.73978 -0.1468,-0.7968 -0.6112,-1.97138 -1.38614,-3.5059 -1.08445,-2.14743 -2.48904,-4.06464 -3.55924,-4.85825 l -0.48209,-0.3575 -0.002,-2.41783 c -10e-4,-2.1243 -0.0248,-2.52279 -0.19378,-3.28229 -0.42203,-1.89701 -1.15721,-3.1912 -2.21351,-3.89657 -0.68212,-0.4555 -1.27488,-0.64913 -2.18646,-0.71422 -1.2932,-0.0923 -2.48177,0.34256 -3.36664,1.23185 -0.86192,0.8662 -1.38517,2.01653 -1.68455,3.70334 -0.17173,0.96766 -0.19497,3.33754 -0.0446,4.5438 0.10025,0.80388 0.0983,0.82147 -0.10396,0.95544 -0.85921,0.56906 -1.93421,1.77487 -2.92044,3.27581 -1.19112,1.81276 -2.70819,5.17671 -2.70819,6.00516 0,0.29199 0.27845,0.54642 0.59801,0.54642 0.39352,0 1.07411,-0.60132 2.00705,-1.77332 l 0.28471,-0.35767 -0.16753,0.86077 c -0.19676,1.01083 -0.41588,3.44078 -0.33038,3.66359 0.14063,0.36647 0.22309,0.0827 0.27906,-0.96021 z m 8.12672,-8.2669 c 0.27323,-0.16887 1.65473,-1.91596 2.3441,-2.9644 0.28998,-0.44103 0.39335,-1.00624 0.23732,-1.29776 -0.13323,-0.24894 -0.61501,-0.46039 -1.04901,-0.46039 -0.17819,0 -0.5608,-0.11954 -0.85024,-0.26565 -0.83673,-0.42237 -1.09243,-0.43761 -1.79859,-0.10716 -0.33322,0.15593 -0.76646,0.30919 -0.96279,0.34059 -0.5327,0.0852 -0.9231,0.38635 -1.02361,0.78966 -0.10778,0.43249 0.01,0.77136 0.58536,1.69121 0.2378,0.37986 0.60068,0.98336 0.8064,1.3411 0.62178,1.08129 1.07289,1.32721 1.71106,0.9328 z m 0.15679,-3.85234 c -0.0716,-0.18682 0.0292,-0.44242 0.14622,-0.37013 0.0505,0.0311 0.0917,0.13369 0.0917,0.22787 0,0.22418 -0.1679,0.32459 -0.23787,0.14226 z m -1.20162,-0.15787 c 0.0429,-0.29132 0.25657,-0.32253 0.25657,-0.0375 0,0.15291 -0.05,0.23506 -0.14283,0.23506 -0.0948,0 -0.13305,-0.0664 -0.11374,-0.19761 z m -0.78987,-1.16082 c -0.49242,-0.11884 -0.69446,-0.28734 -0.91661,-0.76443 -0.67504,-1.44985 0.46336,-3.0348 1.46229,-2.03586 0.60931,0.60931 0.66127,1.79527 0.11056,2.52348 -0.0607,0.0802 0.0211,0.005 0.18176,-0.16679 0.43971,-0.4707 0.61906,-1.0897 0.61155,-2.11073 -0.008,-0.99231 -0.23043,-1.70787 -0.69894,-2.24147 -0.72101,-0.82119 -1.56019,-0.77544 -2.15151,0.11728 -0.37931,0.57265 -0.49732,1.02275 -0.49732,1.8967 0,0.86819 0.10925,1.28826 0.50803,1.95332 0.37555,0.62634 0.78925,0.91618 1.28989,0.90369 0.35125,-0.009 0.35718,-0.0133 0.1003,-0.0752 z m 3.86046,-0.094 c 0.82253,-0.41962 1.32847,-1.63583 1.26248,-3.03476 -0.0448,-0.9491 -0.29804,-1.58195 -0.80323,-2.00704 -0.78572,-0.66115 -1.95711,0.0406 -2.37737,1.42421 -0.15141,0.49848 -0.18151,0.79571 -0.15225,1.5035 0.0316,0.7632 0.0722,0.94754 0.30147,1.36661 0.14576,0.26643 0.37579,0.5633 0.51118,0.65972 0.34892,0.24844 0.37616,0.21764 0.084,-0.095 -0.13889,-0.14869 -0.29867,-0.4536 -0.35508,-0.6776 -0.3256,-1.2931 0.84569,-2.58526 1.65965,-1.8309 0.31743,0.29419 0.42184,0.59001 0.42184,1.19527 0,0.86263 -0.40021,1.45779 -1.06721,1.58709 -0.2885,0.0559 -0.30274,0.0682 -0.0894,0.077 0.13963,0.006 0.41134,-0.0699 0.6038,-0.16806 z m -3.45099,-2.09633 c 0.18616,-0.34784 -0.16977,-0.70378 -0.43677,-0.43677 -0.1177,0.11769 -0.1474,0.45921 -0.0486,0.55809 0.1226,0.12259 0.39063,0.0556 0.48531,-0.12132 z m 3.12982,-0.0141 c 0.18008,-0.2571 0.0371,-0.5551 -0.24691,-0.51467 -0.23018,0.0328 -0.31823,0.37524 -0.14893,0.57923 0.14897,0.17951 0.23468,0.16553 0.39584,-0.0646 z"
       id="path839"
       inkscape:connector-curvature="0"
       sodipodi:nodetypes="scccsccsccccsscccccccccsccscscssscccsscccscccccccccsssscsscssccccsscsccscccccsccccccccccccscccsscscccsssccccccccscccccccccsccsscccsccccsssccscsccccsccsscscccccccc" />
    <path
       style="fill:#000000;stroke-width:0.09102133"
       d="m -446.65355,283.60845 c 0.66256,0.68754 1.68281,1.47597 2.27177,1.75555 0.85608,0.40638 1.98884,0.40235 2.52341,-0.009 0.65086,-0.50082 0.23294,-2.43269 -1.13952,-5.26758 -0.56885,-1.17496 -0.90502,-1.64421 -1.33522,-1.86376 -0.60803,-0.3103 -1.23438,-0.0564 -1.31096,0.53137 l -0.0416,0.3195 -0.42587,-0.0555 c -0.56206,-0.0732 -0.79808,0.11117 -0.8724,0.68152 l -0.057,0.43727 -0.23345,-0.0813 c -0.25732,-0.0895 -0.65024,-0.0257 -0.86678,0.14097 -0.20972,0.16137 -0.29125,0.79586 -0.15558,1.21078 0.14487,0.44307 0.81619,1.34194 1.64318,2.20011 z m 6.61424,2.01378 c 1.27292,0.19504 2.54099,0.22089 3.6862,0.0751 0.84565,-0.10763 1.13427,-0.20344 1.02817,-0.34132 -0.0413,-0.0537 -0.35527,-0.0419 -0.69773,0.0261 -1.23182,0.24464 -3.17466,0.21152 -4.50627,-0.0768 -0.41475,-0.0898 -0.77935,-0.14386 -0.81022,-0.1201 -0.17526,0.13485 0.24094,0.27479 1.29985,0.43704 z m -6.16421,-7.1453 c 0.0146,-0.0112 0.12445,-0.75843 0.2441,-1.66043 0.31096,-2.34411 0.8074,-3.95521 1.87652,-6.08997 0.30529,-0.60958 0.61382,-1.12583 0.6856,-1.1472 0.0718,-0.0214 0.22865,0.0436 0.34859,0.14433 0.21461,0.18031 0.42044,0.2252 0.43735,0.0954 0.005,-0.0364 -0.27698,-0.29222 -0.62604,-0.56848 -1.46705,-1.16103 -3.48242,-4.34582 -4.56526,-7.21422 -0.34398,-0.91121 -0.54104,-1.78142 -0.42382,-1.87162 0.0479,-0.0369 0.21947,-0.0456 0.38116,-0.0194 0.43516,0.0706 1.089,0.75371 2.25453,2.35559 1.27739,1.75561 2.92496,3.74567 3.06151,3.69792 0.0558,-0.0195 0.065,-0.40476 0.0204,-0.85612 -0.43702,-4.42286 0.54669,-7.75285 2.60579,-8.82096 1.17548,-0.60976 2.8262,-0.62158 3.97312,-0.0285 2.08012,1.07571 2.99448,4.2247 2.54384,8.76073 -0.0918,0.92382 -0.0685,1.23096 0.0844,1.11334 0.20245,-0.15579 1.90911,-2.12869 2.98822,-3.45441 0.69813,-0.85767 1.50238,-1.7681 1.78721,-2.02316 0.4775,-0.4276 0.54087,-0.46076 0.8129,-0.42532 l 0.29502,0.0384 -0.10055,0.54508 c -0.29467,1.5975 -2.1625,5.06971 -3.70136,6.88067 -0.2652,0.31209 -0.80272,0.82252 -1.19448,1.13429 -0.68879,0.54815 -0.95861,0.93892 -0.40737,0.59001 0.14868,-0.0941 0.31739,-0.16559 0.37493,-0.15885 0.14647,0.0172 0.85771,1.64655 1.19254,2.73202 0.55801,1.80897 0.94467,4.01136 0.97668,5.56312 0.008,0.38615 0.0609,0.69734 0.1176,0.69151 0.16933,-0.0174 0.17989,-0.15409 0.10214,-1.3201 -0.0907,-1.36066 -0.42593,-3.20285 -0.84468,-4.64219 -0.31989,-1.09955 -0.89277,-2.57529 -1.10913,-2.85716 -0.18423,-0.24004 -0.10246,-0.53232 0.21796,-0.77887 1.48933,-1.14599 4.35382,-6.15094 4.59946,-8.03636 0.0603,-0.46293 -0.004,-0.55947 -0.43214,-0.64787 -0.31774,-0.0656 -0.35391,-0.0494 -0.96098,0.43025 -0.4927,0.38931 -0.90106,0.83346 -1.86518,2.02866 -1.11044,1.3766 -2.44497,2.94011 -2.63301,3.08481 -0.0394,0.0303 -0.0335,-0.4756 0.013,-1.1242 0.26487,-3.69284 -0.42991,-6.50462 -1.92664,-7.79713 -1.00251,-0.86573 -2.45314,-1.21642 -3.86616,-0.93466 -0.66615,0.13284 -0.85742,0.21357 -1.41292,0.5964 -0.77575,0.5346 -1.20981,1.03062 -1.6388,1.87275 -0.76474,1.50118 -1.08005,3.71407 -0.89875,6.30748 l 0.0679,0.97115 -0.57174,-0.64088 c -0.31446,-0.35248 -1.27126,-1.54971 -2.12622,-2.66051 -1.57556,-2.04698 -1.86847,-2.35512 -2.31756,-2.4377 -0.42596,-0.0783 -0.68042,0.0532 -0.73323,0.37885 -0.095,0.58596 0.71029,2.71993 1.83025,4.84996 0.45762,0.87033 0.76643,1.33029 1.78225,2.65453 l 1.2287,1.60179 -0.36033,0.65115 c -0.78386,1.41651 -1.49173,3.25667 -1.89609,4.92905 -0.25904,1.07139 -0.51576,3.28006 -0.39889,3.43194 0.0446,0.058 0.0931,0.0963 0.10771,0.0851 z m 5.48394,5.89012 c 1.36115,0.45908 2.67786,0.55191 3.98224,0.28075 0.87221,-0.18131 1.02603,-0.26144 1.03631,-0.53986 0.0127,-0.34436 0.3948,-1.3735 0.88252,-2.37695 0.52648,-1.08322 1.69173,-2.9715 2.0721,-3.35785 0.27449,-0.27879 0.31475,-0.6865 0.19956,-2.02063 -0.19835,-2.2974 -0.88198,-5.02845 -1.9092,-7.62715 -0.26856,-0.67941 -0.56253,-1.37205 -0.65325,-1.53921 l -0.16496,-0.30391 -0.80151,1.05127 c -1.10785,1.45306 -1.41298,1.74332 -1.9494,1.8544 -0.81383,0.16854 -1.17177,-0.11475 -1.98565,-1.5715 -0.64085,-1.14705 -0.8893,-1.51628 -0.97423,-1.44786 -0.0293,0.0235 -0.21515,0.40324 -0.41312,0.84374 -1.36777,3.04346 -2.19154,5.92371 -2.48844,8.70069 l -0.15292,1.43025 0.41887,0.45922 c 0.73805,0.80913 2.16721,3.99924 2.41378,5.38792 0.1003,0.56488 0.16498,0.66797 0.4873,0.77668 z m 6.10645,1.0273 c 1.08187,0.51357 2.42037,0.11792 4.16924,-1.23239 2.05639,-1.58775 2.78329,-2.72627 2.21344,-3.46686 -0.16048,-0.20855 -0.64182,-0.35075 -0.88642,-0.26187 -0.164,0.0596 -0.17261,0.0449 -0.19511,-0.33208 -0.0343,-0.57459 -0.24254,-0.79358 -0.77152,-0.81132 l -0.43851,-0.0147 -0.0375,-0.30545 c -0.10803,-0.879 -1.08164,-1.02732 -1.84325,-0.2808 -0.66317,0.65004 -2.2295,3.46123 -2.66595,4.78476 -0.36059,1.09348 -0.24303,1.58906 0.45562,1.92072 z m -4.11947,-16.12516 c 0.28916,0.18925 0.72203,0.14717 1.04534,-0.10161 0.25934,-0.19956 1.90311,-2.29287 2.29625,-2.92425 0.29561,-0.47472 0.38643,-1.06846 0.20042,-1.31019 -0.15941,-0.20718 -0.44599,-0.32403 -1.01045,-0.41204 -0.27305,-0.0426 -0.72825,-0.19703 -1.01155,-0.34326 -0.62759,-0.32392 -1.07864,-0.35555 -1.53811,-0.10786 -0.1913,0.10313 -0.63659,0.26004 -0.98955,0.34869 -0.72651,0.18249 -0.89786,0.28788 -1.07162,0.65919 -0.18012,0.3849 -0.05,0.79234 0.61941,1.94027 0.33056,0.56681 0.67515,1.18024 0.76576,1.3632 0.24215,0.48894 0.40723,0.70011 0.6941,0.88786 z m -0.0342,-4.14486 c 0.0144,-0.11097 0.0704,-0.2063 0.12443,-0.21183 0.13979,-0.0143 0.18723,0.36684 0.058,0.46625 -0.13794,0.10613 -0.21538,-0.002 -0.18247,-0.25442 z m 1.13736,0.12261 c -0.0447,-0.16012 0.15239,-0.30014 0.24787,-0.17605 0.0941,0.12234 0.0375,0.41309 -0.0775,0.3981 -0.0936,-0.0122 -0.12216,-0.0495 -0.17038,-0.22202 z m -2.49772,-1.28143 c 0.15599,0.0796 0.38723,0.1346 0.51388,0.1222 l 0.23027,-0.0226 -0.30763,-0.078 c -0.63739,-0.16168 -1.07927,-1.1196 -0.91091,-1.97464 0.15528,-0.78862 0.47086,-1.12574 1.0309,-1.10127 0.86126,0.0376 1.41319,1.45701 0.94131,2.42074 -0.26207,0.53524 -0.0332,0.33321 0.25845,-0.22812 0.3271,-0.62959 0.42789,-1.64616 0.25112,-2.53267 -0.12452,-0.62446 -0.20462,-0.81428 -0.51542,-1.22148 -0.60753,-0.79598 -1.21118,-0.9273 -1.87821,-0.4086 -0.77075,0.59936 -1.10145,2.21789 -0.72074,3.52751 0.15572,0.53564 0.72088,1.29989 1.10699,1.49693 z m 0.94609,-1.71087 c 0.20187,0.0263 0.25305,-0.0207 0.28442,-0.26152 0.0566,-0.43471 -0.37485,-0.5868 -0.55173,-0.19447 -0.0923,0.20461 0.0376,0.42605 0.26731,0.45598 z m 2.48129,1.77156 c 0.0917,0.0393 0.0386,-0.0498 -0.1398,-0.23442 -0.50973,-0.52769 -0.53518,-1.58222 -0.0543,-2.25032 0.41048,-0.57032 1.12107,-0.64865 1.4935,-0.16464 0.5723,0.74376 0.43303,1.89774 -0.29912,2.47852 -0.27856,0.22099 -0.28474,0.23686 -0.069,0.17741 0.91299,-0.2516 1.65606,-2.22782 1.36891,-3.64066 -0.41429,-2.03844 -2.04719,-2.29822 -2.94777,-0.46896 -0.46629,0.94713 -0.51698,2.34061 -0.11863,3.26091 0.128,0.2957 0.53512,0.74313 0.76628,0.84216 z m 1.11735,-1.76127 c 0.2234,-0.1719 0.1878,-0.53919 -0.0576,-0.59465 -0.32652,-0.0738 -0.47646,0.26841 -0.24782,0.56555 0.0987,0.12826 0.16802,0.13486 0.30547,0.0291 z"
       id="path852"
       inkscape:connector-curvature="0"
       sodipodi:nodetypes="cccssccccccccccscccccscsscccccccsccssccccccscsccccccccsscccccssscscccscccccsccccccccscccccsccccccccscccccccccsccccccccccsccccccccccccccsccccscccccccccsscccscccsccs" />
  </g>
</svg>
