%TF.GenerationSoftware,KiCad,Pcbnew,6.0.2*%
%TF.CreationDate,2022-03-01T20:49:21+01:00*%
%TF.ProjectId,raketenpinguin,72616b65-7465-46e7-9069-6e6775696e2e,rev?*%
%TF.SameCoordinates,Original*%
%TF.FileFunction,Copper,L1,Top*%
%TF.FilePolarity,Positive*%
%FSLAX46Y46*%
G04 Gerber Fmt 4.6, Leading zero omitted, Abs format (unit mm)*
G04 Created by KiCad (PCBNEW 6.0.2) date 2022-03-01 20:49:21*
%MOMM*%
%LPD*%
G01*
G04 APERTURE LIST*
%TA.AperFunction,NonConductor*%
%ADD10C,0.500000*%
%TD*%
%TA.AperFunction,NonConductor*%
%ADD11C,0.126504*%
%TD*%
%TA.AperFunction,NonConductor*%
%ADD12C,0.200000*%
%TD*%
G04 APERTURE END LIST*
D10*
X90023484Y-57260000D02*
G75*
G03*
X90023484Y-57260000I-10926742J0D01*
G01*
D11*
X80058218Y-66301112D02*
X80229241Y-66117581D01*
X80229241Y-66117581D02*
X80428766Y-65883591D01*
X80428766Y-65883591D02*
X80892070Y-65295268D01*
X80892070Y-65295268D02*
X81405630Y-64598216D01*
X81405630Y-64598216D02*
X81926945Y-63854505D01*
X81926945Y-63854505D02*
X82413515Y-63126205D01*
X82413515Y-63126205D02*
X82822839Y-62475387D01*
X82822839Y-62475387D02*
X82985254Y-62198432D01*
X82985254Y-62198432D02*
X83112419Y-61964123D01*
X83112419Y-61964123D02*
X83199022Y-61780221D01*
X83199022Y-61780221D02*
X83239752Y-61654483D01*
X83239752Y-61654483D02*
X83253599Y-61565162D01*
X83253599Y-61565162D02*
X83264125Y-61479019D01*
X83264125Y-61479019D02*
X83271281Y-61396001D01*
X83271281Y-61396001D02*
X83275018Y-61316056D01*
X83275018Y-61316056D02*
X83275284Y-61239130D01*
X83275284Y-61239130D02*
X83272032Y-61165171D01*
X83272032Y-61165171D02*
X83265212Y-61094127D01*
X83265212Y-61094127D02*
X83254773Y-61025943D01*
X83254773Y-61025943D02*
X83240667Y-60960569D01*
X83240667Y-60960569D02*
X83222843Y-60897950D01*
X83222843Y-60897950D02*
X83201253Y-60838034D01*
X83201253Y-60838034D02*
X83175847Y-60780769D01*
X83175847Y-60780769D02*
X83146575Y-60726101D01*
X83146575Y-60726101D02*
X83113387Y-60673978D01*
X83113387Y-60673978D02*
X83076235Y-60624346D01*
X83076235Y-60624346D02*
X83035069Y-60577154D01*
X83035069Y-60577154D02*
X82989838Y-60532349D01*
X82989838Y-60532349D02*
X82940494Y-60489877D01*
X82940494Y-60489877D02*
X82886987Y-60449686D01*
X82886987Y-60449686D02*
X82829267Y-60411723D01*
X82829267Y-60411723D02*
X82767285Y-60375935D01*
X82767285Y-60375935D02*
X82700992Y-60342270D01*
X82700992Y-60342270D02*
X82630337Y-60310675D01*
X82630337Y-60310675D02*
X82555271Y-60281096D01*
X82555271Y-60281096D02*
X82475746Y-60253482D01*
X82475746Y-60253482D02*
X82391710Y-60227780D01*
X82391710Y-60227780D02*
X82303115Y-60203936D01*
X82303115Y-60203936D02*
X82209911Y-60181898D01*
X82209911Y-60181898D02*
X82009478Y-60143030D01*
X82009478Y-60143030D02*
X81790014Y-60110751D01*
X81790014Y-60110751D02*
X81710469Y-60099231D01*
X81710469Y-60099231D02*
X81624717Y-60084188D01*
X81624717Y-60084188D02*
X81437812Y-60044504D01*
X81437812Y-60044504D02*
X81235726Y-59993634D01*
X81235726Y-59993634D02*
X81024891Y-59933513D01*
X81024891Y-59933513D02*
X80811734Y-59866074D01*
X80811734Y-59866074D02*
X80602686Y-59793253D01*
X80602686Y-59793253D02*
X80404175Y-59716984D01*
X80404175Y-59716984D02*
X80222631Y-59639201D01*
X80222631Y-59639201D02*
X80039226Y-59557085D01*
X80039226Y-59557085D02*
X79872058Y-59485988D01*
X79872058Y-59485988D02*
X79718880Y-59425932D01*
X79718880Y-59425932D02*
X79577445Y-59376935D01*
X79577445Y-59376935D02*
X79445507Y-59339017D01*
X79445507Y-59339017D02*
X79320819Y-59312197D01*
X79320819Y-59312197D02*
X79260492Y-59302955D01*
X79260492Y-59302955D02*
X79201135Y-59296495D01*
X79201135Y-59296495D02*
X79142467Y-59292819D01*
X79142467Y-59292819D02*
X79084208Y-59291930D01*
X79084208Y-59291930D02*
X79026076Y-59293831D01*
X79026076Y-59293831D02*
X78967791Y-59298523D01*
X78967791Y-59298523D02*
X78909071Y-59306009D01*
X78909071Y-59306009D02*
X78849637Y-59316291D01*
X78849637Y-59316291D02*
X78727501Y-59345256D01*
X78727501Y-59345256D02*
X78599135Y-59385436D01*
X78599135Y-59385436D02*
X78462294Y-59436852D01*
X78462294Y-59436852D02*
X78314729Y-59499521D01*
X78314729Y-59499521D02*
X78154195Y-59573465D01*
X78154195Y-59573465D02*
X77978445Y-59658702D01*
X77978445Y-59658702D02*
X77811474Y-59738276D01*
X77811474Y-59738276D02*
X77636997Y-59816224D01*
X77636997Y-59816224D02*
X77460169Y-59890572D01*
X77460169Y-59890572D02*
X77286148Y-59959351D01*
X77286148Y-59959351D02*
X77120090Y-60020588D01*
X77120090Y-60020588D02*
X76967151Y-60072313D01*
X76967151Y-60072313D02*
X76832489Y-60112553D01*
X76832489Y-60112553D02*
X76721258Y-60139339D01*
X76721258Y-60139339D02*
X76526424Y-60184110D01*
X76526424Y-60184110D02*
X76343826Y-60238488D01*
X76343826Y-60238488D02*
X76173789Y-60302105D01*
X76173789Y-60302105D02*
X76093581Y-60337263D01*
X76093581Y-60337263D02*
X76016635Y-60374594D01*
X76016635Y-60374594D02*
X75942991Y-60414050D01*
X75942991Y-60414050D02*
X75872690Y-60455587D01*
X75872690Y-60455587D02*
X75805772Y-60499158D01*
X75805772Y-60499158D02*
X75742277Y-60544717D01*
X75742277Y-60544717D02*
X75682247Y-60592219D01*
X75682247Y-60592219D02*
X75625721Y-60641617D01*
X75625721Y-60641617D02*
X75572741Y-60692866D01*
X75572741Y-60692866D02*
X75523346Y-60745919D01*
X75523346Y-60745919D02*
X75477577Y-60800731D01*
X75477577Y-60800731D02*
X75435475Y-60857256D01*
X75435475Y-60857256D02*
X75397081Y-60915448D01*
X75397081Y-60915448D02*
X75362434Y-60975260D01*
X75362434Y-60975260D02*
X75331575Y-61036647D01*
X75331575Y-61036647D02*
X75304546Y-61099564D01*
X75304546Y-61099564D02*
X75281385Y-61163964D01*
X75281385Y-61163964D02*
X75262134Y-61229800D01*
X75262134Y-61229800D02*
X75246834Y-61297028D01*
X75246834Y-61297028D02*
X75235524Y-61365602D01*
X75235524Y-61365602D02*
X75228246Y-61435475D01*
X75228246Y-61435475D02*
X75225040Y-61506601D01*
X75225040Y-61506601D02*
X75225946Y-61578935D01*
X75225946Y-61578935D02*
X75231005Y-61652430D01*
X75231005Y-61652430D02*
X75240258Y-61727041D01*
X75240258Y-61727041D02*
X75253744Y-61802722D01*
X75253744Y-61802722D02*
X75267209Y-61852751D01*
X75267209Y-61852751D02*
X75289671Y-61916460D01*
X75289671Y-61916460D02*
X75320613Y-61992876D01*
X75320613Y-61992876D02*
X75359520Y-62081026D01*
X75359520Y-62081026D02*
X75459169Y-62288637D01*
X75459169Y-62288637D02*
X75584490Y-62531511D01*
X75584490Y-62531511D02*
X75731359Y-62801867D01*
X75731359Y-62801867D02*
X75895650Y-63091922D01*
X75895650Y-63091922D02*
X76073239Y-63393893D01*
X76073239Y-63393893D02*
X76260000Y-63700000D01*
X76260000Y-63700000D02*
X77030359Y-64944677D01*
X77030359Y-64944677D02*
X77589117Y-65856624D01*
X77589117Y-65856624D02*
X77661164Y-65972592D01*
X77661164Y-65972592D02*
X77733098Y-66081894D01*
X77733098Y-66081894D02*
X77804964Y-66184540D01*
X77804964Y-66184540D02*
X77876806Y-66280536D01*
X77876806Y-66280536D02*
X77948669Y-66369890D01*
X77948669Y-66369890D02*
X78020595Y-66452611D01*
X78020595Y-66452611D02*
X78092631Y-66528707D01*
X78092631Y-66528707D02*
X78164819Y-66598185D01*
X78164819Y-66598185D02*
X78237204Y-66661053D01*
X78237204Y-66661053D02*
X78309831Y-66717320D01*
X78309831Y-66717320D02*
X78382744Y-66766994D01*
X78382744Y-66766994D02*
X78455986Y-66810081D01*
X78455986Y-66810081D02*
X78529603Y-66846591D01*
X78529603Y-66846591D02*
X78603638Y-66876531D01*
X78603638Y-66876531D02*
X78678135Y-66899909D01*
X78678135Y-66899909D02*
X78753139Y-66916734D01*
X78753139Y-66916734D02*
X78828695Y-66927012D01*
X78828695Y-66927012D02*
X78904845Y-66930753D01*
X78904845Y-66930753D02*
X78981636Y-66927964D01*
X78981636Y-66927964D02*
X79059110Y-66918652D01*
X79059110Y-66918652D02*
X79137312Y-66902827D01*
X79137312Y-66902827D02*
X79216286Y-66880495D01*
X79216286Y-66880495D02*
X79296076Y-66851666D01*
X79296076Y-66851666D02*
X79376728Y-66816346D01*
X79376728Y-66816346D02*
X79458284Y-66774544D01*
X79458284Y-66774544D02*
X79540790Y-66726268D01*
X79540790Y-66726268D02*
X79624289Y-66671525D01*
X79624289Y-66671525D02*
X79708825Y-66610324D01*
X79708825Y-66610324D02*
X79794444Y-66542673D01*
X79794444Y-66542673D02*
X79881189Y-66468580D01*
X79881189Y-66468580D02*
X79969104Y-66388052D01*
X79969104Y-66388052D02*
X80058233Y-66301097D01*
X80058233Y-66301097D02*
X80058218Y-66301112D01*
X80058218Y-66301112D02*
X80058218Y-66301112D01*
G36*
X79881189Y-66468580D02*
G01*
X79794444Y-66542673D01*
X79708825Y-66610324D01*
X79624289Y-66671525D01*
X79540790Y-66726268D01*
X79458284Y-66774544D01*
X79376728Y-66816346D01*
X79296076Y-66851666D01*
X79216286Y-66880495D01*
X79137312Y-66902827D01*
X79059110Y-66918652D01*
X78981636Y-66927964D01*
X78904845Y-66930753D01*
X78828695Y-66927012D01*
X78753139Y-66916734D01*
X78678135Y-66899909D01*
X78603638Y-66876531D01*
X78529603Y-66846591D01*
X78455986Y-66810081D01*
X78382744Y-66766994D01*
X78309831Y-66717320D01*
X78237204Y-66661053D01*
X78164819Y-66598185D01*
X78092631Y-66528707D01*
X78020595Y-66452611D01*
X77948669Y-66369890D01*
X77876806Y-66280536D01*
X77804964Y-66184540D01*
X77733098Y-66081894D01*
X77661164Y-65972592D01*
X77589117Y-65856624D01*
X77030359Y-64944677D01*
X76260000Y-63700000D01*
X76073239Y-63393893D01*
X75895650Y-63091922D01*
X75731359Y-62801867D01*
X75584490Y-62531511D01*
X75459169Y-62288637D01*
X75359520Y-62081026D01*
X75320613Y-61992876D01*
X75289671Y-61916460D01*
X75267209Y-61852751D01*
X75253744Y-61802722D01*
X75240258Y-61727041D01*
X75231005Y-61652430D01*
X75225946Y-61578935D01*
X75225040Y-61506601D01*
X75228246Y-61435475D01*
X75235524Y-61365602D01*
X75246834Y-61297028D01*
X75262134Y-61229800D01*
X75281385Y-61163964D01*
X75304546Y-61099564D01*
X75331575Y-61036647D01*
X75362434Y-60975260D01*
X75397081Y-60915448D01*
X75435475Y-60857256D01*
X75477577Y-60800731D01*
X75523346Y-60745919D01*
X75572741Y-60692866D01*
X75625721Y-60641617D01*
X75682247Y-60592219D01*
X75742277Y-60544717D01*
X75805772Y-60499158D01*
X75872690Y-60455587D01*
X75942991Y-60414050D01*
X76016635Y-60374594D01*
X76093581Y-60337263D01*
X76173789Y-60302105D01*
X76343826Y-60238488D01*
X76526424Y-60184110D01*
X76721258Y-60139339D01*
X76832489Y-60112553D01*
X76967151Y-60072313D01*
X77120090Y-60020588D01*
X77286148Y-59959351D01*
X77460169Y-59890572D01*
X77636997Y-59816224D01*
X77811474Y-59738276D01*
X77978445Y-59658702D01*
X78154195Y-59573465D01*
X78314729Y-59499521D01*
X78462294Y-59436852D01*
X78599135Y-59385436D01*
X78727501Y-59345256D01*
X78849637Y-59316291D01*
X78909071Y-59306009D01*
X78967791Y-59298523D01*
X79026076Y-59293831D01*
X79084208Y-59291930D01*
X79142467Y-59292819D01*
X79201135Y-59296495D01*
X79260492Y-59302955D01*
X79320819Y-59312197D01*
X79445507Y-59339017D01*
X79577445Y-59376935D01*
X79718880Y-59425932D01*
X79872058Y-59485988D01*
X80039226Y-59557085D01*
X80222631Y-59639201D01*
X80404175Y-59716984D01*
X80602686Y-59793253D01*
X80811734Y-59866074D01*
X81024891Y-59933513D01*
X81235726Y-59993634D01*
X81437812Y-60044504D01*
X81624717Y-60084188D01*
X81710469Y-60099231D01*
X81790014Y-60110751D01*
X82009478Y-60143030D01*
X82209911Y-60181898D01*
X82303115Y-60203936D01*
X82391710Y-60227780D01*
X82475746Y-60253482D01*
X82555271Y-60281096D01*
X82630337Y-60310675D01*
X82700992Y-60342270D01*
X82767285Y-60375935D01*
X82829267Y-60411723D01*
X82886987Y-60449686D01*
X82940494Y-60489877D01*
X82989838Y-60532349D01*
X83035069Y-60577154D01*
X83076235Y-60624346D01*
X83113387Y-60673978D01*
X83146575Y-60726101D01*
X83175847Y-60780769D01*
X83201253Y-60838034D01*
X83222843Y-60897950D01*
X83240667Y-60960569D01*
X83254773Y-61025943D01*
X83265212Y-61094127D01*
X83272032Y-61165171D01*
X83275284Y-61239130D01*
X83275018Y-61316056D01*
X83271281Y-61396001D01*
X83264125Y-61479019D01*
X83253599Y-61565162D01*
X83239752Y-61654483D01*
X83199022Y-61780221D01*
X83112419Y-61964123D01*
X82985254Y-62198432D01*
X82822839Y-62475387D01*
X82413515Y-63126205D01*
X81926945Y-63854505D01*
X81405630Y-64598216D01*
X80892070Y-65295268D01*
X80428766Y-65883591D01*
X80229241Y-66117581D01*
X80058218Y-66301112D01*
X79969104Y-66388052D01*
X79881189Y-66468580D01*
G37*
X79881189Y-66468580D02*
X79794444Y-66542673D01*
X79708825Y-66610324D01*
X79624289Y-66671525D01*
X79540790Y-66726268D01*
X79458284Y-66774544D01*
X79376728Y-66816346D01*
X79296076Y-66851666D01*
X79216286Y-66880495D01*
X79137312Y-66902827D01*
X79059110Y-66918652D01*
X78981636Y-66927964D01*
X78904845Y-66930753D01*
X78828695Y-66927012D01*
X78753139Y-66916734D01*
X78678135Y-66899909D01*
X78603638Y-66876531D01*
X78529603Y-66846591D01*
X78455986Y-66810081D01*
X78382744Y-66766994D01*
X78309831Y-66717320D01*
X78237204Y-66661053D01*
X78164819Y-66598185D01*
X78092631Y-66528707D01*
X78020595Y-66452611D01*
X77948669Y-66369890D01*
X77876806Y-66280536D01*
X77804964Y-66184540D01*
X77733098Y-66081894D01*
X77661164Y-65972592D01*
X77589117Y-65856624D01*
X77030359Y-64944677D01*
X76260000Y-63700000D01*
X76073239Y-63393893D01*
X75895650Y-63091922D01*
X75731359Y-62801867D01*
X75584490Y-62531511D01*
X75459169Y-62288637D01*
X75359520Y-62081026D01*
X75320613Y-61992876D01*
X75289671Y-61916460D01*
X75267209Y-61852751D01*
X75253744Y-61802722D01*
X75240258Y-61727041D01*
X75231005Y-61652430D01*
X75225946Y-61578935D01*
X75225040Y-61506601D01*
X75228246Y-61435475D01*
X75235524Y-61365602D01*
X75246834Y-61297028D01*
X75262134Y-61229800D01*
X75281385Y-61163964D01*
X75304546Y-61099564D01*
X75331575Y-61036647D01*
X75362434Y-60975260D01*
X75397081Y-60915448D01*
X75435475Y-60857256D01*
X75477577Y-60800731D01*
X75523346Y-60745919D01*
X75572741Y-60692866D01*
X75625721Y-60641617D01*
X75682247Y-60592219D01*
X75742277Y-60544717D01*
X75805772Y-60499158D01*
X75872690Y-60455587D01*
X75942991Y-60414050D01*
X76016635Y-60374594D01*
X76093581Y-60337263D01*
X76173789Y-60302105D01*
X76343826Y-60238488D01*
X76526424Y-60184110D01*
X76721258Y-60139339D01*
X76832489Y-60112553D01*
X76967151Y-60072313D01*
X77120090Y-60020588D01*
X77286148Y-59959351D01*
X77460169Y-59890572D01*
X77636997Y-59816224D01*
X77811474Y-59738276D01*
X77978445Y-59658702D01*
X78154195Y-59573465D01*
X78314729Y-59499521D01*
X78462294Y-59436852D01*
X78599135Y-59385436D01*
X78727501Y-59345256D01*
X78849637Y-59316291D01*
X78909071Y-59306009D01*
X78967791Y-59298523D01*
X79026076Y-59293831D01*
X79084208Y-59291930D01*
X79142467Y-59292819D01*
X79201135Y-59296495D01*
X79260492Y-59302955D01*
X79320819Y-59312197D01*
X79445507Y-59339017D01*
X79577445Y-59376935D01*
X79718880Y-59425932D01*
X79872058Y-59485988D01*
X80039226Y-59557085D01*
X80222631Y-59639201D01*
X80404175Y-59716984D01*
X80602686Y-59793253D01*
X80811734Y-59866074D01*
X81024891Y-59933513D01*
X81235726Y-59993634D01*
X81437812Y-60044504D01*
X81624717Y-60084188D01*
X81710469Y-60099231D01*
X81790014Y-60110751D01*
X82009478Y-60143030D01*
X82209911Y-60181898D01*
X82303115Y-60203936D01*
X82391710Y-60227780D01*
X82475746Y-60253482D01*
X82555271Y-60281096D01*
X82630337Y-60310675D01*
X82700992Y-60342270D01*
X82767285Y-60375935D01*
X82829267Y-60411723D01*
X82886987Y-60449686D01*
X82940494Y-60489877D01*
X82989838Y-60532349D01*
X83035069Y-60577154D01*
X83076235Y-60624346D01*
X83113387Y-60673978D01*
X83146575Y-60726101D01*
X83175847Y-60780769D01*
X83201253Y-60838034D01*
X83222843Y-60897950D01*
X83240667Y-60960569D01*
X83254773Y-61025943D01*
X83265212Y-61094127D01*
X83272032Y-61165171D01*
X83275284Y-61239130D01*
X83275018Y-61316056D01*
X83271281Y-61396001D01*
X83264125Y-61479019D01*
X83253599Y-61565162D01*
X83239752Y-61654483D01*
X83199022Y-61780221D01*
X83112419Y-61964123D01*
X82985254Y-62198432D01*
X82822839Y-62475387D01*
X82413515Y-63126205D01*
X81926945Y-63854505D01*
X81405630Y-64598216D01*
X80892070Y-65295268D01*
X80428766Y-65883591D01*
X80229241Y-66117581D01*
X80058218Y-66301112D01*
X79969104Y-66388052D01*
X79881189Y-66468580D01*
D12*
X80000000Y-48360000D02*
X80840000Y-48490000D01*
X80840000Y-48490000D02*
X81560000Y-48740000D01*
X81560000Y-48740000D02*
X82210000Y-49090000D01*
X82210000Y-49090000D02*
X82880000Y-49580000D01*
X82880000Y-49580000D02*
X83680000Y-50450000D01*
X83680000Y-50450000D02*
X84250000Y-51340000D01*
X84250000Y-51340000D02*
X84740000Y-52340000D01*
X84740000Y-52340000D02*
X84990000Y-53060000D01*
X84990000Y-53060000D02*
X85210000Y-53820000D01*
X85210000Y-53820000D02*
X85400000Y-54580000D01*
X85400000Y-54580000D02*
X85530000Y-55310000D01*
X85530000Y-55310000D02*
X85620000Y-55830000D01*
X85620000Y-55830000D02*
X85690000Y-56520000D01*
X85690000Y-56520000D02*
X85760000Y-57410000D01*
X85760000Y-57410000D02*
X85790000Y-58360000D01*
X85790000Y-58360000D02*
X85790000Y-59490000D01*
X85790000Y-59490000D02*
X85740000Y-60770000D01*
X85740000Y-60770000D02*
X85720000Y-61690000D01*
X85720000Y-61690000D02*
X85710000Y-62240000D01*
X85710000Y-62240000D02*
X85760000Y-62410000D01*
X85760000Y-62410000D02*
X86340000Y-62790000D01*
X86340000Y-62790000D02*
X86850000Y-63190000D01*
X86850000Y-63190000D02*
X87220000Y-63560000D01*
X87220000Y-63560000D02*
X87440000Y-63940000D01*
X87440000Y-63940000D02*
X86740000Y-64730000D01*
X86740000Y-64730000D02*
X86100000Y-65340000D01*
X86100000Y-65340000D02*
X85090000Y-66110000D01*
X85090000Y-66110000D02*
X83710000Y-66950000D01*
X83710000Y-66950000D02*
X82110000Y-67660000D01*
X82110000Y-67660000D02*
X80540000Y-68060000D01*
X80540000Y-68060000D02*
X78410000Y-68130000D01*
X78410000Y-68130000D02*
X76330000Y-67760000D01*
X76330000Y-67760000D02*
X74940000Y-67310000D01*
X74940000Y-67310000D02*
X73590000Y-66400000D01*
X73590000Y-66400000D02*
X72860000Y-65940000D01*
X72860000Y-65940000D02*
X71970000Y-65250000D01*
X71970000Y-65250000D02*
X71140000Y-64480000D01*
X71140000Y-64480000D02*
X71160000Y-64430000D01*
X71160000Y-64430000D02*
X71490000Y-63890000D01*
X71490000Y-63890000D02*
X71920000Y-63430000D01*
X71920000Y-63430000D02*
X72560000Y-62890000D01*
X72560000Y-62890000D02*
X73030000Y-62540000D01*
X73030000Y-62540000D02*
X72890000Y-61640000D01*
X72890000Y-61640000D02*
X72810000Y-60870000D01*
X72810000Y-60870000D02*
X72740000Y-60080000D01*
X72740000Y-60080000D02*
X72690000Y-59070000D01*
X72690000Y-59070000D02*
X72670000Y-58080000D01*
X72670000Y-58080000D02*
X72670000Y-57610000D01*
X72670000Y-57610000D02*
X72680000Y-57080000D01*
X72680000Y-57080000D02*
X72700000Y-56520000D01*
X72700000Y-56520000D02*
X72720000Y-56080000D01*
X72720000Y-56080000D02*
X72770000Y-55510000D01*
X72770000Y-55510000D02*
X72820000Y-55080000D01*
X72820000Y-55080000D02*
X72920000Y-54480000D01*
X72920000Y-54480000D02*
X73000000Y-54090000D01*
X73000000Y-54090000D02*
X73130000Y-53520000D01*
X73130000Y-53520000D02*
X73260000Y-53080000D01*
X73260000Y-53080000D02*
X73490000Y-52490000D01*
X73490000Y-52490000D02*
X73630000Y-52100000D01*
X73630000Y-52100000D02*
X73820000Y-51670000D01*
X73820000Y-51670000D02*
X74260000Y-50890000D01*
X74260000Y-50890000D02*
X74860000Y-50100000D01*
X74860000Y-50100000D02*
X75430000Y-49540000D01*
X75430000Y-49540000D02*
X76160000Y-49030000D01*
X76160000Y-49030000D02*
X76900000Y-48680000D01*
X76900000Y-48680000D02*
X77690000Y-48440000D01*
X77690000Y-48440000D02*
X78400000Y-48340000D01*
X78400000Y-48340000D02*
X79140000Y-48310000D01*
X79140000Y-48310000D02*
X80000000Y-48360000D01*
G36*
X80000000Y-48360000D02*
G01*
X80840000Y-48490000D01*
X81560000Y-48740000D01*
X82210000Y-49090000D01*
X82880000Y-49580000D01*
X83680000Y-50450000D01*
X84250000Y-51340000D01*
X84740000Y-52340000D01*
X84990000Y-53060000D01*
X85210000Y-53820000D01*
X85400000Y-54580000D01*
X85530000Y-55310000D01*
X85620000Y-55830000D01*
X85690000Y-56520000D01*
X85760000Y-57410000D01*
X85790000Y-58360000D01*
X85790000Y-59490000D01*
X85740000Y-60770000D01*
X85720000Y-61690000D01*
X85710000Y-62240000D01*
X85760000Y-62410000D01*
X86340000Y-62790000D01*
X86850000Y-63190000D01*
X87220000Y-63560000D01*
X87440000Y-63940000D01*
X86740000Y-64730000D01*
X86100000Y-65340000D01*
X85090000Y-66110000D01*
X83710000Y-66950000D01*
X82110000Y-67660000D01*
X80540000Y-68060000D01*
X78410000Y-68130000D01*
X76330000Y-67760000D01*
X74940000Y-67310000D01*
X73590000Y-66400000D01*
X72860000Y-65940000D01*
X71970000Y-65250000D01*
X71140000Y-64480000D01*
X71160000Y-64430000D01*
X71490000Y-63890000D01*
X71920000Y-63430000D01*
X72560000Y-62890000D01*
X73030000Y-62540000D01*
X72890000Y-61640000D01*
X72810000Y-60870000D01*
X72740000Y-60080000D01*
X72690000Y-59070000D01*
X72670000Y-58080000D01*
X72670000Y-57610000D01*
X72680000Y-57080000D01*
X72700000Y-56520000D01*
X72720000Y-56080000D01*
X72770000Y-55510000D01*
X72820000Y-55080000D01*
X72920000Y-54480000D01*
X73000000Y-54090000D01*
X73130000Y-53520000D01*
X73260000Y-53080000D01*
X73490000Y-52490000D01*
X73630000Y-52100000D01*
X73820000Y-51670000D01*
X74260000Y-50890000D01*
X74860000Y-50100000D01*
X75430000Y-49540000D01*
X76160000Y-49030000D01*
X76900000Y-48680000D01*
X77690000Y-48440000D01*
X78400000Y-48340000D01*
X79140000Y-48310000D01*
X80000000Y-48360000D01*
G37*
X80000000Y-48360000D02*
X80840000Y-48490000D01*
X81560000Y-48740000D01*
X82210000Y-49090000D01*
X82880000Y-49580000D01*
X83680000Y-50450000D01*
X84250000Y-51340000D01*
X84740000Y-52340000D01*
X84990000Y-53060000D01*
X85210000Y-53820000D01*
X85400000Y-54580000D01*
X85530000Y-55310000D01*
X85620000Y-55830000D01*
X85690000Y-56520000D01*
X85760000Y-57410000D01*
X85790000Y-58360000D01*
X85790000Y-59490000D01*
X85740000Y-60770000D01*
X85720000Y-61690000D01*
X85710000Y-62240000D01*
X85760000Y-62410000D01*
X86340000Y-62790000D01*
X86850000Y-63190000D01*
X87220000Y-63560000D01*
X87440000Y-63940000D01*
X86740000Y-64730000D01*
X86100000Y-65340000D01*
X85090000Y-66110000D01*
X83710000Y-66950000D01*
X82110000Y-67660000D01*
X80540000Y-68060000D01*
X78410000Y-68130000D01*
X76330000Y-67760000D01*
X74940000Y-67310000D01*
X73590000Y-66400000D01*
X72860000Y-65940000D01*
X71970000Y-65250000D01*
X71140000Y-64480000D01*
X71160000Y-64430000D01*
X71490000Y-63890000D01*
X71920000Y-63430000D01*
X72560000Y-62890000D01*
X73030000Y-62540000D01*
X72890000Y-61640000D01*
X72810000Y-60870000D01*
X72740000Y-60080000D01*
X72690000Y-59070000D01*
X72670000Y-58080000D01*
X72670000Y-57610000D01*
X72680000Y-57080000D01*
X72700000Y-56520000D01*
X72720000Y-56080000D01*
X72770000Y-55510000D01*
X72820000Y-55080000D01*
X72920000Y-54480000D01*
X73000000Y-54090000D01*
X73130000Y-53520000D01*
X73260000Y-53080000D01*
X73490000Y-52490000D01*
X73630000Y-52100000D01*
X73820000Y-51670000D01*
X74260000Y-50890000D01*
X74860000Y-50100000D01*
X75430000Y-49540000D01*
X76160000Y-49030000D01*
X76900000Y-48680000D01*
X77690000Y-48440000D01*
X78400000Y-48340000D01*
X79140000Y-48310000D01*
X80000000Y-48360000D01*
M02*
