%TF.GenerationSoftware,KiCad,Pcbnew,6.0.0-rc1-unknown-65cbf2d2b7~144~ubuntu18.04.1*%
%TF.CreationDate,2022-01-27T22:01:49+01:00*%
%TF.ProjectId,voll_verteilt,766f6c6c-5f76-4657-9274-65696c742e6b,rev?*%
%TF.SameCoordinates,PX52f83c0PY660b0c0*%
%TF.FileFunction,Legend,Bot*%
%TF.FilePolarity,Positive*%
%FSLAX46Y46*%
G04 Gerber Fmt 4.6, Leading zero omitted, Abs format (unit mm)*
G04 Created by KiCad (PCBNEW 6.0.0-rc1-unknown-65cbf2d2b7~144~ubuntu18.04.1) date 2022-01-27 22:01:49*
%MOMM*%
%LPD*%
G01*
G04 APERTURE LIST*
G04 Aperture macros list*
%AMRoundRect*
0 Rectangle with rounded corners*
0 $1 Rounding radius*
0 $2 $3 $4 $5 $6 $7 $8 $9 X,Y pos of 4 corners*
0 Add a 4 corners polygon primitive as box body*
4,1,4,$2,$3,$4,$5,$6,$7,$8,$9,$2,$3,0*
0 Add four circle primitives for the rounded corners*
1,1,$1+$1,$2,$3*
1,1,$1+$1,$4,$5*
1,1,$1+$1,$6,$7*
1,1,$1+$1,$8,$9*
0 Add four rect primitives between the rounded corners*
20,1,$1+$1,$2,$3,$4,$5,0*
20,1,$1+$1,$4,$5,$6,$7,0*
20,1,$1+$1,$6,$7,$8,$9,0*
20,1,$1+$1,$8,$9,$2,$3,0*%
G04 Aperture macros list end*
%ADD10C,0.300000*%
%ADD11C,0.150000*%
%ADD12C,0.120000*%
%ADD13C,0.200000*%
%ADD14RoundRect,0.750000X0.750000X-1.750000X0.750000X1.750000X-0.750000X1.750000X-0.750000X-1.750000X0*%
%ADD15RoundRect,0.200000X0.275000X-0.200000X0.275000X0.200000X-0.275000X0.200000X-0.275000X-0.200000X0*%
%ADD16RoundRect,0.200000X-0.275000X0.200000X-0.275000X-0.200000X0.275000X-0.200000X0.275000X0.200000X0*%
%ADD17C,0.100000*%
%ADD18RoundRect,0.200000X0.200000X-0.600000X0.200000X0.600000X-0.200000X0.600000X-0.200000X-0.600000X0*%
%ADD19RoundRect,0.200000X-0.600000X-0.200000X0.600000X-0.200000X0.600000X0.200000X-0.600000X0.200000X0*%
%ADD20RoundRect,0.200000X-0.200000X0.600000X-0.200000X-0.600000X0.200000X-0.600000X0.200000X0.600000X0*%
%ADD21RoundRect,0.200000X-0.200000X-0.275000X0.200000X-0.275000X0.200000X0.275000X-0.200000X0.275000X0*%
%ADD22RoundRect,0.200000X0.200000X0.275000X-0.200000X0.275000X-0.200000X-0.275000X0.200000X-0.275000X0*%
G04 APERTURE END LIST*
D10*
X20685714Y16821429D02*
X21400000Y16821429D01*
X21471428Y16107143D01*
X21400000Y16178572D01*
X21257142Y16250000D01*
X20900000Y16250000D01*
X20757142Y16178572D01*
X20685714Y16107143D01*
X20614285Y15964286D01*
X20614285Y15607143D01*
X20685714Y15464286D01*
X20757142Y15392858D01*
X20900000Y15321429D01*
X21257142Y15321429D01*
X21400000Y15392858D01*
X21471428Y15464286D01*
X20185714Y16821429D02*
X19685714Y15321429D01*
X19185714Y16821429D01*
X33342857Y16650000D02*
X33485714Y16721429D01*
X33700000Y16721429D01*
X33914285Y16650000D01*
X34057142Y16507143D01*
X34128571Y16364286D01*
X34200000Y16078572D01*
X34200000Y15864286D01*
X34128571Y15578572D01*
X34057142Y15435715D01*
X33914285Y15292858D01*
X33700000Y15221429D01*
X33557142Y15221429D01*
X33342857Y15292858D01*
X33271428Y15364286D01*
X33271428Y15864286D01*
X33557142Y15864286D01*
X32628571Y15221429D02*
X32628571Y16721429D01*
X31771428Y15221429D01*
X31771428Y16721429D01*
X31057142Y15221429D02*
X31057142Y16721429D01*
X30700000Y16721429D01*
X30485714Y16650000D01*
X30342857Y16507143D01*
X30271428Y16364286D01*
X30200000Y16078572D01*
X30200000Y15864286D01*
X30271428Y15578572D01*
X30342857Y15435715D01*
X30485714Y15292858D01*
X30700000Y15221429D01*
X31057142Y15221429D01*
D11*
X31088214Y22057620D02*
X31564404Y22057620D01*
X31564404Y23057620D01*
X30612023Y22057620D02*
X30707261Y22105239D01*
X30754880Y22152858D01*
X30802500Y22248096D01*
X30802500Y22533810D01*
X30754880Y22629048D01*
X30707261Y22676667D01*
X30612023Y22724286D01*
X30469166Y22724286D01*
X30373928Y22676667D01*
X30326309Y22629048D01*
X30278690Y22533810D01*
X30278690Y22248096D01*
X30326309Y22152858D01*
X30373928Y22105239D01*
X30469166Y22057620D01*
X30612023Y22057620D01*
X29421547Y22724286D02*
X29421547Y21914762D01*
X29469166Y21819524D01*
X29516785Y21771905D01*
X29612023Y21724286D01*
X29754880Y21724286D01*
X29850119Y21771905D01*
X29421547Y22105239D02*
X29516785Y22057620D01*
X29707261Y22057620D01*
X29802500Y22105239D01*
X29850119Y22152858D01*
X29897738Y22248096D01*
X29897738Y22533810D01*
X29850119Y22629048D01*
X29802500Y22676667D01*
X29707261Y22724286D01*
X29516785Y22724286D01*
X29421547Y22676667D01*
X28802500Y22057620D02*
X28897738Y22105239D01*
X28945357Y22152858D01*
X28992976Y22248096D01*
X28992976Y22533810D01*
X28945357Y22629048D01*
X28897738Y22676667D01*
X28802500Y22724286D01*
X28659642Y22724286D01*
X28564404Y22676667D01*
X28516785Y22629048D01*
X28469166Y22533810D01*
X28469166Y22248096D01*
X28516785Y22152858D01*
X28564404Y22105239D01*
X28659642Y22057620D01*
X28802500Y22057620D01*
X28040595Y22152858D02*
X27992976Y22105239D01*
X28040595Y22057620D01*
X28088214Y22105239D01*
X28040595Y22152858D01*
X28040595Y22057620D01*
X28040595Y22676667D02*
X27992976Y22629048D01*
X28040595Y22581429D01*
X28088214Y22629048D01*
X28040595Y22676667D01*
X28040595Y22581429D01*
X26231071Y22152858D02*
X26278690Y22105239D01*
X26421547Y22057620D01*
X26516785Y22057620D01*
X26659642Y22105239D01*
X26754880Y22200477D01*
X26802500Y22295715D01*
X26850119Y22486191D01*
X26850119Y22629048D01*
X26802500Y22819524D01*
X26754880Y22914762D01*
X26659642Y23010000D01*
X26516785Y23057620D01*
X26421547Y23057620D01*
X26278690Y23010000D01*
X26231071Y22962381D01*
X25802500Y22057620D02*
X25802500Y23057620D01*
X25373928Y22057620D02*
X25373928Y22581429D01*
X25421547Y22676667D01*
X25516785Y22724286D01*
X25659642Y22724286D01*
X25754880Y22676667D01*
X25802500Y22629048D01*
X24516785Y22105239D02*
X24612023Y22057620D01*
X24802500Y22057620D01*
X24897738Y22105239D01*
X24945357Y22200477D01*
X24945357Y22581429D01*
X24897738Y22676667D01*
X24802500Y22724286D01*
X24612023Y22724286D01*
X24516785Y22676667D01*
X24469166Y22581429D01*
X24469166Y22486191D01*
X24945357Y22390953D01*
X24040595Y22057620D02*
X24040595Y22724286D01*
X24040595Y22629048D02*
X23992976Y22676667D01*
X23897738Y22724286D01*
X23754880Y22724286D01*
X23659642Y22676667D01*
X23612023Y22581429D01*
X23612023Y22057620D01*
X23612023Y22581429D02*
X23564404Y22676667D01*
X23469166Y22724286D01*
X23326309Y22724286D01*
X23231071Y22676667D01*
X23183452Y22581429D01*
X23183452Y22057620D01*
X22707261Y22724286D02*
X22707261Y22057620D01*
X22707261Y22629048D02*
X22659642Y22676667D01*
X22564404Y22724286D01*
X22421547Y22724286D01*
X22326309Y22676667D01*
X22278690Y22581429D01*
X22278690Y22057620D01*
X21802500Y22057620D02*
X21802500Y22724286D01*
X21802500Y23057620D02*
X21850119Y23010000D01*
X21802500Y22962381D01*
X21754880Y23010000D01*
X21802500Y23057620D01*
X21802500Y22962381D01*
X21469166Y22724286D02*
X21088214Y22724286D01*
X21326309Y23057620D02*
X21326309Y22200477D01*
X21278690Y22105239D01*
X21183452Y22057620D01*
X21088214Y22057620D01*
X20850119Y22724286D02*
X20326309Y22724286D01*
X20850119Y22057620D01*
X20326309Y22057620D01*
X19564404Y22105239D02*
X19659642Y22057620D01*
X19850119Y22057620D01*
X19945357Y22105239D01*
X19992976Y22200477D01*
X19992976Y22581429D01*
X19945357Y22676667D01*
X19850119Y22724286D01*
X19659642Y22724286D01*
X19564404Y22676667D01*
X19516785Y22581429D01*
X19516785Y22486191D01*
X19992976Y22390953D01*
X19088214Y22057620D02*
X19088214Y22724286D01*
X19088214Y22533810D02*
X19040595Y22629048D01*
X18992976Y22676667D01*
X18897738Y22724286D01*
X18802500Y22724286D01*
X17231071Y22057620D02*
X17707261Y22057620D01*
X17707261Y23057620D01*
X16897738Y22057620D02*
X16897738Y22724286D01*
X16897738Y23057620D02*
X16945357Y23010000D01*
X16897738Y22962381D01*
X16850119Y23010000D01*
X16897738Y23057620D01*
X16897738Y22962381D01*
X16421547Y22724286D02*
X16421547Y22057620D01*
X16421547Y22629048D02*
X16373928Y22676667D01*
X16278690Y22724286D01*
X16135833Y22724286D01*
X16040595Y22676667D01*
X15992976Y22581429D01*
X15992976Y22057620D01*
X15088214Y22724286D02*
X15088214Y22057620D01*
X15516785Y22724286D02*
X15516785Y22200477D01*
X15469166Y22105239D01*
X15373928Y22057620D01*
X15231071Y22057620D01*
X15135833Y22105239D01*
X15088214Y22152858D01*
X14707261Y22057620D02*
X14183452Y22724286D01*
X14707261Y22724286D02*
X14183452Y22057620D01*
X13945357Y22724286D02*
X13564404Y22724286D01*
X13802500Y23057620D02*
X13802500Y22200477D01*
X13754880Y22105239D01*
X13659642Y22057620D01*
X13564404Y22057620D01*
X12802500Y22057620D02*
X12802500Y22581429D01*
X12850119Y22676667D01*
X12945357Y22724286D01*
X13135833Y22724286D01*
X13231071Y22676667D01*
X12802500Y22105239D02*
X12897738Y22057620D01*
X13135833Y22057620D01*
X13231071Y22105239D01*
X13278690Y22200477D01*
X13278690Y22295715D01*
X13231071Y22390953D01*
X13135833Y22438572D01*
X12897738Y22438572D01*
X12802500Y22486191D01*
X11897738Y22724286D02*
X11897738Y21914762D01*
X11945357Y21819524D01*
X11992976Y21771905D01*
X12088214Y21724286D01*
X12231071Y21724286D01*
X12326309Y21771905D01*
X11897738Y22105239D02*
X11992976Y22057620D01*
X12183452Y22057620D01*
X12278690Y22105239D01*
X12326309Y22152858D01*
X12373928Y22248096D01*
X12373928Y22533810D01*
X12326309Y22629048D01*
X12278690Y22676667D01*
X12183452Y22724286D01*
X11992976Y22724286D01*
X11897738Y22676667D01*
X11040595Y22105239D02*
X11135833Y22057620D01*
X11326309Y22057620D01*
X11421547Y22105239D01*
X11469166Y22200477D01*
X11469166Y22581429D01*
X11421547Y22676667D01*
X11326309Y22724286D01*
X11135833Y22724286D01*
X11040595Y22676667D01*
X10992976Y22581429D01*
X10992976Y22486191D01*
X11469166Y22390953D01*
X31564404Y20447620D02*
X31564404Y21447620D01*
X31326309Y21447620D01*
X31183452Y21400000D01*
X31088214Y21304762D01*
X31040595Y21209524D01*
X30992976Y21019048D01*
X30992976Y20876191D01*
X31040595Y20685715D01*
X31088214Y20590477D01*
X31183452Y20495239D01*
X31326309Y20447620D01*
X31564404Y20447620D01*
X30183452Y20495239D02*
X30278690Y20447620D01*
X30469166Y20447620D01*
X30564404Y20495239D01*
X30612023Y20590477D01*
X30612023Y20971429D01*
X30564404Y21066667D01*
X30469166Y21114286D01*
X30278690Y21114286D01*
X30183452Y21066667D01*
X30135833Y20971429D01*
X30135833Y20876191D01*
X30612023Y20780953D01*
X29754880Y20495239D02*
X29659642Y20447620D01*
X29469166Y20447620D01*
X29373928Y20495239D01*
X29326309Y20590477D01*
X29326309Y20638096D01*
X29373928Y20733334D01*
X29469166Y20780953D01*
X29612023Y20780953D01*
X29707261Y20828572D01*
X29754880Y20923810D01*
X29754880Y20971429D01*
X29707261Y21066667D01*
X29612023Y21114286D01*
X29469166Y21114286D01*
X29373928Y21066667D01*
X28897738Y20447620D02*
X28897738Y21114286D01*
X28897738Y21447620D02*
X28945357Y21400000D01*
X28897738Y21352381D01*
X28850119Y21400000D01*
X28897738Y21447620D01*
X28897738Y21352381D01*
X27992976Y21114286D02*
X27992976Y20304762D01*
X28040595Y20209524D01*
X28088214Y20161905D01*
X28183452Y20114286D01*
X28326309Y20114286D01*
X28421547Y20161905D01*
X27992976Y20495239D02*
X28088214Y20447620D01*
X28278690Y20447620D01*
X28373928Y20495239D01*
X28421547Y20542858D01*
X28469166Y20638096D01*
X28469166Y20923810D01*
X28421547Y21019048D01*
X28373928Y21066667D01*
X28278690Y21114286D01*
X28088214Y21114286D01*
X27992976Y21066667D01*
X27516785Y21114286D02*
X27516785Y20447620D01*
X27516785Y21019048D02*
X27469166Y21066667D01*
X27373928Y21114286D01*
X27231071Y21114286D01*
X27135833Y21066667D01*
X27088214Y20971429D01*
X27088214Y20447620D01*
X26612023Y20542858D02*
X26564404Y20495239D01*
X26612023Y20447620D01*
X26659642Y20495239D01*
X26612023Y20542858D01*
X26612023Y20447620D01*
X26612023Y21066667D02*
X26564404Y21019048D01*
X26612023Y20971429D01*
X26659642Y21019048D01*
X26612023Y21066667D01*
X26612023Y20971429D01*
X24802500Y20542858D02*
X24850119Y20495239D01*
X24992976Y20447620D01*
X25088214Y20447620D01*
X25231071Y20495239D01*
X25326309Y20590477D01*
X25373928Y20685715D01*
X25421547Y20876191D01*
X25421547Y21019048D01*
X25373928Y21209524D01*
X25326309Y21304762D01*
X25231071Y21400000D01*
X25088214Y21447620D01*
X24992976Y21447620D01*
X24850119Y21400000D01*
X24802500Y21352381D01*
X23802500Y20542858D02*
X23850119Y20495239D01*
X23992976Y20447620D01*
X24088214Y20447620D01*
X24231071Y20495239D01*
X24326309Y20590477D01*
X24373928Y20685715D01*
X24421547Y20876191D01*
X24421547Y21019048D01*
X24373928Y21209524D01*
X24326309Y21304762D01*
X24231071Y21400000D01*
X24088214Y21447620D01*
X23992976Y21447620D01*
X23850119Y21400000D01*
X23802500Y21352381D01*
X23373928Y20828572D02*
X22612023Y20828572D01*
X21802500Y20971429D02*
X21659642Y20923810D01*
X21612023Y20876191D01*
X21564404Y20780953D01*
X21564404Y20638096D01*
X21612023Y20542858D01*
X21659642Y20495239D01*
X21754880Y20447620D01*
X22135833Y20447620D01*
X22135833Y21447620D01*
X21802500Y21447620D01*
X21707261Y21400000D01*
X21659642Y21352381D01*
X21612023Y21257143D01*
X21612023Y21161905D01*
X21659642Y21066667D01*
X21707261Y21019048D01*
X21802500Y20971429D01*
X22135833Y20971429D01*
X20945357Y20923810D02*
X20945357Y20447620D01*
X21278690Y21447620D02*
X20945357Y20923810D01*
X20612023Y21447620D01*
X20278690Y20828572D02*
X19516785Y20828572D01*
X19088214Y20495239D02*
X18945357Y20447620D01*
X18707261Y20447620D01*
X18612023Y20495239D01*
X18564404Y20542858D01*
X18516785Y20638096D01*
X18516785Y20733334D01*
X18564404Y20828572D01*
X18612023Y20876191D01*
X18707261Y20923810D01*
X18897738Y20971429D01*
X18992976Y21019048D01*
X19040595Y21066667D01*
X19088214Y21161905D01*
X19088214Y21257143D01*
X19040595Y21352381D01*
X18992976Y21400000D01*
X18897738Y21447620D01*
X18659642Y21447620D01*
X18516785Y21400000D01*
X18135833Y20733334D02*
X17659642Y20733334D01*
X18231071Y20447620D02*
X17897738Y21447620D01*
X17564404Y20447620D01*
X15897738Y20542858D02*
X15945357Y20495239D01*
X16088214Y20447620D01*
X16183452Y20447620D01*
X16326309Y20495239D01*
X16421547Y20590477D01*
X16469166Y20685715D01*
X16516785Y20876191D01*
X16516785Y21019048D01*
X16469166Y21209524D01*
X16421547Y21304762D01*
X16326309Y21400000D01*
X16183452Y21447620D01*
X16088214Y21447620D01*
X15945357Y21400000D01*
X15897738Y21352381D01*
X15469166Y20447620D02*
X15469166Y21447620D01*
X15040595Y20447620D02*
X15040595Y20971429D01*
X15088214Y21066667D01*
X15183452Y21114286D01*
X15326309Y21114286D01*
X15421547Y21066667D01*
X15469166Y21019048D01*
X14564404Y20447620D02*
X14564404Y21114286D01*
X14564404Y20923810D02*
X14516785Y21019048D01*
X14469166Y21066667D01*
X14373928Y21114286D01*
X14278690Y21114286D01*
X13945357Y20447620D02*
X13945357Y21114286D01*
X13945357Y21447620D02*
X13992976Y21400000D01*
X13945357Y21352381D01*
X13897738Y21400000D01*
X13945357Y21447620D01*
X13945357Y21352381D01*
X13516785Y20495239D02*
X13421547Y20447620D01*
X13231071Y20447620D01*
X13135833Y20495239D01*
X13088214Y20590477D01*
X13088214Y20638096D01*
X13135833Y20733334D01*
X13231071Y20780953D01*
X13373928Y20780953D01*
X13469166Y20828572D01*
X13516785Y20923810D01*
X13516785Y20971429D01*
X13469166Y21066667D01*
X13373928Y21114286D01*
X13231071Y21114286D01*
X13135833Y21066667D01*
X12707261Y20495239D02*
X12612023Y20447620D01*
X12421547Y20447620D01*
X12326309Y20495239D01*
X12278690Y20590477D01*
X12278690Y20638096D01*
X12326309Y20733334D01*
X12421547Y20780953D01*
X12564404Y20780953D01*
X12659642Y20828572D01*
X12707261Y20923810D01*
X12707261Y20971429D01*
X12659642Y21066667D01*
X12564404Y21114286D01*
X12421547Y21114286D01*
X12326309Y21066667D01*
X11850119Y20447620D02*
X11850119Y21114286D01*
X11850119Y21447620D02*
X11897738Y21400000D01*
X11850119Y21352381D01*
X11802500Y21400000D01*
X11850119Y21447620D01*
X11850119Y21352381D01*
X11516785Y21352381D02*
X11326309Y21495239D01*
X11135833Y21352381D01*
X31135833Y19504286D02*
X31135833Y18694762D01*
X31183452Y18599524D01*
X31231071Y18551905D01*
X31326309Y18504286D01*
X31469166Y18504286D01*
X31564404Y18551905D01*
X31135833Y18885239D02*
X31231071Y18837620D01*
X31421547Y18837620D01*
X31516785Y18885239D01*
X31564404Y18932858D01*
X31612023Y19028096D01*
X31612023Y19313810D01*
X31564404Y19409048D01*
X31516785Y19456667D01*
X31421547Y19504286D01*
X31231071Y19504286D01*
X31135833Y19456667D01*
X30659642Y18837620D02*
X30659642Y19504286D01*
X30659642Y19837620D02*
X30707261Y19790000D01*
X30659642Y19742381D01*
X30612023Y19790000D01*
X30659642Y19837620D01*
X30659642Y19742381D01*
X30326309Y19504286D02*
X29945357Y19504286D01*
X30183452Y19837620D02*
X30183452Y18980477D01*
X30135833Y18885239D01*
X30040595Y18837620D01*
X29945357Y18837620D01*
X29469166Y18837620D02*
X29564404Y18885239D01*
X29612023Y18980477D01*
X29612023Y19837620D01*
X29088214Y18837620D02*
X29088214Y19504286D01*
X29088214Y19837620D02*
X29135833Y19790000D01*
X29088214Y19742381D01*
X29040595Y19790000D01*
X29088214Y19837620D01*
X29088214Y19742381D01*
X28612023Y18932858D02*
X28564404Y18885239D01*
X28612023Y18837620D01*
X28659642Y18885239D01*
X28612023Y18932858D01*
X28612023Y18837620D01*
X28183452Y18885239D02*
X28088214Y18837620D01*
X27897738Y18837620D01*
X27802500Y18885239D01*
X27754880Y18980477D01*
X27754880Y19028096D01*
X27802500Y19123334D01*
X27897738Y19170953D01*
X28040595Y19170953D01*
X28135833Y19218572D01*
X28183452Y19313810D01*
X28183452Y19361429D01*
X28135833Y19456667D01*
X28040595Y19504286D01*
X27897738Y19504286D01*
X27802500Y19456667D01*
X27469166Y19504286D02*
X27088214Y19504286D01*
X27326309Y19837620D02*
X27326309Y18980477D01*
X27278690Y18885239D01*
X27183452Y18837620D01*
X27088214Y18837620D01*
X26754880Y18837620D02*
X26754880Y19504286D01*
X26754880Y19313810D02*
X26707261Y19409048D01*
X26659642Y19456667D01*
X26564404Y19504286D01*
X26469166Y19504286D01*
X25707261Y18837620D02*
X25707261Y19361429D01*
X25754880Y19456667D01*
X25850119Y19504286D01*
X26040595Y19504286D01*
X26135833Y19456667D01*
X25707261Y18885239D02*
X25802500Y18837620D01*
X26040595Y18837620D01*
X26135833Y18885239D01*
X26183452Y18980477D01*
X26183452Y19075715D01*
X26135833Y19170953D01*
X26040595Y19218572D01*
X25802500Y19218572D01*
X25707261Y19266191D01*
X25373928Y19504286D02*
X24992976Y19504286D01*
X25231071Y19837620D02*
X25231071Y18980477D01*
X25183452Y18885239D01*
X25088214Y18837620D01*
X24992976Y18837620D01*
X24231071Y19504286D02*
X24231071Y18837620D01*
X24659642Y19504286D02*
X24659642Y18980477D01*
X24612023Y18885239D01*
X24516785Y18837620D01*
X24373928Y18837620D01*
X24278690Y18885239D01*
X24231071Y18932858D01*
X23754880Y18837620D02*
X23754880Y19504286D01*
X23754880Y19409048D02*
X23707261Y19456667D01*
X23612023Y19504286D01*
X23469166Y19504286D01*
X23373928Y19456667D01*
X23326309Y19361429D01*
X23326309Y18837620D01*
X23326309Y19361429D02*
X23278690Y19456667D01*
X23183452Y19504286D01*
X23040595Y19504286D01*
X22945357Y19456667D01*
X22897738Y19361429D01*
X22897738Y18837620D01*
X22231071Y19837620D02*
X22135833Y19837620D01*
X22040595Y19790000D01*
X21992976Y19742381D01*
X21945357Y19647143D01*
X21897738Y19456667D01*
X21897738Y19218572D01*
X21945357Y19028096D01*
X21992976Y18932858D01*
X22040595Y18885239D01*
X22135833Y18837620D01*
X22231071Y18837620D01*
X22326309Y18885239D01*
X22373928Y18932858D01*
X22421547Y19028096D01*
X22469166Y19218572D01*
X22469166Y19456667D01*
X22421547Y19647143D01*
X22373928Y19742381D01*
X22326309Y19790000D01*
X22231071Y19837620D01*
X21469166Y18932858D02*
X21421547Y18885239D01*
X21469166Y18837620D01*
X21516785Y18885239D01*
X21469166Y18932858D01*
X21469166Y18837620D01*
X20850119Y18837620D02*
X20945357Y18885239D01*
X20992976Y18932858D01*
X21040595Y19028096D01*
X21040595Y19313810D01*
X20992976Y19409048D01*
X20945357Y19456667D01*
X20850119Y19504286D01*
X20707261Y19504286D01*
X20612023Y19456667D01*
X20564404Y19409048D01*
X20516785Y19313810D01*
X20516785Y19028096D01*
X20564404Y18932858D01*
X20612023Y18885239D01*
X20707261Y18837620D01*
X20850119Y18837620D01*
X20088214Y18837620D02*
X20088214Y19504286D01*
X20088214Y19313810D02*
X20040595Y19409048D01*
X19992976Y19456667D01*
X19897738Y19504286D01*
X19802500Y19504286D01*
X19040595Y19504286D02*
X19040595Y18694762D01*
X19088214Y18599524D01*
X19135833Y18551905D01*
X19231071Y18504286D01*
X19373928Y18504286D01*
X19469166Y18551905D01*
X19040595Y18885239D02*
X19135833Y18837620D01*
X19326309Y18837620D01*
X19421547Y18885239D01*
X19469166Y18932858D01*
X19516785Y19028096D01*
X19516785Y19313810D01*
X19469166Y19409048D01*
X19421547Y19456667D01*
X19326309Y19504286D01*
X19135833Y19504286D01*
X19040595Y19456667D01*
X17850119Y19885239D02*
X18707261Y18599524D01*
X17088214Y18885239D02*
X17183452Y18837620D01*
X17373928Y18837620D01*
X17469166Y18885239D01*
X17516785Y18932858D01*
X17564404Y19028096D01*
X17564404Y19313810D01*
X17516785Y19409048D01*
X17469166Y19456667D01*
X17373928Y19504286D01*
X17183452Y19504286D01*
X17088214Y19456667D01*
X16659642Y18837620D02*
X16659642Y19837620D01*
X16231071Y18837620D02*
X16231071Y19361429D01*
X16278690Y19456667D01*
X16373928Y19504286D01*
X16516785Y19504286D01*
X16612023Y19456667D01*
X16659642Y19409048D01*
X15754880Y18837620D02*
X15754880Y19504286D01*
X15754880Y19313810D02*
X15707261Y19409048D01*
X15659642Y19456667D01*
X15564404Y19504286D01*
X15469166Y19504286D01*
X15135833Y18837620D02*
X15135833Y19504286D01*
X15135833Y19837620D02*
X15183452Y19790000D01*
X15135833Y19742381D01*
X15088214Y19790000D01*
X15135833Y19837620D01*
X15135833Y19742381D01*
X14707261Y18885239D02*
X14612023Y18837620D01*
X14421547Y18837620D01*
X14326309Y18885239D01*
X14278690Y18980477D01*
X14278690Y19028096D01*
X14326309Y19123334D01*
X14421547Y19170953D01*
X14564404Y19170953D01*
X14659642Y19218572D01*
X14707261Y19313810D01*
X14707261Y19361429D01*
X14659642Y19456667D01*
X14564404Y19504286D01*
X14421547Y19504286D01*
X14326309Y19456667D01*
X13897738Y18885239D02*
X13802500Y18837620D01*
X13612023Y18837620D01*
X13516785Y18885239D01*
X13469166Y18980477D01*
X13469166Y19028096D01*
X13516785Y19123334D01*
X13612023Y19170953D01*
X13754880Y19170953D01*
X13850119Y19218572D01*
X13897738Y19313810D01*
X13897738Y19361429D01*
X13850119Y19456667D01*
X13754880Y19504286D01*
X13612023Y19504286D01*
X13516785Y19456667D01*
X13040595Y18837620D02*
X13040595Y19504286D01*
X13040595Y19837620D02*
X13088214Y19790000D01*
X13040595Y19742381D01*
X12992976Y19790000D01*
X13040595Y19837620D01*
X13040595Y19742381D01*
X11850119Y19885239D02*
X12707261Y18599524D01*
X11088214Y18885239D02*
X11183452Y18837620D01*
X11373928Y18837620D01*
X11469166Y18885239D01*
X11516785Y18932858D01*
X11564404Y19028096D01*
X11564404Y19313810D01*
X11516785Y19409048D01*
X11469166Y19456667D01*
X11373928Y19504286D01*
X11183452Y19504286D01*
X11088214Y19456667D01*
X10516785Y18837620D02*
X10612023Y18885239D01*
X10659642Y18980477D01*
X10659642Y19837620D01*
X10278690Y19504286D02*
X9897738Y19504286D01*
X10135833Y19837620D02*
X10135833Y18980477D01*
X10088214Y18885239D01*
X9992976Y18837620D01*
X9897738Y18837620D01*
X9564404Y19218572D02*
X8802500Y19218572D01*
X8373928Y18885239D02*
X8278690Y18837620D01*
X8088214Y18837620D01*
X7992976Y18885239D01*
X7945357Y18980477D01*
X7945357Y19028096D01*
X7992976Y19123334D01*
X8088214Y19170953D01*
X8231071Y19170953D01*
X8326309Y19218572D01*
X8373928Y19313810D01*
X8373928Y19361429D01*
X8326309Y19456667D01*
X8231071Y19504286D01*
X8088214Y19504286D01*
X7992976Y19456667D01*
X7373928Y18837620D02*
X7469166Y18885239D01*
X7516785Y18932858D01*
X7564404Y19028096D01*
X7564404Y19313810D01*
X7516785Y19409048D01*
X7469166Y19456667D01*
X7373928Y19504286D01*
X7231071Y19504286D01*
X7135833Y19456667D01*
X7088214Y19409048D01*
X7040595Y19313810D01*
X7040595Y19028096D01*
X7088214Y18932858D01*
X7135833Y18885239D01*
X7231071Y18837620D01*
X7373928Y18837620D01*
X6469166Y18837620D02*
X6564404Y18885239D01*
X6612023Y18980477D01*
X6612023Y19837620D01*
X5659642Y18837620D02*
X5659642Y19837620D01*
X5659642Y18885239D02*
X5754880Y18837620D01*
X5945357Y18837620D01*
X6040595Y18885239D01*
X6088214Y18932858D01*
X6135833Y19028096D01*
X6135833Y19313810D01*
X6088214Y19409048D01*
X6040595Y19456667D01*
X5945357Y19504286D01*
X5754880Y19504286D01*
X5659642Y19456667D01*
X4802500Y18885239D02*
X4897738Y18837620D01*
X5088214Y18837620D01*
X5183452Y18885239D01*
X5231071Y18980477D01*
X5231071Y19361429D01*
X5183452Y19456667D01*
X5088214Y19504286D01*
X4897738Y19504286D01*
X4802500Y19456667D01*
X4754880Y19361429D01*
X4754880Y19266191D01*
X5231071Y19170953D01*
X4326309Y18837620D02*
X4326309Y19504286D01*
X4326309Y19313810D02*
X4278690Y19409048D01*
X4231071Y19456667D01*
X4135833Y19504286D01*
X4040595Y19504286D01*
X3707261Y18837620D02*
X3707261Y19504286D01*
X3707261Y19837620D02*
X3754880Y19790000D01*
X3707261Y19742381D01*
X3659642Y19790000D01*
X3707261Y19837620D01*
X3707261Y19742381D01*
X3231071Y19504286D02*
X3231071Y18837620D01*
X3231071Y19409048D02*
X3183452Y19456667D01*
X3088214Y19504286D01*
X2945357Y19504286D01*
X2850119Y19456667D01*
X2802500Y19361429D01*
X2802500Y18837620D01*
X1897738Y19504286D02*
X1897738Y18694762D01*
X1945357Y18599524D01*
X1992976Y18551905D01*
X2088214Y18504286D01*
X2231071Y18504286D01*
X2326309Y18551905D01*
X1897738Y18885239D02*
X1992976Y18837620D01*
X2183452Y18837620D01*
X2278690Y18885239D01*
X2326309Y18932858D01*
X2373928Y19028096D01*
X2373928Y19313810D01*
X2326309Y19409048D01*
X2278690Y19456667D01*
X2183452Y19504286D01*
X1992976Y19504286D01*
X1897738Y19456667D01*
X80185714Y4447620D02*
X80185714Y4971429D01*
X80233333Y5066667D01*
X80328571Y5114286D01*
X80519047Y5114286D01*
X80614285Y5066667D01*
X80185714Y4495239D02*
X80280952Y4447620D01*
X80519047Y4447620D01*
X80614285Y4495239D01*
X80661904Y4590477D01*
X80661904Y4685715D01*
X80614285Y4780953D01*
X80519047Y4828572D01*
X80280952Y4828572D01*
X80185714Y4876191D01*
X32771428Y12647620D02*
X32866666Y12695239D01*
X32914285Y12742858D01*
X32961904Y12838096D01*
X32961904Y13123810D01*
X32914285Y13219048D01*
X32866666Y13266667D01*
X32771428Y13314286D01*
X32628571Y13314286D01*
X32533333Y13266667D01*
X32485714Y13219048D01*
X32438095Y13123810D01*
X32438095Y12838096D01*
X32485714Y12742858D01*
X32533333Y12695239D01*
X32628571Y12647620D01*
X32771428Y12647620D01*
X58071428Y23147620D02*
X58166666Y23195239D01*
X58214285Y23242858D01*
X58261904Y23338096D01*
X58261904Y23623810D01*
X58214285Y23719048D01*
X58166666Y23766667D01*
X58071428Y23814286D01*
X57928571Y23814286D01*
X57833333Y23766667D01*
X57785714Y23719048D01*
X57738095Y23623810D01*
X57738095Y23338096D01*
X57785714Y23242858D01*
X57833333Y23195239D01*
X57928571Y23147620D01*
X58071428Y23147620D01*
X49171428Y447620D02*
X49266666Y495239D01*
X49314285Y542858D01*
X49361904Y638096D01*
X49361904Y923810D01*
X49314285Y1019048D01*
X49266666Y1066667D01*
X49171428Y1114286D01*
X49028571Y1114286D01*
X48933333Y1066667D01*
X48885714Y1019048D01*
X48838095Y923810D01*
X48838095Y638096D01*
X48885714Y542858D01*
X48933333Y495239D01*
X49028571Y447620D01*
X49171428Y447620D01*
X71471428Y10247620D02*
X71566666Y10295239D01*
X71614285Y10342858D01*
X71661904Y10438096D01*
X71661904Y10723810D01*
X71614285Y10819048D01*
X71566666Y10866667D01*
X71471428Y10914286D01*
X71328571Y10914286D01*
X71233333Y10866667D01*
X71185714Y10819048D01*
X71138095Y10723810D01*
X71138095Y10438096D01*
X71185714Y10342858D01*
X71233333Y10295239D01*
X71328571Y10247620D01*
X71471428Y10247620D01*
X74071428Y5347620D02*
X74166666Y5395239D01*
X74214285Y5442858D01*
X74261904Y5538096D01*
X74261904Y5823810D01*
X74214285Y5919048D01*
X74166666Y5966667D01*
X74071428Y6014286D01*
X73928571Y6014286D01*
X73833333Y5966667D01*
X73785714Y5919048D01*
X73738095Y5823810D01*
X73738095Y5538096D01*
X73785714Y5442858D01*
X73833333Y5395239D01*
X73928571Y5347620D01*
X74071428Y5347620D01*
X56871428Y7147620D02*
X56966666Y7195239D01*
X57014285Y7242858D01*
X57061904Y7338096D01*
X57061904Y7623810D01*
X57014285Y7719048D01*
X56966666Y7766667D01*
X56871428Y7814286D01*
X56728571Y7814286D01*
X56633333Y7766667D01*
X56585714Y7719048D01*
X56538095Y7623810D01*
X56538095Y7338096D01*
X56585714Y7242858D01*
X56633333Y7195239D01*
X56728571Y7147620D01*
X56871428Y7147620D01*
X52385714Y6114286D02*
X52385714Y5304762D01*
X52433333Y5209524D01*
X52480952Y5161905D01*
X52576190Y5114286D01*
X52719047Y5114286D01*
X52814285Y5161905D01*
X52385714Y5495239D02*
X52480952Y5447620D01*
X52671428Y5447620D01*
X52766666Y5495239D01*
X52814285Y5542858D01*
X52861904Y5638096D01*
X52861904Y5923810D01*
X52814285Y6019048D01*
X52766666Y6066667D01*
X52671428Y6114286D01*
X52480952Y6114286D01*
X52385714Y6066667D01*
X69785714Y6214286D02*
X69785714Y5404762D01*
X69833333Y5309524D01*
X69880952Y5261905D01*
X69976190Y5214286D01*
X70119047Y5214286D01*
X70214285Y5261905D01*
X69785714Y5595239D02*
X69880952Y5547620D01*
X70071428Y5547620D01*
X70166666Y5595239D01*
X70214285Y5642858D01*
X70261904Y5738096D01*
X70261904Y6023810D01*
X70214285Y6119048D01*
X70166666Y6166667D01*
X70071428Y6214286D01*
X69880952Y6214286D01*
X69785714Y6166667D01*
X36785714Y8014286D02*
X36785714Y7204762D01*
X36833333Y7109524D01*
X36880952Y7061905D01*
X36976190Y7014286D01*
X37119047Y7014286D01*
X37214285Y7061905D01*
X36785714Y7395239D02*
X36880952Y7347620D01*
X37071428Y7347620D01*
X37166666Y7395239D01*
X37214285Y7442858D01*
X37261904Y7538096D01*
X37261904Y7823810D01*
X37214285Y7919048D01*
X37166666Y7966667D01*
X37071428Y8014286D01*
X36880952Y8014286D01*
X36785714Y7966667D01*
X56285714Y13814286D02*
X56285714Y13004762D01*
X56333333Y12909524D01*
X56380952Y12861905D01*
X56476190Y12814286D01*
X56619047Y12814286D01*
X56714285Y12861905D01*
X56285714Y13195239D02*
X56380952Y13147620D01*
X56571428Y13147620D01*
X56666666Y13195239D01*
X56714285Y13242858D01*
X56761904Y13338096D01*
X56761904Y13623810D01*
X56714285Y13719048D01*
X56666666Y13766667D01*
X56571428Y13814286D01*
X56380952Y13814286D01*
X56285714Y13766667D01*
X27685714Y4914286D02*
X27685714Y4104762D01*
X27733333Y4009524D01*
X27780952Y3961905D01*
X27876190Y3914286D01*
X28019047Y3914286D01*
X28114285Y3961905D01*
X27685714Y4295239D02*
X27780952Y4247620D01*
X27971428Y4247620D01*
X28066666Y4295239D01*
X28114285Y4342858D01*
X28161904Y4438096D01*
X28161904Y4723810D01*
X28114285Y4819048D01*
X28066666Y4866667D01*
X27971428Y4914286D01*
X27780952Y4914286D01*
X27685714Y4866667D01*
X40885714Y19114286D02*
X40885714Y18304762D01*
X40933333Y18209524D01*
X40980952Y18161905D01*
X41076190Y18114286D01*
X41219047Y18114286D01*
X41314285Y18161905D01*
X40885714Y18495239D02*
X40980952Y18447620D01*
X41171428Y18447620D01*
X41266666Y18495239D01*
X41314285Y18542858D01*
X41361904Y18638096D01*
X41361904Y18923810D01*
X41314285Y19019048D01*
X41266666Y19066667D01*
X41171428Y19114286D01*
X40980952Y19114286D01*
X40885714Y19066667D01*
X64938095Y5614286D02*
X64700000Y4947620D01*
X64461904Y5614286D02*
X64700000Y4947620D01*
X64795238Y4709524D01*
X64842857Y4661905D01*
X64938095Y4614286D01*
X81238095Y3814286D02*
X81000000Y3147620D01*
X80761904Y3814286D02*
X81000000Y3147620D01*
X81095238Y2909524D01*
X81142857Y2861905D01*
X81238095Y2814286D01*
X31038095Y1714286D02*
X30800000Y1047620D01*
X30561904Y1714286D02*
X30800000Y1047620D01*
X30895238Y809524D01*
X30942857Y761905D01*
X31038095Y714286D01*
X35638095Y14714286D02*
X35400000Y14047620D01*
X35161904Y14714286D02*
X35400000Y14047620D01*
X35495238Y13809524D01*
X35542857Y13761905D01*
X35638095Y13714286D01*
X55238095Y1614286D02*
X55000000Y947620D01*
X54761904Y1614286D02*
X55000000Y947620D01*
X55095238Y709524D01*
X55142857Y661905D01*
X55238095Y614286D01*
X65738095Y15714286D02*
X65500000Y15047620D01*
X65261904Y15714286D02*
X65500000Y15047620D01*
X65595238Y14809524D01*
X65642857Y14761905D01*
X65738095Y14714286D01*
X59571428Y11647620D02*
X59571428Y12314286D01*
X59571428Y12123810D02*
X59523809Y12219048D01*
X59476190Y12266667D01*
X59380952Y12314286D01*
X59285714Y12314286D01*
X58771428Y747620D02*
X58771428Y1414286D01*
X58771428Y1223810D02*
X58723809Y1319048D01*
X58676190Y1366667D01*
X58580952Y1414286D01*
X58485714Y1414286D01*
X43271428Y3147620D02*
X43271428Y3814286D01*
X43271428Y3623810D02*
X43223809Y3719048D01*
X43176190Y3766667D01*
X43080952Y3814286D01*
X42985714Y3814286D01*
X53071428Y12147620D02*
X53071428Y12814286D01*
X53071428Y12623810D02*
X53023809Y12719048D01*
X52976190Y12766667D01*
X52880952Y12814286D01*
X52785714Y12814286D01*
X47571428Y347620D02*
X47571428Y1014286D01*
X47571428Y823810D02*
X47523809Y919048D01*
X47476190Y966667D01*
X47380952Y1014286D01*
X47285714Y1014286D01*
X43871428Y13047620D02*
X43871428Y13714286D01*
X43871428Y13523810D02*
X43823809Y13619048D01*
X43776190Y13666667D01*
X43680952Y13714286D01*
X43585714Y13714286D01*
X12392976Y13987620D02*
X12726309Y14463810D01*
X12964404Y13987620D02*
X12964404Y14987620D01*
X12583452Y14987620D01*
X12488214Y14940000D01*
X12440595Y14892381D01*
X12392976Y14797143D01*
X12392976Y14654286D01*
X12440595Y14559048D01*
X12488214Y14511429D01*
X12583452Y14463810D01*
X12964404Y14463810D01*
X11964404Y14082858D02*
X11916785Y14035239D01*
X11964404Y13987620D01*
X12012023Y14035239D01*
X11964404Y14082858D01*
X11964404Y13987620D01*
X11964404Y14606667D02*
X11916785Y14559048D01*
X11964404Y14511429D01*
X12012023Y14559048D01*
X11964404Y14606667D01*
X11964404Y14511429D01*
X10726309Y13987620D02*
X10726309Y14654286D01*
X10726309Y14463810D02*
X10678690Y14559048D01*
X10631071Y14606667D01*
X10535833Y14654286D01*
X10440595Y14654286D01*
X9726309Y14035239D02*
X9821547Y13987620D01*
X10012023Y13987620D01*
X10107261Y14035239D01*
X10154880Y14130477D01*
X10154880Y14511429D01*
X10107261Y14606667D01*
X10012023Y14654286D01*
X9821547Y14654286D01*
X9726309Y14606667D01*
X9678690Y14511429D01*
X9678690Y14416191D01*
X10154880Y14320953D01*
X8821547Y13987620D02*
X8821547Y14987620D01*
X8821547Y14035239D02*
X8916785Y13987620D01*
X9107261Y13987620D01*
X9202500Y14035239D01*
X9250119Y14082858D01*
X9297738Y14178096D01*
X9297738Y14463810D01*
X9250119Y14559048D01*
X9202500Y14606667D01*
X9107261Y14654286D01*
X8916785Y14654286D01*
X8821547Y14606667D01*
X12440595Y13330000D02*
X12535833Y13377620D01*
X12678690Y13377620D01*
X12821547Y13330000D01*
X12916785Y13234762D01*
X12964404Y13139524D01*
X13012023Y12949048D01*
X13012023Y12806191D01*
X12964404Y12615715D01*
X12916785Y12520477D01*
X12821547Y12425239D01*
X12678690Y12377620D01*
X12583452Y12377620D01*
X12440595Y12425239D01*
X12392976Y12472858D01*
X12392976Y12806191D01*
X12583452Y12806191D01*
X11964404Y12472858D02*
X11916785Y12425239D01*
X11964404Y12377620D01*
X12012023Y12425239D01*
X11964404Y12472858D01*
X11964404Y12377620D01*
X11964404Y12996667D02*
X11916785Y12949048D01*
X11964404Y12901429D01*
X12012023Y12949048D01*
X11964404Y12996667D01*
X11964404Y12901429D01*
X10821547Y13044286D02*
X10583452Y12377620D01*
X10345357Y13044286D02*
X10583452Y12377620D01*
X10678690Y12139524D01*
X10726309Y12091905D01*
X10821547Y12044286D01*
X9583452Y12425239D02*
X9678690Y12377620D01*
X9869166Y12377620D01*
X9964404Y12425239D01*
X10012023Y12520477D01*
X10012023Y12901429D01*
X9964404Y12996667D01*
X9869166Y13044286D01*
X9678690Y13044286D01*
X9583452Y12996667D01*
X9535833Y12901429D01*
X9535833Y12806191D01*
X10012023Y12710953D01*
X8964404Y12377620D02*
X9059642Y12425239D01*
X9107261Y12520477D01*
X9107261Y13377620D01*
X8440595Y12377620D02*
X8535833Y12425239D01*
X8583452Y12520477D01*
X8583452Y13377620D01*
X7916785Y12377620D02*
X8012023Y12425239D01*
X8059642Y12472858D01*
X8107261Y12568096D01*
X8107261Y12853810D01*
X8059642Y12949048D01*
X8012023Y12996667D01*
X7916785Y13044286D01*
X7773928Y13044286D01*
X7678690Y12996667D01*
X7631071Y12949048D01*
X7583452Y12853810D01*
X7583452Y12568096D01*
X7631071Y12472858D01*
X7678690Y12425239D01*
X7773928Y12377620D01*
X7916785Y12377620D01*
X7250119Y13044286D02*
X7059642Y12377620D01*
X6869166Y12853810D01*
X6678690Y12377620D01*
X6488214Y13044286D01*
X6107261Y12758572D02*
X5345357Y12758572D01*
X4440595Y13044286D02*
X4440595Y12234762D01*
X4488214Y12139524D01*
X4535833Y12091905D01*
X4631071Y12044286D01*
X4773928Y12044286D01*
X4869166Y12091905D01*
X4440595Y12425239D02*
X4535833Y12377620D01*
X4726309Y12377620D01*
X4821547Y12425239D01*
X4869166Y12472858D01*
X4916785Y12568096D01*
X4916785Y12853810D01*
X4869166Y12949048D01*
X4821547Y12996667D01*
X4726309Y13044286D01*
X4535833Y13044286D01*
X4440595Y12996667D01*
X3964404Y12377620D02*
X3964404Y13044286D01*
X3964404Y12853810D02*
X3916785Y12949048D01*
X3869166Y12996667D01*
X3773928Y13044286D01*
X3678690Y13044286D01*
X2964404Y12425239D02*
X3059642Y12377620D01*
X3250119Y12377620D01*
X3345357Y12425239D01*
X3392976Y12520477D01*
X3392976Y12901429D01*
X3345357Y12996667D01*
X3250119Y13044286D01*
X3059642Y13044286D01*
X2964404Y12996667D01*
X2916785Y12901429D01*
X2916785Y12806191D01*
X3392976Y12710953D01*
X2107261Y12425239D02*
X2202500Y12377620D01*
X2392976Y12377620D01*
X2488214Y12425239D01*
X2535833Y12520477D01*
X2535833Y12901429D01*
X2488214Y12996667D01*
X2392976Y13044286D01*
X2202500Y13044286D01*
X2107261Y12996667D01*
X2059642Y12901429D01*
X2059642Y12806191D01*
X2535833Y12710953D01*
X1631071Y13044286D02*
X1631071Y12377620D01*
X1631071Y12949048D02*
X1583452Y12996667D01*
X1488214Y13044286D01*
X1345357Y13044286D01*
X1250119Y12996667D01*
X1202500Y12901429D01*
X1202500Y12377620D01*
X12773928Y11767620D02*
X12583452Y11767620D01*
X12488214Y11720000D01*
X12392976Y11624762D01*
X12345357Y11434286D01*
X12345357Y11100953D01*
X12392976Y10910477D01*
X12488214Y10815239D01*
X12583452Y10767620D01*
X12773928Y10767620D01*
X12869166Y10815239D01*
X12964404Y10910477D01*
X13012023Y11100953D01*
X13012023Y11434286D01*
X12964404Y11624762D01*
X12869166Y11720000D01*
X12773928Y11767620D01*
X11916785Y10862858D02*
X11869166Y10815239D01*
X11916785Y10767620D01*
X11964404Y10815239D01*
X11916785Y10862858D01*
X11916785Y10767620D01*
X11916785Y11386667D02*
X11869166Y11339048D01*
X11916785Y11291429D01*
X11964404Y11339048D01*
X11916785Y11386667D01*
X11916785Y11291429D01*
X10535833Y10767620D02*
X10631071Y10815239D01*
X10678690Y10862858D01*
X10726309Y10958096D01*
X10726309Y11243810D01*
X10678690Y11339048D01*
X10631071Y11386667D01*
X10535833Y11434286D01*
X10392976Y11434286D01*
X10297738Y11386667D01*
X10250119Y11339048D01*
X10202500Y11243810D01*
X10202500Y10958096D01*
X10250119Y10862858D01*
X10297738Y10815239D01*
X10392976Y10767620D01*
X10535833Y10767620D01*
X9773928Y10767620D02*
X9773928Y11434286D01*
X9773928Y11243810D02*
X9726309Y11339048D01*
X9678690Y11386667D01*
X9583452Y11434286D01*
X9488214Y11434286D01*
X8726309Y10767620D02*
X8726309Y11291429D01*
X8773928Y11386667D01*
X8869166Y11434286D01*
X9059642Y11434286D01*
X9154880Y11386667D01*
X8726309Y10815239D02*
X8821547Y10767620D01*
X9059642Y10767620D01*
X9154880Y10815239D01*
X9202500Y10910477D01*
X9202500Y11005715D01*
X9154880Y11100953D01*
X9059642Y11148572D01*
X8821547Y11148572D01*
X8726309Y11196191D01*
X8250119Y11434286D02*
X8250119Y10767620D01*
X8250119Y11339048D02*
X8202500Y11386667D01*
X8107261Y11434286D01*
X7964404Y11434286D01*
X7869166Y11386667D01*
X7821547Y11291429D01*
X7821547Y10767620D01*
X6916785Y11434286D02*
X6916785Y10624762D01*
X6964404Y10529524D01*
X7012023Y10481905D01*
X7107261Y10434286D01*
X7250119Y10434286D01*
X7345357Y10481905D01*
X6916785Y10815239D02*
X7012023Y10767620D01*
X7202500Y10767620D01*
X7297738Y10815239D01*
X7345357Y10862858D01*
X7392976Y10958096D01*
X7392976Y11243810D01*
X7345357Y11339048D01*
X7297738Y11386667D01*
X7202500Y11434286D01*
X7012023Y11434286D01*
X6916785Y11386667D01*
X6059642Y10815239D02*
X6154880Y10767620D01*
X6345357Y10767620D01*
X6440595Y10815239D01*
X6488214Y10910477D01*
X6488214Y11291429D01*
X6440595Y11386667D01*
X6345357Y11434286D01*
X6154880Y11434286D01*
X6059642Y11386667D01*
X6012023Y11291429D01*
X6012023Y11196191D01*
X6488214Y11100953D01*
X12773928Y9633810D02*
X12773928Y9157620D01*
X13107261Y10157620D02*
X12773928Y9633810D01*
X12440595Y10157620D01*
X12107261Y9252858D02*
X12059642Y9205239D01*
X12107261Y9157620D01*
X12154880Y9205239D01*
X12107261Y9252858D01*
X12107261Y9157620D01*
X12107261Y9776667D02*
X12059642Y9729048D01*
X12107261Y9681429D01*
X12154880Y9729048D01*
X12107261Y9776667D01*
X12107261Y9681429D01*
X10964404Y9824286D02*
X10726309Y9157620D01*
X10488214Y9824286D02*
X10726309Y9157620D01*
X10821547Y8919524D01*
X10869166Y8871905D01*
X10964404Y8824286D01*
X9726309Y9205239D02*
X9821547Y9157620D01*
X10012023Y9157620D01*
X10107261Y9205239D01*
X10154880Y9300477D01*
X10154880Y9681429D01*
X10107261Y9776667D01*
X10012023Y9824286D01*
X9821547Y9824286D01*
X9726309Y9776667D01*
X9678690Y9681429D01*
X9678690Y9586191D01*
X10154880Y9490953D01*
X9107261Y9157620D02*
X9202500Y9205239D01*
X9250119Y9300477D01*
X9250119Y10157620D01*
X8583452Y9157620D02*
X8678690Y9205239D01*
X8726309Y9300477D01*
X8726309Y10157620D01*
X8059642Y9157620D02*
X8154880Y9205239D01*
X8202500Y9252858D01*
X8250119Y9348096D01*
X8250119Y9633810D01*
X8202500Y9729048D01*
X8154880Y9776667D01*
X8059642Y9824286D01*
X7916785Y9824286D01*
X7821547Y9776667D01*
X7773928Y9729048D01*
X7726309Y9633810D01*
X7726309Y9348096D01*
X7773928Y9252858D01*
X7821547Y9205239D01*
X7916785Y9157620D01*
X8059642Y9157620D01*
X7392976Y9824286D02*
X7202500Y9157620D01*
X7012023Y9633810D01*
X6821547Y9157620D01*
X6631071Y9824286D01*
X12964404Y7547620D02*
X12964404Y8214286D01*
X12964404Y8023810D02*
X12916785Y8119048D01*
X12869166Y8166667D01*
X12773928Y8214286D01*
X12678690Y8214286D01*
X12345357Y7642858D02*
X12297738Y7595239D01*
X12345357Y7547620D01*
X12392976Y7595239D01*
X12345357Y7642858D01*
X12345357Y7547620D01*
X12345357Y8166667D02*
X12297738Y8119048D01*
X12345357Y8071429D01*
X12392976Y8119048D01*
X12345357Y8166667D01*
X12345357Y8071429D01*
X10583452Y7547620D02*
X11154880Y7547620D01*
X10869166Y7547620D02*
X10869166Y8547620D01*
X10964404Y8404762D01*
X11059642Y8309524D01*
X11154880Y8261905D01*
X10250119Y8547620D02*
X9631071Y8547620D01*
X9964404Y8166667D01*
X9821547Y8166667D01*
X9726309Y8119048D01*
X9678690Y8071429D01*
X9631071Y7976191D01*
X9631071Y7738096D01*
X9678690Y7642858D01*
X9726309Y7595239D01*
X9821547Y7547620D01*
X10107261Y7547620D01*
X10202500Y7595239D01*
X10250119Y7642858D01*
X9012023Y8547620D02*
X8916785Y8547620D01*
X8821547Y8500000D01*
X8773928Y8452381D01*
X8726309Y8357143D01*
X8678690Y8166667D01*
X8678690Y7928572D01*
X8726309Y7738096D01*
X8773928Y7642858D01*
X8821547Y7595239D01*
X8916785Y7547620D01*
X9012023Y7547620D01*
X9107261Y7595239D01*
X9154880Y7642858D01*
X9202500Y7738096D01*
X9250119Y7928572D01*
X9250119Y8166667D01*
X9202500Y8357143D01*
X9154880Y8452381D01*
X9107261Y8500000D01*
X9012023Y8547620D01*
X8297738Y7547620D02*
X8059642Y7547620D01*
X8059642Y7738096D01*
X8154880Y7785715D01*
X8250119Y7880953D01*
X8297738Y8023810D01*
X8297738Y8261905D01*
X8250119Y8404762D01*
X8154880Y8500000D01*
X8012023Y8547620D01*
X7821547Y8547620D01*
X7678690Y8500000D01*
X7583452Y8404762D01*
X7535833Y8261905D01*
X7535833Y8023810D01*
X7583452Y7880953D01*
X7678690Y7785715D01*
X7773928Y7738096D01*
X7773928Y7547620D01*
X7535833Y7547620D01*
X12535833Y6604286D02*
X12535833Y5794762D01*
X12583452Y5699524D01*
X12631071Y5651905D01*
X12726309Y5604286D01*
X12869166Y5604286D01*
X12964404Y5651905D01*
X12535833Y5985239D02*
X12631071Y5937620D01*
X12821547Y5937620D01*
X12916785Y5985239D01*
X12964404Y6032858D01*
X13012023Y6128096D01*
X13012023Y6413810D01*
X12964404Y6509048D01*
X12916785Y6556667D01*
X12821547Y6604286D01*
X12631071Y6604286D01*
X12535833Y6556667D01*
X12059642Y6032858D02*
X12012023Y5985239D01*
X12059642Y5937620D01*
X12107261Y5985239D01*
X12059642Y6032858D01*
X12059642Y5937620D01*
X12059642Y6556667D02*
X12012023Y6509048D01*
X12059642Y6461429D01*
X12107261Y6509048D01*
X12059642Y6556667D01*
X12059642Y6461429D01*
X10297738Y5937620D02*
X10869166Y5937620D01*
X10583452Y5937620D02*
X10583452Y6937620D01*
X10678690Y6794762D01*
X10773928Y6699524D01*
X10869166Y6651905D01*
X9678690Y6937620D02*
X9583452Y6937620D01*
X9488214Y6890000D01*
X9440595Y6842381D01*
X9392976Y6747143D01*
X9345357Y6556667D01*
X9345357Y6318572D01*
X9392976Y6128096D01*
X9440595Y6032858D01*
X9488214Y5985239D01*
X9583452Y5937620D01*
X9678690Y5937620D01*
X9773928Y5985239D01*
X9821547Y6032858D01*
X9869166Y6128096D01*
X9916785Y6318572D01*
X9916785Y6556667D01*
X9869166Y6747143D01*
X9821547Y6842381D01*
X9773928Y6890000D01*
X9678690Y6937620D01*
X8726309Y6937620D02*
X8631071Y6937620D01*
X8535833Y6890000D01*
X8488214Y6842381D01*
X8440595Y6747143D01*
X8392976Y6556667D01*
X8392976Y6318572D01*
X8440595Y6128096D01*
X8488214Y6032858D01*
X8535833Y5985239D01*
X8631071Y5937620D01*
X8726309Y5937620D01*
X8821547Y5985239D01*
X8869166Y6032858D01*
X8916785Y6128096D01*
X8964404Y6318572D01*
X8964404Y6556667D01*
X8916785Y6747143D01*
X8869166Y6842381D01*
X8821547Y6890000D01*
X8726309Y6937620D01*
X8012023Y5937620D02*
X7773928Y5937620D01*
X7773928Y6128096D01*
X7869166Y6175715D01*
X7964404Y6270953D01*
X8012023Y6413810D01*
X8012023Y6651905D01*
X7964404Y6794762D01*
X7869166Y6890000D01*
X7726309Y6937620D01*
X7535833Y6937620D01*
X7392976Y6890000D01*
X7297738Y6794762D01*
X7250119Y6651905D01*
X7250119Y6413810D01*
X7297738Y6270953D01*
X7392976Y6175715D01*
X7488214Y6128096D01*
X7488214Y5937620D01*
X7250119Y5937620D01*
X13059642Y4994286D02*
X12821547Y4327620D01*
X12583452Y4994286D02*
X12821547Y4327620D01*
X12916785Y4089524D01*
X12964404Y4041905D01*
X13059642Y3994286D01*
X12202500Y4422858D02*
X12154880Y4375239D01*
X12202500Y4327620D01*
X12250119Y4375239D01*
X12202500Y4422858D01*
X12202500Y4327620D01*
X12202500Y4946667D02*
X12154880Y4899048D01*
X12202500Y4851429D01*
X12250119Y4899048D01*
X12202500Y4946667D01*
X12202500Y4851429D01*
X10440595Y4327620D02*
X11012023Y4327620D01*
X10726309Y4327620D02*
X10726309Y5327620D01*
X10821547Y5184762D01*
X10916785Y5089524D01*
X11012023Y5041905D01*
X10059642Y5232381D02*
X10012023Y5280000D01*
X9916785Y5327620D01*
X9678690Y5327620D01*
X9583452Y5280000D01*
X9535833Y5232381D01*
X9488214Y5137143D01*
X9488214Y5041905D01*
X9535833Y4899048D01*
X10107261Y4327620D01*
X9488214Y4327620D01*
X8869166Y5327620D02*
X8773928Y5327620D01*
X8678690Y5280000D01*
X8631071Y5232381D01*
X8583452Y5137143D01*
X8535833Y4946667D01*
X8535833Y4708572D01*
X8583452Y4518096D01*
X8631071Y4422858D01*
X8678690Y4375239D01*
X8773928Y4327620D01*
X8869166Y4327620D01*
X8964404Y4375239D01*
X9012023Y4422858D01*
X9059642Y4518096D01*
X9107261Y4708572D01*
X9107261Y4946667D01*
X9059642Y5137143D01*
X9012023Y5232381D01*
X8964404Y5280000D01*
X8869166Y5327620D01*
X8154880Y4327620D02*
X7916785Y4327620D01*
X7916785Y4518096D01*
X8012023Y4565715D01*
X8107261Y4660953D01*
X8154880Y4803810D01*
X8154880Y5041905D01*
X8107261Y5184762D01*
X8012023Y5280000D01*
X7869166Y5327620D01*
X7678690Y5327620D01*
X7535833Y5280000D01*
X7440595Y5184762D01*
X7392976Y5041905D01*
X7392976Y4803810D01*
X7440595Y4660953D01*
X7535833Y4565715D01*
X7631071Y4518096D01*
X7631071Y4327620D01*
X7392976Y4327620D01*
X12821547Y2717620D02*
X12916785Y2765239D01*
X12964404Y2812858D01*
X13012023Y2908096D01*
X13012023Y3193810D01*
X12964404Y3289048D01*
X12916785Y3336667D01*
X12821547Y3384286D01*
X12678690Y3384286D01*
X12583452Y3336667D01*
X12535833Y3289048D01*
X12488214Y3193810D01*
X12488214Y2908096D01*
X12535833Y2812858D01*
X12583452Y2765239D01*
X12678690Y2717620D01*
X12821547Y2717620D01*
X12059642Y2812858D02*
X12012023Y2765239D01*
X12059642Y2717620D01*
X12107261Y2765239D01*
X12059642Y2812858D01*
X12059642Y2717620D01*
X12059642Y3336667D02*
X12012023Y3289048D01*
X12059642Y3241429D01*
X12107261Y3289048D01*
X12059642Y3336667D01*
X12059642Y3241429D01*
X10297738Y2717620D02*
X10869166Y2717620D01*
X10583452Y2717620D02*
X10583452Y3717620D01*
X10678690Y3574762D01*
X10773928Y3479524D01*
X10869166Y3431905D01*
X9678690Y3717620D02*
X9583452Y3717620D01*
X9488214Y3670000D01*
X9440595Y3622381D01*
X9392976Y3527143D01*
X9345357Y3336667D01*
X9345357Y3098572D01*
X9392976Y2908096D01*
X9440595Y2812858D01*
X9488214Y2765239D01*
X9583452Y2717620D01*
X9678690Y2717620D01*
X9773928Y2765239D01*
X9821547Y2812858D01*
X9869166Y2908096D01*
X9916785Y3098572D01*
X9916785Y3336667D01*
X9869166Y3527143D01*
X9821547Y3622381D01*
X9773928Y3670000D01*
X9678690Y3717620D01*
X8726309Y3717620D02*
X8631071Y3717620D01*
X8535833Y3670000D01*
X8488214Y3622381D01*
X8440595Y3527143D01*
X8392976Y3336667D01*
X8392976Y3098572D01*
X8440595Y2908096D01*
X8488214Y2812858D01*
X8535833Y2765239D01*
X8631071Y2717620D01*
X8726309Y2717620D01*
X8821547Y2765239D01*
X8869166Y2812858D01*
X8916785Y2908096D01*
X8964404Y3098572D01*
X8964404Y3336667D01*
X8916785Y3527143D01*
X8869166Y3622381D01*
X8821547Y3670000D01*
X8726309Y3717620D01*
X8012023Y2717620D02*
X7773928Y2717620D01*
X7773928Y2908096D01*
X7869166Y2955715D01*
X7964404Y3050953D01*
X8012023Y3193810D01*
X8012023Y3431905D01*
X7964404Y3574762D01*
X7869166Y3670000D01*
X7726309Y3717620D01*
X7535833Y3717620D01*
X7392976Y3670000D01*
X7297738Y3574762D01*
X7250119Y3431905D01*
X7250119Y3193810D01*
X7297738Y3050953D01*
X7392976Y2955715D01*
X7488214Y2908096D01*
X7488214Y2717620D01*
X7250119Y2717620D01*
X12535833Y1107620D02*
X12535833Y1631429D01*
X12583452Y1726667D01*
X12678690Y1774286D01*
X12869166Y1774286D01*
X12964404Y1726667D01*
X12535833Y1155239D02*
X12631071Y1107620D01*
X12869166Y1107620D01*
X12964404Y1155239D01*
X13012023Y1250477D01*
X13012023Y1345715D01*
X12964404Y1440953D01*
X12869166Y1488572D01*
X12631071Y1488572D01*
X12535833Y1536191D01*
X12059642Y1202858D02*
X12012023Y1155239D01*
X12059642Y1107620D01*
X12107261Y1155239D01*
X12059642Y1202858D01*
X12059642Y1107620D01*
X12059642Y1726667D02*
X12012023Y1679048D01*
X12059642Y1631429D01*
X12107261Y1679048D01*
X12059642Y1726667D01*
X12059642Y1631429D01*
X10488214Y1631429D02*
X10821547Y1631429D01*
X10821547Y1107620D02*
X10821547Y2107620D01*
X10345357Y2107620D01*
X9964404Y1107620D02*
X9964404Y2107620D01*
X9583452Y2107620D02*
X8916785Y1107620D01*
X8916785Y2107620D02*
X9583452Y1107620D01*
X8535833Y1107620D02*
X8535833Y2107620D01*
X8202500Y1393334D01*
X7869166Y2107620D01*
X7869166Y1107620D01*
X7392976Y1631429D02*
X7059642Y1631429D01*
X6916785Y1107620D02*
X7392976Y1107620D01*
X7392976Y2107620D01*
X6916785Y2107620D01*
X32195238Y11747620D02*
X32004761Y11747620D01*
X31909523Y11700000D01*
X31814285Y11604762D01*
X31766666Y11414286D01*
X31766666Y11080953D01*
X31814285Y10890477D01*
X31909523Y10795239D01*
X32004761Y10747620D01*
X32195238Y10747620D01*
X32290476Y10795239D01*
X32385714Y10890477D01*
X32433333Y11080953D01*
X32433333Y11414286D01*
X32385714Y11604762D01*
X32290476Y11700000D01*
X32195238Y11747620D01*
X27395238Y9947620D02*
X27204761Y9947620D01*
X27109523Y9900000D01*
X27014285Y9804762D01*
X26966666Y9614286D01*
X26966666Y9280953D01*
X27014285Y9090477D01*
X27109523Y8995239D01*
X27204761Y8947620D01*
X27395238Y8947620D01*
X27490476Y8995239D01*
X27585714Y9090477D01*
X27633333Y9280953D01*
X27633333Y9614286D01*
X27585714Y9804762D01*
X27490476Y9900000D01*
X27395238Y9947620D01*
X56695238Y21147620D02*
X56504761Y21147620D01*
X56409523Y21100000D01*
X56314285Y21004762D01*
X56266666Y20814286D01*
X56266666Y20480953D01*
X56314285Y20290477D01*
X56409523Y20195239D01*
X56504761Y20147620D01*
X56695238Y20147620D01*
X56790476Y20195239D01*
X56885714Y20290477D01*
X56933333Y20480953D01*
X56933333Y20814286D01*
X56885714Y21004762D01*
X56790476Y21100000D01*
X56695238Y21147620D01*
X51605543Y24261136D02*
X51415066Y24261136D01*
X51319828Y24213516D01*
X51224590Y24118278D01*
X51176971Y23927802D01*
X51176971Y23594469D01*
X51224590Y23403993D01*
X51319828Y23308755D01*
X51415066Y23261136D01*
X51605543Y23261136D01*
X51700781Y23308755D01*
X51796019Y23403993D01*
X51843638Y23594469D01*
X51843638Y23927802D01*
X51796019Y24118278D01*
X51700781Y24213516D01*
X51605543Y24261136D01*
X43595238Y8047620D02*
X43404761Y8047620D01*
X43309523Y8000000D01*
X43214285Y7904762D01*
X43166666Y7714286D01*
X43166666Y7380953D01*
X43214285Y7190477D01*
X43309523Y7095239D01*
X43404761Y7047620D01*
X43595238Y7047620D01*
X43690476Y7095239D01*
X43785714Y7190477D01*
X43833333Y7380953D01*
X43833333Y7714286D01*
X43785714Y7904762D01*
X43690476Y8000000D01*
X43595238Y8047620D01*
X43595238Y11447620D02*
X43404761Y11447620D01*
X43309523Y11400000D01*
X43214285Y11304762D01*
X43166666Y11114286D01*
X43166666Y10780953D01*
X43214285Y10590477D01*
X43309523Y10495239D01*
X43404761Y10447620D01*
X43595238Y10447620D01*
X43690476Y10495239D01*
X43785714Y10590477D01*
X43833333Y10780953D01*
X43833333Y11114286D01*
X43785714Y11304762D01*
X43690476Y11400000D01*
X43595238Y11447620D01*
X70395238Y12547620D02*
X70204761Y12547620D01*
X70109523Y12500000D01*
X70014285Y12404762D01*
X69966666Y12214286D01*
X69966666Y11880953D01*
X70014285Y11690477D01*
X70109523Y11595239D01*
X70204761Y11547620D01*
X70395238Y11547620D01*
X70490476Y11595239D01*
X70585714Y11690477D01*
X70633333Y11880953D01*
X70633333Y12214286D01*
X70585714Y12404762D01*
X70490476Y12500000D01*
X70395238Y12547620D01*
X67795238Y19147620D02*
X67604761Y19147620D01*
X67509523Y19100000D01*
X67414285Y19004762D01*
X67366666Y18814286D01*
X67366666Y18480953D01*
X67414285Y18290477D01*
X67509523Y18195239D01*
X67604761Y18147620D01*
X67795238Y18147620D01*
X67890476Y18195239D01*
X67985714Y18290477D01*
X68033333Y18480953D01*
X68033333Y18814286D01*
X67985714Y19004762D01*
X67890476Y19100000D01*
X67795238Y19147620D01*
X75095238Y12647620D02*
X74904761Y12647620D01*
X74809523Y12600000D01*
X74714285Y12504762D01*
X74666666Y12314286D01*
X74666666Y11980953D01*
X74714285Y11790477D01*
X74809523Y11695239D01*
X74904761Y11647620D01*
X75095238Y11647620D01*
X75190476Y11695239D01*
X75285714Y11790477D01*
X75333333Y11980953D01*
X75333333Y12314286D01*
X75285714Y12504762D01*
X75190476Y12600000D01*
X75095238Y12647620D01*
X75895238Y1647620D02*
X75704761Y1647620D01*
X75609523Y1600000D01*
X75514285Y1504762D01*
X75466666Y1314286D01*
X75466666Y980953D01*
X75514285Y790477D01*
X75609523Y695239D01*
X75704761Y647620D01*
X75895238Y647620D01*
X75990476Y695239D01*
X76085714Y790477D01*
X76133333Y980953D01*
X76133333Y1314286D01*
X76085714Y1504762D01*
X75990476Y1600000D01*
X75895238Y1647620D01*
X59695238Y7847620D02*
X59504761Y7847620D01*
X59409523Y7800000D01*
X59314285Y7704762D01*
X59266666Y7514286D01*
X59266666Y7180953D01*
X59314285Y6990477D01*
X59409523Y6895239D01*
X59504761Y6847620D01*
X59695238Y6847620D01*
X59790476Y6895239D01*
X59885714Y6990477D01*
X59933333Y7180953D01*
X59933333Y7514286D01*
X59885714Y7704762D01*
X59790476Y7800000D01*
X59695238Y7847620D01*
X56795238Y1647620D02*
X56604761Y1647620D01*
X56509523Y1600000D01*
X56414285Y1504762D01*
X56366666Y1314286D01*
X56366666Y980953D01*
X56414285Y790477D01*
X56509523Y695239D01*
X56604761Y647620D01*
X56795238Y647620D01*
X56890476Y695239D01*
X56985714Y790477D01*
X57033333Y980953D01*
X57033333Y1314286D01*
X56985714Y1504762D01*
X56890476Y1600000D01*
X56795238Y1647620D01*
X80895238Y12747620D02*
X80704761Y12747620D01*
X80609523Y12700000D01*
X80514285Y12604762D01*
X80466666Y12414286D01*
X80466666Y12080953D01*
X80514285Y11890477D01*
X80609523Y11795239D01*
X80704761Y11747620D01*
X80895238Y11747620D01*
X80990476Y11795239D01*
X81085714Y11890477D01*
X81133333Y12080953D01*
X81133333Y12414286D01*
X81085714Y12604762D01*
X80990476Y12700000D01*
X80895238Y12747620D01*
X67238095Y12300000D02*
X67333333Y12347620D01*
X67476190Y12347620D01*
X67619047Y12300000D01*
X67714285Y12204762D01*
X67761904Y12109524D01*
X67809523Y11919048D01*
X67809523Y11776191D01*
X67761904Y11585715D01*
X67714285Y11490477D01*
X67619047Y11395239D01*
X67476190Y11347620D01*
X67380952Y11347620D01*
X67238095Y11395239D01*
X67190476Y11442858D01*
X67190476Y11776191D01*
X67380952Y11776191D01*
X70738095Y1500000D02*
X70833333Y1547620D01*
X70976190Y1547620D01*
X71119047Y1500000D01*
X71214285Y1404762D01*
X71261904Y1309524D01*
X71309523Y1119048D01*
X71309523Y976191D01*
X71261904Y785715D01*
X71214285Y690477D01*
X71119047Y595239D01*
X70976190Y547620D01*
X70880952Y547620D01*
X70738095Y595239D01*
X70690476Y642858D01*
X70690476Y976191D01*
X70880952Y976191D01*
X49238095Y7100000D02*
X49333333Y7147620D01*
X49476190Y7147620D01*
X49619047Y7100000D01*
X49714285Y7004762D01*
X49761904Y6909524D01*
X49809523Y6719048D01*
X49809523Y6576191D01*
X49761904Y6385715D01*
X49714285Y6290477D01*
X49619047Y6195239D01*
X49476190Y6147620D01*
X49380952Y6147620D01*
X49238095Y6195239D01*
X49190476Y6242858D01*
X49190476Y6576191D01*
X49380952Y6576191D01*
X51438095Y7000000D02*
X51533333Y7047620D01*
X51676190Y7047620D01*
X51819047Y7000000D01*
X51914285Y6904762D01*
X51961904Y6809524D01*
X52009523Y6619048D01*
X52009523Y6476191D01*
X51961904Y6285715D01*
X51914285Y6190477D01*
X51819047Y6095239D01*
X51676190Y6047620D01*
X51580952Y6047620D01*
X51438095Y6095239D01*
X51390476Y6142858D01*
X51390476Y6476191D01*
X51580952Y6476191D01*
X33638095Y8000000D02*
X33733333Y8047620D01*
X33876190Y8047620D01*
X34019047Y8000000D01*
X34114285Y7904762D01*
X34161904Y7809524D01*
X34209523Y7619048D01*
X34209523Y7476191D01*
X34161904Y7285715D01*
X34114285Y7190477D01*
X34019047Y7095239D01*
X33876190Y7047620D01*
X33780952Y7047620D01*
X33638095Y7095239D01*
X33590476Y7142858D01*
X33590476Y7476191D01*
X33780952Y7476191D01*
X35938095Y11300000D02*
X36033333Y11347620D01*
X36176190Y11347620D01*
X36319047Y11300000D01*
X36414285Y11204762D01*
X36461904Y11109524D01*
X36509523Y10919048D01*
X36509523Y10776191D01*
X36461904Y10585715D01*
X36414285Y10490477D01*
X36319047Y10395239D01*
X36176190Y10347620D01*
X36080952Y10347620D01*
X35938095Y10395239D01*
X35890476Y10442858D01*
X35890476Y10776191D01*
X36080952Y10776191D01*
X59538095Y19100000D02*
X59633333Y19147620D01*
X59776190Y19147620D01*
X59919047Y19100000D01*
X60014285Y19004762D01*
X60061904Y18909524D01*
X60109523Y18719048D01*
X60109523Y18576191D01*
X60061904Y18385715D01*
X60014285Y18290477D01*
X59919047Y18195239D01*
X59776190Y18147620D01*
X59680952Y18147620D01*
X59538095Y18195239D01*
X59490476Y18242858D01*
X59490476Y18576191D01*
X59680952Y18576191D01*
X53038095Y16200000D02*
X53133333Y16247620D01*
X53276190Y16247620D01*
X53419047Y16200000D01*
X53514285Y16104762D01*
X53561904Y16009524D01*
X53609523Y15819048D01*
X53609523Y15676191D01*
X53561904Y15485715D01*
X53514285Y15390477D01*
X53419047Y15295239D01*
X53276190Y15247620D01*
X53180952Y15247620D01*
X53038095Y15295239D01*
X52990476Y15342858D01*
X52990476Y15676191D01*
X53180952Y15676191D01*
X30238095Y5000000D02*
X30333333Y5047620D01*
X30476190Y5047620D01*
X30619047Y5000000D01*
X30714285Y4904762D01*
X30761904Y4809524D01*
X30809523Y4619048D01*
X30809523Y4476191D01*
X30761904Y4285715D01*
X30714285Y4190477D01*
X30619047Y4095239D01*
X30476190Y4047620D01*
X30380952Y4047620D01*
X30238095Y4095239D01*
X30190476Y4142858D01*
X30190476Y4476191D01*
X30380952Y4476191D01*
X30238095Y6500000D02*
X30333333Y6547620D01*
X30476190Y6547620D01*
X30619047Y6500000D01*
X30714285Y6404762D01*
X30761904Y6309524D01*
X30809523Y6119048D01*
X30809523Y5976191D01*
X30761904Y5785715D01*
X30714285Y5690477D01*
X30619047Y5595239D01*
X30476190Y5547620D01*
X30380952Y5547620D01*
X30238095Y5595239D01*
X30190476Y5642858D01*
X30190476Y5976191D01*
X30380952Y5976191D01*
X44338095Y21100000D02*
X44433333Y21147620D01*
X44576190Y21147620D01*
X44719047Y21100000D01*
X44814285Y21004762D01*
X44861904Y20909524D01*
X44909523Y20719048D01*
X44909523Y20576191D01*
X44861904Y20385715D01*
X44814285Y20290477D01*
X44719047Y20195239D01*
X44576190Y20147620D01*
X44480952Y20147620D01*
X44338095Y20195239D01*
X44290476Y20242858D01*
X44290476Y20576191D01*
X44480952Y20576191D01*
X44938095Y24100000D02*
X45033333Y24147620D01*
X45176190Y24147620D01*
X45319047Y24100000D01*
X45414285Y24004762D01*
X45461904Y23909524D01*
X45509523Y23719048D01*
X45509523Y23576191D01*
X45461904Y23385715D01*
X45414285Y23290477D01*
X45319047Y23195239D01*
X45176190Y23147620D01*
X45080952Y23147620D01*
X44938095Y23195239D01*
X44890476Y23242858D01*
X44890476Y23576191D01*
X45080952Y23576191D01*
X62800000Y7023810D02*
X62800000Y6547620D01*
X63133333Y7547620D02*
X62800000Y7023810D01*
X62466666Y7547620D01*
X61900000Y10823810D02*
X61900000Y10347620D01*
X62233333Y11347620D02*
X61900000Y10823810D01*
X61566666Y11347620D01*
X78900000Y723810D02*
X78900000Y247620D01*
X79233333Y1247620D02*
X78900000Y723810D01*
X78566666Y1247620D01*
X77600000Y12123810D02*
X77600000Y11647620D01*
X77933333Y12647620D02*
X77600000Y12123810D01*
X77266666Y12647620D01*
X24100000Y4323810D02*
X24100000Y3847620D01*
X24433333Y4847620D02*
X24100000Y4323810D01*
X23766666Y4847620D01*
X24100000Y11023810D02*
X24100000Y10547620D01*
X24433333Y11547620D02*
X24100000Y11023810D01*
X23766666Y11547620D01*
X37000000Y17323810D02*
X37000000Y16847620D01*
X37333333Y17847620D02*
X37000000Y17323810D01*
X36666666Y17847620D01*
X34100000Y20523810D02*
X34100000Y20047620D01*
X34433333Y21047620D02*
X34100000Y20523810D01*
X33766666Y21047620D01*
X50200000Y1823810D02*
X50200000Y1347620D01*
X50533333Y2347620D02*
X50200000Y1823810D01*
X49866666Y2347620D01*
X43900000Y1123810D02*
X43900000Y647620D01*
X44233333Y1647620D02*
X43900000Y1123810D01*
X43566666Y1647620D01*
X63000000Y18523810D02*
X63000000Y18047620D01*
X63333333Y19047620D02*
X63000000Y18523810D01*
X62666666Y19047620D01*
X61600000Y20623810D02*
X61600000Y20147620D01*
X61933333Y21147620D02*
X61600000Y20623810D01*
X61266666Y21147620D01*
X56190476Y10347620D02*
X56523809Y10823810D01*
X56761904Y10347620D02*
X56761904Y11347620D01*
X56380952Y11347620D01*
X56285714Y11300000D01*
X56238095Y11252381D01*
X56190476Y11157143D01*
X56190476Y11014286D01*
X56238095Y10919048D01*
X56285714Y10871429D01*
X56380952Y10823810D01*
X56761904Y10823810D01*
X54490476Y11447620D02*
X54823809Y11923810D01*
X55061904Y11447620D02*
X55061904Y12447620D01*
X54680952Y12447620D01*
X54585714Y12400000D01*
X54538095Y12352381D01*
X54490476Y12257143D01*
X54490476Y12114286D01*
X54538095Y12019048D01*
X54585714Y11971429D01*
X54680952Y11923810D01*
X55061904Y11923810D01*
X64490476Y647620D02*
X64823809Y1123810D01*
X65061904Y647620D02*
X65061904Y1647620D01*
X64680952Y1647620D01*
X64585714Y1600000D01*
X64538095Y1552381D01*
X64490476Y1457143D01*
X64490476Y1314286D01*
X64538095Y1219048D01*
X64585714Y1171429D01*
X64680952Y1123810D01*
X65061904Y1123810D01*
X62590476Y547620D02*
X62923809Y1023810D01*
X63161904Y547620D02*
X63161904Y1547620D01*
X62780952Y1547620D01*
X62685714Y1500000D01*
X62638095Y1452381D01*
X62590476Y1357143D01*
X62590476Y1214286D01*
X62638095Y1119048D01*
X62685714Y1071429D01*
X62780952Y1023810D01*
X63161904Y1023810D01*
X38490476Y547620D02*
X38823809Y1023810D01*
X39061904Y547620D02*
X39061904Y1547620D01*
X38680952Y1547620D01*
X38585714Y1500000D01*
X38538095Y1452381D01*
X38490476Y1357143D01*
X38490476Y1214286D01*
X38538095Y1119048D01*
X38585714Y1071429D01*
X38680952Y1023810D01*
X39061904Y1023810D01*
X35290476Y447620D02*
X35623809Y923810D01*
X35861904Y447620D02*
X35861904Y1447620D01*
X35480952Y1447620D01*
X35385714Y1400000D01*
X35338095Y1352381D01*
X35290476Y1257143D01*
X35290476Y1114286D01*
X35338095Y1019048D01*
X35385714Y971429D01*
X35480952Y923810D01*
X35861904Y923810D01*
X49790476Y12347620D02*
X50123809Y12823810D01*
X50361904Y12347620D02*
X50361904Y13347620D01*
X49980952Y13347620D01*
X49885714Y13300000D01*
X49838095Y13252381D01*
X49790476Y13157143D01*
X49790476Y13014286D01*
X49838095Y12919048D01*
X49885714Y12871429D01*
X49980952Y12823810D01*
X50361904Y12823810D01*
X54090476Y18447620D02*
X54423809Y18923810D01*
X54661904Y18447620D02*
X54661904Y19447620D01*
X54280952Y19447620D01*
X54185714Y19400000D01*
X54138095Y19352381D01*
X54090476Y19257143D01*
X54090476Y19114286D01*
X54138095Y19019048D01*
X54185714Y18971429D01*
X54280952Y18923810D01*
X54661904Y18923810D01*
X41790476Y7147620D02*
X42123809Y7623810D01*
X42361904Y7147620D02*
X42361904Y8147620D01*
X41980952Y8147620D01*
X41885714Y8100000D01*
X41838095Y8052381D01*
X41790476Y7957143D01*
X41790476Y7814286D01*
X41838095Y7719048D01*
X41885714Y7671429D01*
X41980952Y7623810D01*
X42361904Y7623810D01*
X41590476Y10447620D02*
X41923809Y10923810D01*
X42161904Y10447620D02*
X42161904Y11447620D01*
X41780952Y11447620D01*
X41685714Y11400000D01*
X41638095Y11352381D01*
X41590476Y11257143D01*
X41590476Y11114286D01*
X41638095Y11019048D01*
X41685714Y10971429D01*
X41780952Y10923810D01*
X42161904Y10923810D01*
X44890476Y15347620D02*
X45223809Y15823810D01*
X45461904Y15347620D02*
X45461904Y16347620D01*
X45080952Y16347620D01*
X44985714Y16300000D01*
X44938095Y16252381D01*
X44890476Y16157143D01*
X44890476Y16014286D01*
X44938095Y15919048D01*
X44985714Y15871429D01*
X45080952Y15823810D01*
X45461904Y15823810D01*
X40090476Y21747620D02*
X40423809Y22223810D01*
X40661904Y21747620D02*
X40661904Y22747620D01*
X40280952Y22747620D01*
X40185714Y22700000D01*
X40138095Y22652381D01*
X40090476Y22557143D01*
X40090476Y22414286D01*
X40138095Y22319048D01*
X40185714Y22271429D01*
X40280952Y22223810D01*
X40661904Y22223810D01*
D12*
%TO.C,R123*%
X71722500Y5362742D02*
X71722500Y5837258D01*
X70677500Y5362742D02*
X70677500Y5837258D01*
%TO.C,R107*%
X57177500Y13637258D02*
X57177500Y13162742D01*
X58222500Y13637258D02*
X58222500Y13162742D01*
D13*
%TO.C,D132*%
X47350000Y6600000D02*
X47350000Y5450000D01*
%TO.C,D126*%
X40950000Y725000D02*
X39800000Y725000D01*
%TO.C,D117*%
X40950000Y7325000D02*
X39800000Y7325000D01*
D12*
%TO.C,R120*%
X56372500Y5412742D02*
X56372500Y5887258D01*
X55327500Y5412742D02*
X55327500Y5887258D01*
D13*
%TO.C,D122*%
X30275000Y2350000D02*
X30275000Y3500000D01*
D12*
%TO.C,R117*%
X59977500Y11712742D02*
X59977500Y12187258D01*
X61022500Y11712742D02*
X61022500Y12187258D01*
D13*
%TO.C,D141*%
X65050000Y3400000D02*
X65050000Y2250000D01*
D12*
%TO.C,R114*%
X28462742Y1822500D02*
X28937258Y1822500D01*
X28462742Y777500D02*
X28937258Y777500D01*
D13*
%TO.C,D130*%
X36000000Y3975000D02*
X34850000Y3975000D01*
D12*
%TO.C,R122*%
X80372500Y2312742D02*
X80372500Y2787258D01*
X79327500Y2312742D02*
X79327500Y2787258D01*
D13*
%TO.C,D138*%
X52250000Y7315000D02*
X51100000Y7315000D01*
%TO.C,D136*%
X61950000Y3900000D02*
X60800000Y3900000D01*
%TO.C,D139*%
X58650000Y3950000D02*
X57500000Y3950000D01*
D12*
%TO.C,R113*%
X43122500Y1612742D02*
X43122500Y2087258D01*
X42077500Y1612742D02*
X42077500Y2087258D01*
%TO.C,R101*%
X44377500Y13637258D02*
X44377500Y13162742D01*
X45422500Y13637258D02*
X45422500Y13162742D01*
%TO.C,R108*%
X70977500Y8362742D02*
X70977500Y8837258D01*
X72022500Y8362742D02*
X72022500Y8837258D01*
D13*
%TO.C,D146*%
X70050000Y800000D02*
X68900000Y800000D01*
%TO.C,D115*%
X68350000Y13700000D02*
X67200000Y13700000D01*
%TO.C,D128*%
X26350000Y700000D02*
X25200000Y700000D01*
D12*
%TO.C,R105*%
X52422500Y13637258D02*
X52422500Y13162742D01*
X51377500Y13637258D02*
X51377500Y13162742D01*
D13*
%TO.C,D147*%
X74800000Y7250000D02*
X73650000Y7250000D01*
D12*
%TO.C,R115*%
X36927500Y5262742D02*
X36927500Y5737258D01*
X37972500Y5262742D02*
X37972500Y5737258D01*
%TO.C,R112*%
X34322500Y11962742D02*
X34322500Y12437258D01*
X33277500Y11962742D02*
X33277500Y12437258D01*
%TO.C,R103*%
X42822500Y18237258D02*
X42822500Y17762742D01*
X41777500Y18237258D02*
X41777500Y17762742D01*
%TO.C,R109*%
X48072500Y2412742D02*
X48072500Y2887258D01*
X47027500Y2412742D02*
X47027500Y2887258D01*
D13*
%TO.C,D104*%
X63550000Y13700000D02*
X62400000Y13700000D01*
%TO.C,D112*%
X39250000Y13700000D02*
X38100000Y13700000D01*
D12*
%TO.C,R106*%
X37122500Y13637258D02*
X37122500Y13162742D01*
X36077500Y13637258D02*
X36077500Y13162742D01*
%TO.C,R111*%
X29572500Y3937258D02*
X29572500Y3462742D01*
X28527500Y3937258D02*
X28527500Y3462742D01*
D13*
%TO.C,D140*%
X56100000Y2350000D02*
X56100000Y3500000D01*
%TO.C,D105*%
X47350000Y20200000D02*
X46200000Y20200000D01*
%TO.C,D118*%
X42500000Y6600000D02*
X42500000Y5450000D01*
%TO.C,D120*%
X52230000Y790000D02*
X51080000Y790000D01*
%TO.C,D101*%
X42550000Y20100000D02*
X41400000Y20100000D01*
%TO.C,D109*%
X53700000Y19550000D02*
X53700000Y18400000D01*
D12*
%TO.C,R110*%
X54322500Y2132742D02*
X54322500Y2607258D01*
X53277500Y2132742D02*
X53277500Y2607258D01*
D13*
%TO.C,D110*%
X50650000Y13700000D02*
X49500000Y13700000D01*
%TO.C,D142*%
X66800000Y700000D02*
X65650000Y700000D01*
%TO.C,D131*%
X47225000Y9800000D02*
X47225000Y8650000D01*
D12*
%TO.C,R116*%
X48577500Y2887258D02*
X48577500Y2412742D01*
X49622500Y2887258D02*
X49622500Y2412742D01*
D13*
%TO.C,D149*%
X81300000Y7250000D02*
X80150000Y7250000D01*
%TO.C,D144*%
X78100000Y925000D02*
X76950000Y925000D01*
%TO.C,D121*%
X32850000Y3975000D02*
X31700000Y3975000D01*
%TO.C,D145*%
X66850000Y7175000D02*
X65700000Y7175000D01*
%TO.C,D114*%
X60350000Y13700000D02*
X59200000Y13700000D01*
D12*
%TO.C,R104*%
X58622500Y21662258D02*
X58622500Y21187742D01*
X57577500Y21662258D02*
X57577500Y21187742D01*
%TO.C,R119*%
X53287500Y5907258D02*
X53287500Y5432742D01*
X54332500Y5907258D02*
X54332500Y5432742D01*
%TO.C,R118*%
X64222500Y5862742D02*
X64222500Y6337258D01*
X63177500Y5862742D02*
X63177500Y6337258D01*
D13*
%TO.C,D108*%
X57000000Y22850000D02*
X57000000Y21700000D01*
%TO.C,D134*%
X60125000Y9850000D02*
X60125000Y8700000D01*
%TO.C,D111*%
X36150000Y20100000D02*
X35000000Y20100000D01*
%TO.C,D107*%
X50650000Y20200000D02*
X49500000Y20200000D01*
%TO.C,D103*%
X65100000Y22850000D02*
X65100000Y21700000D01*
%TO.C,D125*%
X39275000Y3400000D02*
X39275000Y2250000D01*
%TO.C,D127*%
X23150000Y7300000D02*
X22000000Y7300000D01*
%TO.C,D124*%
X34400000Y9850000D02*
X34400000Y8700000D01*
%TO.C,D137*%
X48990000Y7255000D02*
X47840000Y7255000D01*
%TO.C,D148*%
X74900000Y800000D02*
X73750000Y800000D01*
%TO.C,D129*%
X39300000Y9850000D02*
X39300000Y8700000D01*
%TO.C,D123*%
X29650000Y7300000D02*
X28500000Y7300000D01*
D12*
%TO.C,R125*%
X80262742Y6572500D02*
X80737258Y6572500D01*
X80262742Y5527500D02*
X80737258Y5527500D01*
D13*
%TO.C,D116*%
X70050000Y7300000D02*
X68900000Y7300000D01*
%TO.C,D113*%
X55450000Y13700000D02*
X54300000Y13700000D01*
D12*
%TO.C,R102*%
X64377500Y13637258D02*
X64377500Y13162742D01*
X65422500Y13637258D02*
X65422500Y13162742D01*
D13*
%TO.C,D135*%
X65050000Y9850000D02*
X65050000Y8700000D01*
D12*
%TO.C,R124*%
X73222500Y5362742D02*
X73222500Y5837258D01*
X72177500Y5362742D02*
X72177500Y5837258D01*
D13*
%TO.C,D143*%
X78100000Y7200000D02*
X76950000Y7200000D01*
%TO.C,D102*%
X47350000Y13650000D02*
X46200000Y13650000D01*
%TO.C,D106*%
X43200000Y18450000D02*
X43200000Y19600000D01*
%TO.C,D133*%
X55400000Y7200000D02*
X54250000Y7200000D01*
D12*
%TO.C,R121*%
X60787258Y1622500D02*
X60312742Y1622500D01*
X60787258Y577500D02*
X60312742Y577500D01*
D13*
%TO.C,D119*%
X45760000Y790000D02*
X44610000Y790000D01*
%TD*%
%LPC*%
D14*
%TO.C,J102*%
X28100000Y15000000D03*
%TD*%
%TO.C,J101*%
X23800000Y15000000D03*
%TD*%
D15*
%TO.C,R123*%
X71200000Y4775000D03*
X71200000Y6425000D03*
%TD*%
D16*
%TO.C,R107*%
X57700000Y14225000D03*
X57700000Y12575000D03*
%TD*%
D17*
%TO.C,D132*%
X45250000Y6050000D03*
D18*
X46800000Y6050000D03*
X43700000Y6050000D03*
%TD*%
D17*
%TO.C,D126*%
X40400000Y2825000D03*
D19*
X40400000Y1275000D03*
X40400000Y4375000D03*
%TD*%
D17*
%TO.C,D117*%
X40400000Y9425000D03*
D19*
X40400000Y7875000D03*
X40400000Y10975000D03*
%TD*%
D15*
%TO.C,R120*%
X55850000Y4825000D03*
X55850000Y6475000D03*
%TD*%
D17*
%TO.C,D122*%
X32375000Y2900000D03*
D20*
X30825000Y2900000D03*
X33925000Y2900000D03*
%TD*%
D15*
%TO.C,R117*%
X60500000Y11125000D03*
X60500000Y12775000D03*
%TD*%
D17*
%TO.C,D141*%
X62950000Y2850000D03*
D18*
X64500000Y2850000D03*
X61400000Y2850000D03*
%TD*%
D21*
%TO.C,R114*%
X27875000Y1300000D03*
X29525000Y1300000D03*
%TD*%
D17*
%TO.C,D130*%
X35450000Y6075000D03*
D19*
X35450000Y4525000D03*
X35450000Y7625000D03*
%TD*%
D15*
%TO.C,R122*%
X79850000Y1725000D03*
X79850000Y3375000D03*
%TD*%
D17*
%TO.C,D138*%
X51700000Y9415000D03*
D19*
X51700000Y7865000D03*
X51700000Y10965000D03*
%TD*%
D17*
%TO.C,D136*%
X61400000Y6000000D03*
D19*
X61400000Y4450000D03*
X61400000Y7550000D03*
%TD*%
D17*
%TO.C,D139*%
X58100000Y6050000D03*
D19*
X58100000Y4500000D03*
X58100000Y7600000D03*
%TD*%
D15*
%TO.C,R113*%
X42600000Y1025000D03*
X42600000Y2675000D03*
%TD*%
D16*
%TO.C,R101*%
X44900000Y14225000D03*
X44900000Y12575000D03*
%TD*%
D15*
%TO.C,R108*%
X71500000Y7775000D03*
X71500000Y9425000D03*
%TD*%
D17*
%TO.C,D146*%
X69500000Y2900000D03*
D19*
X69500000Y1350000D03*
X69500000Y4450000D03*
%TD*%
D17*
%TO.C,D115*%
X67800000Y15800000D03*
D19*
X67800000Y14250000D03*
X67800000Y17350000D03*
%TD*%
D17*
%TO.C,D128*%
X25800000Y2800000D03*
D19*
X25800000Y1250000D03*
X25800000Y4350000D03*
%TD*%
D16*
%TO.C,R105*%
X51900000Y14225000D03*
X51900000Y12575000D03*
%TD*%
D17*
%TO.C,D147*%
X74250000Y9350000D03*
D19*
X74250000Y7800000D03*
X74250000Y10900000D03*
%TD*%
D15*
%TO.C,R115*%
X37450000Y4675000D03*
X37450000Y6325000D03*
%TD*%
%TO.C,R112*%
X33800000Y11375000D03*
X33800000Y13025000D03*
%TD*%
D16*
%TO.C,R103*%
X42300000Y18825000D03*
X42300000Y17175000D03*
%TD*%
D15*
%TO.C,R109*%
X47550000Y1825000D03*
X47550000Y3475000D03*
%TD*%
D17*
%TO.C,D104*%
X63000000Y15800000D03*
D19*
X63000000Y14250000D03*
X63000000Y17350000D03*
%TD*%
D17*
%TO.C,D112*%
X38700000Y15800000D03*
D19*
X38700000Y14250000D03*
X38700000Y17350000D03*
%TD*%
D16*
%TO.C,R106*%
X36600000Y14225000D03*
X36600000Y12575000D03*
%TD*%
%TO.C,R111*%
X29050000Y4525000D03*
X29050000Y2875000D03*
%TD*%
D17*
%TO.C,D140*%
X58200000Y2900000D03*
D20*
X56650000Y2900000D03*
X59750000Y2900000D03*
%TD*%
D17*
%TO.C,D105*%
X46800000Y22300000D03*
D19*
X46800000Y20750000D03*
X46800000Y23850000D03*
%TD*%
D17*
%TO.C,D118*%
X40400000Y6050000D03*
D18*
X41950000Y6050000D03*
X38850000Y6050000D03*
%TD*%
D17*
%TO.C,D120*%
X51680000Y2890000D03*
D19*
X51680000Y1340000D03*
X51680000Y4440000D03*
%TD*%
D17*
%TO.C,D101*%
X42000000Y22200000D03*
D19*
X42000000Y20650000D03*
X42000000Y23750000D03*
%TD*%
D17*
%TO.C,D109*%
X51600000Y19000000D03*
D18*
X53150000Y19000000D03*
X50050000Y19000000D03*
%TD*%
D15*
%TO.C,R110*%
X53800000Y1545000D03*
X53800000Y3195000D03*
%TD*%
D17*
%TO.C,D110*%
X50100000Y15800000D03*
D19*
X50100000Y14250000D03*
X50100000Y17350000D03*
%TD*%
D17*
%TO.C,D142*%
X66250000Y2800000D03*
D19*
X66250000Y1250000D03*
X66250000Y4350000D03*
%TD*%
D17*
%TO.C,D131*%
X45125000Y9250000D03*
D18*
X46675000Y9250000D03*
X43575000Y9250000D03*
%TD*%
D16*
%TO.C,R116*%
X49100000Y3475000D03*
X49100000Y1825000D03*
%TD*%
D17*
%TO.C,D149*%
X80750000Y9350000D03*
D19*
X80750000Y7800000D03*
X80750000Y10900000D03*
%TD*%
D17*
%TO.C,D144*%
X77550000Y3025000D03*
D19*
X77550000Y1475000D03*
X77550000Y4575000D03*
%TD*%
D17*
%TO.C,D121*%
X32300000Y6075000D03*
D19*
X32300000Y4525000D03*
X32300000Y7625000D03*
%TD*%
D17*
%TO.C,D145*%
X66300000Y9275000D03*
D19*
X66300000Y7725000D03*
X66300000Y10825000D03*
%TD*%
D17*
%TO.C,D114*%
X59800000Y15800000D03*
D19*
X59800000Y14250000D03*
X59800000Y17350000D03*
%TD*%
D16*
%TO.C,R104*%
X58100000Y22250000D03*
X58100000Y20600000D03*
%TD*%
%TO.C,R119*%
X53810000Y6495000D03*
X53810000Y4845000D03*
%TD*%
D15*
%TO.C,R118*%
X63700000Y5275000D03*
X63700000Y6925000D03*
%TD*%
D17*
%TO.C,D108*%
X54900000Y22300000D03*
D18*
X56450000Y22300000D03*
X53350000Y22300000D03*
%TD*%
D17*
%TO.C,D134*%
X58025000Y9300000D03*
D18*
X59575000Y9300000D03*
X56475000Y9300000D03*
%TD*%
D17*
%TO.C,D111*%
X35600000Y22200000D03*
D19*
X35600000Y20650000D03*
X35600000Y23750000D03*
%TD*%
D17*
%TO.C,D107*%
X50100000Y22300000D03*
D19*
X50100000Y20750000D03*
X50100000Y23850000D03*
%TD*%
D17*
%TO.C,D103*%
X63000000Y22300000D03*
D18*
X64550000Y22300000D03*
X61450000Y22300000D03*
%TD*%
D17*
%TO.C,D125*%
X37175000Y2850000D03*
D18*
X38725000Y2850000D03*
X35625000Y2850000D03*
%TD*%
D17*
%TO.C,D127*%
X22600000Y9400000D03*
D19*
X22600000Y7850000D03*
X22600000Y10950000D03*
%TD*%
D17*
%TO.C,D124*%
X32300000Y9300000D03*
D18*
X33850000Y9300000D03*
X30750000Y9300000D03*
%TD*%
D17*
%TO.C,D137*%
X48440000Y9355000D03*
D19*
X48440000Y7805000D03*
X48440000Y10905000D03*
%TD*%
D17*
%TO.C,D148*%
X74350000Y2900000D03*
D19*
X74350000Y1350000D03*
X74350000Y4450000D03*
%TD*%
D17*
%TO.C,D129*%
X37200000Y9300000D03*
D18*
X38750000Y9300000D03*
X35650000Y9300000D03*
%TD*%
D17*
%TO.C,D123*%
X29100000Y9400000D03*
D19*
X29100000Y7850000D03*
X29100000Y10950000D03*
%TD*%
D21*
%TO.C,R125*%
X79675000Y6050000D03*
X81325000Y6050000D03*
%TD*%
D17*
%TO.C,D116*%
X69500000Y9400000D03*
D19*
X69500000Y7850000D03*
X69500000Y10950000D03*
%TD*%
D17*
%TO.C,D113*%
X54900000Y15800000D03*
D19*
X54900000Y14250000D03*
X54900000Y17350000D03*
%TD*%
D16*
%TO.C,R102*%
X64900000Y14225000D03*
X64900000Y12575000D03*
%TD*%
D17*
%TO.C,D135*%
X62950000Y9300000D03*
D18*
X64500000Y9300000D03*
X61400000Y9300000D03*
%TD*%
D15*
%TO.C,R124*%
X72700000Y4775000D03*
X72700000Y6425000D03*
%TD*%
D17*
%TO.C,D143*%
X77550000Y9300000D03*
D19*
X77550000Y7750000D03*
X77550000Y10850000D03*
%TD*%
D17*
%TO.C,D102*%
X46800000Y15750000D03*
D19*
X46800000Y14200000D03*
X46800000Y17300000D03*
%TD*%
D17*
%TO.C,D106*%
X45300000Y19000000D03*
D20*
X43750000Y19000000D03*
X46850000Y19000000D03*
%TD*%
D17*
%TO.C,D133*%
X54850000Y9300000D03*
D19*
X54850000Y7750000D03*
X54850000Y10850000D03*
%TD*%
D22*
%TO.C,R121*%
X61375000Y1100000D03*
X59725000Y1100000D03*
%TD*%
D17*
%TO.C,D119*%
X45210000Y2890000D03*
D19*
X45210000Y1340000D03*
X45210000Y4440000D03*
%TD*%
M02*
