%TF.GenerationSoftware,KiCad,Pcbnew,6.0.0-rc1-unknown-65cbf2d2b7~144~ubuntu18.04.1*%
%TF.CreationDate,2022-01-27T22:01:49+01:00*%
%TF.ProjectId,voll_verteilt,766f6c6c-5f76-4657-9274-65696c742e6b,rev?*%
%TF.SameCoordinates,PX52f83c0PY660b0c0*%
%TF.FileFunction,Soldermask,Bot*%
%TF.FilePolarity,Negative*%
%FSLAX46Y46*%
G04 Gerber Fmt 4.6, Leading zero omitted, Abs format (unit mm)*
G04 Created by KiCad (PCBNEW 6.0.0-rc1-unknown-65cbf2d2b7~144~ubuntu18.04.1) date 2022-01-27 22:01:49*
%MOMM*%
%LPD*%
G01*
G04 APERTURE LIST*
G04 Aperture macros list*
%AMRoundRect*
0 Rectangle with rounded corners*
0 $1 Rounding radius*
0 $2 $3 $4 $5 $6 $7 $8 $9 X,Y pos of 4 corners*
0 Add a 4 corners polygon primitive as box body*
4,1,4,$2,$3,$4,$5,$6,$7,$8,$9,$2,$3,0*
0 Add four circle primitives for the rounded corners*
1,1,$1+$1,$2,$3*
1,1,$1+$1,$4,$5*
1,1,$1+$1,$6,$7*
1,1,$1+$1,$8,$9*
0 Add four rect primitives between the rounded corners*
20,1,$1+$1,$2,$3,$4,$5,0*
20,1,$1+$1,$4,$5,$6,$7,0*
20,1,$1+$1,$6,$7,$8,$9,0*
20,1,$1+$1,$8,$9,$2,$3,0*%
G04 Aperture macros list end*
%ADD10RoundRect,0.750000X0.750000X-1.750000X0.750000X1.750000X-0.750000X1.750000X-0.750000X-1.750000X0*%
%ADD11RoundRect,0.200000X0.275000X-0.200000X0.275000X0.200000X-0.275000X0.200000X-0.275000X-0.200000X0*%
%ADD12RoundRect,0.200000X-0.275000X0.200000X-0.275000X-0.200000X0.275000X-0.200000X0.275000X0.200000X0*%
%ADD13C,0.100000*%
%ADD14RoundRect,0.200000X0.200000X-0.600000X0.200000X0.600000X-0.200000X0.600000X-0.200000X-0.600000X0*%
%ADD15RoundRect,0.200000X-0.600000X-0.200000X0.600000X-0.200000X0.600000X0.200000X-0.600000X0.200000X0*%
%ADD16RoundRect,0.200000X-0.200000X0.600000X-0.200000X-0.600000X0.200000X-0.600000X0.200000X0.600000X0*%
%ADD17RoundRect,0.200000X-0.200000X-0.275000X0.200000X-0.275000X0.200000X0.275000X-0.200000X0.275000X0*%
%ADD18RoundRect,0.200000X0.200000X0.275000X-0.200000X0.275000X-0.200000X-0.275000X0.200000X-0.275000X0*%
G04 APERTURE END LIST*
D10*
%TO.C,J102*%
X28100000Y15000000D03*
%TD*%
%TO.C,J101*%
X23800000Y15000000D03*
%TD*%
D11*
%TO.C,R123*%
X71200000Y4775000D03*
X71200000Y6425000D03*
%TD*%
D12*
%TO.C,R107*%
X57700000Y14225000D03*
X57700000Y12575000D03*
%TD*%
D13*
%TO.C,D132*%
X45250000Y6050000D03*
D14*
X46800000Y6050000D03*
X43700000Y6050000D03*
%TD*%
D13*
%TO.C,D126*%
X40400000Y2825000D03*
D15*
X40400000Y1275000D03*
X40400000Y4375000D03*
%TD*%
D13*
%TO.C,D117*%
X40400000Y9425000D03*
D15*
X40400000Y7875000D03*
X40400000Y10975000D03*
%TD*%
D11*
%TO.C,R120*%
X55850000Y4825000D03*
X55850000Y6475000D03*
%TD*%
D13*
%TO.C,D122*%
X32375000Y2900000D03*
D16*
X30825000Y2900000D03*
X33925000Y2900000D03*
%TD*%
D11*
%TO.C,R117*%
X60500000Y11125000D03*
X60500000Y12775000D03*
%TD*%
D13*
%TO.C,D141*%
X62950000Y2850000D03*
D14*
X64500000Y2850000D03*
X61400000Y2850000D03*
%TD*%
D17*
%TO.C,R114*%
X27875000Y1300000D03*
X29525000Y1300000D03*
%TD*%
D13*
%TO.C,D130*%
X35450000Y6075000D03*
D15*
X35450000Y4525000D03*
X35450000Y7625000D03*
%TD*%
D11*
%TO.C,R122*%
X79850000Y1725000D03*
X79850000Y3375000D03*
%TD*%
D13*
%TO.C,D138*%
X51700000Y9415000D03*
D15*
X51700000Y7865000D03*
X51700000Y10965000D03*
%TD*%
D13*
%TO.C,D136*%
X61400000Y6000000D03*
D15*
X61400000Y4450000D03*
X61400000Y7550000D03*
%TD*%
D13*
%TO.C,D139*%
X58100000Y6050000D03*
D15*
X58100000Y4500000D03*
X58100000Y7600000D03*
%TD*%
D11*
%TO.C,R113*%
X42600000Y1025000D03*
X42600000Y2675000D03*
%TD*%
D12*
%TO.C,R101*%
X44900000Y14225000D03*
X44900000Y12575000D03*
%TD*%
D11*
%TO.C,R108*%
X71500000Y7775000D03*
X71500000Y9425000D03*
%TD*%
D13*
%TO.C,D146*%
X69500000Y2900000D03*
D15*
X69500000Y1350000D03*
X69500000Y4450000D03*
%TD*%
D13*
%TO.C,D115*%
X67800000Y15800000D03*
D15*
X67800000Y14250000D03*
X67800000Y17350000D03*
%TD*%
D13*
%TO.C,D128*%
X25800000Y2800000D03*
D15*
X25800000Y1250000D03*
X25800000Y4350000D03*
%TD*%
D12*
%TO.C,R105*%
X51900000Y14225000D03*
X51900000Y12575000D03*
%TD*%
D13*
%TO.C,D147*%
X74250000Y9350000D03*
D15*
X74250000Y7800000D03*
X74250000Y10900000D03*
%TD*%
D11*
%TO.C,R115*%
X37450000Y4675000D03*
X37450000Y6325000D03*
%TD*%
%TO.C,R112*%
X33800000Y11375000D03*
X33800000Y13025000D03*
%TD*%
D12*
%TO.C,R103*%
X42300000Y18825000D03*
X42300000Y17175000D03*
%TD*%
D11*
%TO.C,R109*%
X47550000Y1825000D03*
X47550000Y3475000D03*
%TD*%
D13*
%TO.C,D104*%
X63000000Y15800000D03*
D15*
X63000000Y14250000D03*
X63000000Y17350000D03*
%TD*%
D13*
%TO.C,D112*%
X38700000Y15800000D03*
D15*
X38700000Y14250000D03*
X38700000Y17350000D03*
%TD*%
D12*
%TO.C,R106*%
X36600000Y14225000D03*
X36600000Y12575000D03*
%TD*%
%TO.C,R111*%
X29050000Y4525000D03*
X29050000Y2875000D03*
%TD*%
D13*
%TO.C,D140*%
X58200000Y2900000D03*
D16*
X56650000Y2900000D03*
X59750000Y2900000D03*
%TD*%
D13*
%TO.C,D105*%
X46800000Y22300000D03*
D15*
X46800000Y20750000D03*
X46800000Y23850000D03*
%TD*%
D13*
%TO.C,D118*%
X40400000Y6050000D03*
D14*
X41950000Y6050000D03*
X38850000Y6050000D03*
%TD*%
D13*
%TO.C,D120*%
X51680000Y2890000D03*
D15*
X51680000Y1340000D03*
X51680000Y4440000D03*
%TD*%
D13*
%TO.C,D101*%
X42000000Y22200000D03*
D15*
X42000000Y20650000D03*
X42000000Y23750000D03*
%TD*%
D13*
%TO.C,D109*%
X51600000Y19000000D03*
D14*
X53150000Y19000000D03*
X50050000Y19000000D03*
%TD*%
D11*
%TO.C,R110*%
X53800000Y1545000D03*
X53800000Y3195000D03*
%TD*%
D13*
%TO.C,D110*%
X50100000Y15800000D03*
D15*
X50100000Y14250000D03*
X50100000Y17350000D03*
%TD*%
D13*
%TO.C,D142*%
X66250000Y2800000D03*
D15*
X66250000Y1250000D03*
X66250000Y4350000D03*
%TD*%
D13*
%TO.C,D131*%
X45125000Y9250000D03*
D14*
X46675000Y9250000D03*
X43575000Y9250000D03*
%TD*%
D12*
%TO.C,R116*%
X49100000Y3475000D03*
X49100000Y1825000D03*
%TD*%
D13*
%TO.C,D149*%
X80750000Y9350000D03*
D15*
X80750000Y7800000D03*
X80750000Y10900000D03*
%TD*%
D13*
%TO.C,D144*%
X77550000Y3025000D03*
D15*
X77550000Y1475000D03*
X77550000Y4575000D03*
%TD*%
D13*
%TO.C,D121*%
X32300000Y6075000D03*
D15*
X32300000Y4525000D03*
X32300000Y7625000D03*
%TD*%
D13*
%TO.C,D145*%
X66300000Y9275000D03*
D15*
X66300000Y7725000D03*
X66300000Y10825000D03*
%TD*%
D13*
%TO.C,D114*%
X59800000Y15800000D03*
D15*
X59800000Y14250000D03*
X59800000Y17350000D03*
%TD*%
D12*
%TO.C,R104*%
X58100000Y22250000D03*
X58100000Y20600000D03*
%TD*%
%TO.C,R119*%
X53810000Y6495000D03*
X53810000Y4845000D03*
%TD*%
D11*
%TO.C,R118*%
X63700000Y5275000D03*
X63700000Y6925000D03*
%TD*%
D13*
%TO.C,D108*%
X54900000Y22300000D03*
D14*
X56450000Y22300000D03*
X53350000Y22300000D03*
%TD*%
D13*
%TO.C,D134*%
X58025000Y9300000D03*
D14*
X59575000Y9300000D03*
X56475000Y9300000D03*
%TD*%
D13*
%TO.C,D111*%
X35600000Y22200000D03*
D15*
X35600000Y20650000D03*
X35600000Y23750000D03*
%TD*%
D13*
%TO.C,D107*%
X50100000Y22300000D03*
D15*
X50100000Y20750000D03*
X50100000Y23850000D03*
%TD*%
D13*
%TO.C,D103*%
X63000000Y22300000D03*
D14*
X64550000Y22300000D03*
X61450000Y22300000D03*
%TD*%
D13*
%TO.C,D125*%
X37175000Y2850000D03*
D14*
X38725000Y2850000D03*
X35625000Y2850000D03*
%TD*%
D13*
%TO.C,D127*%
X22600000Y9400000D03*
D15*
X22600000Y7850000D03*
X22600000Y10950000D03*
%TD*%
D13*
%TO.C,D124*%
X32300000Y9300000D03*
D14*
X33850000Y9300000D03*
X30750000Y9300000D03*
%TD*%
D13*
%TO.C,D137*%
X48440000Y9355000D03*
D15*
X48440000Y7805000D03*
X48440000Y10905000D03*
%TD*%
D13*
%TO.C,D148*%
X74350000Y2900000D03*
D15*
X74350000Y1350000D03*
X74350000Y4450000D03*
%TD*%
D13*
%TO.C,D129*%
X37200000Y9300000D03*
D14*
X38750000Y9300000D03*
X35650000Y9300000D03*
%TD*%
D13*
%TO.C,D123*%
X29100000Y9400000D03*
D15*
X29100000Y7850000D03*
X29100000Y10950000D03*
%TD*%
D17*
%TO.C,R125*%
X79675000Y6050000D03*
X81325000Y6050000D03*
%TD*%
D13*
%TO.C,D116*%
X69500000Y9400000D03*
D15*
X69500000Y7850000D03*
X69500000Y10950000D03*
%TD*%
D13*
%TO.C,D113*%
X54900000Y15800000D03*
D15*
X54900000Y14250000D03*
X54900000Y17350000D03*
%TD*%
D12*
%TO.C,R102*%
X64900000Y14225000D03*
X64900000Y12575000D03*
%TD*%
D13*
%TO.C,D135*%
X62950000Y9300000D03*
D14*
X64500000Y9300000D03*
X61400000Y9300000D03*
%TD*%
D11*
%TO.C,R124*%
X72700000Y4775000D03*
X72700000Y6425000D03*
%TD*%
D13*
%TO.C,D143*%
X77550000Y9300000D03*
D15*
X77550000Y7750000D03*
X77550000Y10850000D03*
%TD*%
D13*
%TO.C,D102*%
X46800000Y15750000D03*
D15*
X46800000Y14200000D03*
X46800000Y17300000D03*
%TD*%
D13*
%TO.C,D106*%
X45300000Y19000000D03*
D16*
X43750000Y19000000D03*
X46850000Y19000000D03*
%TD*%
D13*
%TO.C,D133*%
X54850000Y9300000D03*
D15*
X54850000Y7750000D03*
X54850000Y10850000D03*
%TD*%
D18*
%TO.C,R121*%
X61375000Y1100000D03*
X59725000Y1100000D03*
%TD*%
D13*
%TO.C,D119*%
X45210000Y2890000D03*
D15*
X45210000Y1340000D03*
X45210000Y4440000D03*
%TD*%
M02*
