%TF.GenerationSoftware,KiCad,Pcbnew,6.0.0-rc1-unknown-65cbf2d2b7~144~ubuntu18.04.1*%
%TF.CreationDate,2022-01-27T22:01:49+01:00*%
%TF.ProjectId,voll_verteilt,766f6c6c-5f76-4657-9274-65696c742e6b,rev?*%
%TF.SameCoordinates,PX52f83c0PY660b0c0*%
%TF.FileFunction,Soldermask,Top*%
%TF.FilePolarity,Negative*%
%FSLAX46Y46*%
G04 Gerber Fmt 4.6, Leading zero omitted, Abs format (unit mm)*
G04 Created by KiCad (PCBNEW 6.0.0-rc1-unknown-65cbf2d2b7~144~ubuntu18.04.1) date 2022-01-27 22:01:49*
%MOMM*%
%LPD*%
G01*
G04 APERTURE LIST*
%ADD10C,0.500000*%
%ADD11C,0.090994*%
%ADD12C,0.100000*%
G04 APERTURE END LIST*
D10*
X63000000Y22300000D02*
X63000000Y15700000D01*
X58150000Y6050000D02*
X58150000Y2900000D01*
X48500000Y9350000D02*
X55100000Y9350000D01*
D11*
X17784956Y2081654D02*
X17952773Y2153337D01*
X17952773Y2153337D02*
X18121817Y2232598D01*
X18121817Y2232598D02*
X18292249Y2319553D01*
X18292249Y2319553D02*
X18464228Y2414317D01*
X18464228Y2414317D02*
X18637911Y2517006D01*
X18637911Y2517006D02*
X18813459Y2627734D01*
X18813459Y2627734D02*
X18991029Y2746618D01*
X18991029Y2746618D02*
X19170782Y2873772D01*
X19170782Y2873772D02*
X19352876Y3009312D01*
X19352876Y3009312D02*
X19537470Y3153354D01*
X19537470Y3153354D02*
X19724722Y3306013D01*
X19724722Y3306013D02*
X19914793Y3467403D01*
X19914793Y3467403D02*
X20107841Y3637642D01*
X20107841Y3637642D02*
X20304024Y3816843D01*
X20304024Y3816843D02*
X20503502Y4005122D01*
X20503502Y4005122D02*
X20706434Y4202595D01*
X20706434Y4202595D02*
X20897359Y4392773D01*
X20897359Y4392773D02*
X21069510Y4568130D01*
X21069510Y4568130D02*
X21223777Y4730068D01*
X21223777Y4730068D02*
X21361052Y4879994D01*
X21361052Y4879994D02*
X21482225Y5019311D01*
X21482225Y5019311D02*
X21588187Y5149424D01*
X21588187Y5149424D02*
X21679830Y5271736D01*
X21679830Y5271736D02*
X21758043Y5387654D01*
X21758043Y5387654D02*
X21823719Y5498580D01*
X21823719Y5498580D02*
X21877747Y5605920D01*
X21877747Y5605920D02*
X21921019Y5711077D01*
X21921019Y5711077D02*
X21954425Y5815457D01*
X21954425Y5815457D02*
X21978857Y5920463D01*
X21978857Y5920463D02*
X21995206Y6027500D01*
X21995206Y6027500D02*
X22004362Y6137973D01*
X22004362Y6137973D02*
X22007216Y6253285D01*
X22007216Y6253285D02*
X22006268Y6303800D01*
X22006268Y6303800D02*
X22003438Y6352852D01*
X22003438Y6352852D02*
X21998746Y6400423D01*
X21998746Y6400423D02*
X21992209Y6446496D01*
X21992209Y6446496D02*
X21983847Y6491052D01*
X21983847Y6491052D02*
X21973680Y6534075D01*
X21973680Y6534075D02*
X21961725Y6575546D01*
X21961725Y6575546D02*
X21948004Y6615447D01*
X21948004Y6615447D02*
X21932534Y6653762D01*
X21932534Y6653762D02*
X21915334Y6690473D01*
X21915334Y6690473D02*
X21896425Y6725561D01*
X21896425Y6725561D02*
X21875824Y6759009D01*
X21875824Y6759009D02*
X21853551Y6790800D01*
X21853551Y6790800D02*
X21829625Y6820915D01*
X21829625Y6820915D02*
X21804066Y6849338D01*
X21804066Y6849338D02*
X21776892Y6876049D01*
X21776892Y6876049D02*
X21748122Y6901033D01*
X21748122Y6901033D02*
X21717776Y6924271D01*
X21717776Y6924271D02*
X21685872Y6945745D01*
X21685872Y6945745D02*
X21652431Y6965438D01*
X21652431Y6965438D02*
X21617470Y6983332D01*
X21617470Y6983332D02*
X21581009Y6999410D01*
X21581009Y6999410D02*
X21543068Y7013653D01*
X21543068Y7013653D02*
X21503664Y7026044D01*
X21503664Y7026044D02*
X21462818Y7036566D01*
X21462818Y7036566D02*
X21420548Y7045201D01*
X21420548Y7045201D02*
X21376874Y7051930D01*
X21376874Y7051930D02*
X21331815Y7056737D01*
X21331815Y7056737D02*
X21285389Y7059604D01*
X21285389Y7059604D02*
X21237616Y7060512D01*
X21237616Y7060512D02*
X21188515Y7059446D01*
X21188515Y7059446D02*
X21138105Y7056385D01*
X21138105Y7056385D02*
X20733290Y7024189D01*
X20733290Y7024189D02*
X20733290Y7353810D01*
X20733290Y7353810D02*
X20732402Y7390887D01*
X20732402Y7390887D02*
X20729780Y7428618D01*
X20729780Y7428618D02*
X20725482Y7466820D01*
X20725482Y7466820D02*
X20719571Y7505310D01*
X20719571Y7505310D02*
X20712106Y7543905D01*
X20712106Y7543905D02*
X20703147Y7582423D01*
X20703147Y7582423D02*
X20692755Y7620681D01*
X20692755Y7620681D02*
X20680990Y7658497D01*
X20680990Y7658497D02*
X20667913Y7695688D01*
X20667913Y7695688D02*
X20653583Y7732071D01*
X20653583Y7732071D02*
X20638062Y7767464D01*
X20638062Y7767464D02*
X20621409Y7801683D01*
X20621409Y7801683D02*
X20603686Y7834547D01*
X20603686Y7834547D02*
X20584951Y7865872D01*
X20584951Y7865872D02*
X20565266Y7895476D01*
X20565266Y7895476D02*
X20544691Y7923176D01*
X20544691Y7923176D02*
X20515608Y7959001D01*
X20515608Y7959001D02*
X20487340Y7991201D01*
X20487340Y7991201D02*
X20473361Y8005999D01*
X20473361Y8005999D02*
X20459406Y8019959D01*
X20459406Y8019959D02*
X20445414Y8033103D01*
X20445414Y8033103D02*
X20431325Y8045454D01*
X20431325Y8045454D02*
X20417080Y8057036D01*
X20417080Y8057036D02*
X20402617Y8067870D01*
X20402617Y8067870D02*
X20387876Y8077979D01*
X20387876Y8077979D02*
X20372799Y8087385D01*
X20372799Y8087385D02*
X20357323Y8096113D01*
X20357323Y8096113D02*
X20341390Y8104183D01*
X20341390Y8104183D02*
X20324938Y8111619D01*
X20324938Y8111619D02*
X20307909Y8118443D01*
X20307909Y8118443D02*
X20290241Y8124678D01*
X20290241Y8124678D02*
X20271875Y8130347D01*
X20271875Y8130347D02*
X20252751Y8135472D01*
X20252751Y8135472D02*
X20232807Y8140076D01*
X20232807Y8140076D02*
X20211985Y8144182D01*
X20211985Y8144182D02*
X20190223Y8147812D01*
X20190223Y8147812D02*
X20167463Y8150989D01*
X20167463Y8150989D02*
X20143643Y8153735D01*
X20143643Y8153735D02*
X20092584Y8158026D01*
X20092584Y8158026D02*
X20036567Y8160867D01*
X20036567Y8160867D02*
X19975108Y8162439D01*
X19975108Y8162439D02*
X19907728Y8162922D01*
X19907728Y8162922D02*
X19459364Y8162922D01*
X19459364Y8162922D02*
X19459364Y8481404D01*
X19459364Y8481404D02*
X19457757Y8537822D01*
X19457757Y8537822D02*
X19452987Y8592299D01*
X19452987Y8592299D02*
X19445134Y8644795D01*
X19445134Y8644795D02*
X19434276Y8695268D01*
X19434276Y8695268D02*
X19420490Y8743679D01*
X19420490Y8743679D02*
X19403855Y8789985D01*
X19403855Y8789985D02*
X19384450Y8834148D01*
X19384450Y8834148D02*
X19362352Y8876124D01*
X19362352Y8876124D02*
X19337640Y8915875D01*
X19337640Y8915875D02*
X19310393Y8953359D01*
X19310393Y8953359D02*
X19280689Y8988536D01*
X19280689Y8988536D02*
X19248605Y9021364D01*
X19248605Y9021364D02*
X19214221Y9051803D01*
X19214221Y9051803D02*
X19177614Y9079813D01*
X19177614Y9079813D02*
X19138864Y9105352D01*
X19138864Y9105352D02*
X19098047Y9128380D01*
X19098047Y9128380D02*
X19055243Y9148856D01*
X19055243Y9148856D02*
X19010531Y9166740D01*
X19010531Y9166740D02*
X18963987Y9181990D01*
X18963987Y9181990D02*
X18915691Y9194565D01*
X18915691Y9194565D02*
X18865720Y9204426D01*
X18865720Y9204426D02*
X18814154Y9211531D01*
X18814154Y9211531D02*
X18761070Y9215840D01*
X18761070Y9215840D02*
X18706547Y9217312D01*
X18706547Y9217312D02*
X18650663Y9215906D01*
X18650663Y9215906D02*
X18593497Y9211581D01*
X18593497Y9211581D02*
X18535126Y9204297D01*
X18535126Y9204297D02*
X18475629Y9194012D01*
X18475629Y9194012D02*
X18415085Y9180687D01*
X18415085Y9180687D02*
X18353571Y9164280D01*
X18353571Y9164280D02*
X18291167Y9144751D01*
X18291167Y9144751D02*
X18227949Y9122059D01*
X18227949Y9122059D02*
X18135686Y9083687D01*
X18135686Y9083687D02*
X18046484Y9039790D01*
X18046484Y9039790D02*
X18002781Y9015484D01*
X18002781Y9015484D02*
X17959543Y8989453D01*
X17959543Y8989453D02*
X17916672Y8961581D01*
X17916672Y8961581D02*
X17874068Y8931755D01*
X17874068Y8931755D02*
X17831630Y8899858D01*
X17831630Y8899858D02*
X17789259Y8865778D01*
X17789259Y8865778D02*
X17746855Y8829398D01*
X17746855Y8829398D02*
X17704319Y8790604D01*
X17704319Y8790604D02*
X17618451Y8705314D01*
X17618451Y8705314D02*
X17530855Y8608990D01*
X17530855Y8608990D02*
X17440735Y8500714D01*
X17440735Y8500714D02*
X17347293Y8379566D01*
X17347293Y8379566D02*
X17249731Y8244629D01*
X17249731Y8244629D02*
X17147251Y8094984D01*
X17147251Y8094984D02*
X17039055Y7929712D01*
X17039055Y7929712D02*
X16924345Y7747895D01*
X16924345Y7747895D02*
X16802324Y7548614D01*
X16802324Y7548614D02*
X16672194Y7330952D01*
X16672194Y7330952D02*
X16194535Y6493872D01*
X16194535Y6493872D02*
X15981831Y6097251D01*
X15981831Y6097251D02*
X15786841Y5716050D01*
X15786841Y5716050D02*
X15609790Y5350875D01*
X15609790Y5350875D02*
X15450902Y5002333D01*
X15450902Y5002333D02*
X15310400Y4671028D01*
X15310400Y4671028D02*
X15188509Y4357567D01*
X15188509Y4357567D02*
X15085452Y4062556D01*
X15085452Y4062556D02*
X15001454Y3786600D01*
X15001454Y3786600D02*
X14936738Y3530306D01*
X14936738Y3530306D02*
X14891529Y3294279D01*
X14891529Y3294279D02*
X14866049Y3079125D01*
X14866049Y3079125D02*
X14860524Y2885450D01*
X14860524Y2885450D02*
X14875176Y2713860D01*
X14875176Y2713860D02*
X14910231Y2564961D01*
X14910231Y2564961D02*
X14936885Y2495675D01*
X14936885Y2495675D02*
X14969948Y2429492D01*
X14969948Y2429492D02*
X15009187Y2366452D01*
X15009187Y2366452D02*
X15054369Y2306594D01*
X15054369Y2306594D02*
X15105261Y2249957D01*
X15105261Y2249957D02*
X15161628Y2196580D01*
X15161628Y2196580D02*
X15223238Y2146503D01*
X15223238Y2146503D02*
X15289857Y2099764D01*
X15289857Y2099764D02*
X15361253Y2056403D01*
X15361253Y2056403D02*
X15437191Y2016459D01*
X15437191Y2016459D02*
X15517439Y1979972D01*
X15517439Y1979972D02*
X15601763Y1946981D01*
X15601763Y1946981D02*
X15689929Y1917524D01*
X15689929Y1917524D02*
X15781705Y1891641D01*
X15781705Y1891641D02*
X15876858Y1869371D01*
X15876858Y1869371D02*
X15975153Y1850754D01*
X15975153Y1850754D02*
X16076358Y1835829D01*
X16076358Y1835829D02*
X16180239Y1824634D01*
X16180239Y1824634D02*
X16286563Y1817210D01*
X16286563Y1817210D02*
X16395096Y1813595D01*
X16395096Y1813595D02*
X16505606Y1813829D01*
X16505606Y1813829D02*
X16617859Y1817950D01*
X16617859Y1817950D02*
X16731622Y1825999D01*
X16731622Y1825999D02*
X16846661Y1838014D01*
X16846661Y1838014D02*
X16962743Y1854034D01*
X16962743Y1854034D02*
X17079635Y1874099D01*
X17079635Y1874099D02*
X17197103Y1898248D01*
X17197103Y1898248D02*
X17314915Y1926520D01*
X17314915Y1926520D02*
X17432836Y1958954D01*
X17432836Y1958954D02*
X17550634Y1995590D01*
X17550634Y1995590D02*
X17668075Y2036467D01*
X17668075Y2036467D02*
X17784925Y2081624D01*
X17784925Y2081624D02*
X17784956Y2081654D01*
X17784956Y2081654D02*
X17784956Y2081654D01*
G36*
X18761070Y9215840D02*
G01*
X18814154Y9211531D01*
X18865720Y9204426D01*
X18915691Y9194565D01*
X18963987Y9181990D01*
X19010531Y9166740D01*
X19055243Y9148856D01*
X19098047Y9128380D01*
X19138864Y9105352D01*
X19177614Y9079813D01*
X19214221Y9051803D01*
X19248605Y9021364D01*
X19280689Y8988536D01*
X19310393Y8953359D01*
X19337640Y8915875D01*
X19362352Y8876124D01*
X19384450Y8834148D01*
X19403855Y8789985D01*
X19420490Y8743679D01*
X19434276Y8695268D01*
X19445134Y8644795D01*
X19452987Y8592299D01*
X19457757Y8537822D01*
X19459364Y8481404D01*
X19459364Y8162922D01*
X19907728Y8162922D01*
X19975108Y8162439D01*
X20036567Y8160867D01*
X20092584Y8158026D01*
X20143643Y8153735D01*
X20167463Y8150989D01*
X20190223Y8147812D01*
X20211985Y8144182D01*
X20232807Y8140076D01*
X20252751Y8135472D01*
X20271875Y8130347D01*
X20290241Y8124678D01*
X20307909Y8118443D01*
X20324938Y8111619D01*
X20341390Y8104183D01*
X20357323Y8096113D01*
X20372799Y8087385D01*
X20387876Y8077979D01*
X20402617Y8067870D01*
X20417080Y8057036D01*
X20431325Y8045454D01*
X20445414Y8033103D01*
X20459406Y8019959D01*
X20473361Y8005999D01*
X20487340Y7991201D01*
X20515608Y7959001D01*
X20544691Y7923176D01*
X20565266Y7895476D01*
X20584951Y7865872D01*
X20603686Y7834547D01*
X20621409Y7801683D01*
X20638062Y7767464D01*
X20653583Y7732071D01*
X20667913Y7695688D01*
X20680990Y7658497D01*
X20692755Y7620681D01*
X20703147Y7582423D01*
X20712106Y7543905D01*
X20719571Y7505310D01*
X20725482Y7466820D01*
X20729780Y7428618D01*
X20732402Y7390887D01*
X20733290Y7353810D01*
X20733290Y7024189D01*
X21138105Y7056385D01*
X21188515Y7059446D01*
X21237616Y7060512D01*
X21285389Y7059604D01*
X21331815Y7056737D01*
X21376874Y7051930D01*
X21420548Y7045201D01*
X21462818Y7036566D01*
X21503664Y7026044D01*
X21543068Y7013653D01*
X21581009Y6999410D01*
X21617470Y6983332D01*
X21652431Y6965438D01*
X21685872Y6945745D01*
X21717776Y6924271D01*
X21748122Y6901033D01*
X21776892Y6876049D01*
X21804066Y6849338D01*
X21829625Y6820915D01*
X21853551Y6790800D01*
X21875824Y6759009D01*
X21896425Y6725561D01*
X21915334Y6690473D01*
X21932534Y6653762D01*
X21948004Y6615447D01*
X21961725Y6575546D01*
X21973680Y6534075D01*
X21983847Y6491052D01*
X21992209Y6446496D01*
X21998746Y6400423D01*
X22003438Y6352852D01*
X22006268Y6303800D01*
X22007216Y6253285D01*
X22004362Y6137973D01*
X21995206Y6027500D01*
X21978857Y5920463D01*
X21954425Y5815457D01*
X21921019Y5711077D01*
X21877747Y5605920D01*
X21823719Y5498580D01*
X21758043Y5387654D01*
X21679830Y5271736D01*
X21588187Y5149424D01*
X21482225Y5019311D01*
X21361052Y4879994D01*
X21223777Y4730068D01*
X21069510Y4568130D01*
X20897359Y4392773D01*
X20706434Y4202595D01*
X20503502Y4005122D01*
X20304024Y3816843D01*
X20107841Y3637642D01*
X19914793Y3467403D01*
X19724722Y3306013D01*
X19537470Y3153354D01*
X19352876Y3009312D01*
X19170782Y2873772D01*
X18991029Y2746618D01*
X18813459Y2627734D01*
X18637911Y2517006D01*
X18464228Y2414317D01*
X18292249Y2319553D01*
X18121817Y2232598D01*
X17952773Y2153337D01*
X17784956Y2081654D01*
X17784925Y2081624D01*
X17668075Y2036467D01*
X17550634Y1995590D01*
X17432836Y1958954D01*
X17314915Y1926520D01*
X17197103Y1898248D01*
X17079635Y1874099D01*
X16962743Y1854034D01*
X16846661Y1838014D01*
X16731622Y1825999D01*
X16617859Y1817950D01*
X16505606Y1813829D01*
X16395096Y1813595D01*
X16286563Y1817210D01*
X16180239Y1824634D01*
X16076358Y1835829D01*
X15975153Y1850754D01*
X15876858Y1869371D01*
X15781705Y1891641D01*
X15689929Y1917524D01*
X15601763Y1946981D01*
X15517439Y1979972D01*
X15437191Y2016459D01*
X15361253Y2056403D01*
X15289857Y2099764D01*
X15223238Y2146503D01*
X15161628Y2196580D01*
X15105261Y2249957D01*
X15054369Y2306594D01*
X15009187Y2366452D01*
X14969948Y2429492D01*
X14936885Y2495675D01*
X14910231Y2564961D01*
X14875176Y2713860D01*
X14860524Y2885450D01*
X14866049Y3079125D01*
X14891529Y3294279D01*
X14936738Y3530306D01*
X15001454Y3786600D01*
X15085452Y4062556D01*
X15188509Y4357567D01*
X15310400Y4671028D01*
X15450902Y5002333D01*
X15609790Y5350875D01*
X15786841Y5716050D01*
X15981831Y6097251D01*
X16194535Y6493872D01*
X16672194Y7330952D01*
X16802324Y7548614D01*
X16924345Y7747895D01*
X17039055Y7929712D01*
X17147251Y8094984D01*
X17249731Y8244629D01*
X17347293Y8379566D01*
X17440735Y8500714D01*
X17530855Y8608990D01*
X17618451Y8705314D01*
X17704319Y8790604D01*
X17746855Y8829398D01*
X17789259Y8865778D01*
X17831630Y8899858D01*
X17874068Y8931755D01*
X17916672Y8961581D01*
X17959543Y8989453D01*
X18002781Y9015484D01*
X18046484Y9039790D01*
X18135686Y9083687D01*
X18227949Y9122059D01*
X18291167Y9144751D01*
X18353571Y9164280D01*
X18415085Y9180687D01*
X18475629Y9194012D01*
X18535126Y9204297D01*
X18593497Y9211581D01*
X18650663Y9215906D01*
X18706547Y9217312D01*
X18761070Y9215840D01*
G37*
X18761070Y9215840D02*
X18814154Y9211531D01*
X18865720Y9204426D01*
X18915691Y9194565D01*
X18963987Y9181990D01*
X19010531Y9166740D01*
X19055243Y9148856D01*
X19098047Y9128380D01*
X19138864Y9105352D01*
X19177614Y9079813D01*
X19214221Y9051803D01*
X19248605Y9021364D01*
X19280689Y8988536D01*
X19310393Y8953359D01*
X19337640Y8915875D01*
X19362352Y8876124D01*
X19384450Y8834148D01*
X19403855Y8789985D01*
X19420490Y8743679D01*
X19434276Y8695268D01*
X19445134Y8644795D01*
X19452987Y8592299D01*
X19457757Y8537822D01*
X19459364Y8481404D01*
X19459364Y8162922D01*
X19907728Y8162922D01*
X19975108Y8162439D01*
X20036567Y8160867D01*
X20092584Y8158026D01*
X20143643Y8153735D01*
X20167463Y8150989D01*
X20190223Y8147812D01*
X20211985Y8144182D01*
X20232807Y8140076D01*
X20252751Y8135472D01*
X20271875Y8130347D01*
X20290241Y8124678D01*
X20307909Y8118443D01*
X20324938Y8111619D01*
X20341390Y8104183D01*
X20357323Y8096113D01*
X20372799Y8087385D01*
X20387876Y8077979D01*
X20402617Y8067870D01*
X20417080Y8057036D01*
X20431325Y8045454D01*
X20445414Y8033103D01*
X20459406Y8019959D01*
X20473361Y8005999D01*
X20487340Y7991201D01*
X20515608Y7959001D01*
X20544691Y7923176D01*
X20565266Y7895476D01*
X20584951Y7865872D01*
X20603686Y7834547D01*
X20621409Y7801683D01*
X20638062Y7767464D01*
X20653583Y7732071D01*
X20667913Y7695688D01*
X20680990Y7658497D01*
X20692755Y7620681D01*
X20703147Y7582423D01*
X20712106Y7543905D01*
X20719571Y7505310D01*
X20725482Y7466820D01*
X20729780Y7428618D01*
X20732402Y7390887D01*
X20733290Y7353810D01*
X20733290Y7024189D01*
X21138105Y7056385D01*
X21188515Y7059446D01*
X21237616Y7060512D01*
X21285389Y7059604D01*
X21331815Y7056737D01*
X21376874Y7051930D01*
X21420548Y7045201D01*
X21462818Y7036566D01*
X21503664Y7026044D01*
X21543068Y7013653D01*
X21581009Y6999410D01*
X21617470Y6983332D01*
X21652431Y6965438D01*
X21685872Y6945745D01*
X21717776Y6924271D01*
X21748122Y6901033D01*
X21776892Y6876049D01*
X21804066Y6849338D01*
X21829625Y6820915D01*
X21853551Y6790800D01*
X21875824Y6759009D01*
X21896425Y6725561D01*
X21915334Y6690473D01*
X21932534Y6653762D01*
X21948004Y6615447D01*
X21961725Y6575546D01*
X21973680Y6534075D01*
X21983847Y6491052D01*
X21992209Y6446496D01*
X21998746Y6400423D01*
X22003438Y6352852D01*
X22006268Y6303800D01*
X22007216Y6253285D01*
X22004362Y6137973D01*
X21995206Y6027500D01*
X21978857Y5920463D01*
X21954425Y5815457D01*
X21921019Y5711077D01*
X21877747Y5605920D01*
X21823719Y5498580D01*
X21758043Y5387654D01*
X21679830Y5271736D01*
X21588187Y5149424D01*
X21482225Y5019311D01*
X21361052Y4879994D01*
X21223777Y4730068D01*
X21069510Y4568130D01*
X20897359Y4392773D01*
X20706434Y4202595D01*
X20503502Y4005122D01*
X20304024Y3816843D01*
X20107841Y3637642D01*
X19914793Y3467403D01*
X19724722Y3306013D01*
X19537470Y3153354D01*
X19352876Y3009312D01*
X19170782Y2873772D01*
X18991029Y2746618D01*
X18813459Y2627734D01*
X18637911Y2517006D01*
X18464228Y2414317D01*
X18292249Y2319553D01*
X18121817Y2232598D01*
X17952773Y2153337D01*
X17784956Y2081654D01*
X17784925Y2081624D01*
X17668075Y2036467D01*
X17550634Y1995590D01*
X17432836Y1958954D01*
X17314915Y1926520D01*
X17197103Y1898248D01*
X17079635Y1874099D01*
X16962743Y1854034D01*
X16846661Y1838014D01*
X16731622Y1825999D01*
X16617859Y1817950D01*
X16505606Y1813829D01*
X16395096Y1813595D01*
X16286563Y1817210D01*
X16180239Y1824634D01*
X16076358Y1835829D01*
X15975153Y1850754D01*
X15876858Y1869371D01*
X15781705Y1891641D01*
X15689929Y1917524D01*
X15601763Y1946981D01*
X15517439Y1979972D01*
X15437191Y2016459D01*
X15361253Y2056403D01*
X15289857Y2099764D01*
X15223238Y2146503D01*
X15161628Y2196580D01*
X15105261Y2249957D01*
X15054369Y2306594D01*
X15009187Y2366452D01*
X14969948Y2429492D01*
X14936885Y2495675D01*
X14910231Y2564961D01*
X14875176Y2713860D01*
X14860524Y2885450D01*
X14866049Y3079125D01*
X14891529Y3294279D01*
X14936738Y3530306D01*
X15001454Y3786600D01*
X15085452Y4062556D01*
X15188509Y4357567D01*
X15310400Y4671028D01*
X15450902Y5002333D01*
X15609790Y5350875D01*
X15786841Y5716050D01*
X15981831Y6097251D01*
X16194535Y6493872D01*
X16672194Y7330952D01*
X16802324Y7548614D01*
X16924345Y7747895D01*
X17039055Y7929712D01*
X17147251Y8094984D01*
X17249731Y8244629D01*
X17347293Y8379566D01*
X17440735Y8500714D01*
X17530855Y8608990D01*
X17618451Y8705314D01*
X17704319Y8790604D01*
X17746855Y8829398D01*
X17789259Y8865778D01*
X17831630Y8899858D01*
X17874068Y8931755D01*
X17916672Y8961581D01*
X17959543Y8989453D01*
X18002781Y9015484D01*
X18046484Y9039790D01*
X18135686Y9083687D01*
X18227949Y9122059D01*
X18291167Y9144751D01*
X18353571Y9164280D01*
X18415085Y9180687D01*
X18475629Y9194012D01*
X18535126Y9204297D01*
X18593497Y9211581D01*
X18650663Y9215906D01*
X18706547Y9217312D01*
X18761070Y9215840D01*
D10*
X50100000Y15800000D02*
X46800832Y15791124D01*
X45350000Y6050000D02*
X40400000Y6050000D01*
X40400000Y6050000D02*
X40400000Y2950000D01*
X45300000Y19000000D02*
X46800000Y22300000D01*
X32300000Y6050000D02*
X32300000Y2900000D01*
X63000000Y15700000D02*
X68100000Y15700000D01*
X66300000Y9300000D02*
X66300000Y2700000D01*
X74250000Y9300000D02*
X80850000Y9300000D01*
X51800000Y9350000D02*
X51800000Y2800000D01*
X69500000Y9500000D02*
X69500000Y2900000D01*
X46800832Y15791124D02*
X45300000Y19000000D01*
X38800000Y15900000D02*
X38800000Y15900000D01*
X54900000Y15700000D02*
X60000000Y15700000D01*
X58150000Y9350000D02*
X58150000Y6050000D01*
X58150000Y2900000D02*
X63150000Y2900000D01*
D11*
X7985821Y1723969D02*
X8068977Y1763062D01*
X8068977Y1763062D02*
X8144744Y1801529D01*
X8144744Y1801529D02*
X8213501Y1839837D01*
X8213501Y1839837D02*
X8275623Y1878453D01*
X8275623Y1878453D02*
X8331489Y1917844D01*
X8331489Y1917844D02*
X8381473Y1958478D01*
X8381473Y1958478D02*
X8404378Y1979407D01*
X8404378Y1979407D02*
X8425955Y2000821D01*
X8425955Y2000821D02*
X8446249Y2022780D01*
X8446249Y2022780D02*
X8465310Y2045342D01*
X8465310Y2045342D02*
X8483182Y2068565D01*
X8483182Y2068565D02*
X8499915Y2092507D01*
X8499915Y2092507D02*
X8515554Y2117227D01*
X8515554Y2117227D02*
X8530147Y2142783D01*
X8530147Y2142783D02*
X8543741Y2169234D01*
X8543741Y2169234D02*
X8556384Y2196639D01*
X8556384Y2196639D02*
X8579001Y2254540D01*
X8579001Y2254540D02*
X8598377Y2316954D01*
X8598377Y2316954D02*
X8614887Y2384350D01*
X8614887Y2384350D02*
X8628909Y2457192D01*
X8628909Y2457192D02*
X8640820Y2535950D01*
X8640820Y2535950D02*
X8647231Y2623833D01*
X8647231Y2623833D02*
X8645761Y2729862D01*
X8645761Y2729862D02*
X8636808Y2852351D01*
X8636808Y2852351D02*
X8620766Y2989617D01*
X8620766Y2989617D02*
X8598032Y3139976D01*
X8598032Y3139976D02*
X8569002Y3301742D01*
X8569002Y3301742D02*
X8534072Y3473231D01*
X8534072Y3473231D02*
X8493638Y3652760D01*
X8493638Y3652760D02*
X8448095Y3838643D01*
X8448095Y3838643D02*
X8397841Y4029197D01*
X8397841Y4029197D02*
X8343271Y4222737D01*
X8343271Y4222737D02*
X8284781Y4417578D01*
X8284781Y4417578D02*
X8222768Y4612036D01*
X8222768Y4612036D02*
X8157626Y4804427D01*
X8157626Y4804427D02*
X8089752Y4993066D01*
X8089752Y4993066D02*
X8019543Y5176270D01*
X8019543Y5176270D02*
X7870701Y5528379D01*
X7870701Y5528379D02*
X7668825Y5973096D01*
X7668825Y5973096D02*
X7432486Y6472872D01*
X7432486Y6472872D02*
X7180256Y6990159D01*
X7180256Y6990159D02*
X6930708Y7487406D01*
X6930708Y7487406D02*
X6702411Y7927066D01*
X6702411Y7927066D02*
X6513939Y8271590D01*
X6513939Y8271590D02*
X6383862Y8483429D01*
X6383862Y8483429D02*
X6332837Y8550369D01*
X6332837Y8550369D02*
X6277155Y8614646D01*
X6277155Y8614646D02*
X6217235Y8676031D01*
X6217235Y8676031D02*
X6153494Y8734296D01*
X6153494Y8734296D02*
X6086351Y8789213D01*
X6086351Y8789213D02*
X6016223Y8840553D01*
X6016223Y8840553D02*
X5943529Y8888087D01*
X5943529Y8888087D02*
X5868687Y8931588D01*
X5868687Y8931588D02*
X5792115Y8970826D01*
X5792115Y8970826D02*
X5714230Y9005574D01*
X5714230Y9005574D02*
X5635451Y9035603D01*
X5635451Y9035603D02*
X5556197Y9060684D01*
X5556197Y9060684D02*
X5476884Y9080589D01*
X5476884Y9080589D02*
X5397932Y9095090D01*
X5397932Y9095090D02*
X5319757Y9103958D01*
X5319757Y9103958D02*
X5281093Y9106208D01*
X5281093Y9106208D02*
X5242779Y9106965D01*
X5242779Y9106965D02*
X5155047Y9104562D01*
X5155047Y9104562D02*
X5072341Y9097340D01*
X5072341Y9097340D02*
X4994637Y9085279D01*
X4994637Y9085279D02*
X4921907Y9068361D01*
X4921907Y9068361D02*
X4887401Y9058074D01*
X4887401Y9058074D02*
X4854128Y9046565D01*
X4854128Y9046565D02*
X4822087Y9033832D01*
X4822087Y9033832D02*
X4791274Y9019873D01*
X4791274Y9019873D02*
X4761685Y9004684D01*
X4761685Y9004684D02*
X4733319Y8988263D01*
X4733319Y8988263D02*
X4706170Y8970609D01*
X4706170Y8970609D02*
X4680237Y8951718D01*
X4680237Y8951718D02*
X4655516Y8931588D01*
X4655516Y8931588D02*
X4632004Y8910217D01*
X4632004Y8910217D02*
X4609698Y8887602D01*
X4609698Y8887602D02*
X4588594Y8863740D01*
X4588594Y8863740D02*
X4568690Y8838630D01*
X4568690Y8838630D02*
X4549982Y8812269D01*
X4549982Y8812269D02*
X4532466Y8784655D01*
X4532466Y8784655D02*
X4516141Y8755784D01*
X4516141Y8755784D02*
X4501002Y8725655D01*
X4501002Y8725655D02*
X4487047Y8694265D01*
X4487047Y8694265D02*
X4474272Y8661612D01*
X4474272Y8661612D02*
X4462674Y8627692D01*
X4462674Y8627692D02*
X4442997Y8556047D01*
X4442997Y8556047D02*
X4427990Y8479310D01*
X4427990Y8479310D02*
X4372876Y8134552D01*
X4372876Y8134552D02*
X3937817Y8176362D01*
X3937817Y8176362D02*
X3840833Y8183200D01*
X3840833Y8183200D02*
X3750842Y8184258D01*
X3750842Y8184258D02*
X3708390Y8182555D01*
X3708390Y8182555D02*
X3667591Y8179329D01*
X3667591Y8179329D02*
X3628414Y8174555D01*
X3628414Y8174555D02*
X3590828Y8168207D01*
X3590828Y8168207D02*
X3554801Y8160258D01*
X3554801Y8160258D02*
X3520301Y8150683D01*
X3520301Y8150683D02*
X3487297Y8139456D01*
X3487297Y8139456D02*
X3455758Y8126551D01*
X3455758Y8126551D02*
X3425650Y8111942D01*
X3425650Y8111942D02*
X3396944Y8095603D01*
X3396944Y8095603D02*
X3369608Y8077509D01*
X3369608Y8077509D02*
X3343609Y8057633D01*
X3343609Y8057633D02*
X3318917Y8035950D01*
X3318917Y8035950D02*
X3295500Y8012433D01*
X3295500Y8012433D02*
X3273326Y7987057D01*
X3273326Y7987057D02*
X3252364Y7959796D01*
X3252364Y7959796D02*
X3232582Y7930624D01*
X3232582Y7930624D02*
X3213948Y7899515D01*
X3213948Y7899515D02*
X3196432Y7866443D01*
X3196432Y7866443D02*
X3180001Y7831382D01*
X3180001Y7831382D02*
X3164624Y7794307D01*
X3164624Y7794307D02*
X3150269Y7755191D01*
X3150269Y7755191D02*
X3136905Y7714009D01*
X3136905Y7714009D02*
X3124501Y7670735D01*
X3124501Y7670735D02*
X3102443Y7577806D01*
X3102443Y7577806D02*
X3083844Y7476197D01*
X3083844Y7476197D02*
X3063196Y7352885D01*
X3063196Y7352885D02*
X3053474Y7302901D01*
X3053474Y7302901D02*
X3043555Y7260123D01*
X3043555Y7260123D02*
X3032989Y7224123D01*
X3032989Y7224123D02*
X3027323Y7208530D01*
X3027323Y7208530D02*
X3021326Y7194470D01*
X3021326Y7194470D02*
X3014943Y7181889D01*
X3014943Y7181889D02*
X3008117Y7170734D01*
X3008117Y7170734D02*
X3000793Y7160951D01*
X3000793Y7160951D02*
X2992913Y7152485D01*
X2992913Y7152485D02*
X2984422Y7145284D01*
X2984422Y7145284D02*
X2975263Y7139294D01*
X2975263Y7139294D02*
X2965381Y7134460D01*
X2965381Y7134460D02*
X2954719Y7130730D01*
X2954719Y7130730D02*
X2943221Y7128048D01*
X2943221Y7128048D02*
X2930831Y7126363D01*
X2930831Y7126363D02*
X2917492Y7125619D01*
X2917492Y7125619D02*
X2903149Y7125763D01*
X2903149Y7125763D02*
X2871224Y7128500D01*
X2871224Y7128500D02*
X2834606Y7134145D01*
X2834606Y7134145D02*
X2792846Y7142267D01*
X2792846Y7142267D02*
X2745495Y7152436D01*
X2745495Y7152436D02*
X2671804Y7165487D01*
X2671804Y7165487D02*
X2598769Y7172255D01*
X2598769Y7172255D02*
X2526664Y7172873D01*
X2526664Y7172873D02*
X2455763Y7167477D01*
X2455763Y7167477D02*
X2386338Y7156204D01*
X2386338Y7156204D02*
X2318664Y7139188D01*
X2318664Y7139188D02*
X2253013Y7116565D01*
X2253013Y7116565D02*
X2189660Y7088471D01*
X2189660Y7088471D02*
X2128876Y7055041D01*
X2128876Y7055041D02*
X2070936Y7016411D01*
X2070936Y7016411D02*
X2016113Y6972716D01*
X2016113Y6972716D02*
X1964681Y6924092D01*
X1964681Y6924092D02*
X1916912Y6870674D01*
X1916912Y6870674D02*
X1873080Y6812598D01*
X1873080Y6812598D02*
X1833459Y6750000D01*
X1833459Y6750000D02*
X1798321Y6683014D01*
X1798321Y6683014D02*
X1770361Y6619103D01*
X1770361Y6619103D02*
X1746997Y6554765D01*
X1746997Y6554765D02*
X1728245Y6489828D01*
X1728245Y6489828D02*
X1714122Y6424120D01*
X1714122Y6424120D02*
X1704645Y6357468D01*
X1704645Y6357468D02*
X1699830Y6289700D01*
X1699830Y6289700D02*
X1699694Y6220644D01*
X1699694Y6220644D02*
X1704255Y6150128D01*
X1704255Y6150128D02*
X1713527Y6077979D01*
X1713527Y6077979D02*
X1727529Y6004025D01*
X1727529Y6004025D02*
X1746277Y5928095D01*
X1746277Y5928095D02*
X1769787Y5850015D01*
X1769787Y5850015D02*
X1798076Y5769613D01*
X1798076Y5769613D02*
X1831161Y5686718D01*
X1831161Y5686718D02*
X1869059Y5601156D01*
X1869059Y5601156D02*
X1911786Y5512757D01*
X1911786Y5512757D02*
X1998677Y5358342D01*
X1998677Y5358342D02*
X2113518Y5183527D01*
X2113518Y5183527D02*
X2253322Y4991410D01*
X2253322Y4991410D02*
X2415102Y4785088D01*
X2415102Y4785088D02*
X2595868Y4567657D01*
X2595868Y4567657D02*
X2792635Y4342216D01*
X2792635Y4342216D02*
X3002414Y4111860D01*
X3002414Y4111860D02*
X3222218Y3879689D01*
X3222218Y3879689D02*
X3449060Y3648798D01*
X3449060Y3648798D02*
X3679951Y3422284D01*
X3679951Y3422284D02*
X3911905Y3203246D01*
X3911905Y3203246D02*
X4141933Y2994780D01*
X4141933Y2994780D02*
X4367049Y2799984D01*
X4367049Y2799984D02*
X4584264Y2621954D01*
X4584264Y2621954D02*
X4790592Y2463788D01*
X4790592Y2463788D02*
X4983044Y2328583D01*
X4983044Y2328583D02*
X5183587Y2201644D01*
X5183587Y2201644D02*
X5386292Y2085812D01*
X5386292Y2085812D02*
X5590328Y1981255D01*
X5590328Y1981255D02*
X5794865Y1888139D01*
X5794865Y1888139D02*
X5999071Y1806631D01*
X5999071Y1806631D02*
X6202115Y1736900D01*
X6202115Y1736900D02*
X6403167Y1679112D01*
X6403167Y1679112D02*
X6601395Y1633435D01*
X6601395Y1633435D02*
X6795969Y1600035D01*
X6795969Y1600035D02*
X6986057Y1579080D01*
X6986057Y1579080D02*
X7170828Y1570737D01*
X7170828Y1570737D02*
X7349452Y1575174D01*
X7349452Y1575174D02*
X7521097Y1592558D01*
X7521097Y1592558D02*
X7684933Y1623055D01*
X7684933Y1623055D02*
X7840128Y1666834D01*
X7840128Y1666834D02*
X7985852Y1724060D01*
X7985852Y1724060D02*
X7985821Y1723969D01*
X7985821Y1723969D02*
X7985821Y1723969D01*
G36*
X5281093Y9106208D02*
G01*
X5319757Y9103958D01*
X5397932Y9095090D01*
X5476884Y9080589D01*
X5556197Y9060684D01*
X5635451Y9035603D01*
X5714230Y9005574D01*
X5792115Y8970826D01*
X5868687Y8931588D01*
X5943529Y8888087D01*
X6016223Y8840553D01*
X6086351Y8789213D01*
X6153494Y8734296D01*
X6217235Y8676031D01*
X6277155Y8614646D01*
X6332837Y8550369D01*
X6383862Y8483429D01*
X6513939Y8271590D01*
X6702411Y7927066D01*
X6930708Y7487406D01*
X7180256Y6990159D01*
X7432486Y6472872D01*
X7668825Y5973096D01*
X7870701Y5528379D01*
X8019543Y5176270D01*
X8089752Y4993066D01*
X8157626Y4804427D01*
X8222768Y4612036D01*
X8284781Y4417578D01*
X8343271Y4222737D01*
X8397841Y4029197D01*
X8448095Y3838643D01*
X8493638Y3652760D01*
X8534072Y3473231D01*
X8569002Y3301742D01*
X8598032Y3139976D01*
X8620766Y2989617D01*
X8636808Y2852351D01*
X8645761Y2729862D01*
X8647231Y2623833D01*
X8640820Y2535950D01*
X8628909Y2457192D01*
X8614887Y2384350D01*
X8598377Y2316954D01*
X8579001Y2254540D01*
X8556384Y2196639D01*
X8543741Y2169234D01*
X8530147Y2142783D01*
X8515554Y2117227D01*
X8499915Y2092507D01*
X8483182Y2068565D01*
X8465310Y2045342D01*
X8446249Y2022780D01*
X8425955Y2000821D01*
X8404378Y1979407D01*
X8381473Y1958478D01*
X8331489Y1917844D01*
X8275623Y1878453D01*
X8213501Y1839837D01*
X8144744Y1801529D01*
X8068977Y1763062D01*
X7985821Y1723969D01*
X7985852Y1724060D01*
X7840128Y1666834D01*
X7684933Y1623055D01*
X7521097Y1592558D01*
X7349452Y1575174D01*
X7170828Y1570737D01*
X6986057Y1579080D01*
X6795969Y1600035D01*
X6601395Y1633435D01*
X6403167Y1679112D01*
X6202115Y1736900D01*
X5999071Y1806631D01*
X5794865Y1888139D01*
X5590328Y1981255D01*
X5386292Y2085812D01*
X5183587Y2201644D01*
X4983044Y2328583D01*
X4790592Y2463788D01*
X4584264Y2621954D01*
X4367049Y2799984D01*
X4141933Y2994780D01*
X3911905Y3203246D01*
X3679951Y3422284D01*
X3449060Y3648798D01*
X3222218Y3879689D01*
X3002414Y4111860D01*
X2792635Y4342216D01*
X2595868Y4567657D01*
X2415102Y4785088D01*
X2253322Y4991410D01*
X2113518Y5183527D01*
X1998677Y5358342D01*
X1911786Y5512757D01*
X1869059Y5601156D01*
X1831161Y5686718D01*
X1798076Y5769613D01*
X1769787Y5850015D01*
X1746277Y5928095D01*
X1727529Y6004025D01*
X1713527Y6077979D01*
X1704255Y6150128D01*
X1699694Y6220644D01*
X1699830Y6289700D01*
X1704645Y6357468D01*
X1714122Y6424120D01*
X1728245Y6489828D01*
X1746997Y6554765D01*
X1770361Y6619103D01*
X1798321Y6683014D01*
X1833459Y6750000D01*
X1873080Y6812598D01*
X1916912Y6870674D01*
X1964681Y6924092D01*
X2016113Y6972716D01*
X2070936Y7016411D01*
X2128876Y7055041D01*
X2189660Y7088471D01*
X2253013Y7116565D01*
X2318664Y7139188D01*
X2386338Y7156204D01*
X2455763Y7167477D01*
X2526664Y7172873D01*
X2598769Y7172255D01*
X2671804Y7165487D01*
X2745495Y7152436D01*
X2792846Y7142267D01*
X2834606Y7134145D01*
X2871224Y7128500D01*
X2903149Y7125763D01*
X2917492Y7125619D01*
X2930831Y7126363D01*
X2943221Y7128048D01*
X2954719Y7130730D01*
X2965381Y7134460D01*
X2975263Y7139294D01*
X2984422Y7145284D01*
X2992913Y7152485D01*
X3000793Y7160951D01*
X3008117Y7170734D01*
X3014943Y7181889D01*
X3021326Y7194470D01*
X3027323Y7208530D01*
X3032989Y7224123D01*
X3043555Y7260123D01*
X3053474Y7302901D01*
X3063196Y7352885D01*
X3083844Y7476197D01*
X3102443Y7577806D01*
X3124501Y7670735D01*
X3136905Y7714009D01*
X3150269Y7755191D01*
X3164624Y7794307D01*
X3180001Y7831382D01*
X3196432Y7866443D01*
X3213948Y7899515D01*
X3232582Y7930624D01*
X3252364Y7959796D01*
X3273326Y7987057D01*
X3295500Y8012433D01*
X3318917Y8035950D01*
X3343609Y8057633D01*
X3369608Y8077509D01*
X3396944Y8095603D01*
X3425650Y8111942D01*
X3455758Y8126551D01*
X3487297Y8139456D01*
X3520301Y8150683D01*
X3554801Y8160258D01*
X3590828Y8168207D01*
X3628414Y8174555D01*
X3667591Y8179329D01*
X3708390Y8182555D01*
X3750842Y8184258D01*
X3840833Y8183200D01*
X3937817Y8176362D01*
X4372876Y8134552D01*
X4427990Y8479310D01*
X4442997Y8556047D01*
X4462674Y8627692D01*
X4474272Y8661612D01*
X4487047Y8694265D01*
X4501002Y8725655D01*
X4516141Y8755784D01*
X4532466Y8784655D01*
X4549982Y8812269D01*
X4568690Y8838630D01*
X4588594Y8863740D01*
X4609698Y8887602D01*
X4632004Y8910217D01*
X4655516Y8931588D01*
X4680237Y8951718D01*
X4706170Y8970609D01*
X4733319Y8988263D01*
X4761685Y9004684D01*
X4791274Y9019873D01*
X4822087Y9033832D01*
X4854128Y9046565D01*
X4887401Y9058074D01*
X4921907Y9068361D01*
X4994637Y9085279D01*
X5072341Y9097340D01*
X5155047Y9104562D01*
X5242779Y9106965D01*
X5281093Y9106208D01*
G37*
X5281093Y9106208D02*
X5319757Y9103958D01*
X5397932Y9095090D01*
X5476884Y9080589D01*
X5556197Y9060684D01*
X5635451Y9035603D01*
X5714230Y9005574D01*
X5792115Y8970826D01*
X5868687Y8931588D01*
X5943529Y8888087D01*
X6016223Y8840553D01*
X6086351Y8789213D01*
X6153494Y8734296D01*
X6217235Y8676031D01*
X6277155Y8614646D01*
X6332837Y8550369D01*
X6383862Y8483429D01*
X6513939Y8271590D01*
X6702411Y7927066D01*
X6930708Y7487406D01*
X7180256Y6990159D01*
X7432486Y6472872D01*
X7668825Y5973096D01*
X7870701Y5528379D01*
X8019543Y5176270D01*
X8089752Y4993066D01*
X8157626Y4804427D01*
X8222768Y4612036D01*
X8284781Y4417578D01*
X8343271Y4222737D01*
X8397841Y4029197D01*
X8448095Y3838643D01*
X8493638Y3652760D01*
X8534072Y3473231D01*
X8569002Y3301742D01*
X8598032Y3139976D01*
X8620766Y2989617D01*
X8636808Y2852351D01*
X8645761Y2729862D01*
X8647231Y2623833D01*
X8640820Y2535950D01*
X8628909Y2457192D01*
X8614887Y2384350D01*
X8598377Y2316954D01*
X8579001Y2254540D01*
X8556384Y2196639D01*
X8543741Y2169234D01*
X8530147Y2142783D01*
X8515554Y2117227D01*
X8499915Y2092507D01*
X8483182Y2068565D01*
X8465310Y2045342D01*
X8446249Y2022780D01*
X8425955Y2000821D01*
X8404378Y1979407D01*
X8381473Y1958478D01*
X8331489Y1917844D01*
X8275623Y1878453D01*
X8213501Y1839837D01*
X8144744Y1801529D01*
X8068977Y1763062D01*
X7985821Y1723969D01*
X7985852Y1724060D01*
X7840128Y1666834D01*
X7684933Y1623055D01*
X7521097Y1592558D01*
X7349452Y1575174D01*
X7170828Y1570737D01*
X6986057Y1579080D01*
X6795969Y1600035D01*
X6601395Y1633435D01*
X6403167Y1679112D01*
X6202115Y1736900D01*
X5999071Y1806631D01*
X5794865Y1888139D01*
X5590328Y1981255D01*
X5386292Y2085812D01*
X5183587Y2201644D01*
X4983044Y2328583D01*
X4790592Y2463788D01*
X4584264Y2621954D01*
X4367049Y2799984D01*
X4141933Y2994780D01*
X3911905Y3203246D01*
X3679951Y3422284D01*
X3449060Y3648798D01*
X3222218Y3879689D01*
X3002414Y4111860D01*
X2792635Y4342216D01*
X2595868Y4567657D01*
X2415102Y4785088D01*
X2253322Y4991410D01*
X2113518Y5183527D01*
X1998677Y5358342D01*
X1911786Y5512757D01*
X1869059Y5601156D01*
X1831161Y5686718D01*
X1798076Y5769613D01*
X1769787Y5850015D01*
X1746277Y5928095D01*
X1727529Y6004025D01*
X1713527Y6077979D01*
X1704255Y6150128D01*
X1699694Y6220644D01*
X1699830Y6289700D01*
X1704645Y6357468D01*
X1714122Y6424120D01*
X1728245Y6489828D01*
X1746997Y6554765D01*
X1770361Y6619103D01*
X1798321Y6683014D01*
X1833459Y6750000D01*
X1873080Y6812598D01*
X1916912Y6870674D01*
X1964681Y6924092D01*
X2016113Y6972716D01*
X2070936Y7016411D01*
X2128876Y7055041D01*
X2189660Y7088471D01*
X2253013Y7116565D01*
X2318664Y7139188D01*
X2386338Y7156204D01*
X2455763Y7167477D01*
X2526664Y7172873D01*
X2598769Y7172255D01*
X2671804Y7165487D01*
X2745495Y7152436D01*
X2792846Y7142267D01*
X2834606Y7134145D01*
X2871224Y7128500D01*
X2903149Y7125763D01*
X2917492Y7125619D01*
X2930831Y7126363D01*
X2943221Y7128048D01*
X2954719Y7130730D01*
X2965381Y7134460D01*
X2975263Y7139294D01*
X2984422Y7145284D01*
X2992913Y7152485D01*
X3000793Y7160951D01*
X3008117Y7170734D01*
X3014943Y7181889D01*
X3021326Y7194470D01*
X3027323Y7208530D01*
X3032989Y7224123D01*
X3043555Y7260123D01*
X3053474Y7302901D01*
X3063196Y7352885D01*
X3083844Y7476197D01*
X3102443Y7577806D01*
X3124501Y7670735D01*
X3136905Y7714009D01*
X3150269Y7755191D01*
X3164624Y7794307D01*
X3180001Y7831382D01*
X3196432Y7866443D01*
X3213948Y7899515D01*
X3232582Y7930624D01*
X3252364Y7959796D01*
X3273326Y7987057D01*
X3295500Y8012433D01*
X3318917Y8035950D01*
X3343609Y8057633D01*
X3369608Y8077509D01*
X3396944Y8095603D01*
X3425650Y8111942D01*
X3455758Y8126551D01*
X3487297Y8139456D01*
X3520301Y8150683D01*
X3554801Y8160258D01*
X3590828Y8168207D01*
X3628414Y8174555D01*
X3667591Y8179329D01*
X3708390Y8182555D01*
X3750842Y8184258D01*
X3840833Y8183200D01*
X3937817Y8176362D01*
X4372876Y8134552D01*
X4427990Y8479310D01*
X4442997Y8556047D01*
X4462674Y8627692D01*
X4474272Y8661612D01*
X4487047Y8694265D01*
X4501002Y8725655D01*
X4516141Y8755784D01*
X4532466Y8784655D01*
X4549982Y8812269D01*
X4568690Y8838630D01*
X4588594Y8863740D01*
X4609698Y8887602D01*
X4632004Y8910217D01*
X4655516Y8931588D01*
X4680237Y8951718D01*
X4706170Y8970609D01*
X4733319Y8988263D01*
X4761685Y9004684D01*
X4791274Y9019873D01*
X4822087Y9033832D01*
X4854128Y9046565D01*
X4887401Y9058074D01*
X4921907Y9068361D01*
X4994637Y9085279D01*
X5072341Y9097340D01*
X5155047Y9104562D01*
X5242779Y9106965D01*
X5281093Y9106208D01*
D10*
X32300000Y2900000D02*
X37300000Y2900000D01*
X54900000Y22300000D02*
X54900000Y15700000D01*
X35600000Y22200000D02*
X38800000Y15900000D01*
X40400000Y6050000D02*
X40400000Y9400000D01*
X32300000Y9350000D02*
X37300000Y9350000D01*
X50200000Y22300000D02*
X51600000Y19000000D01*
X32300000Y9350000D02*
X32300000Y6050000D01*
X47000000Y22300000D02*
X50200000Y22300000D01*
X25800000Y2850000D02*
X28900000Y9150000D01*
X51600000Y19000000D02*
X50100000Y15800000D01*
X58200000Y6100000D02*
X61400000Y6100000D01*
X32350000Y6100000D02*
X35550000Y6100000D01*
X40350000Y6050000D02*
X45250000Y2900000D01*
X58150000Y9350000D02*
X63150000Y9350000D01*
X69500000Y2900000D02*
X74600000Y2900000D01*
X38800000Y15900000D02*
X41900000Y22200000D01*
X77550000Y9300000D02*
X77550000Y2750000D01*
D11*
X12095379Y18124543D02*
X12159157Y18174147D01*
X12159157Y18174147D02*
X12246272Y18257405D01*
X12246272Y18257405D02*
X12354088Y18370981D01*
X12354088Y18370981D02*
X12479968Y18511540D01*
X12479968Y18511540D02*
X12775367Y18860268D01*
X12775367Y18860268D02*
X13111371Y19276905D01*
X13111371Y19276905D02*
X13466881Y19734772D01*
X13466881Y19734772D02*
X13820799Y20207186D01*
X13820799Y20207186D02*
X14152027Y20667465D01*
X14152027Y20667465D02*
X14302538Y20884716D01*
X14302538Y20884716D02*
X14439465Y21088929D01*
X14439465Y21088929D02*
X14491631Y21172981D01*
X14491631Y21172981D02*
X14539317Y21259361D01*
X14539317Y21259361D02*
X14582416Y21347485D01*
X14582416Y21347485D02*
X14620821Y21436770D01*
X14620821Y21436770D02*
X14654427Y21526635D01*
X14654427Y21526635D02*
X14683125Y21616495D01*
X14683125Y21616495D02*
X14706811Y21705769D01*
X14706811Y21705769D02*
X14725377Y21793873D01*
X14725377Y21793873D02*
X14738716Y21880226D01*
X14738716Y21880226D02*
X14746722Y21964243D01*
X14746722Y21964243D02*
X14749289Y22045344D01*
X14749289Y22045344D02*
X14746310Y22122944D01*
X14746310Y22122944D02*
X14737678Y22196461D01*
X14737678Y22196461D02*
X14723287Y22265313D01*
X14723287Y22265313D02*
X14703030Y22328916D01*
X14703030Y22328916D02*
X14676800Y22386689D01*
X14676800Y22386689D02*
X14663300Y22409911D01*
X14663300Y22409911D02*
X14647830Y22432882D01*
X14647830Y22432882D02*
X14630463Y22455569D01*
X14630463Y22455569D02*
X14611272Y22477942D01*
X14611272Y22477942D02*
X14590328Y22499967D01*
X14590328Y22499967D02*
X14567705Y22521613D01*
X14567705Y22521613D02*
X14543476Y22542849D01*
X14543476Y22542849D02*
X14517712Y22563642D01*
X14517712Y22563642D02*
X14461871Y22603774D01*
X14461871Y22603774D02*
X14400765Y22641752D01*
X14400765Y22641752D02*
X14334973Y22677323D01*
X14334973Y22677323D02*
X14265076Y22710232D01*
X14265076Y22710232D02*
X14191655Y22740224D01*
X14191655Y22740224D02*
X14115290Y22767043D01*
X14115290Y22767043D02*
X14036561Y22790436D01*
X14036561Y22790436D02*
X13956050Y22810147D01*
X13956050Y22810147D02*
X13874337Y22825922D01*
X13874337Y22825922D02*
X13792002Y22837505D01*
X13792002Y22837505D02*
X13709626Y22844641D01*
X13709626Y22844641D02*
X13627789Y22847077D01*
X13627789Y22847077D02*
X13592055Y22848455D01*
X13592055Y22848455D02*
X13551967Y22852499D01*
X13551967Y22852499D02*
X13507959Y22859072D01*
X13507959Y22859072D02*
X13460468Y22868038D01*
X13460468Y22868038D02*
X13409930Y22879261D01*
X13409930Y22879261D02*
X13356780Y22892605D01*
X13356780Y22892605D02*
X13301454Y22907933D01*
X13301454Y22907933D02*
X13244389Y22925110D01*
X13244389Y22925110D02*
X13186020Y22944000D01*
X13186020Y22944000D02*
X13126783Y22964465D01*
X13126783Y22964465D02*
X13067113Y22986371D01*
X13067113Y22986371D02*
X13007448Y23009580D01*
X13007448Y23009580D02*
X12948222Y23033957D01*
X12948222Y23033957D02*
X12889871Y23059366D01*
X12889871Y23059366D02*
X12832831Y23085669D01*
X12832831Y23085669D02*
X12777539Y23112732D01*
X12777539Y23112732D02*
X12627209Y23187170D01*
X12627209Y23187170D02*
X12488986Y23252155D01*
X12488986Y23252155D02*
X12361358Y23307779D01*
X12361358Y23307779D02*
X12242816Y23354132D01*
X12242816Y23354132D02*
X12131848Y23391302D01*
X12131848Y23391302D02*
X12026942Y23419380D01*
X12026942Y23419380D02*
X11926589Y23438456D01*
X11926589Y23438456D02*
X11829278Y23448620D01*
X11829278Y23448620D02*
X11781290Y23450388D01*
X11781290Y23450388D02*
X11733496Y23449962D01*
X11733496Y23449962D02*
X11637734Y23442571D01*
X11637734Y23442571D02*
X11540480Y23426538D01*
X11540480Y23426538D02*
X11440224Y23401952D01*
X11440224Y23401952D02*
X11335454Y23368903D01*
X11335454Y23368903D02*
X11224660Y23327482D01*
X11224660Y23327482D02*
X11106330Y23277777D01*
X11106330Y23277777D02*
X10978955Y23219880D01*
X10978955Y23219880D02*
X10849967Y23161759D01*
X10849967Y23161759D02*
X10715551Y23105287D01*
X10715551Y23105287D02*
X10579656Y23051861D01*
X10579656Y23051861D02*
X10446229Y23002877D01*
X10446229Y23002877D02*
X10319217Y22959732D01*
X10319217Y22959732D02*
X10202569Y22923824D01*
X10202569Y22923824D02*
X10100233Y22896549D01*
X10100233Y22896549D02*
X10055665Y22886585D01*
X10055665Y22886585D02*
X10016156Y22879303D01*
X10016156Y22879303D02*
X9917976Y22860825D01*
X9917976Y22860825D02*
X9823348Y22837451D01*
X9823348Y22837451D02*
X9732488Y22809350D01*
X9732488Y22809350D02*
X9645612Y22776688D01*
X9645612Y22776688D02*
X9562937Y22739631D01*
X9562937Y22739631D02*
X9484678Y22698347D01*
X9484678Y22698347D02*
X9411052Y22653001D01*
X9411052Y22653001D02*
X9342274Y22603760D01*
X9342274Y22603760D02*
X9278561Y22550792D01*
X9278561Y22550792D02*
X9220129Y22494262D01*
X9220129Y22494262D02*
X9167194Y22434338D01*
X9167194Y22434338D02*
X9119972Y22371186D01*
X9119972Y22371186D02*
X9078679Y22304972D01*
X9078679Y22304972D02*
X9043531Y22235864D01*
X9043531Y22235864D02*
X9014744Y22164028D01*
X9014744Y22164028D02*
X8992535Y22089631D01*
X8992535Y22089631D02*
X8975025Y22009470D01*
X8975025Y22009470D02*
X8963142Y21930516D01*
X8963142Y21930516D02*
X8957226Y21851780D01*
X8957226Y21851780D02*
X8956611Y21812185D01*
X8956611Y21812185D02*
X8957616Y21772273D01*
X8957616Y21772273D02*
X8960282Y21731923D01*
X8960282Y21731923D02*
X8964652Y21691009D01*
X8964652Y21691009D02*
X8970769Y21649408D01*
X8970769Y21649408D02*
X8978675Y21606997D01*
X8978675Y21606997D02*
X8988412Y21563652D01*
X8988412Y21563652D02*
X9000024Y21519251D01*
X9000024Y21519251D02*
X9029038Y21426781D01*
X9029038Y21426781D02*
X9066058Y21328600D01*
X9066058Y21328600D02*
X9111423Y21223720D01*
X9111423Y21223720D02*
X9165473Y21111152D01*
X9165473Y21111152D02*
X9228548Y20989908D01*
X9228548Y20989908D02*
X9300988Y20858999D01*
X9300988Y20858999D02*
X9383132Y20717439D01*
X9383132Y20717439D02*
X9475320Y20564238D01*
X9475320Y20564238D02*
X9577893Y20398407D01*
X9577893Y20398407D02*
X9775282Y20078917D01*
X9775282Y20078917D02*
X9993119Y19719563D01*
X9993119Y19719563D02*
X10204942Y19364358D01*
X10204942Y19364358D02*
X10384289Y19057312D01*
X10384289Y19057312D02*
X10498958Y18864311D01*
X10498958Y18864311D02*
X10610150Y18690603D01*
X10610150Y18690603D02*
X10718392Y18535903D01*
X10718392Y18535903D02*
X10824205Y18399926D01*
X10824205Y18399926D02*
X10876365Y18338868D01*
X10876365Y18338868D02*
X10928115Y18282384D01*
X10928115Y18282384D02*
X10979519Y18230438D01*
X10979519Y18230438D02*
X11030645Y18182994D01*
X11030645Y18182994D02*
X11081556Y18140016D01*
X11081556Y18140016D02*
X11132319Y18101468D01*
X11132319Y18101468D02*
X11182999Y18067315D01*
X11182999Y18067315D02*
X11233662Y18037522D01*
X11233662Y18037522D02*
X11284373Y18012051D01*
X11284373Y18012051D02*
X11335197Y17990869D01*
X11335197Y17990869D02*
X11386201Y17973938D01*
X11386201Y17973938D02*
X11437449Y17961224D01*
X11437449Y17961224D02*
X11489007Y17952690D01*
X11489007Y17952690D02*
X11540941Y17948300D01*
X11540941Y17948300D02*
X11593316Y17948020D01*
X11593316Y17948020D02*
X11646198Y17951813D01*
X11646198Y17951813D02*
X11699652Y17959644D01*
X11699652Y17959644D02*
X11753743Y17971477D01*
X11753743Y17971477D02*
X11808537Y17987275D01*
X11808537Y17987275D02*
X11864100Y18007005D01*
X11864100Y18007005D02*
X11920498Y18030629D01*
X11920498Y18030629D02*
X11977794Y18058112D01*
X11977794Y18058112D02*
X12036056Y18089418D01*
X12036056Y18089418D02*
X12095349Y18124512D01*
X12095349Y18124512D02*
X12095379Y18124543D01*
X12095379Y18124543D02*
X12095379Y18124543D01*
G36*
X11829278Y23448620D02*
G01*
X11926589Y23438456D01*
X12026942Y23419380D01*
X12131848Y23391302D01*
X12242816Y23354132D01*
X12361358Y23307779D01*
X12488986Y23252155D01*
X12627209Y23187170D01*
X12777539Y23112732D01*
X12832831Y23085669D01*
X12889871Y23059366D01*
X12948222Y23033957D01*
X13007448Y23009580D01*
X13067113Y22986371D01*
X13126783Y22964465D01*
X13186020Y22944000D01*
X13244389Y22925110D01*
X13301454Y22907933D01*
X13356780Y22892605D01*
X13409930Y22879261D01*
X13460468Y22868038D01*
X13507959Y22859072D01*
X13551967Y22852499D01*
X13592055Y22848455D01*
X13627789Y22847077D01*
X13709626Y22844641D01*
X13792002Y22837505D01*
X13874337Y22825922D01*
X13956050Y22810147D01*
X14036561Y22790436D01*
X14115290Y22767043D01*
X14191655Y22740224D01*
X14265076Y22710232D01*
X14334973Y22677323D01*
X14400765Y22641752D01*
X14461871Y22603774D01*
X14517712Y22563642D01*
X14543476Y22542849D01*
X14567705Y22521613D01*
X14590328Y22499967D01*
X14611272Y22477942D01*
X14630463Y22455569D01*
X14647830Y22432882D01*
X14663300Y22409911D01*
X14676800Y22386689D01*
X14703030Y22328916D01*
X14723287Y22265313D01*
X14737678Y22196461D01*
X14746310Y22122944D01*
X14749289Y22045344D01*
X14746722Y21964243D01*
X14738716Y21880226D01*
X14725377Y21793873D01*
X14706811Y21705769D01*
X14683125Y21616495D01*
X14654427Y21526635D01*
X14620821Y21436770D01*
X14582416Y21347485D01*
X14539317Y21259361D01*
X14491631Y21172981D01*
X14439465Y21088929D01*
X14302538Y20884716D01*
X14152027Y20667465D01*
X13820799Y20207186D01*
X13466881Y19734772D01*
X13111371Y19276905D01*
X12775367Y18860268D01*
X12479968Y18511540D01*
X12354088Y18370981D01*
X12246272Y18257405D01*
X12159157Y18174147D01*
X12095379Y18124543D01*
X12095349Y18124512D01*
X12036056Y18089418D01*
X11977794Y18058112D01*
X11920498Y18030629D01*
X11864100Y18007005D01*
X11808537Y17987275D01*
X11753743Y17971477D01*
X11699652Y17959644D01*
X11646198Y17951813D01*
X11593316Y17948020D01*
X11540941Y17948300D01*
X11489007Y17952690D01*
X11437449Y17961224D01*
X11386201Y17973938D01*
X11335197Y17990869D01*
X11284373Y18012051D01*
X11233662Y18037522D01*
X11182999Y18067315D01*
X11132319Y18101468D01*
X11081556Y18140016D01*
X11030645Y18182994D01*
X10979519Y18230438D01*
X10928115Y18282384D01*
X10876365Y18338868D01*
X10824205Y18399926D01*
X10718392Y18535903D01*
X10610150Y18690603D01*
X10498958Y18864311D01*
X10384289Y19057312D01*
X10204942Y19364358D01*
X9993119Y19719563D01*
X9775282Y20078917D01*
X9577893Y20398407D01*
X9475320Y20564238D01*
X9383132Y20717439D01*
X9300988Y20858999D01*
X9228548Y20989908D01*
X9165473Y21111152D01*
X9111423Y21223720D01*
X9066058Y21328600D01*
X9029038Y21426781D01*
X9000024Y21519251D01*
X8988412Y21563652D01*
X8978675Y21606997D01*
X8970769Y21649408D01*
X8964652Y21691009D01*
X8960282Y21731923D01*
X8957616Y21772273D01*
X8956611Y21812185D01*
X8957226Y21851780D01*
X8963142Y21930516D01*
X8975025Y22009470D01*
X8992535Y22089631D01*
X9014744Y22164028D01*
X9043531Y22235864D01*
X9078679Y22304972D01*
X9119972Y22371186D01*
X9167194Y22434338D01*
X9220129Y22494262D01*
X9278561Y22550792D01*
X9342274Y22603760D01*
X9411052Y22653001D01*
X9484678Y22698347D01*
X9562937Y22739631D01*
X9645612Y22776688D01*
X9732488Y22809350D01*
X9823348Y22837451D01*
X9917976Y22860825D01*
X10016156Y22879303D01*
X10055665Y22886585D01*
X10100233Y22896549D01*
X10202569Y22923824D01*
X10319217Y22959732D01*
X10446229Y23002877D01*
X10579656Y23051861D01*
X10715551Y23105287D01*
X10849967Y23161759D01*
X10978955Y23219880D01*
X11106330Y23277777D01*
X11224660Y23327482D01*
X11335454Y23368903D01*
X11440224Y23401952D01*
X11540480Y23426538D01*
X11637734Y23442571D01*
X11733496Y23449962D01*
X11781290Y23450388D01*
X11829278Y23448620D01*
G37*
X11829278Y23448620D02*
X11926589Y23438456D01*
X12026942Y23419380D01*
X12131848Y23391302D01*
X12242816Y23354132D01*
X12361358Y23307779D01*
X12488986Y23252155D01*
X12627209Y23187170D01*
X12777539Y23112732D01*
X12832831Y23085669D01*
X12889871Y23059366D01*
X12948222Y23033957D01*
X13007448Y23009580D01*
X13067113Y22986371D01*
X13126783Y22964465D01*
X13186020Y22944000D01*
X13244389Y22925110D01*
X13301454Y22907933D01*
X13356780Y22892605D01*
X13409930Y22879261D01*
X13460468Y22868038D01*
X13507959Y22859072D01*
X13551967Y22852499D01*
X13592055Y22848455D01*
X13627789Y22847077D01*
X13709626Y22844641D01*
X13792002Y22837505D01*
X13874337Y22825922D01*
X13956050Y22810147D01*
X14036561Y22790436D01*
X14115290Y22767043D01*
X14191655Y22740224D01*
X14265076Y22710232D01*
X14334973Y22677323D01*
X14400765Y22641752D01*
X14461871Y22603774D01*
X14517712Y22563642D01*
X14543476Y22542849D01*
X14567705Y22521613D01*
X14590328Y22499967D01*
X14611272Y22477942D01*
X14630463Y22455569D01*
X14647830Y22432882D01*
X14663300Y22409911D01*
X14676800Y22386689D01*
X14703030Y22328916D01*
X14723287Y22265313D01*
X14737678Y22196461D01*
X14746310Y22122944D01*
X14749289Y22045344D01*
X14746722Y21964243D01*
X14738716Y21880226D01*
X14725377Y21793873D01*
X14706811Y21705769D01*
X14683125Y21616495D01*
X14654427Y21526635D01*
X14620821Y21436770D01*
X14582416Y21347485D01*
X14539317Y21259361D01*
X14491631Y21172981D01*
X14439465Y21088929D01*
X14302538Y20884716D01*
X14152027Y20667465D01*
X13820799Y20207186D01*
X13466881Y19734772D01*
X13111371Y19276905D01*
X12775367Y18860268D01*
X12479968Y18511540D01*
X12354088Y18370981D01*
X12246272Y18257405D01*
X12159157Y18174147D01*
X12095379Y18124543D01*
X12095349Y18124512D01*
X12036056Y18089418D01*
X11977794Y18058112D01*
X11920498Y18030629D01*
X11864100Y18007005D01*
X11808537Y17987275D01*
X11753743Y17971477D01*
X11699652Y17959644D01*
X11646198Y17951813D01*
X11593316Y17948020D01*
X11540941Y17948300D01*
X11489007Y17952690D01*
X11437449Y17961224D01*
X11386201Y17973938D01*
X11335197Y17990869D01*
X11284373Y18012051D01*
X11233662Y18037522D01*
X11182999Y18067315D01*
X11132319Y18101468D01*
X11081556Y18140016D01*
X11030645Y18182994D01*
X10979519Y18230438D01*
X10928115Y18282384D01*
X10876365Y18338868D01*
X10824205Y18399926D01*
X10718392Y18535903D01*
X10610150Y18690603D01*
X10498958Y18864311D01*
X10384289Y19057312D01*
X10204942Y19364358D01*
X9993119Y19719563D01*
X9775282Y20078917D01*
X9577893Y20398407D01*
X9475320Y20564238D01*
X9383132Y20717439D01*
X9300988Y20858999D01*
X9228548Y20989908D01*
X9165473Y21111152D01*
X9111423Y21223720D01*
X9066058Y21328600D01*
X9029038Y21426781D01*
X9000024Y21519251D01*
X8988412Y21563652D01*
X8978675Y21606997D01*
X8970769Y21649408D01*
X8964652Y21691009D01*
X8960282Y21731923D01*
X8957616Y21772273D01*
X8956611Y21812185D01*
X8957226Y21851780D01*
X8963142Y21930516D01*
X8975025Y22009470D01*
X8992535Y22089631D01*
X9014744Y22164028D01*
X9043531Y22235864D01*
X9078679Y22304972D01*
X9119972Y22371186D01*
X9167194Y22434338D01*
X9220129Y22494262D01*
X9278561Y22550792D01*
X9342274Y22603760D01*
X9411052Y22653001D01*
X9484678Y22698347D01*
X9562937Y22739631D01*
X9645612Y22776688D01*
X9732488Y22809350D01*
X9823348Y22837451D01*
X9917976Y22860825D01*
X10016156Y22879303D01*
X10055665Y22886585D01*
X10100233Y22896549D01*
X10202569Y22923824D01*
X10319217Y22959732D01*
X10446229Y23002877D01*
X10579656Y23051861D01*
X10715551Y23105287D01*
X10849967Y23161759D01*
X10978955Y23219880D01*
X11106330Y23277777D01*
X11224660Y23327482D01*
X11335454Y23368903D01*
X11440224Y23401952D01*
X11540480Y23426538D01*
X11637734Y23442571D01*
X11733496Y23449962D01*
X11781290Y23450388D01*
X11829278Y23448620D01*
D10*
X40400000Y9400000D02*
X45300000Y9400000D01*
X45350000Y9400000D02*
X45350000Y6050000D01*
X22600000Y9150000D02*
X25800000Y2850000D01*
D12*
%TO.C,D132*%
X45250000Y6050000D03*
%TD*%
%TO.C,D126*%
X40400000Y2825000D03*
%TD*%
%TO.C,D117*%
X40400000Y9425000D03*
%TD*%
%TO.C,D122*%
X32375000Y2900000D03*
%TD*%
%TO.C,D141*%
X62950000Y2850000D03*
%TD*%
%TO.C,D130*%
X35450000Y6075000D03*
%TD*%
%TO.C,D138*%
X51700000Y9415000D03*
%TD*%
%TO.C,D136*%
X61400000Y6000000D03*
%TD*%
%TO.C,D139*%
X58100000Y6050000D03*
%TD*%
%TO.C,D146*%
X69500000Y2900000D03*
%TD*%
%TO.C,D115*%
X67800000Y15800000D03*
%TD*%
%TO.C,D128*%
X25800000Y2800000D03*
%TD*%
%TO.C,D147*%
X74250000Y9350000D03*
%TD*%
%TO.C,D104*%
X63000000Y15800000D03*
%TD*%
%TO.C,D112*%
X38700000Y15800000D03*
%TD*%
%TO.C,D140*%
X58200000Y2900000D03*
%TD*%
%TO.C,D105*%
X46800000Y22300000D03*
%TD*%
%TO.C,D118*%
X40400000Y6050000D03*
%TD*%
%TO.C,D120*%
X51680000Y2890000D03*
%TD*%
%TO.C,D101*%
X42000000Y22200000D03*
%TD*%
%TO.C,D109*%
X51600000Y19000000D03*
%TD*%
%TO.C,D110*%
X50100000Y15800000D03*
%TD*%
%TO.C,D142*%
X66250000Y2800000D03*
%TD*%
%TO.C,D131*%
X45125000Y9250000D03*
%TD*%
%TO.C,D149*%
X80750000Y9350000D03*
%TD*%
%TO.C,D144*%
X77550000Y3025000D03*
%TD*%
%TO.C,D121*%
X32300000Y6075000D03*
%TD*%
%TO.C,D145*%
X66300000Y9275000D03*
%TD*%
%TO.C,D114*%
X59800000Y15800000D03*
%TD*%
%TO.C,D108*%
X54900000Y22300000D03*
%TD*%
%TO.C,D134*%
X58025000Y9300000D03*
%TD*%
%TO.C,D111*%
X35600000Y22200000D03*
%TD*%
%TO.C,D107*%
X50100000Y22300000D03*
%TD*%
%TO.C,D103*%
X63000000Y22300000D03*
%TD*%
%TO.C,D125*%
X37175000Y2850000D03*
%TD*%
%TO.C,D127*%
X22600000Y9400000D03*
%TD*%
%TO.C,D124*%
X32300000Y9300000D03*
%TD*%
%TO.C,D137*%
X48440000Y9355000D03*
%TD*%
%TO.C,D148*%
X74350000Y2900000D03*
%TD*%
%TO.C,D129*%
X37200000Y9300000D03*
%TD*%
%TO.C,D123*%
X29100000Y9400000D03*
%TD*%
%TO.C,D116*%
X69500000Y9400000D03*
%TD*%
%TO.C,D113*%
X54900000Y15800000D03*
%TD*%
%TO.C,D135*%
X62950000Y9300000D03*
%TD*%
%TO.C,D143*%
X77550000Y9300000D03*
%TD*%
%TO.C,D102*%
X46800000Y15750000D03*
%TD*%
%TO.C,D106*%
X45300000Y19000000D03*
%TD*%
%TO.C,D133*%
X54850000Y9300000D03*
%TD*%
%TO.C,D119*%
X45210000Y2890000D03*
%TD*%
M02*
