%TF.GenerationSoftware,KiCad,Pcbnew,6.0.0-rc1-unknown-65cbf2d2b7~144~ubuntu18.04.1*%
%TF.CreationDate,2022-01-27T22:08:07+01:00*%
%TF.ProjectId,raketenpinguin,72616b65-7465-46e7-9069-6e6775696e2e,rev?*%
%TF.SameCoordinates,Original*%
%TF.FileFunction,Soldermask,Bot*%
%TF.FilePolarity,Negative*%
%FSLAX46Y46*%
G04 Gerber Fmt 4.6, Leading zero omitted, Abs format (unit mm)*
G04 Created by KiCad (PCBNEW 6.0.0-rc1-unknown-65cbf2d2b7~144~ubuntu18.04.1) date 2022-01-27 22:08:07*
%MOMM*%
%LPD*%
G01*
G04 APERTURE LIST*
G04 Aperture macros list*
%AMRoundRect*
0 Rectangle with rounded corners*
0 $1 Rounding radius*
0 $2 $3 $4 $5 $6 $7 $8 $9 X,Y pos of 4 corners*
0 Add a 4 corners polygon primitive as box body*
4,1,4,$2,$3,$4,$5,$6,$7,$8,$9,$2,$3,0*
0 Add four circle primitives for the rounded corners*
1,1,$1+$1,$2,$3*
1,1,$1+$1,$4,$5*
1,1,$1+$1,$6,$7*
1,1,$1+$1,$8,$9*
0 Add four rect primitives between the rounded corners*
20,1,$1+$1,$2,$3,$4,$5,0*
20,1,$1+$1,$4,$5,$6,$7,0*
20,1,$1+$1,$6,$7,$8,$9,0*
20,1,$1+$1,$8,$9,$2,$3,0*%
G04 Aperture macros list end*
%ADD10C,0.126504*%
%ADD11RoundRect,0.750000X0.750000X-1.750000X0.750000X1.750000X-0.750000X1.750000X-0.750000X-1.750000X0*%
%ADD12RoundRect,0.750000X1.177378X-1.496256X0.271511X1.884484X-1.177378X1.496256X-0.271511X-1.884484X0*%
%ADD13RoundRect,0.750000X0.271511X-1.884484X1.177378X1.496256X-0.271511X1.884484X-1.177378X-1.496256X0*%
G04 APERTURE END LIST*
D10*
X82193090Y-67771007D02*
X82418293Y-67699841D01*
X82418293Y-67699841D02*
X82660976Y-67612455D01*
X82660976Y-67612455D02*
X82918249Y-67510416D01*
X82918249Y-67510416D02*
X83187218Y-67395287D01*
X83187218Y-67395287D02*
X83464993Y-67268635D01*
X83464993Y-67268635D02*
X83748680Y-67132023D01*
X83748680Y-67132023D02*
X84322226Y-66835180D01*
X84322226Y-66835180D02*
X84884719Y-66517281D01*
X84884719Y-66517281D02*
X85154591Y-66354347D01*
X85154591Y-66354347D02*
X85413024Y-66190843D01*
X85413024Y-66190843D02*
X85657127Y-66028335D01*
X85657127Y-66028335D02*
X85884006Y-65868388D01*
X85884006Y-65868388D02*
X86090770Y-65712566D01*
X86090770Y-65712566D02*
X86274527Y-65562434D01*
X86274527Y-65562434D02*
X86451502Y-65405074D01*
X86451502Y-65405074D02*
X86641443Y-65225945D01*
X86641443Y-65225945D02*
X86838417Y-65031280D01*
X86838417Y-65031280D02*
X87036489Y-64827309D01*
X87036489Y-64827309D02*
X87229727Y-64620264D01*
X87229727Y-64620264D02*
X87412195Y-64416377D01*
X87412195Y-64416377D02*
X87577961Y-64221879D01*
X87577961Y-64221879D02*
X87721090Y-64043002D01*
X87721090Y-64043002D02*
X88112745Y-63502360D01*
X88112745Y-63502360D02*
X88467272Y-62949484D01*
X88467272Y-62949484D02*
X88785015Y-62385737D01*
X88785015Y-62385737D02*
X89066318Y-61812484D01*
X89066318Y-61812484D02*
X89311524Y-61231087D01*
X89311524Y-61231087D02*
X89520976Y-60642912D01*
X89520976Y-60642912D02*
X89695016Y-60049321D01*
X89695016Y-60049321D02*
X89833990Y-59451678D01*
X89833990Y-59451678D02*
X89938239Y-58851347D01*
X89938239Y-58851347D02*
X90008107Y-58249692D01*
X90008107Y-58249692D02*
X90043937Y-57648076D01*
X90043937Y-57648076D02*
X90046073Y-57047862D01*
X90046073Y-57047862D02*
X90014858Y-56450416D01*
X90014858Y-56450416D02*
X89950635Y-55857100D01*
X89950635Y-55857100D02*
X89853746Y-55269277D01*
X89853746Y-55269277D02*
X89724537Y-54688313D01*
X89724537Y-54688313D02*
X89563349Y-54115570D01*
X89563349Y-54115570D02*
X89370526Y-53552412D01*
X89370526Y-53552412D02*
X89146412Y-53000203D01*
X89146412Y-53000203D02*
X88891349Y-52460307D01*
X88891349Y-52460307D02*
X88605680Y-51934087D01*
X88605680Y-51934087D02*
X88289750Y-51422907D01*
X88289750Y-51422907D02*
X87943901Y-50928130D01*
X87943901Y-50928130D02*
X87568477Y-50451121D01*
X87568477Y-50451121D02*
X87163820Y-49993243D01*
X87163820Y-49993243D02*
X86730275Y-49555859D01*
X86730275Y-49555859D02*
X86268183Y-49140334D01*
X86268183Y-49140334D02*
X85777890Y-48748032D01*
X85777890Y-48748032D02*
X85259737Y-48380315D01*
X85259737Y-48380315D02*
X84714068Y-48038547D01*
X84714068Y-48038547D02*
X84141226Y-47724093D01*
X84141226Y-47724093D02*
X83541555Y-47438315D01*
X83541555Y-47438315D02*
X83247751Y-47311686D01*
X83247751Y-47311686D02*
X82964036Y-47196344D01*
X82964036Y-47196344D02*
X82688519Y-47091925D01*
X82688519Y-47091925D02*
X82419307Y-46998064D01*
X82419307Y-46998064D02*
X82154510Y-46914400D01*
X82154510Y-46914400D02*
X81892234Y-46840565D01*
X81892234Y-46840565D02*
X81630588Y-46776198D01*
X81630588Y-46776198D02*
X81367680Y-46720934D01*
X81367680Y-46720934D02*
X81101617Y-46674408D01*
X81101617Y-46674408D02*
X80830507Y-46636257D01*
X80830507Y-46636257D02*
X80552459Y-46606117D01*
X80552459Y-46606117D02*
X80265580Y-46583623D01*
X80265580Y-46583623D02*
X79967979Y-46568412D01*
X79967979Y-46568412D02*
X79657763Y-46560119D01*
X79657763Y-46560119D02*
X79333040Y-46558380D01*
X79333040Y-46558380D02*
X78991919Y-46562831D01*
X78991919Y-46562831D02*
X78445137Y-46585154D01*
X78445137Y-46585154D02*
X77913306Y-46628787D01*
X77913306Y-46628787D02*
X77395776Y-46694001D01*
X77395776Y-46694001D02*
X76891902Y-46781068D01*
X76891902Y-46781068D02*
X76401035Y-46890258D01*
X76401035Y-46890258D02*
X75922527Y-47021844D01*
X75922527Y-47021844D02*
X75455732Y-47176095D01*
X75455732Y-47176095D02*
X75000002Y-47353283D01*
X75000002Y-47353283D02*
X74554689Y-47553680D01*
X74554689Y-47553680D02*
X74119146Y-47777557D01*
X74119146Y-47777557D02*
X73692725Y-48025184D01*
X73692725Y-48025184D02*
X73274779Y-48296834D01*
X73274779Y-48296834D02*
X72864661Y-48592776D01*
X72864661Y-48592776D02*
X72461722Y-48913282D01*
X72461722Y-48913282D02*
X72065316Y-49258625D01*
X72065316Y-49258625D02*
X71674795Y-49629073D01*
X71674795Y-49629073D02*
X71360123Y-49952431D01*
X71360123Y-49952431D02*
X71061001Y-50285171D01*
X71061001Y-50285171D02*
X70777502Y-50626842D01*
X70777502Y-50626842D02*
X70509695Y-50976996D01*
X70509695Y-50976996D02*
X70257651Y-51335181D01*
X70257651Y-51335181D02*
X70021441Y-51700947D01*
X70021441Y-51700947D02*
X69801136Y-52073845D01*
X69801136Y-52073845D02*
X69596806Y-52453423D01*
X69596806Y-52453423D02*
X69408522Y-52839232D01*
X69408522Y-52839232D02*
X69236355Y-53230822D01*
X69236355Y-53230822D02*
X68940654Y-54029543D01*
X68940654Y-54029543D02*
X68710269Y-54845984D01*
X68710269Y-54845984D02*
X68545765Y-55676544D01*
X68545765Y-55676544D02*
X68447708Y-56517622D01*
X68447708Y-56517622D02*
X68416664Y-57365615D01*
X68416664Y-57365615D02*
X68453199Y-58216923D01*
X68453199Y-58216923D02*
X68496985Y-58642694D01*
X68496985Y-58642694D02*
X68557877Y-59067944D01*
X68557877Y-59067944D02*
X68635947Y-59492221D01*
X68635947Y-59492221D02*
X68731266Y-59915076D01*
X68731266Y-59915076D02*
X68843903Y-60336059D01*
X68843903Y-60336059D02*
X68973930Y-60754719D01*
X68973930Y-60754719D02*
X69121417Y-61170606D01*
X69121417Y-61170606D02*
X69286435Y-61583270D01*
X69286435Y-61583270D02*
X69469055Y-61992261D01*
X69469055Y-61992261D02*
X69669348Y-62397128D01*
X69669348Y-62397128D02*
X69956376Y-62910980D01*
X69956376Y-62910980D02*
X70274341Y-63408150D01*
X70274341Y-63408150D02*
X70621686Y-63887471D01*
X70621686Y-63887471D02*
X70996855Y-64347778D01*
X70996855Y-64347778D02*
X71398291Y-64787905D01*
X71398291Y-64787905D02*
X71824439Y-65206687D01*
X71824439Y-65206687D02*
X72273742Y-65602958D01*
X72273742Y-65602958D02*
X72744644Y-65975552D01*
X72744644Y-65975552D02*
X73235590Y-66323303D01*
X73235590Y-66323303D02*
X73745022Y-66645046D01*
X73745022Y-66645046D02*
X74271385Y-66939615D01*
X74271385Y-66939615D02*
X74813123Y-67205845D01*
X74813123Y-67205845D02*
X75368679Y-67442569D01*
X75368679Y-67442569D02*
X75936498Y-67648623D01*
X75936498Y-67648623D02*
X76515023Y-67822839D01*
X76515023Y-67822839D02*
X77102697Y-67964053D01*
X77102697Y-67964053D02*
X77323131Y-68001919D01*
X77323131Y-68001919D02*
X77583067Y-68032123D01*
X77583067Y-68032123D02*
X77876831Y-68054880D01*
X77876831Y-68054880D02*
X78198751Y-68070407D01*
X78198751Y-68070407D02*
X78904368Y-68080626D01*
X78904368Y-68080626D02*
X79654535Y-68064502D01*
X79654535Y-68064502D02*
X80403872Y-68023756D01*
X80403872Y-68023756D02*
X81106995Y-67960109D01*
X81106995Y-67960109D02*
X81427045Y-67920236D01*
X81427045Y-67920236D02*
X81718524Y-67875283D01*
X81718524Y-67875283D02*
X81975758Y-67825466D01*
X81975758Y-67825466D02*
X82193075Y-67770999D01*
X82193075Y-67770999D02*
X82193090Y-67771007D01*
X82193090Y-67771007D02*
X82193090Y-67771007D01*
G36*
X79657763Y-46560119D02*
G01*
X79967979Y-46568412D01*
X80265580Y-46583623D01*
X80552459Y-46606117D01*
X80830507Y-46636257D01*
X81101617Y-46674408D01*
X81367680Y-46720934D01*
X81630588Y-46776198D01*
X81892234Y-46840565D01*
X82154510Y-46914400D01*
X82419307Y-46998064D01*
X82688519Y-47091925D01*
X82964036Y-47196344D01*
X83247751Y-47311686D01*
X83541555Y-47438315D01*
X84141226Y-47724093D01*
X84714068Y-48038547D01*
X85259737Y-48380315D01*
X85777890Y-48748032D01*
X86268183Y-49140334D01*
X86730275Y-49555859D01*
X87163820Y-49993243D01*
X87568477Y-50451121D01*
X87943901Y-50928130D01*
X88289750Y-51422907D01*
X88605680Y-51934087D01*
X88891349Y-52460307D01*
X89146412Y-53000203D01*
X89370526Y-53552412D01*
X89563349Y-54115570D01*
X89724537Y-54688313D01*
X89853746Y-55269277D01*
X89950635Y-55857100D01*
X90014858Y-56450416D01*
X90046073Y-57047862D01*
X90043937Y-57648076D01*
X90008107Y-58249692D01*
X89938239Y-58851347D01*
X89833990Y-59451678D01*
X89695016Y-60049321D01*
X89520976Y-60642912D01*
X89311524Y-61231087D01*
X89066318Y-61812484D01*
X88785015Y-62385737D01*
X88467272Y-62949484D01*
X88112745Y-63502360D01*
X87721090Y-64043002D01*
X87577961Y-64221879D01*
X87412195Y-64416377D01*
X87229727Y-64620264D01*
X87036489Y-64827309D01*
X86838417Y-65031280D01*
X86641443Y-65225945D01*
X86451502Y-65405074D01*
X86274527Y-65562434D01*
X86090770Y-65712566D01*
X85884006Y-65868388D01*
X85657127Y-66028335D01*
X85413024Y-66190843D01*
X85154591Y-66354347D01*
X84884719Y-66517281D01*
X84322226Y-66835180D01*
X83748680Y-67132023D01*
X83464993Y-67268635D01*
X83187218Y-67395287D01*
X82918249Y-67510416D01*
X82660976Y-67612455D01*
X82418293Y-67699841D01*
X82193090Y-67771007D01*
X82193075Y-67770999D01*
X81975758Y-67825466D01*
X81718524Y-67875283D01*
X81427045Y-67920236D01*
X81106995Y-67960109D01*
X80403872Y-68023756D01*
X79654535Y-68064502D01*
X78904368Y-68080626D01*
X78198751Y-68070407D01*
X77876831Y-68054880D01*
X77583067Y-68032123D01*
X77323131Y-68001919D01*
X77102697Y-67964053D01*
X76515023Y-67822839D01*
X75936498Y-67648623D01*
X75368679Y-67442569D01*
X74813123Y-67205845D01*
X74271385Y-66939615D01*
X73745022Y-66645046D01*
X73235590Y-66323303D01*
X72744644Y-65975552D01*
X72273742Y-65602958D01*
X71824439Y-65206687D01*
X71398291Y-64787905D01*
X70996855Y-64347778D01*
X70621686Y-63887471D01*
X70274341Y-63408150D01*
X69956376Y-62910980D01*
X69669348Y-62397128D01*
X69469055Y-61992261D01*
X69286435Y-61583270D01*
X69121417Y-61170606D01*
X68973930Y-60754719D01*
X68843903Y-60336059D01*
X68731266Y-59915076D01*
X68635947Y-59492221D01*
X68557877Y-59067944D01*
X68496985Y-58642694D01*
X68453199Y-58216923D01*
X68416664Y-57365615D01*
X68447708Y-56517622D01*
X68545765Y-55676544D01*
X68710269Y-54845984D01*
X68940654Y-54029543D01*
X69236355Y-53230822D01*
X69408522Y-52839232D01*
X69596806Y-52453423D01*
X69801136Y-52073845D01*
X70021441Y-51700947D01*
X70257651Y-51335181D01*
X70509695Y-50976996D01*
X70777502Y-50626842D01*
X71061001Y-50285171D01*
X71360123Y-49952431D01*
X71674795Y-49629073D01*
X72065316Y-49258625D01*
X72461722Y-48913282D01*
X72864661Y-48592776D01*
X73274779Y-48296834D01*
X73692725Y-48025184D01*
X74119146Y-47777557D01*
X74554689Y-47553680D01*
X75000002Y-47353283D01*
X75455732Y-47176095D01*
X75922527Y-47021844D01*
X76401035Y-46890258D01*
X76891902Y-46781068D01*
X77395776Y-46694001D01*
X77913306Y-46628787D01*
X78445137Y-46585154D01*
X78991919Y-46562831D01*
X79333040Y-46558380D01*
X79657763Y-46560119D01*
G37*
X79657763Y-46560119D02*
X79967979Y-46568412D01*
X80265580Y-46583623D01*
X80552459Y-46606117D01*
X80830507Y-46636257D01*
X81101617Y-46674408D01*
X81367680Y-46720934D01*
X81630588Y-46776198D01*
X81892234Y-46840565D01*
X82154510Y-46914400D01*
X82419307Y-46998064D01*
X82688519Y-47091925D01*
X82964036Y-47196344D01*
X83247751Y-47311686D01*
X83541555Y-47438315D01*
X84141226Y-47724093D01*
X84714068Y-48038547D01*
X85259737Y-48380315D01*
X85777890Y-48748032D01*
X86268183Y-49140334D01*
X86730275Y-49555859D01*
X87163820Y-49993243D01*
X87568477Y-50451121D01*
X87943901Y-50928130D01*
X88289750Y-51422907D01*
X88605680Y-51934087D01*
X88891349Y-52460307D01*
X89146412Y-53000203D01*
X89370526Y-53552412D01*
X89563349Y-54115570D01*
X89724537Y-54688313D01*
X89853746Y-55269277D01*
X89950635Y-55857100D01*
X90014858Y-56450416D01*
X90046073Y-57047862D01*
X90043937Y-57648076D01*
X90008107Y-58249692D01*
X89938239Y-58851347D01*
X89833990Y-59451678D01*
X89695016Y-60049321D01*
X89520976Y-60642912D01*
X89311524Y-61231087D01*
X89066318Y-61812484D01*
X88785015Y-62385737D01*
X88467272Y-62949484D01*
X88112745Y-63502360D01*
X87721090Y-64043002D01*
X87577961Y-64221879D01*
X87412195Y-64416377D01*
X87229727Y-64620264D01*
X87036489Y-64827309D01*
X86838417Y-65031280D01*
X86641443Y-65225945D01*
X86451502Y-65405074D01*
X86274527Y-65562434D01*
X86090770Y-65712566D01*
X85884006Y-65868388D01*
X85657127Y-66028335D01*
X85413024Y-66190843D01*
X85154591Y-66354347D01*
X84884719Y-66517281D01*
X84322226Y-66835180D01*
X83748680Y-67132023D01*
X83464993Y-67268635D01*
X83187218Y-67395287D01*
X82918249Y-67510416D01*
X82660976Y-67612455D01*
X82418293Y-67699841D01*
X82193090Y-67771007D01*
X82193075Y-67770999D01*
X81975758Y-67825466D01*
X81718524Y-67875283D01*
X81427045Y-67920236D01*
X81106995Y-67960109D01*
X80403872Y-68023756D01*
X79654535Y-68064502D01*
X78904368Y-68080626D01*
X78198751Y-68070407D01*
X77876831Y-68054880D01*
X77583067Y-68032123D01*
X77323131Y-68001919D01*
X77102697Y-67964053D01*
X76515023Y-67822839D01*
X75936498Y-67648623D01*
X75368679Y-67442569D01*
X74813123Y-67205845D01*
X74271385Y-66939615D01*
X73745022Y-66645046D01*
X73235590Y-66323303D01*
X72744644Y-65975552D01*
X72273742Y-65602958D01*
X71824439Y-65206687D01*
X71398291Y-64787905D01*
X70996855Y-64347778D01*
X70621686Y-63887471D01*
X70274341Y-63408150D01*
X69956376Y-62910980D01*
X69669348Y-62397128D01*
X69469055Y-61992261D01*
X69286435Y-61583270D01*
X69121417Y-61170606D01*
X68973930Y-60754719D01*
X68843903Y-60336059D01*
X68731266Y-59915076D01*
X68635947Y-59492221D01*
X68557877Y-59067944D01*
X68496985Y-58642694D01*
X68453199Y-58216923D01*
X68416664Y-57365615D01*
X68447708Y-56517622D01*
X68545765Y-55676544D01*
X68710269Y-54845984D01*
X68940654Y-54029543D01*
X69236355Y-53230822D01*
X69408522Y-52839232D01*
X69596806Y-52453423D01*
X69801136Y-52073845D01*
X70021441Y-51700947D01*
X70257651Y-51335181D01*
X70509695Y-50976996D01*
X70777502Y-50626842D01*
X71061001Y-50285171D01*
X71360123Y-49952431D01*
X71674795Y-49629073D01*
X72065316Y-49258625D01*
X72461722Y-48913282D01*
X72864661Y-48592776D01*
X73274779Y-48296834D01*
X73692725Y-48025184D01*
X74119146Y-47777557D01*
X74554689Y-47553680D01*
X75000002Y-47353283D01*
X75455732Y-47176095D01*
X75922527Y-47021844D01*
X76401035Y-46890258D01*
X76891902Y-46781068D01*
X77395776Y-46694001D01*
X77913306Y-46628787D01*
X78445137Y-46585154D01*
X78991919Y-46562831D01*
X79333040Y-46558380D01*
X79657763Y-46560119D01*
D11*
%TO.C,R101*%
X87060000Y-80620000D03*
X87060000Y-95620000D03*
%TD*%
D12*
%TO.C,D101*%
X91998000Y-69181189D03*
X86782000Y-70578812D03*
%TD*%
D11*
%TO.C,J101*%
X70540000Y-42960000D03*
%TD*%
D13*
%TO.C,D102*%
X71798000Y-70578812D03*
X66582000Y-69181189D03*
%TD*%
D11*
%TO.C,J102*%
X87130000Y-43180000D03*
%TD*%
%TO.C,R102*%
X71980000Y-80620000D03*
X71980000Y-95620000D03*
%TD*%
M02*
