<?xml version="1.0" encoding="UTF-8" standalone="no"?>
<!-- Created with Inkscape (http://www.inkscape.org/) -->

<svg
   xmlns:dc="http://purl.org/dc/elements/1.1/"
   xmlns:cc="http://creativecommons.org/ns#"
   xmlns:rdf="http://www.w3.org/1999/02/22-rdf-syntax-ns#"
   xmlns:svg="http://www.w3.org/2000/svg"
   xmlns="http://www.w3.org/2000/svg"
   xmlns:sodipodi="http://sodipodi.sourceforge.net/DTD/sodipodi-0.dtd"
   xmlns:inkscape="http://www.inkscape.org/namespaces/inkscape"
   width="143.34566mm"
   height="156.86186mm"
   viewBox="0 0 143.34566 156.86186"
   version="1.1"
   id="svg8"
   inkscape:version="0.92.3 (2405546, 2018-03-11)"
   sodipodi:docname="raketenpinguin.svg">
  <defs
     id="defs2" />
  <sodipodi:namedview
     id="base"
     pagecolor="#ffffff"
     bordercolor="#666666"
     borderopacity="1.0"
     inkscape:pageopacity="0.0"
     inkscape:pageshadow="2"
     inkscape:zoom="1.4"
     inkscape:cx="14.197161"
     inkscape:cy="478.66516"
     inkscape:document-units="mm"
     inkscape:current-layer="layer1"
     showgrid="false"
     showguides="true"
     inkscape:window-width="1920"
     inkscape:window-height="1031"
     inkscape:window-x="0"
     inkscape:window-y="25"
     inkscape:window-maximized="1"
     fit-margin-top="0"
     fit-margin-left="0"
     fit-margin-right="0"
     fit-margin-bottom="0">
    <sodipodi:guide
       position="-116.16783,-71.670382"
       orientation="0,1"
       id="guide837"
       inkscape:locked="false" />
  </sodipodi:namedview>
  <metadata
     id="metadata5">
    <rdf:RDF>
      <cc:Work
         rdf:about="">
        <dc:format>image/svg+xml</dc:format>
        <dc:type
           rdf:resource="http://purl.org/dc/dcmitype/StillImage" />
        <dc:title></dc:title>
      </cc:Work>
    </rdf:RDF>
  </metadata>
  <g
     inkscape:label="Layer 1"
     inkscape:groupmode="layer"
     id="layer1"
     transform="translate(-21.673786,-43.521333)">
    <path
       style="fill:#020202;stroke-width:0.47812769"
       d="m 321.05664,-28.724609 c -1.78311,0.01928 -3.53167,0.506137 -5.44141,1.402343 -11.58988,5.43896 -30.85643,27.31452273 -42.98046,48.800782 -10.68095,18.928834 -15.06086,33.774216 -14.70313,49.824218 0.43988,19.73418 3.44275,60.415946 6.41406,86.896486 l 0.34766,3.09961 -3.52734,6.60351 c -13.49831,25.26872 -18.97298,43.33506 -21.55664,71.14258 -0.56306,6.06025 -0.54971,7.78647 0.0605,7.88281 0.25795,0.0408 2.22558,-2.1793 4.37305,-4.93359 4.53556,-5.81681 9.25864,-10.28309 14.53711,-13.74805 4.15444,-2.72693 12.34942,-6.41013 13.00586,-5.8457 0.25103,0.21581 1.14909,5.68033 1.99609,12.14453 1.62814,12.42599 2.05457,14.23233 3.5957,15.24414 0.30992,0.20337 5.57922,0.33129 14.30665,0.38672 v 5.14063 c -0.70412,0.46994 -1.29519,2.34776 -3.23047,9.65039 -6.98218,26.34595 -9.91926,38.27485 -9.50977,38.62695 0.24816,0.21354 19.97562,0.26931 43.83789,0.12305 23.86224,-0.14627 43.80794,-0.29008 44.32422,-0.32032 1.39854,-0.0816 1.28748,-0.90613 -1.48242,-10.98632 -1.35084,-4.916 -4.20581,-15.30964 -6.34571,-23.09766 -2.13985,-7.78802 -4.12468,-14.28303 -4.41015,-14.43164 -0.004,-0.002 -0.10676,-0.004 -0.11524,-0.006 v -5.07031 c 9.75449,-0.18011 14.21207,-0.41469 14.70508,-0.78516 1.66409,-1.25038 2.13867,-3.33018 3.5586,-15.55469 0.71289,-6.13742 1.57321,-11.30671 1.91015,-11.48828 0.84235,-0.45381 7.26827,2.2638 11.96875,5.0625 4.8319,2.87698 11.55974,9.08144 15.92774,14.6875 2.12859,2.73196 3.19219,3.81374 3.69922,3.76563 0.49923,-0.0472 0.48697,-2.43428 -0.0391,-7.99805 -1.82154,-19.30571 -5.59947,-34.5613 -12.55078,-50.66992 -2.84447,-6.59158 -9.64472,-19.97375 -11.99219,-23.59961 -1.40012,-2.16259 -1.43031,-3.02471 -0.47851,-13.62109 3.15417,-35.11491 5.06877,-79.838569 3.84375,-89.755864 C 383.26011,44.908212 374.31913,25.254052 360.71094,6.2226562 352.24665,-5.6149034 344.32542,-14.278603 335.41602,-21.443359 c -6.34616,-5.103435 -10.43654,-7.323663 -14.35938,-7.28125 z m 35.54883,33.333984 c 0.89512,0.105146 1.78782,1.1713067 3.99219,4.2929688 12.57146,17.8029542 21.02915,36.8632312 22.85742,51.5097652 1.10525,8.85439 -0.23306,43.900121 -3.05274,79.939451 -1.83477,23.45263 -9.07179,94.75747 -10.42773,102.74414 -0.29405,1.73277 -0.91522,3.5932 -1.38086,4.13477 -0.73194,0.85122 -6.92004,1.0267 -45.66602,1.28711 -24.65045,0.16554 -45.03751,0.11223 -45.30468,-0.11719 -0.2671,-0.22979 -0.80795,-2.59902 -1.20117,-5.26562 v -0.002 c -1.81838,-12.33139 -5.45065,-41.38289 -8.58399,-68.66601 -6.11241,-53.22357 -9.44194,-102.401705 -7.76367,-114.666019 1.32886,-9.71091 5.88349,-22.506175 12.11719,-34.044922 3.71184,-6.870735 9.79055,-16.5969495 11.9375,-19.099609 l 1.47656,-1.71875 4.54297,1.1308594 c 10.9793,2.7354708 26.8688,3.6379553 42.85937,2.4335937 9.16585,-0.6903836 19.14468,-2.3270343 22.65235,-3.7167969 0.34759,-0.1377203 0.64694,-0.2108299 0.94531,-0.1757812 z M 322.42188,160.63867 c -0.44651,0.11806 -0.90553,1.20455 -1.3125,3.24414 -1.92715,9.65844 -3.80185,28.96648 -3.97461,40.93164 -0.11226,7.76849 0.91438,23.95354 1.85937,29.33203 1.4355,8.17002 3.39139,13.28746 4.56055,11.92774 0.76112,-0.88517 2.80041,-9.63107 3.45117,-14.80078 2.24988,-17.87328 0.82381,-46.91677 -3.3418,-68.06641 -0.36168,-1.83636 -0.79568,-2.68642 -1.24218,-2.56836 z m 20.86132,95.74024 c 5.55243,0.003 9.34612,0.0335 9.63477,0.0976 0.89722,0.19956 1.82984,3.09085 6.59375,20.46485 3.05136,11.12825 5.77401,21.04949 6.05078,22.04687 0.288,1.03809 0.24137,2.0319 -0.10938,2.32617 -0.62044,0.52044 -83.65313,1.28711 -84.62304,0.78125 -0.3066,-0.15987 1.89398,-9.6071 5.28906,-22.70312 5.06575,-19.54027 5.94376,-22.45176 6.81641,-22.59961 1.2006,-0.20353 33.69037,-0.42457 50.34765,-0.41406 z"
       transform="matrix(0.26458333,0,0,0.26458333,21.673786,43.521333)"
       id="path852"
       inkscape:connector-curvature="0" />
    <path
       inkscape:connector-curvature="0"
       id="path852-7"
       d="m 151.6728,73.56309 c 1.14932,-0.333522 3.1679,-1.425825 4.08144,-2.208572 0.44937,-0.385066 1.10034,-1.068795 1.44657,-1.519431 4.37688,-5.696752 2.35882,-13.714186 -4.17953,-16.604686 -1.59723,-0.706103 -2.68323,-0.915086 -4.54964,-0.875485 -2.95719,0.06271 -5.24889,1.023082 -7.31713,3.066244 -3.4392,3.397509 -4.2364,8.473062 -2.00544,12.768059 1.44555,2.782958 4.27745,4.90386 7.43335,5.566926 1.06022,0.222766 4.04788,0.109455 5.09038,-0.193055 z m -3.97607,-0.349145 c -0.4822,-0.235138 -0.96886,-0.831831 -1.66376,-2.03996 -0.67676,-1.176602 -1.20353,-1.897885 -1.34875,-1.84677 -0.0695,0.02445 -0.36441,0.614934 -0.65528,1.312131 -0.29088,0.697196 -0.5908,1.289424 -0.66648,1.316069 -0.26195,0.09219 -2.4363,-1.71396 -2.44155,-2.028116 -0.003,-0.157922 0.64864,-0.801874 1.30101,-1.286381 l 0.35274,-0.261981 -0.1643,-1.217742 c -0.23559,-1.74626 -0.26357,-4.90609 -0.0554,-6.252368 0.67692,-4.37702 2.77651,-6.681396 6.12888,-6.726695 1.79819,-0.02405 3.0326,0.443254 4.14316,1.569286 1.89288,1.91922 2.80622,5.739806 2.53131,10.588741 -0.0945,1.666496 -0.0844,1.847693 0.1086,1.959289 0.64364,0.372119 1.46021,1.086376 1.46344,1.280094 0.006,0.381022 -2.14541,2.337187 -2.57886,2.344432 -0.10193,0.0017 -0.45156,-0.558901 -0.82004,-1.314781 -0.3533,-0.724758 -0.69374,-1.316898 -0.75654,-1.315842 -0.0628,0.001 -0.65324,0.751852 -1.31209,1.668463 -0.68963,0.959425 -1.40417,1.808065 -1.68402,2.000063 -0.62964,0.43196 -1.32278,0.524796 -1.8821,0.252062 z m 1.8412,-1.120752 c 0.82668,-0.830486 3.09608,-4.144927 3.18154,-4.646626 0.16523,-0.969893 -0.22781,-1.388403 -1.44973,-1.543734 -0.40627,-0.05162 -1.1116,-0.263835 -1.56739,-0.471548 -1.02545,-0.467311 -1.26229,-0.465251 -2.24418,0.0195 -0.43067,0.212615 -0.9964,0.428903 -1.25719,0.480639 -1.07116,0.212512 -1.6341,0.850579 -1.46752,1.663387 0.0469,0.228615 0.49967,1.0824 1.00626,1.897277 0.50658,0.814891 1.10468,1.785375 1.32911,2.156621 0.76925,1.272565 1.51176,1.406234 2.46912,0.44447 z m -0.22924,-4.98049 c -0.15664,-0.151457 -0.0942,-0.420166 0.0984,-0.423383 0.10538,-0.0017 0.19163,0.109239 0.19394,0.24982 0.004,0.251995 -0.12928,0.331269 -0.29232,0.17358 z m -1.73253,-0.203002 c -0.002,-0.105382 0.10926,-0.191611 0.2498,-0.19397 0.14054,-0.0024 0.25438,0.08006 0.25612,0.185521 0.002,0.105382 -0.10926,0.191612 -0.24979,0.19397 -0.14054,0.0024 -0.25437,-0.08006 -0.25613,-0.185519 z m -2.03966,-2.113335 c -0.88056,-0.969805 -0.87734,-2.70109 0.007,-3.513066 0.98019,-0.900381 2.3424,0.223788 2.3971,1.978226 0.0238,0.764817 0.1331,0.847743 0.33215,0.252042 0.23094,-0.691207 0.27218,-1.934565 0.0921,-2.775585 -0.58444,-2.729118 -2.68415,-3.759869 -3.8951,-1.912107 -0.7826,1.194142 -0.8669,3.432043 -0.18324,4.86434 0.40057,0.839193 1.04553,1.548921 1.40219,1.542943 0.20964,-0.0035 0.18975,-0.06078 -0.15174,-0.436839 z m 4.32727,-0.36044 c -0.0582,-0.120785 -0.13253,-0.589282 -0.1653,-1.041058 -0.0734,-1.012066 0.27086,-1.806425 0.94859,-2.188673 1.2752,-0.71922 2.52625,1.100542 1.87705,2.730331 -0.27588,0.692563 -0.20731,0.791039 0.20427,0.293345 0.51402,-0.62158 0.84532,-1.842189 0.82529,-3.040689 -0.0228,-1.363631 -0.31825,-2.216662 -0.99424,-2.870418 -0.47803,-0.462262 -0.61794,-0.528321 -1.10176,-0.519813 -0.68581,0.01192 -1.23953,0.347088 -1.72789,1.045513 -0.59307,0.848185 -0.80029,1.675618 -0.77833,3.107859 0.0172,1.110466 0.0624,1.352993 0.37172,1.986519 0.19377,0.396888 0.41848,0.720506 0.49934,0.719152 0.0945,-0.0016 0.10929,-0.08084 0.0413,-0.222101 z m 1.99584,-2.407385 c -0.005,-0.31803 -0.056,-0.376902 -0.32066,-0.372593 -0.36038,0.006 -0.48642,0.354485 -0.2344,0.648036 0.25915,0.301927 0.56233,0.151435 0.55519,-0.275563 z m -4.82161,0.116277 c 0.16744,-0.276007 -0.1863,-0.675507 -0.48952,-0.553441 -0.19933,0.08034 -0.26627,0.602669 -0.0981,0.765323 0.14235,0.137634 0.44111,0.02983 0.5879,-0.212141 z m -7.18464,6.38053 c -2.89024,-4.63918 -1.57257,-10.803895 2.98118,-13.947478 1.74403,-1.203946 3.48398,-1.752113 5.68262,-1.790287 0.81283,-0.01405 1.73611,0.0539 2.27903,0.167884 3.9861,0.836826 7.15094,3.950433 8.07614,7.945402 0.24911,1.075651 0.25582,3.357104 0.0128,4.364803 -0.37511,1.555676 -1.31555,3.615306 -1.72636,3.780877 -0.0949,0.03821 -0.51499,-0.185067 -0.93363,-0.496201 l -0.76119,-0.565708 0.0258,-2.574981 c 0.0501,-4.99824 -0.76633,-8.046021 -2.6557,-9.913436 -2.33693,-2.309787 -6.33055,-2.23703 -8.61005,0.156884 -2.07526,2.179396 -2.7792,6.088785 -2.13451,11.854341 l 0.0847,0.757721 -0.75981,0.613677 c -0.4179,0.337518 -0.80406,0.614414 -0.85816,0.615314 -0.0541,8.92e-4 -0.37044,-0.435039 -0.70294,-0.968801 z"
       style="fill:#020202;stroke-width:0.12650461"
       sodipodi:nodetypes="csscsccscccscsccsccsscsscssccccsccccscccssssssscscccccccsccscccccccccsccsscscssccscccccccssccccsccccccccc" />
  </g>
</svg>
