M48
; DRILL file {KiCad 6.0.0-rc1-unknown-65cbf2d2b7~144~ubuntu18.04.1} date Do 27 Jan 2022 22:02:02 CET
; FORMAT={-:-/ absolute / metric / decimal}
; #@! TF.CreationDate,2022-01-27T22:02:02+01:00
; #@! TF.GenerationSoftware,Kicad,Pcbnew,6.0.0-rc1-unknown-65cbf2d2b7~144~ubuntu18.04.1
; #@! TF.FileFunction,NonPlated,1,2,NPTH
FMAT,2
METRIC
; #@! TA.AperFunction,NonPlated,NPTH,ComponentDrill
T1C2.200
%
G90
G05
T1
X22.6Y9.4
X25.8Y2.8
X29.1Y9.4
X32.3Y9.3
X32.3Y6.075
X32.375Y2.9
X35.45Y6.075
X35.6Y22.2
X37.175Y2.85
X37.2Y9.3
X38.7Y15.8
X40.4Y9.425
X40.4Y6.05
X40.4Y2.825
X42.0Y22.2
X45.125Y9.25
X45.21Y2.89
X45.25Y6.05
X45.3Y19.0
X46.8Y22.3
X46.8Y15.75
X48.44Y9.355
X50.1Y22.3
X50.1Y15.8
X51.6Y19.0
X51.68Y2.89
X51.7Y9.415
X54.85Y9.3
X54.9Y22.3
X54.9Y15.8
X58.025Y9.3
X58.1Y6.05
X58.2Y2.9
X59.8Y15.8
X61.4Y6.0
X62.95Y9.3
X62.95Y2.85
X63.0Y22.3
X63.0Y15.8
X66.25Y2.8
X66.3Y9.275
X67.8Y15.8
X69.5Y9.4
X69.5Y2.9
X74.25Y9.35
X74.35Y2.9
X77.55Y9.3
X77.55Y3.025
X80.75Y9.35
T0
M30
